<svg height="24" viewBox="0 0 24 24" width="24" xmlns="http://www.w3.org/2000/svg"><g fill="none" fill-rule="evenodd" transform="matrix(.70710678 .70710678 -.70710678 .70710678 12 -10.627417)"><path d="m0 0h32v32h-32z"/><path d="m24 17.3333333h-6.6666667v6.6666667c0 .7363797-.5969536 1.3333333-1.3333333 1.3333333-.7363797 0-1.3333333-.5969536-1.3333333-1.3333333v-6.6666667h-6.6666667c-.73637967 0-1.33333333-.5969536-1.33333333-1.3333333 0-.7363797.59695366-1.3333333 1.33333333-1.3333333h6.6666667v-6.6666667c0-.73637967.5969536-1.33333333 1.3333333-1.33333333.7363797 0 1.3333333.59695366 1.3333333 1.33333333v6.6666667h6.6666667c.7363797 0 1.3333333.5969536 1.3333333 1.3333333 0 .7363797-.5969536 1.3333333-1.3333333 1.3333333z" fill="#545e6f" fill-rule="nonzero"/></g></svg>