<svg height="24" viewBox="0 0 24 24" width="24" xmlns="http://www.w3.org/2000/svg"><path d="m19.5697039 5.10955711c-.9375854-1.56643357-2.2100228-2.80652681-3.8173121-3.72027972s-3.3580866-1.37062937-5.261959-1.37062937c-1.90387244 0-3.6594533.45687646-5.26674259 1.37062937-1.6072893.91375291-2.87972666 2.15384615-3.81731208 3.72027972s-1.40637813 3.27738928-1.40637813 5.12820509c0 2.2284383.66492027 4.2284383 1.99954442 6.009324 1.33462414 1.7808858 3.05671982 3.0116551 5.17107061 3.6923077.24396356.0466201.42574032.0139861.5453303-.0932401.11958998-.1072261.17699317-.2377622.17699317-.4009324 0-.027972 0-.2657342-.0047836-.7179487-.0047836-.4522144-.0047836-.8484848-.0047836-1.1841492l-.31571754.0512821c-.20091116.037296-.45444191.051282-.75580866.04662-.30615034-.004662-.62186788-.037296-.94715262-.0932401-.33006833-.055944-.63143508-.1911421-.91366742-.4009324-.28223235-.2097902-.48314351-.4801864-.60273349-.8205128l-.13872437-.3076923c-.09088838-.2051282-.23439636-.4289044-.43052392-.6806527-.19612756-.2470862-.39225513-.4149184-.59316629-.5034965l-.09567198-.065268c-.06218679-.0466201-.12437357-.0979021-.17699316-.1585082-.05261959-.060606-.09567199-.1258741-.12437358-.1864802-.0287016-.060606-.0047836-.1118881.06697039-.1538461.07175398-.0419581.20569476-.0606061.39703872-.0606061l.27266515.0419581c.18177676.037296.40660592.1398601.67448747.3216783.26788155.1771562.48792711.4102564.66013667.6899767.21047836.3636363.46400912.6433566.75580866.8298368.29658314.1911422.59316629.2843823.89453303.2843823s.55968109-.02331.77972665-.0652681c.22004556-.04662.42095672-.1118881.61230068-.2004662.08132119-.5967366.30615035-1.053613.66970388-1.3706294-.5166287-.051282-.98542142-.1351981-1.40159454-.2377622-.41617312-.1072261-.84191344-.2797203-1.28200455-.5174825-.44009112-.2377623-.80842825-.5361306-1.10022779-.8904429-.29179955-.3543124-.5309795-.8205128-.71753987-1.3986014-.18656036-.5780886-.28223234-1.2400932-.28223234-1.995338 0-1.07226107.35876993-1.98601398 1.08109339-2.74125874-.33485193-.80652681-.30615034-1.71095571.09567198-2.71328671.26309795-.07925408.65535308-.01864802 1.17676538.18181818s.89931663.37296037 1.13849658.51282051c.23917996.13986014.43530752.26107226.57881549.35897436.84669704-.22843823 1.72209567-.34498834 2.6214123-.34498834.8993166 0 1.7747153.11655011 2.6214123.34498834l.5166287-.31701632c.3539863-.21445221.7749431-.41025641 1.2580866-.58741258.4831435-.17715618.8514806-.22843823 1.1050114-.14452215.4113895 1.002331.4448747 1.90675991.1100227 2.71328672.7175399.75524475 1.0810934 1.66899766 1.0810934 2.74125874 0 .75524479-.095672 1.42191139-.2822323 2.00466199-.1865604.5827506-.4257403 1.0489511-.7223235 1.3986014-.2965831.3496504-.6649203.6480187-1.1050114.8857809s-.870615.4149184-1.2820045.5174825c-.4161731.1072261-.8801823.1864802-1.4015946.2377623.4735764.4009324.7079727 1.030303.7079727 1.8881118v2.8065268c0 .1585082.0574032.2937063.1722096.4009324.1148064.1072262.2917995.1398602.5405467.0932401 2.1143508-.6853146 3.8364464-1.9160839 5.1710706-3.6923077 1.3346241-1.7808857 1.9995444-3.7808857 1.9995444-6.009324.0047836-1.85081581-.4640091-3.56177152-1.4015945-5.12820509z" fill="#fff" transform="translate(2 2)"/></svg>