<svg height="741" width="742" xmlns="http://www.w3.org/2000/svg"><g fill="#fff"><path d="m371.246 181.253c-6.524 0-12.975.335-19.334.984a187.787 187.787 0 0 0 -54.348 13.965 189.366 189.366 0 0 0 -16.576 8.004 190.514 190.514 0 0 0 -15.642 9.518 191.967 191.967 0 0 0 -51.31 51.262 190.292 190.292 0 0 0 -9.528 15.628 188.999 188.999 0 0 0 -8.012 16.559 187.31 187.31 0 0 0 -13.98 54.295 189.597 189.597 0 0 0 -.983 19.314c0 6.518.332 12.962.983 19.315a187.727 187.727 0 0 0 7.578 36.902 187.925 187.925 0 0 0 6.402 17.395 188.997 188.997 0 0 0 8.012 16.558 191.347 191.347 0 0 0 32.736 43.703 191.507 191.507 0 0 0 28.102 23.186 190.514 190.514 0 0 0 15.642 9.518 189.366 189.366 0 0 0 16.576 8.003 187.787 187.787 0 0 0 35.559 11.082 188.24 188.24 0 0 0 18.79 2.885c6.358.65 12.809.983 19.333.983s12.973-.333 19.332-.983a188.24 188.24 0 0 0 36.94-7.572 188.305 188.305 0 0 0 17.41-6.395 189.328 189.328 0 0 0 16.574-8.003 190.547 190.547 0 0 0 15.644-9.518 192 192 0 0 0 40.367-36.66 191.347 191.347 0 0 0 20.471-30.229 188.994 188.994 0 0 0 8.012-16.558 187.308 187.308 0 0 0 13.98-54.297c.651-6.353.985-12.797.985-19.315s-.334-12.961-.984-19.314a187.682 187.682 0 0 0 -7.579-36.9 187.92 187.92 0 0 0 -6.402-17.395 188.996 188.996 0 0 0 -8.012-16.559 190.292 190.292 0 0 0 -9.527-15.629 191.314 191.314 0 0 0 -23.209-28.074 192 192 0 0 0 -28.102-23.187 190.547 190.547 0 0 0 -15.644-9.518 189.328 189.328 0 0 0 -16.574-8.004 187.826 187.826 0 0 0 -54.35-13.965 190.12 190.12 0 0 0 -19.332-.984zm0 65.418c4.313 0 8.57.216 12.766.637 4.195.42 8.326 1.047 12.383 1.869a124.12 124.12 0 0 1 11.937 3.04 123.52 123.52 0 0 1 32.545 15.548 123.638 123.638 0 0 1 18.361 15.113 123.66 123.66 0 0 1 15.127 18.342 123.308 123.308 0 0 1 11.406 21.09 123.229 123.229 0 0 1 4.157 11.422 123.838 123.838 0 0 1 3.045 11.927c.822 4.053 1.45 8.18 1.87 12.371.422 4.191.637 8.444.637 12.752 0 4.309-.215 8.564-.636 12.754a125.141 125.141 0 0 1 -1.871 12.371 123.838 123.838 0 0 1 -3.045 11.928 123.228 123.228 0 0 1 -22.692 42.057 123.662 123.662 0 0 1 -16.804 16.787 123.457 123.457 0 0 1 -42.1 22.67 124.119 124.119 0 0 1 -11.937 3.04 125.484 125.484 0 0 1 -12.383 1.87 127.81 127.81 0 0 1 -12.766.637c-4.312 0-8.573-.216-12.767-.637a125.444 125.444 0 0 1 -12.381-1.87 123.516 123.516 0 0 1 -44.482-18.588 123.633 123.633 0 0 1 -18.362-15.112 123.66 123.66 0 0 1 -15.127-18.344 123.138 123.138 0 0 1 -15.563-32.51 123.844 123.844 0 0 1 -3.044-11.928c-.823-4.053-1.45-8.18-1.872-12.37-.421-4.191-.636-8.446-.636-12.755 0-4.308.215-8.56.636-12.752.422-4.19 1.049-8.318 1.872-12.37a123.844 123.844 0 0 1 3.044-11.928 123.232 123.232 0 0 1 22.692-42.057 123.658 123.658 0 0 1 16.805-16.787 123.459 123.459 0 0 1 42.098-22.67 124.158 124.158 0 0 1 11.939-3.041 125.447 125.447 0 0 1 12.38-1.87c4.195-.42 8.456-.636 12.768-.636zm197.404-119.332a44.881 44.881 0 0 0 -8.974.908 44.933 44.933 0 0 0 -16.533 7.035 45.206 45.206 0 0 0 -9.88 9.266 45.47 45.47 0 0 0 -6.718 11.789 45.685 45.685 0 0 0 -3.07 16.477 45.772 45.772 0 0 0 5.53 21.802 45.53 45.53 0 0 0 5.093 7.493 45.358 45.358 0 0 0 10.144 8.97 45.1 45.1 0 0 0 12.324 5.553 44.922 44.922 0 0 0 12.084 1.656 44.881 44.881 0 0 0 21.659-5.566 45.206 45.206 0 0 0 7.445-5.127 45.384 45.384 0 0 0 11.156-14.154 45.624 45.624 0 0 0 4.916-20.627 45.772 45.772 0 0 0 -5.531-21.801 45.53 45.53 0 0 0 -5.094-7.494 45.358 45.358 0 0 0 -6.469-6.326 45.181 45.181 0 0 0 -15.998-8.196 44.922 44.922 0 0 0 -12.084-1.658z"/><path d="m335.27.007c-20.633-.033-39.049.052-55.59.287-16.542.235-31.209.62-44.346 1.188-13.137.567-24.745 1.314-35.164 2.277a433.993 433.993 0 0 0 -14.781 1.61c-4.66.591-9.064 1.24-13.258 1.95-4.194.711-8.178 1.484-11.992 2.32-3.815.838-7.462 1.74-10.983 2.712a193.765 193.765 0 0 0 -19.967 6.691c-6.383 2.529-12.61 5.367-19.021 8.545-4.933 2.445-9.492 4.926-13.822 7.55a149.193 149.193 0 0 0 -12.45 8.417c-4.017 3.023-7.95 6.3-11.947 9.94-3.996 3.64-8.056 7.644-12.322 12.12-5.33 5.593-9.963 10.807-14.074 15.92a168.733 168.733 0 0 0 -5.795 7.627 144.74 144.74 0 0 0 -9.752 15.623 159.706 159.706 0 0 0 -4.213 8.409c-2.705 5.807-5.23 12.064-7.748 19.044a218.283 218.283 0 0 0 -5.018 15.68 222.928 222.928 0 0 0 -4.035 17.174c-1.192 6.115-2.235 12.69-3.148 19.94-.913 7.248-1.695 15.17-2.362 23.976-.666 8.806-1.216 18.499-1.668 29.287-.451 10.788-.803 22.673-1.072 35.867s-.456 27.697-.574 43.721c-.118 16.024-.168 33.57-.168 52.848 0 28.95.158 54.454.488 76.85.33 22.395.832 41.682 1.52 58.2.344 8.26.733 15.827 1.172 22.745.438 6.917.926 13.183 1.463 18.843.536 5.66 1.123 10.712 1.761 15.2.639 4.487 1.329 8.41 2.073 11.81a266.365 266.365 0 0 0 5.334 20.523 232.783 232.783 0 0 0 6.726 19.155 208.13 208.13 0 0 0 8.133 17.804 191.487 191.487 0 0 0 9.553 16.477 182.217 182.217 0 0 0 10.988 15.172 179.86 179.86 0 0 0 12.437 13.889 184.25 184.25 0 0 0 13.899 12.625 195.71 195.71 0 0 0 15.377 11.384c4.928 3.293 9.8 6.31 14.713 9.077a184.32 184.32 0 0 0 14.953 7.564 177.748 177.748 0 0 0 15.762 6.19c5.451 1.849 11.131 3.492 17.136 4.953 6.005 1.46 12.334 2.74 19.082 3.857 6.749 1.118 13.915 2.075 21.596 2.896 7.68.822 15.877 1.506 24.68 2.077 8.803.57 18.215 1.026 28.33 1.392 15.62.565 39.267.896 66.537 1.026s58.164.058 88.277-.178c30.113-.237 59.445-.638 83.594-1.172 12.074-.267 22.853-.566 31.785-.895 8.932-.328 16.018-.683 20.707-1.064 4.446-.361 8.77-.79 12.99-1.291 4.221-.501 8.338-1.075 12.368-1.725 4.029-.65 7.97-1.376 11.841-2.183a241.086 241.086 0 0 0 11.418-2.668 228.755 228.755 0 0 0 21.963-6.898 237.77 237.77 0 0 0 10.746-4.28 257.996 257.996 0 0 0 10.721-4.871c5.496-2.647 9.923-4.855 13.805-7.014 3.882-2.158 7.22-4.267 10.537-6.71 3.317-2.445 6.615-5.225 10.418-8.727 3.802-3.503 8.11-7.727 13.447-13.06 4.689-4.687 8.643-8.761 12.055-12.466 3.412-3.704 6.283-7.04 8.803-10.252s4.689-6.3 6.7-9.51c2.013-3.209 3.868-6.538 5.757-10.236 2.841-5.562 5.373-10.711 7.636-15.681 2.264-4.97 4.258-9.762 6.022-14.612a161.275 161.275 0 0 0 4.636-14.96c1.342-5.203 2.493-10.7 3.49-16.727.998-6.028 1.843-12.585 2.575-19.91s1.353-15.419 1.898-24.514c.546-9.095 1.015-19.193 1.452-30.531.436-11.338.838-23.917 1.244-37.97.391-13.561.685-27.758.888-42.28s.315-29.37.342-44.233c.055-29.726-.226-59.513-.795-86.875-.284-13.68-.641-26.754-1.062-38.912-.421-12.157-.907-23.397-1.451-33.41-.545-10.013-1.15-18.8-1.805-26.047-.656-7.247-1.364-12.956-2.117-16.816a284.105 284.105 0 0 0 -2.785-12.73 261.795 261.795 0 0 0 -3.292-12.247c-1.18-4-2.447-7.92-3.796-11.758a225.56 225.56 0 0 0 -4.301-11.271 211.328 211.328 0 0 0 -4.805-10.781 199.744 199.744 0 0 0 -5.31-10.295c-1.854-3.35-3.791-6.62-5.813-9.807a183.333 183.333 0 0 0 -6.318-9.316 178.45 178.45 0 0 0 -6.82-8.828 175.676 175.676 0 0 0 -15.151-16.186 176.348 176.348 0 0 0 -8.328-7.357 179.86 179.86 0 0 0 -8.832-6.866 185.503 185.503 0 0 0 -9.334-6.375 193.283 193.283 0 0 0 -9.834-5.884 203.443 203.443 0 0 0 -10.338-5.39c-5.803-2.82-11.171-5.323-16.437-7.544-5.267-2.221-10.431-4.163-15.823-5.863-5.391-1.7-11.01-3.157-17.19-4.412-6.178-1.256-12.915-2.308-20.542-3.196-7.627-.887-16.143-1.611-25.88-2.209-9.736-.597-20.692-1.069-33.2-1.453s-26.567-.68-42.508-.927c-15.941-.248-33.763-.447-53.799-.636-25.41-.239-48.26-.39-68.892-.424zm35.779 65.36c35.268-.008 70.563.18 99.347.564 14.393.192 27.158.432 37.479.722 10.32.29 18.197.631 22.813 1.02a316.86 316.86 0 0 1 17.218 1.902 236.37 236.37 0 0 1 15.686 2.707 183.27 183.27 0 0 1 14.306 3.575 149.526 149.526 0 0 1 13.082 4.503 130.134 130.134 0 0 1 12.012 5.493 122.323 122.323 0 0 1 11.098 6.547 124.901 124.901 0 0 1 10.338 7.658 138.47 138.47 0 0 1 9.73 8.834c3.333 3.32 6.41 6.698 9.248 10.191a111.46 111.46 0 0 1 7.826 10.883 110.16 110.16 0 0 1 6.516 11.918c1.967 4.184 3.736 8.6 5.326 13.303 1.59 4.702 3 9.691 4.252 15.027 1.251 5.336 2.344 11.016 3.295 17.1.952 6.083 1.763 12.57 2.453 19.517s1.262 14.354 1.73 22.28c.377 6.357.703 14.745.983 24.654s.512 21.34.695 33.783c.368 24.887.545 53.826.532 82.752s-.216 57.84-.606 82.674c-.195 12.417-.438 23.815-.726 33.685-.289 9.87-.624 18.212-1.006 24.518-.695 11.472-1.423 21.116-2.301 29.51-.44 4.196-.915 8.08-1.443 11.724a195.749 195.749 0 0 1 -1.756 10.282c-.646 3.234-1.358 6.3-2.15 9.269a135.46 135.46 0 0 1 -2.635 8.691 151.675 151.675 0 0 1 -3.205 8.545 211.509 211.509 0 0 1 -3.862 8.834 131.428 131.428 0 0 1 -3.812 7.598 122.623 122.623 0 0 1 -4.221 7.178 116.259 116.259 0 0 1 -4.633 6.761 110.541 110.541 0 0 1 -10.535 12.291c-1.9 1.914-3.87 3.761-5.916 5.541a113.802 113.802 0 0 1 -6.357 5.143 118.927 118.927 0 0 1 -6.809 4.748 126.368 126.368 0 0 1 -7.262 4.36 136.562 136.562 0 0 1 -7.726 3.976 149.58 149.58 0 0 1 -8.198 3.598 165.685 165.685 0 0 1 -8.673 3.22c-5.943 2.024-12.209 3.8-18.807 5.336s-13.529 2.833-20.8 3.893c-2.683.391-8.858.76-17.698 1.101-8.84.343-20.346.657-33.69.938-26.687.562-60.73.992-95.515 1.24-34.786.248-70.314.317-99.973.156-14.83-.08-28.192-.217-39.26-.417-11.067-.2-19.84-.464-25.494-.795a744.619 744.619 0 0 1 -18.797-1.32 441.785 441.785 0 0 1 -16.347-1.659 279.523 279.523 0 0 1 -14.278-2.09 191.29 191.29 0 0 1 -12.584-2.613 145.095 145.095 0 0 1 -11.265-3.227 125.63 125.63 0 0 1 -10.324-3.933 127.272 127.272 0 0 1 -9.76-4.735 152.524 152.524 0 0 1 -9.572-5.625 144.312 144.312 0 0 1 -7.002-4.736 128.365 128.365 0 0 1 -6.51-5.01c-2.09-1.72-4.1-3.491-6.033-5.318a110.396 110.396 0 0 1 -5.57-5.652 107.208 107.208 0 0 1 -9.811-12.434 111.736 111.736 0 0 1 -4.272-6.844 119.473 119.473 0 0 1 -3.867-7.299 131.565 131.565 0 0 1 -3.48-7.789 148.323 148.323 0 0 1 -3.104-8.304c-1.949-5.717-3.659-11.799-5.148-18.287-1.49-6.489-2.76-13.384-3.83-20.725s-1.94-15.13-2.63-23.404c-.507-6.096-.912-15.593-1.22-27.592s-.52-26.5-.646-42.6c-.252-32.2-.157-70.8.214-108.597.372-37.797 1.019-74.79 1.871-103.77.427-14.49.906-26.977 1.426-36.56.26-4.792.53-8.857.81-12.084.281-3.228.57-5.617.868-7.055.98-4.723 1.966-9.116 2.984-13.23 1.019-4.115 2.07-7.95 3.178-11.557a146.272 146.272 0 0 1 3.522-10.19 111.8 111.8 0 0 1 4.02-9.129 99.381 99.381 0 0 1 4.667-8.377c1.681-2.7 3.497-5.326 5.47-7.93a129.752 129.752 0 0 1 6.425-7.79 188.044 188.044 0 0 1 7.53-7.96c3.293-3.295 6.566-6.333 9.872-9.136a124.272 124.272 0 0 1 10.076-7.72c3.43-2.353 6.947-4.49 10.61-6.436 3.662-1.946 7.469-3.7 11.474-5.281 4.005-1.582 8.21-2.993 12.668-4.254 4.458-1.262 9.168-2.373 14.188-3.358 5.02-.984 10.349-1.843 16.04-2.594 5.692-.75 11.748-1.394 18.221-1.955 4.513-.39 12.298-.734 22.541-1.029 10.244-.294 22.945-.54 37.285-.738 28.682-.396 63.925-.598 99.194-.606z"/></g></svg>