<svg height="34" width="34" xmlns="http://www.w3.org/2000/svg"><g fill="none"><path d="m21.845 2.252c-.51-1.572-2.21-2.422-3.782-1.912-1.573.51-2.423 2.21-1.913 3.782l7.735 23.843a3.019 3.019 0 0 0 3.655 1.87c1.573-.468 2.55-2.168 2.04-3.698 0-.085-7.735-23.884-7.735-23.884z" fill="#e9a823"/><path d="m9.818 6.162c-.51-1.572-2.21-2.422-3.783-1.912-1.572.51-2.423 2.21-1.913 3.783l7.736 23.842a3.019 3.019 0 0 0 3.654 1.87c1.573-.467 2.55-2.167 2.04-3.697 0-.085-7.734-23.885-7.734-23.885z" fill="#3fb991"/><path d="m31.578 22.015c1.572-.51 2.422-2.21 1.912-3.782-.51-1.573-2.21-2.423-3.783-1.913l-23.841 7.735a3.019 3.019 0 0 0 -1.87 3.655c.468 1.572 2.167 2.55 3.697 2.04.085 0 23.886-7.735 23.886-7.735z" fill="#e11765"/><path d="m10.838 28.73c1.572-.51 3.57-1.148 5.694-1.87-.51-1.572-1.147-3.57-1.87-5.695l-5.695 1.87 1.87 5.695z" fill="#472a49"/><path d="m22.865 24.82c2.168-.68 4.165-1.36 5.695-1.87-.51-1.572-1.147-3.57-1.87-5.695l-5.695 1.87z" fill="#cd2027"/><path d="m27.668 9.988c1.572-.51 2.422-2.21 1.912-3.783-.51-1.572-2.21-2.422-3.782-1.912l-23.8 7.734a3.019 3.019 0 0 0 -1.87 3.655c.467 1.573 2.167 2.55 3.697 2.04.042 0 23.843-7.735 23.843-7.735z" fill="#71cbdc"/><path d="m6.928 16.745c1.572-.51 3.57-1.148 5.695-1.87-.68-2.168-1.36-4.165-1.87-5.695l-5.653 1.87z" fill="#1d947e"/><path d="m18.955 12.835c2.168-.68 4.165-1.36 5.695-1.87-.68-2.168-1.36-4.165-1.87-5.695l-5.695 1.87z" fill="#66873a"/></g></svg>