<svg enable-background="new 0 0 90 90" viewBox="0 0 90 90" xmlns="http://www.w3.org/2000/svg"><path d="m70.9 65.8h-4.9v-2.9c0-1.3 1-2.3 2.3-2.3h.3c1.3 0 2.3 1 2.3 2.3zm-18.5-6.1c-1.3 0-2.3.8-2.3 1.9v14c0 1 1 1.9 2.3 1.9s2.3-.8 2.3-1.9v-14c0-1.1-1-1.9-2.3-1.9zm30.1-7.8v26.5c0 6.4-5.5 11.6-12.3 11.6h-50.4c-6.8 0-12.3-5.2-12.3-11.6v-26.5c0-6.4 5.5-11.6 12.3-11.6h50.5c6.7 0 12.2 5.2 12.2 11.6zm-59.4 29.4v-28h6.3v-4.1h-16.7v4.1h5.2v28zm18.8-23.8h-5.2v14.9c0 2.2.1 3.2 0 3.6-.4 1.2-2.3 2.4-3.1.1-.1-.4 0-1.6 0-3.6v-15h-5.2v14.8c0 2.3-.1 4 0 4.7.1 1.4.1 2.9 1.3 3.8 2.3 1.7 6.8-.3 8-2.7v3.1h4.2zm16.7 17.1v-12.4c0-4.7-3.5-7.6-8.4-3.7v-9.2h-5.2v31.9l4.3-.1.4-2c5.4 5 8.9 1.5 8.9-4.5zm16.3-1.6h-3.9v.5 2.2c0 1.2-1 2.1-2.1 2.1h-.8c-1.2 0-2.1-1-2.1-2.1v-.2-2.5-3h9v-3.4c0-2.5-.1-4.9-.3-6.3-.6-4.5-6.9-5.2-10.1-2.9-1 .7-1.7 1.7-2.2 2.9-.4 1.3-.7 3-.7 5.3v7.4c0 12.3 15 10.6 13.2 0zm-20.1-40.3c.3.7.7 1.2 1.3 1.6s1.3.6 2.1.6 1.4-.2 2-.6 1.1-1 1.5-1.9l-.1 2h5.8v-24.7h-4.6v19.3c0 1-.9 1.9-1.9 1.9s-1.9-.9-1.9-1.9v-19.3h-4.8v16.7c0 2.1 0 3.5.1 4.3.1.7.3 1.4.5 2zm-17.6-13.9c0-2.4.2-4.2.6-5.6.4-1.3 1.1-2.4 2.1-3.2s2.3-1.2 3.9-1.2c1.3 0 2.5.3 3.5.8s1.7 1.2 2.2 2 .9 1.7 1.1 2.6.3 2.2.3 4v6.3c0 2.3-.1 4-.3 5.1s-.6 2.1-1.1 3c-.6.9-1.3 1.6-2.2 2.1-.9.4-2 .7-3.2.7-1.3 0-2.4-.2-3.4-.6-.9-.4-1.6-1-2.1-1.7-.5-.8-.9-1.7-1.1-2.8s-.3-2.7-.3-4.9zm4.6 9.8c0 1.4 1 2.5 2.3 2.5s2.3-1.1 2.3-2.5v-13.2c0-1.4-1-2.5-2.3-2.5s-2.3 1.1-2.3 2.5zm-16.1 6.6h5.5v-19l6.5-16.2h-6l-3.4 12.1-3.6-12.1h-5.9l6.9 16.3z" fill="#fff"/></svg>