<svg height="227" viewBox="0 0 377 227" width="377" xmlns="http://www.w3.org/2000/svg"><g fill="none"><path d="m376.1 114.6c0 55.3-44.8 100.1-100.1 100.1s-100.1-44.8-100.1-100.1 44.8-100.1 100.1-100.1 100.1 44.8 100.1 100.1z" fill="#0994d9"/><path d="m.1 39.5c-.3-2.4.7-3.4 3-4.1 0 0 88.3-30.8 102.4-35 .3-.1.6-.2.8-.2.5-.1 1.4-.2 1.9 0 9.8 2.7 96.8 33.2 103.3 35.2 2.3.7 3.3 1.8 3 4.1-1.2 8.3-16 129.6-16 134.4-.2 2.3-1 3.8-3.1 5 0 0-78.9 43.9-87.5 47.1-.3.1-1.1.1-1.5-.1-7.9-3-62-33.2-87.2-47.1-2.1-1.2-2.8-2.7-3.1-5-1.1-9.1-16-134.3-16-134.3z" fill="#ff5858"/><path d="m83.3 138.7c-7.6 0-5.7-.3-8.3 5.5-3.8 8.3-7.8 16.6-11.6 25-1 2.2-1.5 2.5-3.2 2.5h-20c1.2-2.8 2.7-5.8 4-8.5 19-42.2 57.8-126.7 62.6-136.3.3-.5.6-.5.9 0 7.9 17.3 66.3 143.9 66.6 144.8h-20c-2.4 0-2.1-.1-2.9-2.1-4.3-9.5-8.8-19.2-13.1-28.8-.4-.8-.9-2.1-4-2.1-1 .1-44 0-51 0zm45-19.9c-.1-.8-19.3-41.5-20.9-44.9-.1-.1-.1-.1-.2 0-1.1 2.2-17.8 39.2-20.1 44.9zm154.8 53.4c-15.5 0-30-5.9-40.9-16.7s-16.9-25.3-16.9-40.7c0-15.5 6-30 16.9-40.9s25.5-16.9 40.9-16.9c14.9 0 26.9 4.6 38.7 14.9 1 .9 3.6 3.4 3.6 3.4s-2.4 2.4-3.4 3.3l-6.8 6.9c-2.5 2.7-3.3 2.7-6.2.1-7.2-6.3-16.8-10-25.8-10-10.2 0-19.6 4.1-26.7 11.5-6.9 7.3-10.7 17-10.7 27.2s3.8 19.9 10.8 27.2c7.1 7.4 16.6 11.5 26.7 11.5 11.3 0 18.9-5 25.7-9.9 2.9-2.1 3-2.5 5.8-.1l.1.1 7.1 7c.8.7 3.2 3.1 3.2 3.1s-2.4 2.5-3.3 3.4c-10.3 10.2-23.8 15.6-38.8 15.6z" fill="#fff"/></g></svg>