<svg height="512" width="512" xmlns="http://www.w3.org/2000/svg" xmlns:xlink="http://www.w3.org/1999/xlink"><clipPath id="a"><path d="m0 540.362h512v512h-512z"/></clipPath><path d="m0 0h512v512h-512z" fill="#378fe7" fill-rule="evenodd"/><path clip-path="url(#a)" d="m-78.521 672.549c1.003-.124 2.005-.259 3.019-.392.031 11.65.114 23.3.02 34.939-.3 4.124 1.127 8.105 1.169 12.177-1.21 5.665-1.345 11.454-.827 17.2 4.58.176 9.014 1.345 13.459 2.378.32 2.326.538 4.651.795 6.988 2.078.992 4.156 1.964 6.234 2.987.951 17.593-2.62 193.1 2.822 209.887 2.987 8.208 1.116 17.109 1.437 25.636l3.938-.031c.597-9.865 3.034.391 2.843-38.868 2.75-.258 5.499-.496 8.259-.775.217-1.86.465-3.711.744-5.55 2.75.04 5.5.051 8.26.04.764 3.474 3.193 5.872 6.667 6.616.31 8.57-.197 17.15.34 25.719.693-.01 2.1-.032 2.792-.052-.032-23.083 0-46.165.206-69.248 11.278-.476 22.587-.404 33.865.155.416 19.763-1.904 19.065 5.096 23.237 1.593-122.222-4.054-95.083 8.25-105.41.816-9.024-.61-18.152.475-27.166 1.582-3.7 4.053-6.998 5.5-10.792 1.095 2.078 2.18 4.176 3.287 6.264 6.14-.207 12.28-.073 18.42.041.145 1.737.29 3.484.445 5.22l2.688-.03c.289-1.83.6-3.66.94-5.49 1.479-.02 2.978-.031 4.477-.062.648 11.474-.384 66.238.196 88.945 2.709.073 5.427.042 8.146-.01.135 18.7-.476 37.41.269 56.09 3.256.051 4.513 0 7.78-.053.134 3.37.247 6.74.37 10.11 2.823.103 5.655.145 8.488.186-3.613-11.465-.184-1.189-1.954-56.482 1.478-23.9-.95-47.882.569-71.75 15.537-.248 33.083-.062 48.63-.197 1.169 14.472.104 125.457.104 125.457l3.384.087s6.19-83.333 9.279-83.989c18.548 4.209 14.133 1.467 14.244 22.256 7.474-.217 14.958-.176 22.422.352.062 1.54.144 3.08.227 4.62 9.574 6.368 2.504 4.685 12.493 5.593.092 28.188.237 26.525.237 26.525l4.17 17.004s-.206-41.172.28-61.743c7.37-.93 13.976-5.013 21.356-5.675 8.383 1.737 16.953 1.189 25.45 1.303.372 17.211-.227 34.433.352 51.634 5.82-.97.267-75.576 2.687-96.819.826-.196 21.826-5.211 24.323-6.884 1.116-2.026 1.902-4.207 2.832-6.326a282.481 282.481 0 0 0 3.402 4.724c12.756-1.137 25.522-.176 38.299-.052.724 28.21.248 147.03.248 147.03l6.037.026s.392-58.041.61-56.056c7.742.197 19.495.238 27.248.01-.02-6.967-.445-13.934.062-20.891 4.982.093 9.986.176 14.978-.145.093-5.344-.444-10.792.92-16.022 1.572-5.975 1.324-12.322 3.339-18.204 2.212-4.113 4.176.098 12.792-21.418 2.12-4.91-.894-10.41.264-15.526.662-2.915 1.2-5.851 1.613-8.818 1.622 2.14 2.595 4.662 2.367 7.39 0 0 19.065-101.385 19.291 5.305-.016 6.075-.044 91.027-.044 91.027l4.188.021 3.507 43.573 83.39-.062.033-25.193 25.85-.497s3.006-2.211 4.722-4.103c2.657 2.078 5.52 4.207 9.097 3.959.331-69.952-3.743-81.682 14.637-85.294-.01-2.367-.03-4.734-.02-7.101 1.778-1.137 3.555-2.337 5.53-3.164 2.698 2.491.703 6.678 2.005 9.78.797 1.757 1.85 3.38 2.667 5.138 1.303 2.584 1.478 6.274 5.024 6.636 1.137-1.447 1.55-4.176 3.876-4.114 16.307-1.01 6.087 1.276 25.058 4.114.01 5.313-.01 10.637.02 15.95 4.177.33 8.363.445 12.56.486.414 14.906-.094 29.823.217 44.74 2.037.815 4.073 1.653 6.12 2.51.485 7 .289 14.018.547 21.037 1.168-.011 2.346-.021 3.535-.021 5.245-22.711 5.028-18.99 29.4-18.731 1.436.155 3.42-.103 4.062 1.581 3.649 8.994 8.094 17.977 8.27 27.91-.094 3.567 4.093 5.542 3.762 9.18.052 22.153-.393 44.316.227 66.467 3.494.093 6.999.093 10.513 0 .207-9.654-.29-19.33.238-28.975 4-.186 8.011-.238 12.022-.3.135-3.287.3-6.563.538-9.84 4.548.03 9.097.02 13.656.082.44 50.257-1.332 51.22 2.615 51.633.813-15.474.157-118.91.176-119.017 2.595-4.63 8.549-2.687 12.818-3.762 10.243-3.343 20.54-1.397 23.651.713 2.398 1.323 3.742 3.803 5.107 6.078 10.533-.672 21.067.517 31.61.289 1.548 5.424.849 34.102.816 34.93 6.802-.342 13.615-.021 20.427-.26.527-3.37 1.106-6.728 1.933-10.036 3.432 4.135 2.77 10.327 6.688 14.141 5.288 6.977 3.33-4.215 3.938 60.256 5.913.65 11.133-2.812 17.005-2.688.535-16.049-.82-75.356-.073-100.841 6.037-.372 12.094-.062 18.11.671a135.026 135.026 0 0 0 5.81-7.794c3.72 2.481 8.084 3.535 12.55 3.411.3 1.354.62 2.709.97 4.073 4.56.052 9.128.28 13.687.703.527 5.81.465 11.64.248 17.46 7.308.041 13.624 4.424 20.902 4.92 1.385 1.954 3.235 3.484 5.416 4.518 1.096 7.38.507 14.824.527 22.245 8.993-.413 17.987-1.085 27.001-.517.509-14.157-.335-79.022.248-111.69 6.089-.258 12.197-.185 18.307-.216-.062-6.161.703-12.291.548-18.442 6.646-.259 13.303-.041 19.96-.135 2.502-8.468-.23-7.016 10.203-8.27.165-16.663-.6-33.43 1.168-50.021 2.266 4.818 1.644 33.32 1.757 49.66 3.68.485 6.699 2.574 9.304 5.096 2.346 2.346 6.357 2.667 8.373 5.097.893 6.719.266 97.487.424 195.561 4.155.114 8.32.114 12.497.01.162-10.339-.451-80.764.517-91.019 3.484-.134 6.978-.32 10.472-.62.196-6.078-1.003-12.467 1.56-18.214 5.944-.072 11.899-.093 17.853.156.692 5.85.578 11.732.28 17.604 7.649 5.002 5.699-3.25 5.819 35.745 6.306-.155 12.632-.35 18.948.145.765 7.37.03 14.76.248 22.132 3.328 1.106 6.833 1.592 10.213 2.574-.01 4.745-.31 9.49 0 14.245 4.259.093 8.528.083 12.797.155-.098-6.634-.677-75.573.465-82.253 6.595.218 13.273-.371 19.847.528 5.355 1.447 10.658 3.297 16.281 3.463.083 1.974.166 3.949.31 5.933 2.988-.072 5.996-.165 9.014-.248 0-3.214-.01-6.43.03-9.633 4.374-.693 8.798-.662 13.212-.238.238 1.457.506 2.904.817 4.352 4.103.041 8.218.062 12.342.062.165-2.12.31-4.248.455-6.368 4.486 0 8.983-.145 13.48-.186 0 0 .701 69.461.31 103.741 1.447-.04 2.904-.073 4.393-.093.649-13.639-.206-146.95.145-151.262 4.776-.32 9.562-.28 14.348-.093-.26-10.525-.373-74.272.073-82.604 8.238-.59 16.498-.207 24.747.093.196-3.576.062-7.164.083-10.74-.155-2.698 2.264-4.673 2.429-7.288-.559-11.67-.393-23.351-.713-35.042.268-3.205-.848-7.205 1.892-9.614 11.271-11.54 4.747-4.728 6.946-55.055a192.764 192.764 0 0 1 3.402-2.554c.268 16.57-.6 33.162.093 49.722-.507 5.283 6.48 7.153 6.346 12.26.103 13.138.227 26.297-.578 39.415-.445 3.556 4.29 4.765 4.176 8.156.135 5.85-.362 11.69-.31 17.553 1.799-.207 3.629-.414 5.469-.6.103-3.846-.259-7.732.393-11.537 1.53-3.287 5.51-3.794 8.486-5.189 4.634-1.475 7.47-6.083 21.109-3.535 10.328 3.692 1.089-3.273 4.341 200.03 10.937-.061 21.894-.216 32.831.31.362 13.708-.3 27.425.104 41.143 1.064.165 2.14.34 3.246.517-.228-6.999-.186-14.007-.186-21.005.765.02 2.284.052 3.038.062.041 7.473-.217 14.937.073 22.4 15.754.806 7.35.106 19.33-2.729 1.416-22.612-2.41-114.415 2.492-116.728 4.486-.651 9.076-.372 13.614-.662.28-1.178.58-2.367.91-3.546 3.442-.28 6.48-1.85 8.765-4.455a284.536 284.536 0 0 0 3.95 4.083c19.514-1.36 19.386 1.56 27.96-1.923 2.368.92 4.798 1.716 7.268 2.44.65 1.23 1.303 2.48 2.15 3.638 2.564.754 2.926-2.46 4.032-4.031.744-.053 1.52-.104 2.326-.156.32 1.22.661 2.45 1.023 3.67 1.882.227 3.773.455 5.696.692.451 7.805.268 70.782.114 80.35 1.365-.01 2.75-.03 4.165-.061.6-5.324-1.726-11.991 2.76-16.096 3.07-3.484 8.436-5.189 9.5-10.182.434-5.49.962-11.309-1.136-16.53 1.086-1.333 2.284-2.604 3.163-4.114.6-3.473-.227-7.143.9-10.502 2.48-2.636 6.16-3.525 9.19-5.386 1.984-6.563-1.23-13.417.537-20.064 1.096-4.61-2.325-8.311-3.803-12.363 1.012-2.956 2.346-6.264 5.044-8.064 6.838-.155 4.92 1.78 4.951 167.25h-2114.98v-185.517c1.56 1.365 3.08 2.925 5.085 3.638 1.613-.671 3.08-1.633 4.58-2.501 1.074 1.488 2.098 3.028 3.266 4.455 3.297-.476 5.262-3.7 7.753-5.613 3.68 4.011 8.352 6.74 13.107 9.262 1.292 3.029.62 6.564 1.044 9.8 1.53-.382 3.246-.703 3.897-2.346 3.535-6.678 7.867-13.386 7.815-21.232.413.31 1.25.93 1.675 1.24 1.136 7.484 4.476 14.327 8.135 20.88 16.21 29.497 10.176 15.805 11.66 29.307 1.324.279 2.657.547 3.98.806.646 7.69.316 51.664.207 59.129 1.768.279 3.535.547 5.303.836.733 1.127 1.033 2.667 2.243 3.422 3.803.321 7.64.166 11.454.238.072-3.194-.032-6.398.258-9.592.33-3.473 1.995-6.699 2.037-10.213.372-6.554-1.137-13.5 1.88-19.64.87-2.915 3.898-3.98 6.338-5.221-1.51-20.505 8.695-29.964 11.96-29.275 5.748.733 10.41 5.013 13.314 9.83 2.16 3.897 6.017 6.337 8.674 9.82.888 3.909.589 7.98 1.033 11.95 4.486-.568 8.508-3.287 13.118-2.925 10.864-.124 21.75.248 32.582-.434.672-7.773-1.447-16.405 2.76-23.424 1.52-.806 3.215-1.178 4.838-1.695.63-17.23 2.583-2.764 2.77-26.66 1.283-1.023 2.575-2.036 3.856-3.05-.35-6.13 3.587-11.804 1.56-17.903h2.626c-1.963 6.099 1.872 11.805 1.54 17.924 1.261 1.024 2.533 2.037 3.804 3.06.02 5.045-.786 10.296 1.013 15.155 1.065 2.998 1.106 6.233 2.067 9.251 1.406 2.864 3.194 5.551 4.104 8.642 2.13 5.82.485 12.105 1.416 18.1 2.82 4.957 1.682 2.982 25.088 2.947.041-28.241-.269-56.483.134-84.715 1.944-.186 3.887-.362 5.83-.548l.652-5.5c3.184-.836 6.368-1.653 9.613-2.2.403-1.158.795-2.317 1.189-3.464 1.85-1.22 4.61-1.964 5.054-4.445 3.319-11.364 6.477-4.429 13.583-4.806 6.688-.197 13.542 1.147 20.023-1.117 4.373-1.374 5.748 4.218 6.202 7.402 3.267.217 6.554.32 9.841.351 2.781 3.463 2.234 7.939 2.172 12.074 2.057 0 4.114 0 6.171-.01.3-1.303.59-2.595.88-3.897 5.405.31 10.936-.517 16.28.392 2.884 2.026 5.769 4.25 9.521 4.083-.602 26.18-.646 132.038-.217 144.364 1.809.248 3.638.486 5.468.724.569.93 1.137 1.86 1.716 2.79 4.755 1.375 9.49 3.536 14.575 2.543-.072-36.945.393-73.89-.052-110.838a89.043 89.043 0 0 0 9.842-6.378c3.359 2.812 7.328 4.673 11.102 6.843.798 1.388.315 56.22.31 57.051 5.664-.382 11.35-.186 17.035-.124.093 3.494-.29 7.06.392 10.523 1.148 1.81 3.526 3.07 3.411 5.468.228 4.29.021 8.59.29 12.88 6.646.28 13.293.413 19.94.33-.165-20.033.114-40.066-.165-60.1 4-.072 8.011-.093 12.022-.082.28-5.52-.33-11.04-.062-16.56 1.52-.3 3.05-.61 4.59-.92-1.398-94.25 1.358-40.527 2.408-85.476 7.856-3.132 17.138-3.473 24.84.269 1.003 5.747.165 11.619.527 17.418.145 2.843 1.82 5.324 2.046 8.156.372 5.881-.114 11.784.124 17.676.124 4.538 2.347 8.715 2.42 13.273.382 9.79-.115 19.59.134 29.379 1.56-.052 3.122-.103 4.693-.176.134-4.6.227-9.21.196-13.81 2.616-.156 5.23-.29 7.846-.435.176-2.429.094-4.91.672-7.287 5.066-9.885 3.293 14.324 3.525-95.687 3.091-1.013 6.048-2.419 9.2-3.235 2.254-.073 4.425.879 6.699.734 6.078-.93 12.156.733 18.266.04.227 2.14.517 4.27.868 6.39a56.096 56.096 0 0 0 2.729-4.3c3.194-.073 6.398-.042 9.613-.094.145-10.967-.868-21.945.135-32.903a238.656 238.656 0 0 1 6.057-2.377c.33-1.882.651-3.763 1.024-5.624 4.373-.91 8.683-2.078 13.024-3.111 1.078-21.037-.142-42.146.85-63.192z" fill="#1869ba" transform="translate(0 -540.362)"/><path d="m405.156 362.432 26.844-232.713-176-62.763-176 62.763 26.844 232.713 149.156 82.612z" fill="#dd0031"/><path d="m432 129.719-176-62.763v41.968-.19 336.31l149.156-82.612z" fill="#c3002f"/><path d="m256 108.735-110.024 246.702h41.024l22.118-55.2h93.388l22.118 55.2h41.023zm32.137 157.473h-64.274l32.137-77.318 32.137 77.32z" fill="#fff"/><path d="m427.034 511.003v-243.82h9.158v-14.308h5.723v-10.875l22.322-57.234 22.083 57.234v10.875h5.541l.144 14.308h8.763v244.68h-73.735m-411.349.16v-344.267h8.585v-39.779h2.862v62.386h7.011v25.47h10.589v20.604h6.868v5.151h5.15v-42.925h3.292v30.906h9.73v12.019h9.444v270.435z" fill="#1869ba" fill-rule="evenodd"/></svg>