<svg display="block" height="420.875421" width="400" xmlns="http://www.w3.org/2000/svg"><g fill-rule="evenodd"><path d="m127.273 54.005c-43.241 14.104-78.824 25.721-79.073 25.814-.538.201 31.05 214.015 31.715 214.672 1.148 1.134 126.928 88.699 127.282 88.611.231-.058 28.978-20.061 63.88-44.452l63.459-44.346 15.908-107.13c8.749-58.921 15.865-107.166 15.813-107.211-.435-.373-158.917-51.671-159.544-51.642-.451.021-36.2 11.579-79.44 25.684m162.289 19.894c33.797 11.433 61.553 20.885 61.681 21.003.246.228-19.21 115.88-19.559 116.264-.166.182-103.951-157.007-104.373-158.08-.072-.182.08-.251.337-.154.256.098 28.118 9.533 61.914 20.967m-106.665-13.17c-28.393 43.184-99.238 150.652-99.283 150.607-.179-.179-19.647-115.865-19.548-116.161.117-.351 122.092-41.872 123.208-41.941.396-.024-.959 2.296-4.377 7.495m-149.664 7.216-2.611 2.626.102 5.539.102 5.54.075-5.548.075-5.548 2.602-2.617c1.431-1.44 2.526-2.617 2.433-2.617-.092 0-1.343 1.181-2.778 2.625m347.407.068c1.473 1.482 2.753 2.694 2.846 2.694.092 0-1.037-1.212-2.51-2.694-1.472-1.481-2.753-2.693-2.846-2.693-.092 0 1.037 1.212 2.51 2.693m-172.124 5.135c1.004 1.528 26.941 41.566 57.639 88.973 30.697 47.408 55.92 86.347 56.05 86.532.312.443-4.136 37.124-4.548 37.503-.5.461-106.24 74.113-106.401 74.113-.08 0-.145-9.015-.145-20.033 0-11.019.114-20.035.253-20.037.139-.001 10 .995 21.915 2.215s21.741 2.14 21.836 2.044c.096-.095-1.222-3.504-2.929-7.574-1.706-4.071-3.048-7.545-2.981-7.72.067-.176 9.894-8.371 21.839-18.212 11.944-9.841 21.752-18.006 21.796-18.143.043-.138-2.8-1.896-6.317-3.908-3.518-2.012-6.478-3.791-6.578-3.953-.133-.215 7.674-21.79 10.129-27.993.214-.541.144-.55-.898-.115-4.15 1.734-27.057 4.191-28.746 3.085-1.484-.972-3.17-5.993-3.185-9.482-.009-2.146-.3-2.013-2.437 1.12-4.473 6.554-19.559 21.636-21.643 21.636-1.409 0 1.609-26.79 5.178-45.96.517-2.778.914-5.089.881-5.136-.032-.048-1.333.77-2.89 1.818-5.301 3.563-11.19 5.785-12.41 4.682-2.549-2.307-10.922-17.405-16.021-28.887-1.39-3.132-1.526-3.2-2.18-1.096-1.285 4.13-13.082 26.07-17.343 32.252-.376.546-.996.131-6.71-4.494-3.463-2.803-6.34-5.044-6.394-4.98-.055.065 1.461 11.781 3.367 26.038 1.907 14.256 3.414 25.973 3.35 26.037s-.622-.422-1.24-1.08c-14.414-15.342-24.064-25.371-24.236-25.186-.12.129-.944 3.075-1.832 6.547l-1.614 6.313-1.199-.007c-.659-.004-6.729-.747-13.488-1.652s-12.324-1.612-12.365-1.572c-.102.097 3.741 13.855 6.297 22.544 1.136 3.863 2.019 7.063 1.962 7.111-.056.048-2.494 1.495-5.416 3.216-2.922 1.72-5.271 3.235-5.219 3.365s8.958 8.157 19.791 17.836c10.834 9.679 20.36 18.205 21.171 18.947l1.473 1.348-1.719 6.414c-.946 3.528-1.668 6.466-1.604 6.529.063.063 9.414-.712 20.779-1.723 11.366-1.011 20.687-1.81 20.714-1.777.107.133-1.281 40.136-1.397 40.251-.068.069-20.624-14.167-45.679-31.635-25.056-17.468-49.245-34.329-53.753-37.47-4.508-3.14-8.255-5.873-8.326-6.074-.071-.2-1.112-8.541-2.314-18.536l-2.184-18.171 3.608-5.594c29.181-45.242 112.084-173.033 112.257-173.039.127-.004 1.053 1.242 2.056 2.77m-142.018 232.576c1.659 1.667 3.092 3.03 3.185 3.03s-1.189-1.363-2.848-3.03-3.092-3.03-3.185-3.03c-.092 0 1.189 1.363 2.848 3.03" fill="#fff"/><path d="m207.744 24.943v2.98l8.165 2.661c4.491 1.464 40.211 13.083 79.377 25.821 39.167 12.737 71.272 23.208 71.345 23.268s-7.045 48.448-15.817 107.528l-15.95 107.418-62.971 43.976c-34.634 24.187-63.241 44.233-63.573 44.548-.512.486-.587 1.056-.505 3.816l.097 3.244 65.994-46.104c44.852-31.334 66.074-46.348 66.246-46.869.518-1.565 32.927-221.254 32.672-221.471-.204-.174-117.471-38.403-158.093-51.538l-6.987-2.259zm20.6 28.903c.605 1.575 103.166 156.559 103.27 156.055.939-4.563 19.404-114.509 19.259-114.673-.153-.174-63.757-21.786-117.815-40.033-2.651-.895-4.772-1.502-4.714-1.349m-20.6 71.895v52.811l3.98 8.115c5.503 11.218 10.4 19.69 12.437 21.515 1.216 1.089 8.965-2.143 13.261-5.531 1.522-1.2 2.461-1.29 2.195-.21-.5 2.029-2.986 16.713-3.891 22.98-2.281 15.808-3.109 27.74-1.857 26.779 8.097-6.22 17.443-15.83 21.292-21.893 1.93-3.039 2.209-2.947 2.517.838.534 6.548 2.275 9.009 6.176 8.732 12.387-.881 20.808-1.979 24.365-3.178 2.353-.793 2.355-.793 2.347-.251-.003.231-2.35 6.697-5.216 14.368s-5.174 13.972-5.129 14.003 2.997 1.709 6.56 3.729c3.982 2.259 6.479 3.873 6.482 4.191.002.371-39.259 33.158-43.338 36.191-.377.281.101 1.692 2.584 7.624 1.676 4.003 3.047 7.523 3.047 7.82 0 .731 1.241.821-22.707-1.641-11.656-1.198-21.241-2.13-21.3-2.071-.058.058-.068 8.837-.02 19.507l.087 19.401 52.862-36.844c36.169-25.209 52.942-37.086 53.115-37.613.379-1.153 4.361-34.995 4.211-35.782-.108-.562-112.867-175.078-113.772-176.082-.16-.177-.288 23.193-.288 52.492" fill="#c11718"/><path d="m123.949 48.824c-45.438 14.796-82.663 26.949-82.72 27.007-.112.112 32.782 221.874 32.927 221.988 2.379 1.867 132.575 92.521 132.915 92.547.413.031.522-.592.601-3.413.09-3.264.059-3.451-.581-3.451-.816 0-127.966-88.774-127.966-89.344 0-.219-7.122-48.343-15.825-106.942-8.704-58.599-15.825-106.789-15.825-107.091 0-.568 157.822-52.201 159.512-52.186.73.007.757-.103.757-3.023 0-2.669-.07-3.028-.589-3.012-.324.01-37.767 12.124-83.206 26.92m1.304 25.722-60.775 20.615.068.988c.117 1.682 19.053 113.432 19.264 113.684.11.13 21.865-32.654 48.346-72.854 58.398-88.652 54.779-83.113 54.28-83.077-.225.016-27.758 9.306-61.183 20.644m80.548-2.585c-8.407 12.008-114.696 177.246-114.632 178.207.433 6.479 4.243 35.261 4.73 35.731.8.771 106.53 74.41 106.657 74.284.096-.096 1.446-39.088 1.356-39.181-.022-.023-9.332.786-20.689 1.798-11.357 1.011-20.738 1.75-20.846 1.642-.109-.109.575-3.08 1.519-6.603l1.717-6.405-1.578-1.457c-.867-.802-10.365-9.307-21.106-18.901-10.74-9.593-19.573-17.695-19.628-18.003-.072-.408 1.359-1.419 5.244-3.7l5.343-3.139-2.648-9.127c-3.368-11.607-5.752-20.418-5.573-20.596.076-.077 5.204.533 11.394 1.355 6.191.822 12.249 1.596 13.464 1.719l2.209.226 1.676-6.522c1.286-5.004 1.799-6.521 2.207-6.521.291 0 5.96 5.743 12.596 12.762 6.636 7.02 12.115 12.613 12.176 12.43.097-.29-6.006-46.936-6.523-49.856-.33-1.863.588-1.363 6.931 3.781 4.43 3.591 6.097 4.765 6.336 4.461 2.718-3.467 14.497-25.126 16.934-31.137 1.168-2.882 1.645-3.307 2.266-2.02.265.548.372-13.781.388-51.883.023-51.36.007-52.661-.621-53.46l-.645-.819z" fill="#e51b1e"/><path d="m186.843 210.185c.967 1.097.846 1.068 1.399.337.379-.5.375-.526-.024-.171-.38.339-.633.275-1.33-.337l-.861-.755zm-25.564 21.296c1.566 1.575 2.923 2.862 3.016 2.862.092 0-1.113-1.287-2.679-2.862-1.566-1.574-2.923-2.861-3.015-2.861-.093 0 1.113 1.287 2.678 2.861m5.724 6.061c1.566 1.574 2.923 2.862 3.016 2.862.092 0-1.113-1.288-2.679-2.862s-2.923-2.862-3.015-2.862c-.093 0 1.112 1.288 2.678 2.862m78.11 4.798-4.204 4.293 4.293-4.204c3.988-3.905 4.446-4.382 4.204-4.382-.049 0-1.981 1.932-4.293 4.293m-72.386 1.263c1.566 1.574 2.923 2.862 3.016 2.862.092 0-1.113-1.288-2.679-2.862s-2.923-2.862-3.015-2.862c-.093 0 1.112 1.288 2.678 2.862m66.649 4.124-1.161 1.263 1.263-1.16c1.175-1.08 1.418-1.365 1.16-1.365-.056 0-.624.568-1.262 1.262m-60.748 2.107c1.662 1.761 3.091 3.157 3.175 3.102s-1.275-1.496-3.021-3.201l-3.175-3.102zm-53.053 25.671c1.395 1.487 1.698 1.754 1.698 1.501 0-.054-.72-.774-1.6-1.599l-1.599-1.501zm3.213 2.946c.723.741 1.391 1.347 1.483 1.347.093 0-.423-.606-1.146-1.347-.724-.741-1.391-1.347-1.484-1.347-.092 0 .424.606 1.147 1.347m3.03 2.694c.723.741 1.391 1.347 1.484 1.347.092 0-.424-.606-1.147-1.347s-1.391-1.347-1.484-1.347c-.092 0 .424.606 1.147 1.347m3.185 2.778c1.395 1.486 1.697 1.753 1.697 1.501 0-.054-.719-.774-1.599-1.6l-1.599-1.501zm3.212 2.946c.724.74 1.391 1.346 1.484 1.346s-.423-.606-1.147-1.346c-.723-.741-1.391-1.347-1.483-1.347-.093 0 .423.606 1.146 1.347m3.185 2.777c1.395 1.487 1.698 1.754 1.698 1.502 0-.054-.72-.774-1.6-1.6l-1.599-1.501zm3.213 2.947c.723.74 1.391 1.346 1.483 1.346.093 0-.423-.606-1.147-1.346-.723-.741-1.39-1.347-1.483-1.347s.423.606 1.147 1.347m3.184 2.777c1.396 1.487 1.698 1.754 1.698 1.501 0-.054-.72-.773-1.599-1.599l-1.6-1.501zm3.213 2.946c.723.741 1.391 1.347 1.484 1.347.092 0-.424-.606-1.147-1.347-.724-.74-1.391-1.346-1.484-1.346-.092 0 .424.606 1.147 1.346m3.185 2.778c1.395 1.487 1.697 1.754 1.697 1.501 0-.054-.719-.773-1.599-1.599l-1.599-1.501zm3.212 2.946c.724.741 1.391 1.347 1.484 1.347.092 0-.424-.606-1.147-1.347-.723-.74-1.391-1.346-1.483-1.346-.093 0 .423.606 1.146 1.346m3.031 2.694c.723.741 1.391 1.347 1.483 1.347.093 0-.423-.606-1.147-1.347-.723-.741-1.39-1.347-1.483-1.347s.423.606 1.147 1.347m3.184 2.778c1.396 1.486 1.698 1.754 1.698 1.501 0-.054-.72-.774-1.599-1.599l-1.6-1.502z" fill="#e83c3f"/><path d="m47.604 79.947c-.102.267-.127.759-.054 1.094.082.38.197.198.307-.485.183-1.147.064-1.435-.253-.609m318.266-.259c.21.153.465.581.567.952.146.531.173.501.123-.142-.034-.449-.289-.877-.567-.952-.333-.09-.375-.042-.123.142m-190.371 126.373c0 .648.069.913.154.589s.085-.855 0-1.179-.154-.059-.154.59m.673 5.05c0 .648.07.913.154.589.085-.324.085-.854 0-1.178-.084-.324-.154-.059-.154.589m.674 5.051c0 .648.069.913.154.589.084-.324.084-.855 0-1.179-.085-.324-.154-.059-.154.59m.673 5.05c0 .648.069.913.154.589s.085-.854 0-1.178-.154-.059-.154.589m.674 5.051c0 .648.069.913.154.589.084-.324.084-.855 0-1.179-.085-.324-.154-.059-.154.59m79.138 4.04c0 .833.065 1.174.146.758.08-.417.08-1.099 0-1.516-.081-.416-.146-.075-.146.758m-78.465 1.01c0 .648.069.913.154.589s.085-.854 0-1.178-.154-.059-.154.589m55.556 1.684c0 .648.069.913.154.589.084-.324.084-.855 0-1.179-.085-.324-.154-.059-.154.59m-.337 2.693c0 .648.069.914.154.589.085-.324.085-.854 0-1.178s-.154-.059-.154.589m-54.546.674c0 .648.07.913.154.589.085-.324.085-.855 0-1.179-.084-.324-.154-.059-.154.59m54.216 2.525c.004.741.073 1.004.153.585.081-.419.078-1.025-.007-1.347-.084-.322-.15.021-.146.762m42.76.064c.324.084.855.084 1.179 0 .324-.085.059-.154-.59-.154-.648 0-.913.069-.589.154m-3.195.342c.419.081 1.025.078 1.347-.006.322-.085-.021-.151-.761-.147-.741.004-1.004.073-.586.153m-125.088.331c.324.085.855.085 1.179 0s.059-.154-.589-.154c-.649 0-.914.069-.59.154m121.217.01c.512.077 1.269.075 1.684-.005.414-.08-.005-.143-.931-.141-.926.003-1.265.068-.753.146m-5.223.338c.601.075 1.586.075 2.188 0 .602-.074.11-.136-1.094-.136s-1.696.062-1.094.136m-84.013 1.44c0 .648.069.913.154.589.084-.324.084-.854 0-1.178-.085-.324-.154-.059-.154.589m53.217 1.179c.002.926.068 1.264.145.753.077-.512.075-1.27-.005-1.684s-.143.005-.14.931m-52.544 3.872c0 .648.069.913.154.589s.085-.855 0-1.179-.154-.059-.154.59m52.238 2.693c0 2.13.055 3.001.121 1.936.067-1.065.067-2.807 0-3.872-.066-1.065-.121-.193-.121 1.936m88.84 1.01c0 .648.069.914.154.59.084-.324.084-.855 0-1.179-.085-.324-.154-.059-.154.589m-230.977 1.01c0 .649.069.914.154.59s.085-.855 0-1.179-.154-.059-.154.589m90.468.421c-.1.724-.049 1.136.12.967.163-.162.242-.731.175-1.262-.111-.89-.134-.867-.295.295m139.835 4.293c0 .648.07.914.154.589.085-.324.085-.854 0-1.178-.084-.324-.154-.059-.154.589m-229.629 1.01c0 .649.069.914.154.59.084-.324.084-.855 0-1.179-.085-.324-.154-.059-.154.589m229.293 1.684c0 .648.069.913.154.589.084-.324.084-.854 0-1.178-.085-.324-.154-.059-.154.589m-228.957 1.01c0 .648.07.913.154.589.085-.324.085-.854 0-1.178-.084-.324-.154-.059-.154.589m228.283 4.714c0 .648.069.913.154.589s.085-.854 0-1.178c-.085-.325-.154-.059-.154.589m-227.609 1.01c0 .648.069.913.154.589.084-.324.084-.854 0-1.178-.085-.324-.154-.059-.154.589m227.272 1.683c0 .649.07.914.154.59.085-.324.085-.855 0-1.179-.084-.324-.154-.059-.154.589m-226.936 1.01c0 .649.07.914.154.59.085-.324.085-.855 0-1.179-.084-.324-.154-.059-.154.589m226.6 1.684c0 .648.069.913.154.589.084-.324.084-.854 0-1.178-.085-.324-.154-.059-.154.589m-226.263 1.01c0 .648.069.913.154.589s.085-.854 0-1.178-.154-.059-.154.589m225.589 4.714c0 .648.07.913.154.589.085-.324.085-.854 0-1.178-.084-.324-.154-.059-.154.589m-224.915 1.01c0 .648.069.913.153.589.085-.324.085-.854 0-1.178-.084-.324-.153-.059-.153.589m224.579 1.683c0 .649.069.914.154.59.084-.324.084-.855 0-1.179-.085-.324-.154-.059-.154.589m-224.243 1.011c0 .648.07.913.154.589.085-.324.085-.855 0-1.179-.084-.324-.154-.059-.154.59m223.569 4.713c0 .649.07.914.154.59.085-.324.085-.855 0-1.179-.084-.324-.154-.059-.154.589m-103.862 36.939c.419.08 1.025.077 1.347-.007s-.021-.15-.762-.146c-.74.003-1.004.072-.585.153m-13.472.336c.417.08 1.099.08 1.515 0 .417-.08.076-.146-.757-.146-.834 0-1.174.066-.758.146m16.667-.005c.324.084.854.084 1.178 0 .324-.085.059-.154-.589-.154s-.913.069-.589.154m-20.37.342c.416.08 1.098.08 1.515 0 .416-.081.075-.146-.758-.146s-1.174.065-.757.146m23.572 0c.419.081 1.025.078 1.347-.007.322-.084-.02-.15-.761-.146s-1.004.073-.586.153m-27.276.336c.416.081 1.098.081 1.515 0 .417-.08.076-.145-.758-.145-.833 0-1.174.065-.757.145m30.643.001c.419.08 1.025.077 1.347-.007s-.02-.15-.761-.146c-.741.003-1.004.072-.586.153m-34.343.337c.419.08 1.025.077 1.347-.007s-.021-.15-.762-.147c-.74.004-1.004.073-.585.154m37.71 0c.419.08 1.025.077 1.347-.007s-.02-.15-.761-.147c-.741.004-1.004.073-.586.154m-41.754.336c.416.08 1.098.08 1.515 0s.076-.146-.758-.146c-.833 0-1.174.066-.757.146m45.121 0c.419.081 1.025.078 1.347-.006.322-.085-.02-.151-.761-.147s-1.004.073-.586.153m-48.825.337c.417.08 1.098.08 1.515 0 .417-.081.076-.146-.757-.146-.834 0-1.175.065-.758.146m51.856 0c.419.081 1.025.078 1.347-.007.322-.084-.021-.15-.762-.146s-1.004.073-.585.153m-55.56.336c.417.08 1.099.08 1.515 0 .417-.08.076-.146-.757-.146s-1.174.066-.758.146m58.927.001c.419.08 1.025.077 1.347-.007s-.021-.15-.762-.146c-.741.003-1.004.072-.585.153m-62.967.336c.417.08 1.098.08 1.515 0s.076-.146-.758-.146c-.833 0-1.174.066-.757.146m29.841 3.466c0 2.13.055 3.001.122 1.936.066-1.065.066-2.807 0-3.872-.067-1.065-.122-.194-.122 1.936m36.493-3.466c.419.081 1.025.078 1.347-.006.322-.085-.021-.151-.762-.147s-1.004.073-.585.153m-77.95.436c.084.311.579.523 1.288.552 1.056.044 1.068.034.144-.114-.555-.089-1.135-.338-1.288-.553-.189-.264-.236-.226-.144.115m7.912-.099c.417.08 1.099.08 1.515 0 .417-.081.076-.146-.757-.146-.834 0-1.174.065-.758.146m73.405 0c.419.081 1.025.078 1.347-.007.322-.084-.021-.15-.762-.146s-1.004.073-.585.153m-77.109.336c.417.081 1.099.081 1.516 0 .416-.08.075-.146-.758-.146s-1.174.066-.758.146m80.304-.005c.324.085.854.085 1.178 0s.059-.154-.589-.154-.914.069-.589.154m3.202.343c.419.08 1.025.077 1.347-.007.322-.085-.021-.15-.762-.147-.74.004-1.004.073-.585.154m3.367.336c.419.081 1.025.078 1.347-.007.322-.084-.021-.15-.762-.146-.74.004-1.004.073-.585.153m-49.961 12.557c0 2.129.055 3.001.122 1.936s.067-2.807 0-3.872-.122-.194-.122 1.936m7.763 14.478c0 4.537.047 6.393.106 4.124.058-2.268.058-5.98 0-8.249-.059-2.268-.106-.412-.106 4.125m-8.099-4.041c0 2.13.054 3.001.121 1.936.067-1.064.067-2.807 0-3.872-.067-1.064-.121-.193-.121 1.936m-.341 9.933c0 1.852.057 2.567.125 1.588.068-.978.068-2.493-.001-3.367-.069-.873-.125-.073-.124 1.779" fill="#f18c8e"/><path d="m162.458 232.997c.723.74 1.391 1.346 1.483 1.346.093 0-.423-.606-1.146-1.346-.724-.741-1.391-1.347-1.484-1.347-.092 0 .424.606 1.147 1.347m5.724 6.06c.723.741 1.391 1.347 1.483 1.347.093 0-.423-.606-1.146-1.347-.724-.741-1.391-1.347-1.484-1.347s.424.606 1.147 1.347m77.095 3.451-2.348 2.441 2.441-2.347c2.268-2.181 2.595-2.535 2.348-2.535-.051 0-1.15 1.099-2.441 2.441m-71.371 2.61c.723.741 1.391 1.347 1.483 1.347.093 0-.423-.606-1.147-1.347-.723-.741-1.39-1.347-1.483-1.347s.423.606 1.147 1.347m5.724 6.06c.723.741 1.391 1.347 1.483 1.347.093 0-.423-.606-1.147-1.347-.723-.74-1.391-1.346-1.483-1.346-.093 0 .423.606 1.147 1.346m23.801 69.569c.314.094.631.577.705 1.075.123.819.133.809.104-.102-.023-.748-.205-1.025-.705-1.075-.487-.049-.516-.021-.104.102m7.832 11.408c0 6.481.045 9.085.1 5.786s.055-8.602 0-11.784c-.055-3.183-.1-.484-.1 5.998m-7.468-.168c0 .833.066 1.174.146.757.081-.417.081-1.098 0-1.515-.08-.417-.146-.076-.146.758m-.336 10.437c0 .834.065 1.174.146.758.08-.417.08-1.099 0-1.515-.081-.417-.146-.076-.146.757m-.337 10.438c0 .833.066 1.174.146.758.08-.417.08-1.099 0-1.516-.08-.416-.146-.075-.146.758" fill="#f6b6b7"/></g></svg>