<svg height="250" width="250" xmlns="http://www.w3.org/2000/svg"><g fill="none" fill-rule="evenodd"><path d="m125 28.474-93.1 33.2 14.2 123.1 78.9 43.7 78.9-43.7 14.2-123.1z" fill="#dd0031"/><path d="m125 28.474v22.2-.1 177.9l78.9-43.7 14.2-123.1z" fill="#c3002f"/><g fill="#fff"><path d="m124.991 52.867c-22.436 68.503-38.058 98.306-51.427 115.312l9.44 13.482c2.655-8.954 15.49-31.19 20.073-39.283 15.547-5.194 30.061-5.005 43.651 0 4.48 8.228 17.808 31.034 20.229 40.004l9.284-14.203c-23.144-32.06-39.67-71.083-51.25-115.312zm15.021 73.606c-9.854-3.004-19.88-3.013-30.043 0 5.532-10.007 10.119-22.166 15.022-36.14 3.028 13.168 7.454 25.523 15.021 36.14z"/><path d="m161.326 168.389c7.35-4.969 9.959-10.201 14.346-16.355 0 0-9.402-12.477-4.866-25.268 0 0-2.969 10.934 16.724 22.86l-11.328 18.706zm-72.279-.334c-6.851-4.513-9.977-8.895-14.874-15.964 0 0 9.402-12.477 4.866-25.268 0 0 2.969 10.934-16.724 22.86l11.328 18.706z"/></g></g></svg>