<svg viewBox="0 0 325.26 337.85" xmlns="http://www.w3.org/2000/svg" xmlns:xlink="http://www.w3.org/1999/xlink"><clipPath id="a"><path d="m216.37 15.54h-107.57c-51.8 4.08-89.59 13.88-94.97 25.61v27.1l6.68-1.5c5.72-1.29 14.61-2.47 26-3.5 27.39-2.49 69.22-4.08 116.11-4.08s88.72 1.59 116.11 4.08c11.35 1 20.24 2.21 26 3.5l6.68 1.5v-27.1c-5.41-11.73-43.29-21.53-95.04-25.61z"/></clipPath><linearGradient id="b" gradientUnits="userSpaceOnUse" x1="13.17" x2="312" y1="68.67" y2="68.67"><stop offset="0" stop-color="#666"/><stop offset=".71" stop-color="#333"/><stop offset="1"/></linearGradient><linearGradient id="c" x1="13.17" xlink:href="#b" y1="30.25" y2="30.25"/><linearGradient id="d" gradientUnits="userSpaceOnUse" x1="13.17" x2="312" y1="70.16" y2="70.16"><stop offset="0" stop-color="#262626"/><stop offset=".71" stop-color="#333"/><stop offset="1" stop-color="#1a1a1a"/></linearGradient><clipPath id="e"><path d="m276.9 74.1c3.47-.46 5.33-1 5.33-1.47 0-2.74-53.57-5-119.64-5s-119.64 2.22-119.64 5c0 .51 1.87 1 5.33 1.47l-7 2.48c-10.9-1.11-19-2.38-23.68-3.75v249.7h289.65v-249.61c-4.7 1.34-12.72 2.58-23.39 3.66z"/></clipPath><g clip-path="url(#a)"><path d="m13.83 15.54h17.75v52.71h-17.75z" fill="#19a264"/><path d="m293.58 15.54h17.75v52.71h-17.75z" fill="#881351"/><path d="m31.58 15.54h23.25v51.21h-23.25z" fill="#34a936"/><path d="m270.33 15.54h23.25v51.21h-23.25z" fill="#901a13"/><path d="m54.84 15.54h30.75v51.21h-30.75z" fill="#6db52c"/><path d="m239.58 15.54h30.75v51.21h-30.75z" fill="#a33e17"/><path d="m85.59 15.54h36.5v51.21h-36.5z" fill="#bdbb08"/><path d="m203.08 15.54h36.5v51.21h-36.5z" fill="#b86716"/><path d="m122.08 15.54h40.5v51.21h-40.5z" fill="#e2d210"/><path d="m162.58 15.54h40.5v51.21h-40.5z" fill="#d8990e"/></g><path d="m162.58 16.63c-82.15 0-148.75 13.37-148.75 29.76s66.6 29.76 148.75 29.76 148.75-13.32 148.75-29.76-66.6-29.76-148.75-29.76zm0 56c-64.72 0-117.19-8.87-117.19-19.81s52.47-19.82 117.19-19.82 117.19 8.87 117.19 19.81-52.46 19.82-117.19 19.82z" fill="#1d1d1b" opacity=".25"/><path d="m312 68.67c0-6.9-66.9-12.5-149.42-12.5s-149.41 5.59-149.41 12.5v1.49h1.06c8.82 6.2 71.87 11 148.35 11 76.83 0 140.11-4.85 148.47-11.09l.95.08z" fill="url(#b)"/><ellipse cx="162.58" cy="70.16" fill="#c31532" rx="149.42" ry="10.99"/><path d="m13.83 46.39c0-16.44 66.6-29.76 148.75-29.76s148.75 13.37 148.75 29.76a6.09 6.09 0 0 1 0 .61 6.91 6.91 0 0 0 .71-3c0-16.86-66.9-30.53-149.42-30.53s-149.45 13.7-149.45 30.53a6.91 6.91 0 0 0 .71 3 6.09 6.09 0 0 1 -.05-.61z" fill="url(#c)"/><ellipse cx="162.58" cy="70.16" fill="url(#d)" rx="149.42" ry="10.99"/><ellipse cx="162.58" cy="72.63" fill="#1d1d1b" rx="119.64" ry="4.96"/><g clip-path="url(#e)"><path d="m162.58 33.33-134.62 48.01 20.53 178 114.09 63.19 114.09-63.19 20.53-178-134.62-48.01z" fill="#dd0932"/><path d="m162.58 33.33v32.1-.14 257.24l114.09-63.19 20.53-178-134.62-48.01z" fill="#c31532"/><path d="m162.58 65.29-84.15 188.71h31.37l16.92-42.22h71.43l16.92 42.22h31.38zm24.58 120.45h-49.16l24.58-59.14z" fill="#fff"/></g></svg>