<svg xmlns="http://www.w3.org/2000/svg" xmlns:xlink="http://www.w3.org/1999/xlink" viewBox="0 0 325.26 337.85" style="width:100%"><defs><clipPath id="b"><path d="M216.37 15.54H108.8C57 19.62 19.21 29.42 13.83 41.15v27.1l6.68-1.5c5.72-1.29 14.61-2.47 26-3.5 27.39-2.49 69.22-4.08 116.11-4.08s88.72 1.59 116.11 4.08c11.35 1 20.24 2.21 26 3.5l6.68 1.5v-27.1c-5.41-11.73-43.29-21.53-95.04-25.61z" fill="none"/></clipPath><linearGradient id="a" x1="13.17" y1="68.67" x2="312" y2="68.67" gradientUnits="userSpaceOnUse"><stop offset="0" stop-color="#666"/><stop offset=".71" stop-color="#333"/><stop offset="1"/></linearGradient><linearGradient id="c" x1="13.17" y1="30.25" y2="30.25" xlink:href="#a"/><linearGradient id="d" x1="13.17" y1="70.16" x2="312" y2="70.16" gradientUnits="userSpaceOnUse"><stop offset="0" stop-color="#262626"/><stop offset=".71" stop-color="#333"/><stop offset="1" stop-color="#1a1a1a"/></linearGradient><clipPath id="e"><path d="M276.9 74.1c3.47-.46 5.33-1 5.33-1.47 0-2.74-53.57-5-119.64-5s-119.64 2.22-119.64 5c0 .51 1.87 1 5.33 1.47l-7 2.48c-10.9-1.11-19-2.38-23.68-3.75v249.7h289.65V72.92c-4.7 1.34-12.72 2.58-23.39 3.66z" fill="none"/></clipPath></defs><g style="isolation:isolate"><g clip-path="url(#b)" data-name="Regnbue"><path fill="#19a264" d="M13.83 15.54h17.75v52.71H13.83z"/><path fill="#881351" d="M293.58 15.54h17.75v52.71h-17.75z"/><path fill="#34a936" d="M31.58 15.54h23.25v51.21H31.58z"/><path fill="#901a13" d="M270.33 15.54h23.25v51.21h-23.25z"/><path fill="#6db52c" d="M54.84 15.54h30.75v51.21H54.84z"/><path fill="#a33e17" d="M239.58 15.54h30.75v51.21h-30.75z"/><path fill="#bdbb08" d="M85.59 15.54h36.5v51.21h-36.5z"/><path fill="#b86716" d="M203.08 15.54h36.5v51.21h-36.5z"/><path fill="#e2d210" d="M122.08 15.54h40.5v51.21h-40.5z"/><path fill="#d8990e" d="M162.58 15.54h40.5v51.21h-40.5z"/></g><path d="M162.58 16.63C80.43 16.63 13.83 30 13.83 46.39s66.6 29.76 148.75 29.76 148.75-13.32 148.75-29.76-66.6-29.76-148.75-29.76zm0 56c-64.72 0-117.19-8.87-117.19-19.81S97.86 33 162.58 33s117.19 8.87 117.19 19.81-52.46 19.82-117.19 19.82z" style="mix-blend-mode:multiply" fill="#1d1d1b" opacity=".25" data-name="Skygge indvendig"/><g data-name="Buer"><path d="M312 68.67c0-6.9-66.9-12.5-149.42-12.5S13.17 61.76 13.17 68.67v1.49h1.06c8.82 6.2 71.87 11 148.35 11 76.83 0 140.11-4.85 148.47-11.09l.95.08z" fill="url(#a)"/><ellipse cx="162.58" cy="70.16" rx="149.42" ry="10.99" fill="#c31532"/><path d="M13.83 46.39c0-16.44 66.6-29.76 148.75-29.76S311.33 30 311.33 46.39a6.09 6.09 0 0 1 0 .61 6.91 6.91 0 0 0 .71-3c0-16.86-66.9-30.53-149.42-30.53S13.17 27.17 13.17 44a6.91 6.91 0 0 0 .71 3 6.09 6.09 0 0 1-.05-.61z" fill="url(#c)"/><ellipse cx="162.58" cy="70.16" rx="149.42" ry="10.99" style="mix-blend-mode:multiply" fill="url(#d)"/><ellipse cx="162.58" cy="72.63" rx="119.64" ry="4.96" fill="#1d1d1b"/></g><g clip-path="url(#e)" data-name="Angular"><path fill="#dd0932" d="M162.58 33.33L27.96 81.34l20.53 178 114.09 63.19 114.09-63.19 20.53-178-134.62-48.01z"/><path fill="#c31532" d="M162.58 33.33v32.1-.14 257.24l114.09-63.19 20.53-178-134.62-48.01z"/><path d="M162.58 65.29L78.43 254h31.37l16.92-42.22h71.43L215.07 254h31.38L162.58 65.29zm24.58 120.45H138l24.58-59.14z" fill="#fff"/></g></g></svg>