<svg viewBox="18 18 160 160" xmlns="http://www.w3.org/2000/svg"><path d="m101.17 176.8 61.59-33.9-61.59-61.6z" fill="#2e2d2c"/><path d="m101.17 19.5v61.8l73.49-35.5z" fill="#de4328"/><path d="m101.15 81.3-65.27 31.67-8.23-67.17z" fill="#2e2d2c"/><path d="m101.15 81.3-61.6 61.6-3.67-29.93z" fill="#a16828"/><path d="m101.17 81.3 65.27 31.67 8.22-67.17z" fill="#ef413e"/><path d="m101.17 81.3 61.59 61.6 3.68-29.93z" fill="#a0312a"/><path d="m101.17 81.3-61.61 61.6 61.61 33.9z" fill="#f2b31c"/><path d="m27.66 45.8 73.51 35.5v-61.8z" fill="#f2b31c"/><path d="m101.16 33.7-47.2 105h16.3l10.4-24h41l10.4 24h16.3zm-14.32 67 14.3-33 14.3 33z" fill="#fff"/><path d="m115.46 100.7h-28.62l14.3-33.04.01.02.01-.02z" fill="#2e2d2c"/></svg>