<svg viewBox="0 0 1111.7 1208.4" xmlns="http://www.w3.org/2000/svg" xmlns:xlink="http://www.w3.org/1999/xlink"><linearGradient id="a" gradientTransform="matrix(1 0 0 -1 0 1208)" gradientUnits="userSpaceOnUse" x1="191.559" x2="389.879" y1="927.052" y2="1021.545"><stop offset="0" stop-color="#d20043"/><stop offset="1" stop-color="#ff0043"/></linearGradient><linearGradient id="b" gradientTransform="matrix(1 0 0 -1 0 1208)" gradientUnits="userSpaceOnUse" x1="989.165" x2="955.421" y1="871.21" y2="531.586"><stop offset="0" stop-color="#d9d627"/><stop offset=".05" stop-color="#dbd828"/><stop offset=".639" stop-color="#f4e931"/><stop offset="1" stop-color="#fdf035"/></linearGradient><linearGradient id="c" gradientTransform="matrix(1 0 0 -1 0 1208)" gradientUnits="userSpaceOnUse" x1="514.006" x2="300.533" y1="158.588" y2="280.52"><stop offset="0" stop-color="#05b253"/><stop offset=".208" stop-color="#05be53"/><stop offset=".699" stop-color="#05d753"/><stop offset="1" stop-color="#05e053"/></linearGradient><path d="m573.7 51.9 528.3 205-61.8 668.6-466.5 282.3-461.8-282.3-66-666.7z" fill="#0074ff" opacity=".6"/><path d="m537.5.6 528.3 205-61.8 668.6-466.5 282.3-461.8-282.3-66-666.7z" fill="#0068ff" opacity=".6"/><path d="m560.3 29.2 528.3 205-61.8 668.6-466.5 282.3-461.8-282.3-66-666.6z" fill="#a700ff" opacity=".6"/><path d="m60.6 253.1 499.7-197.5v139.9l-358.9 143.4z" fill="url(#a)"/><path d="m560.3 55.6 500.2 195.7-134.7 87.6-365.5-143.4z" fill="#fdf035"/><path d="m1060.5 251.3-58.5 638-127.9-76.1 51.7-474.3z" fill="url(#b)"/><path d="m1002 889.3-441.7 269.4v-152.4l313.8-193.1z" fill="#05e053"/><path d="m560.3 1158.7-437.2-269.4 122.4-76.1 314.8 193.1z" fill="url(#c)"/><path d="m245.5 813.2-122.4 76.1-62.5-636.2 140.8 85.8z" fill="#ff0043"/><g fill="#fff"><path d="m293.1 382.1h50.9l129.1 158.6v-158.6h53.6v247.2h-48.1l-127.8-158.6 1.4 158.6h-59.1zm529 112.4s-8.3 5.8-20.6 14.3-28.6 19.8-44.5 30.7l65.1-45h-123v45h57.9c-2 5.3-6.9 16.5-18.4 25.7-16.4 13.1-34.6 13-39.6 12.9-25-1-41.3-15.8-46.1-20.4-21-20.3-22.6-46.3-22.8-52.4-.2-5.4-.5-28.1 16.3-47.8 1.1-1.3 21.5-24.2 53.6-24.1 6.1 0 16.6.9 27.9 6.4 18.8 9.2 27.3 25 30 30.5 16.1-8.8 32.1-17.7 48.2-26.5-5.7-9.8-20.2-31.8-48.3-46.9-24.5-13.2-47.4-14.8-58.7-14.8-7.6.1-60.8 1.4-96.5 45.4-25.8 31.9-27.1 67.2-27.1 78.2.1 8 1.5 57.1 42.1 92.7 33.2 29.2 71.3 30.8 81.5 30.8 8-.1 55.8-1.2 91.5-40.5 30.7-33.8 32-73.4 32.1-83.1-.2-3.6-.4-7.3-.6-11.1z"/><path d="m310.4 678.7h36.6c4 0 7.8.6 11.3 1.9s6.5 3 9.1 5.2 4.6 4.8 6.1 7.8 2.2 6.2 2.2 9.6c0 5-1.2 9.1-3.6 12.5s-5.4 5.9-9 7.7v1c4.8 1.7 8.7 4.5 11.6 8.2s4.4 8.3 4.4 13.8c0 4-.8 7.6-2.4 10.8s-3.8 5.9-6.6 8.2-6 4-9.8 5.2c-3.7 1.2-7.7 1.8-12 1.8h-38v-93.7zm35.3 38.3c4.1 0 7.3-1.1 9.5-3.3s3.3-4.9 3.3-7.9c0-3.1-1.1-5.7-3.3-7.9s-5.2-3.3-9-3.3h-18.2v22.4zm2 39.2c4.5 0 7.9-1.1 10.2-3.3 2.4-2.2 3.5-5.1 3.5-8.6s-1.2-6.4-3.6-8.7-6-3.5-10.7-3.5h-19.1v24.1zm89.4 18.4c-7 0-13.5-1.3-19.4-3.8-6-2.5-11.2-6-15.5-10.4-4.4-4.4-7.8-9.6-10.3-15.6s-3.7-12.4-3.7-19.2 1.2-13.2 3.7-19.2 5.9-11.2 10.3-15.6 9.5-7.9 15.5-10.4 12.5-3.8 19.4-3.8c7 0 13.5 1.3 19.4 3.8 6 2.5 11.2 6 15.5 10.4 4.4 4.4 7.8 9.6 10.3 15.6s3.7 12.4 3.7 19.2-1.2 13.2-3.7 19.2-5.9 11.2-10.3 15.6-9.5 7.9-15.5 10.4c-5.9 2.5-12.4 3.8-19.4 3.8zm0-16.8c4.4 0 8.4-.8 12.2-2.4s7.1-3.8 10-6.5c2.8-2.8 5.1-6.2 6.7-10.1 1.6-4 2.4-8.4 2.4-13.2s-.8-9.2-2.4-13.2-3.8-7.4-6.7-10.1c-2.8-2.8-6.2-5-10-6.5s-7.9-2.4-12.2-2.4c-4.4 0-8.4.8-12.2 2.4s-7.1 3.8-10 6.5c-2.8 2.8-5.1 6.2-6.7 10.1-1.6 4-2.4 8.4-2.4 13.2s.8 9.2 2.4 13.2 3.8 7.4 6.7 10.1c2.8 2.8 6.2 5 10 6.5 3.8 1.6 7.9 2.4 12.2 2.4zm63.3-79.1h17.7v77h39.7v16.8h-57.4zm69.9 0h17.7v93.8h-17.7zm26.7 0h19.1l19.4 56.4 3.4 12h1l3.7-12 20.2-56.4h19.1l-34.2 93.8h-18.6zm96.9 0h17.7v93.8h-17.7zm63.9 0h20.2l35.2 93.8h-19.5l-7.7-22.4h-36.1l-7.7 22.4h-19.5zm22.4 55.2-8.4-23.4-3.4-11.4h-1l-3.4 11.4-8.4 23.4z"/></g></svg>