<svg height="872" viewBox="0 0 802 872" width="802" xmlns="http://www.w3.org/2000/svg"><g fill="none" fill-rule="evenodd"><g fill-rule="nonzero"><path d="m401.5 0-400.5 157.27 52.4081633 503.0975 348.0918367 211.6325 347.091837-211.6325 53.408163-503.0975z" fill="#8c1876"/><path d="m793.709534 154.40715-44.835843 26.940092-348.841008-136.347242-349.0244084 137.399421-44.38052844-27.732032 393.87225384-154.667389zm6.505476 10.257349-52.623173 495.703001-341.591837 208.278982v-48.304962l303.302645-184.932892 45.914065-443.706423zm-799.38979826.527205 44.02512756 27.509953 45.9123825 442.706971 303.2372782 184.893035v47.746474l-341.5918367-207.680637z" fill="#44a0c1"/><path d="m793.709534 154.40715-44.835843 26.940092-348.841008-136.347242-349.0244084 137.399421-44.38052844-27.732032 393.87225384-154.667389z" fill="#63bed3"/><path d="m800.21501 164.664499-52.623173 495.703001-341.591837 208.278982v-48.304962l303.302645-184.932892 45.914065-443.706423z" fill="#5cadc6"/><path d="m107.471988 630.307338 38.443843-23.099391 254.123345 155.06138 254.267254-155.149191 37.262413 23.28414-291.549253 178.967564zm-5.592818-3.423289-.578208-.353913-.063981-.618351zm-1.03331-4.752232-44.5195076-430.257059 338.1151956-133.6695497v44.9929877l-293.402372 115.219485 38.943337 380.198462zm597.462087.340428-38.196873-23.868055 39.928102-380.031549-295.299704-115.730553v-44.9761425l338.973356 134.0088125z" fill="#1b5a7d" transform="matrix(-1 0 0 1 800.03918 0)"/><path d="m450.117141 622.131817-44.519508-430.257059 338.115195-133.6695497v44.9929877l-293.402372 115.219485 38.943338 380.198462zm.39112 3.779968.317544.480756-.253562.137595z" fill="#3990b2" transform="matrix(-1 0 0 1 1149.31046 0)"/><path d="m349.894827 622.472245-38.196873-23.868055 39.928102-380.031549-295.2997036-115.730553v-44.9761425l338.9733556 134.0088125z" fill="#357e9e" transform="matrix(-1 0 0 1 451.62606 0)"/></g><g fill="#fff"><path d="m209.753001 514.528c0-12.81 8.906-21.838 21.533-21.838 10.187 0 17.873 5.734 20.313 15.006h-11.468c-1.769-3.66-5.002-5.49-8.967-5.49-6.405 0-10.797 4.758-10.797 12.322s4.392 12.322 10.797 12.322c3.965 0 7.198-1.83 8.967-5.49h11.468c-2.44 9.272-10.126 14.945-20.313 14.945-12.627 0-21.533-8.967-21.533-21.777zm98.101999-.061c0 12.871-9.76 21.96-21.899 21.96s-22.021-9.089-22.021-21.96 9.882-21.899 22.021-21.899c12.2 0 21.899 9.028 21.899 21.899zm-33.245 0c0 7.503 4.392 12.444 11.346 12.444 6.832 0 11.285-4.941 11.285-12.444 0-7.625-4.453-12.444-11.285-12.444-6.954 0-11.346 4.819-11.346 12.444zm46.74-21.289h10.431v34.77h13.664v8.052h-24.095zm78.948 21.289c0 12.871-9.76 21.96-21.899 21.96s-22.021-9.089-22.021-21.96 9.882-21.899 22.021-21.899c12.2 0 21.899 9.028 21.899 21.899zm-33.245 0c0 7.503 4.392 12.444 11.346 12.444 6.832 0 11.285-4.941 11.285-12.444 0-7.625-4.453-12.444-11.285-12.444-6.954 0-11.346 4.819-11.346 12.444zm46.74 21.533v-42.822h12.322l12.017 29.646 11.895-29.646h12.261v42.822h-10.431v-25.681l-9.577 25.681h-8.418l-9.638-25.742v25.742zm87.305-13.054c0-3.05-2.135-4.819-5.612-4.819h-7.564v9.455h7.686c3.477 0 5.49-1.586 5.49-4.636zm-1.037-16.897c0-2.928-1.891-4.514-5.307-4.514h-6.832v8.967h6.832c3.416 0 5.307-1.525 5.307-4.453zm11.59 18.3c0 7.076-5.185 11.651-14.213 11.651h-19.947v-42.822h19.276c8.723 0 13.908 4.331 13.908 11.102 0 5.185-3.111 8.54-7.259 9.76 5.002 1.037 8.235 5.429 8.235 10.309zm13.739 11.651v-42.822h10.431v42.822zm54.913999 0-2.562-7.564h-15.982l-2.562 7.564h-10.919l15.494-42.822h12.078l15.494 42.822zm-5.246-15.616-5.307-15.677-5.246 15.677z"/><path d="m331.954 283.566h45.657v187.434h-45.657l-76.362-115.611v115.611h-45.657v-187.434h45.657l76.362 116.145zm168.341-2.136c44.856 0 77.43 22.962 87.309 61.41h-50.463c-6.942-12.549-19.758-19.224-36.846-19.224-29.37 0-48.861 20.826-48.861 53.4 0 34.71 19.758 55.002 52.599 55.002 22.695 0 38.448-12.015 45.39-33.108h-57.939v-33.642h99.324v42.453c-9.612 32.307-40.851 64.614-90.246 64.614-56.07 0-95.586-39.249-95.586-95.319s39.249-95.586 95.319-95.586z"/></g></g></svg>