<svg height="400" viewBox="0 0 400 400" width="400" xmlns="http://www.w3.org/2000/svg" xmlns:xlink="http://www.w3.org/1999/xlink"><defs><path id="a" d="m199 43-145 51.792 22.1160043 192.036 122.8839957 68.172 122.883996-68.172 22.116004-192.036z"/><filter id="b" height="112.2%" width="113.1%" x="-6.6%" y="-5.4%"><feOffset dx="0" dy="2" in="SourceAlpha" result="shadowOffsetOuter1"/><feGaussianBlur in="shadowOffsetOuter1" result="shadowBlurOuter1" stdDeviation="6"/><feColorMatrix in="shadowBlurOuter1" type="matrix" values="0 0 0 0 0   0 0 0 0 0   0 0 0 0 0  0 0 0 0.2 0"/></filter><linearGradient id="c" x1="50%" x2="50%" y1="42.444702%" y2="0%"><stop offset="0" stop-color="#74a0ca"/><stop offset="1" stop-color="#40669a"/></linearGradient><path id="d" d="m198.484929 48-139.484929 49.7411348 21.2748227 184.4317372 118.2101063 65.472518 118.210106-65.472518 21.274823-184.4317372z"/><linearGradient id="e" x1="50%" x2="50%" y1="47.901693%" y2="0%"><stop offset="0" stop-color="#4b80b3"/><stop offset="1" stop-color="#24497c"/></linearGradient><linearGradient id="f" x1="50%" x2="47.770381%" y1="57.810763%" y2="0%"><stop offset="0" stop-color="#e1e8f2"/><stop offset="1" stop-color="#a4bfe3"/></linearGradient><linearGradient id="g" x1="66.495383%" x2="52.078213%" y1="80.118226%" y2="28.250982%"><stop offset="0" stop-color="#d2e0f1"/><stop offset="1" stop-color="#88a4cc"/></linearGradient><path id="h" d="m175.635112 19.5-78.635112 177h29.319277l15.80809-39.604598h66.745266l15.80809 39.604598h29.319277zm22.969019 112.981609h-45.938038l22.969019-55.473563z"/><filter id="i" height="117.5%" width="119.7%" x="-9.2%" y="-8.2%"><feOffset dx="1" dy="1" in="SourceAlpha" result="shadowOffsetOuter1"/><feGaussianBlur in="shadowOffsetOuter1" result="shadowBlurOuter1" stdDeviation="5"/><feColorMatrix in="shadowBlurOuter1" type="matrix" values="0 0 0 0 0.137342289   0 0 0 0 0.264894587   0 0 0 0 0.439439838  0 0 0 0.75 0"/></filter><linearGradient id="j" x1="40.739121%" x2="47.574428%" y1="72.39295%" y2="24.959609%"><stop offset="0" stop-color="#abc7e4"/><stop offset="1" stop-color="#7395c4"/></linearGradient><linearGradient id="k" x1="50%" x2="50%" y1="86.52995%" y2="7.544736%"><stop offset="0" stop-color="#97b6d7"/><stop offset="1" stop-color="#5d80af"/></linearGradient><linearGradient id="l" x1="44.976812%" x2="48.727679%" y1="103.054456%" y2="19.7745%"><stop offset="0" stop-color="#749fca"/><stop offset="1" stop-color="#40669a"/></linearGradient><path id="m" d="m91 254.056h2.772v6.292h7.282v-6.292h2.772v15.576h-2.772v-6.908h-7.282v6.908h-2.772zm16.11 5.016h2.64v10.56h-2.64zm-.374-3.586c0-.425335.157665-.795665.473-1.111s.714998-.473 1.199-.473.890998.150332 1.221.451.495.678331.495 1.133-.164998.832332-.495 1.133-.736998.451-1.221.451-.883665-.157665-1.199-.473-.473-.685665-.473-1.111zm16.902 3.586v9.614c0 .953338-.117332 1.814996-.352 2.585s-.597664 1.422664-1.089 1.958-1.110996.949665-1.859 1.243-1.635328.44-2.662.44c-.425335 0-.876331-.036666-1.353-.11s-.945998-.183333-1.408-.33-.905665-.329999-1.331-.55-.806665-.469332-1.144-.748l1.518-2.046c.513336.484002 1.092663.854332 1.738 1.111s1.297997.385 1.958.385c.63067 0 1.162331-.091666 1.595-.275s.777332-.436332 1.034-.759.439999-.703998.55-1.144.165-.923997.165-1.452v-.77h-.044c-.381335.513336-.868997.905665-1.463 1.177s-1.257663.407-1.991.407c-.792004 0-1.510663-.146665-2.156-.44s-1.191664-.689331-1.639-1.188-.795665-1.081663-1.045-1.749-.374-1.374996-.374-2.123c0-.76267.120999-1.48133.363-2.156s.586664-1.261331 1.034-1.76.989997-.894665 1.628-1.188 1.352996-.44 2.145-.44c.748004 0 1.444663.153998 2.09.462s1.158665.784663 1.54 1.43h.044v-1.584zm-5.632 1.848c-.484002 0-.912998.087999-1.287.264s-.689332.414332-.946.715-.454666.656331-.594 1.067-.209.850664-.209 1.32c0 .425335.069666.835998.209 1.232s.337332.751665.594 1.067.571998.568332.946.759.795664.286 1.265.286c.484002 0 .920331-.091666 1.309-.275s.718665-.428998.99-.737.480333-.663665.627-1.067.22-.824998.22-1.265c0-.454669-.073333-.887331-.22-1.298s-.355665-.769998-.627-1.078-.597665-.549999-.979-.726-.813998-.264-1.298-.264zm14.614-2.156c.689337 0 1.279664.120999 1.771.363s.894665.560998 1.21.957.546333.850664.693 1.364.22 1.041331.22 1.584v6.6h-2.64v-5.808c0-.308002-.022-.626998-.066-.957s-.135666-.630665-.275-.902-.337332-.494999-.594-.671-.597665-.264-1.023-.264-.791998.080666-1.1.242-.564666.377665-.77.649-.359333.575665-.462.913-.154.681998-.154 1.034v5.764h-2.64v-16.632h2.64v7.546h.044c.102667-.220001.252999-.436332.451-.649s.428999-.403332.693-.572.564665-.304333.902-.407.703998-.154 1.1-.154zm23.728-1.056c-.410669-.557336-.945997-.964332-1.606-1.221s-1.30533-.385-1.936-.385c-.806671 0-1.539997.146665-2.2.44s-1.228331.696664-1.705 1.21-.843332 1.114663-1.1 1.804-.385 1.437329-.385 2.244c0 .850671.124665 1.627996.374 2.332s.604998 1.308997 1.067 1.815 1.015663.898332 1.661 1.177 1.371329.418 2.178.418c.836004 0 1.576663-.164998 2.222-.495s1.165998-.766331 1.562-1.309l2.222 1.562c-.689337.865338-1.532662 1.536331-2.53 2.013s-2.163327.715-3.498.715c-1.217339 0-2.335662-.201665-3.355-.605s-1.895663-.967996-2.629-1.694-1.305331-1.591328-1.716-2.596-.616-2.115661-.616-3.333c0-1.246673.216331-2.372328.649-3.377s1.026663-1.858996 1.782-2.563 1.646328-1.246665 2.673-1.628 2.141327-.572 3.344-.572c.498669 0 1.019331.047666 1.562.143s1.063331.241999 1.562.44.967998.443665 1.408.737.813998.645331 1.122 1.056zm2.998 6.6c0-.836004.150332-1.594997.451-2.277s.707664-1.264998 1.221-1.749 1.121996-.857999 1.826-1.122 1.451996-.396 2.244-.396 1.539996.131999 2.244.396 1.312664.637998 1.826 1.122.920332 1.066997 1.221 1.749.451 1.440996.451 2.277-.150332 1.598663-.451 2.288-.707664 1.279664-1.221 1.771-1.121996.876332-1.826 1.155-1.451996.418-2.244.418-1.539996-.139332-2.244-.418-1.312664-.663664-1.826-1.155-.920332-1.081663-1.221-1.771-.451-1.451996-.451-2.288zm2.684 0c0 .410669.062333.821331.187 1.232s.311665.777332.561 1.1.564665.586666.946.792.835997.308 1.364.308.982665-.102666 1.364-.308.696665-.469332.946-.792.436333-.689331.561-1.1.187-.821331.187-1.232-.062333-.817665-.187-1.221-.311665-.766332-.561-1.089-.564665-.582999-.946-.781-.835997-.297-1.364-.297-.982665.098999-1.364.297-.696665.458332-.946.781-.436333.685665-.561 1.089-.187.810331-.187 1.221zm20.928 5.324h-2.508v-1.694h-.044c-.234668.528003-.641664.993665-1.221 1.397s-1.264996.605-2.057.605c-.689337 0-1.279664-.120999-1.771-.363s-.894665-.560998-1.21-.957-.546333-.850664-.693-1.364-.22-1.041331-.22-1.584v-6.6h2.64v5.852c0 .308002.022.630665.066.968s.139333.641665.286.913.348332.494999.605.671.597665.264 1.023.264c.410669 0 .773665-.084332 1.089-.253s.571999-.384999.77-.649.348333-.568332.451-.913.154-.692998.154-1.045v-5.808h2.64zm3.108-10.56h2.508v1.694h.044c.234668-.528003.641664-.993665 1.221-1.397s1.264996-.605 2.057-.605c.689337 0 1.279664.120999 1.771.363s.894665.560998 1.21.957.546333.850664.693 1.364.22 1.041331.22 1.584v6.6h-2.64v-5.852c0-.308002-.022-.630665-.066-.968s-.139333-.641665-.286-.913-.348332-.494999-.605-.671-.597665-.264-1.023-.264-.791998.084332-1.1.253-.560999.384999-.759.649-.348333.568332-.451.913-.154.692998-.154 1.045v5.808h-2.64zm11.226 2.112v-2.112h1.848v-3.058h2.596v3.058h2.64v2.112h-2.64v4.906c0 .469336.084333.857998.253 1.166.168668.308002.54633.462 1.133.462.176001 0 .366666-.018333.572-.055s.388666-.091666.55-.165l.088 2.068c-.234668.088-.513332.157666-.836.209s-.630665.077-.924.077c-.704004 0-1.275998-.098999-1.716-.297s-.788332-.469332-1.045-.814-.432666-.740664-.528-1.188-.143-.927664-.143-1.441v-4.928zm8.938-2.112h2.53v1.76h.044c.293335-.616003.703997-1.114665 1.232-1.496s1.143996-.572 1.848-.572c.102667 0 .212666.003667.33.011s.22.025667.308.055v2.42c-.176001-.044-.326333-.073333-.451-.088s-.245666-.022-.363-.022c-.601336 0-1.085331.109999-1.452.33-.366668.220001-.652666.483998-.858.792s-.344666.623332-.418.946-.11.579332-.11.77v5.654h-2.64zm6.364 0h2.926l2.948 7.678h.044l2.618-7.678h2.75l-4.994 12.826c-.190668.484002-.395999.912998-.616 1.287s-.483998.689332-.792.946-.670998.450999-1.089.583-.92033.198-1.507.198c-.220001 0-.443666-.011-.671-.033s-.458332-.062333-.693-.121l.22-2.288c.176001.058667.348333.099.517.121.168668.022.326333.033.473.033.278668 0 .513332-.033.704-.099s.351999-.168666.484-.308.249333-.311666.352-.517.212666-.447332.33-.726l.528-1.342zm22.87-5.016h2.398l6.71 15.576h-3.168l-1.452-3.564h-6.754l-1.408 3.564h-3.102zm3.52 9.636-2.398-6.336-2.442 6.336zm6.936-4.62h2.508v1.694h.044c.234668-.528003.641664-.993665 1.221-1.397s1.264996-.605 2.057-.605c.689337 0 1.279664.120999 1.771.363s.894665.560998 1.21.957.546333.850664.693 1.364.22 1.041331.22 1.584v6.6h-2.64v-5.852c0-.308002-.022-.630665-.066-.968s-.139333-.641665-.286-.913-.348332-.494999-.605-.671-.597665-.264-1.023-.264-.791998.084332-1.1.253-.560999.384999-.759.649-.348333.568332-.451.913-.154.692998-.154 1.045v5.808h-2.64zm23.48 0v9.614c0 .953338-.117332 1.814996-.352 2.585s-.597664 1.422664-1.089 1.958-1.110996.949665-1.859 1.243-1.635328.44-2.662.44c-.425335 0-.876331-.036666-1.353-.11s-.945998-.183333-1.408-.33-.905665-.329999-1.331-.55-.806665-.469332-1.144-.748l1.518-2.046c.513336.484002 1.092663.854332 1.738 1.111s1.297997.385 1.958.385c.63067 0 1.162331-.091666 1.595-.275s.777332-.436332 1.034-.759.439999-.703998.55-1.144.165-.923997.165-1.452v-.77h-.044c-.381335.513336-.868997.905665-1.463 1.177s-1.257663.407-1.991.407c-.792004 0-1.510663-.146665-2.156-.44s-1.191664-.689331-1.639-1.188-.795665-1.081663-1.045-1.749-.374-1.374996-.374-2.123c0-.76267.120999-1.48133.363-2.156s.586664-1.261331 1.034-1.76.989997-.894665 1.628-1.188 1.352996-.44 2.145-.44c.748004 0 1.444663.153998 2.09.462s1.158665.784663 1.54 1.43h.044v-1.584zm-5.632 1.848c-.484002 0-.912998.087999-1.287.264s-.689332.414332-.946.715-.454666.656331-.594 1.067-.209.850664-.209 1.32c0 .425335.069666.835998.209 1.232s.337332.751665.594 1.067.571998.568332.946.759.795664.286 1.265.286c.484002 0 .920331-.091666 1.309-.275s.718665-.428998.99-.737.480333-.663665.627-1.067.22-.824998.22-1.265c0-.454669-.073333-.887331-.22-1.298s-.355665-.769998-.627-1.078-.597665-.549999-.979-.726-.813998-.264-1.298-.264zm18.376 8.712h-2.508v-1.694h-.044c-.234668.528003-.641664.993665-1.221 1.397s-1.264996.605-2.057.605c-.689337 0-1.279664-.120999-1.771-.363s-.894665-.560998-1.21-.957-.546333-.850664-.693-1.364-.22-1.041331-.22-1.584v-6.6h2.64v5.852c0 .308002.022.630665.066.968s.139333.641665.286.913.348332.494999.605.671.597665.264 1.023.264c.410669 0 .773665-.084332 1.089-.253s.571999-.384999.77-.649.348333-.568332.451-.913.154-.692998.154-1.045v-5.808h2.64zm3.152-16.632h2.64v16.632h-2.64zm12.348 15.29h-.066c-.264001.469336-.68933.854332-1.276 1.155s-1.253996.451-2.002.451c-.425335 0-.868998-.054999-1.331-.165s-.887331-.293332-1.276-.55-.711332-.593998-.968-1.012-.385-.934997-.385-1.551c0-.792004.223664-1.422664.671-1.892s1.022997-.828665 1.727-1.078c.704004-.249335 1.484996-.414333 2.343-.495s1.697663-.121 2.519-.121v-.264c0-.660003-.238331-1.147665-.715-1.463s-1.044997-.473-1.705-.473c-.557336 0-1.092664.117332-1.606.352s-.938665.520665-1.276.858l-1.364-1.606c.601336-.557336 1.294329-.975332 2.079-1.254s1.580329-.418 2.387-.418c.938671 0 1.71233.131999 2.321.396s1.088998.608665 1.441 1.034.597666.901997.737 1.43.209 1.055997.209 1.584v6.424h-2.464zm-.044-3.476h-.594c-.425335 0-.872664.018333-1.342.055s-.901998.117333-1.298.242-.725999.300666-.99.528-.396.538998-.396.935c0 .249335.054999.458332.165.627s.252999.304333.429.407.373999.176.594.22.439999.066.66.066c.909338 0 1.598664-.241998 2.068-.726s.704-1.143996.704-1.98zm5.528-5.742h2.53v1.76h.044c.293335-.616003.703997-1.114665 1.232-1.496s1.143997-.572 1.848-.572c.102667 0 .212666.003667.33.011s.22.025667.308.055v2.42c-.176001-.044-.326333-.073333-.451-.088s-.245666-.022-.363-.022c-.601336 0-1.085331.109999-1.452.33-.366668.220001-.652666.483998-.858.792s-.344666.623332-.418.946-.11.579332-.11.77v5.654h-2.64z"/><filter id="n" height="145.6%" width="104.6%" x="-2.3%" y="-18.3%"><feOffset dx="0" dy="1" in="SourceAlpha" result="shadowOffsetOuter1"/><feGaussianBlur in="shadowOffsetOuter1" result="shadowBlurOuter1" stdDeviation="1.5"/><feColorMatrix in="shadowBlurOuter1" type="matrix" values="0 0 0 0 0.117647059   0 0 0 0 0.211764706   0 0 0 0 0.341176471  0 0 0 0.65 0"/></filter><mask id="o" fill="#fff"><use fill="#fff" fill-rule="evenodd" xlink:href="#d"/></mask></defs><g fill="none" fill-rule="evenodd"><use fill="#000" filter="url(#b)" xlink:href="#a"/><use fill="#fff" fill-rule="evenodd" xlink:href="#a"/><use fill="url(#c)" xlink:href="#d"/><g mask="url(#o)"><g transform="translate(23 48)"><path d="m175.444444 33.8v151.8 114.9l118.35-65.55 21.3-184.65-139.65-49.8z" fill="url(#e)" fill-rule="nonzero"/><path d="m218.628711 147.553026c-1.930589-.094675-3.998072.092115-5.996469-.089557-2.059807-.190628-3.903398-2.109703-5.818634-2.377094-2.209495-.309611-4.435622.45546-6.144878.047337-2.360462-.55909-4.847582-.362065-7.224676-.646088-2.583075-.308332-4.969124-1.399646-7.173502-1.438027-3.321278-.06141-6.137201-.399168-7.421701-.031985-2.927229.836717-3.267545 1.931869-8.281447 1.512231-2.396285-.198304-4.679984-1.677271-6.884361-1.477687-2.411637.217495-4.647999 1.137371-6.830627.919876-1.32672-.131776-3.344307.797056-5.814796 1.004316-1.797534.152247-3.889325-.596193-5.947853-.336478-1.935706.241804-3.83687 1.136092-5.755944 1.423954-2.068763.304493-4.209171-.319846-5.968323-.025588-2.471768.413241-4.096585 1.992-5.479598 2.146805-2.833833.319846-4.276978-.015353-5.963205-.577002-1.363822-.454181-4.100423-.602589-7.268175-.584678-2.656.017911-5.450173-1.229487-7.548361-1.229487-2.172393 0-4.825833 1.187267-7.3602912 1.101549-2.8274368-.102351-5.3503804-1.413719-7.1172085-1.856385-1.3651018-.339037-4.0812323.899406-7.1069734.864863-2.1723926-.028147-4.5840299-1.261472-6.9790351-1.232046-2.4359455.029426-4.8501415.084439-6.9688.084439-3.0590052 0-4.9473747 1.719491-6.744908 2.287537-2.3847702.744601-4.4560915.598751-7.0775476.836717-1.9779264.179113-3.7626659 1.510951-5.3977175 1.539098-2.163437.031984-3.9648084-1.308809-5.3964382-1.546775-.8584661-.142011-3.3686158-.857186-6.1986114-.784261-1.9894408.044778-4.1810241.327522-6.1448772.409402-.0831599.002559-.0588517.120262.0281464.194466v59.119016h184.9680987z" fill="url(#f)" fill-rule="evenodd" transform="matrix(.99026807 .1391731 -.1391731 .99026807 25.568462 -15.985553)"/><path d="m303.873839 96.6206619c-.163893-.0189746-.332513-.0585052-.504285-.1185916-.217473-.0537615-.439674-.1059419-.655571-.1581222-.063035-.0031624-.127647-.0205559-.187531-.0110685-.502709.0838047-.896681.784286-1.394663.8712532-.501133.0806423-1.076333-.3146632-1.569587-.2308584-.504285.0790611-1.021177.0300432-1.516006.1201729-.502709.0806423-.917169.6514633-1.411998.7321057-.502709.0822235-1.087365-.3589374-1.579042-.2782951-.505861.0838048-1.014874.0774799-1.506552.1549598-.505861.0790611-.838374 1.2159595-1.325324 1.2934394-.504285.0838048-.992811.2593204-1.479761.3368003-.516892.0774798-1.063726-.0901297-1.582194.0063249-.518468.0948733-1.081061-.0901297-1.597953.0205558-.515316.1091043-.915592.6957379-1.424605.8190729-.515316.123335-1.237074-.5929581-1.747662-.4569731-.505861.1391476-.934504.5771461-1.437213.7289431-.509012.151797-1.058998.156541-1.561707.317826-.499557.164447-.948686.49176-1.443516.660951-.502709.175515-1.17719-.123336-1.665716.058505-.496406.185003-.921896.570821-1.408846.76373-.491678.197653-.721758 1.043606-1.202405 1.244421-.488526.20714-.923471.515479-1.39939.728944-.488526.211883-.978628.382655-1.446668.600864-.488526.229277-1.079485.19449-1.542797.42693-.480646.237183-.74382.874416-1.200828 1.114761-.479071.249833-1.323748-.226114-1.771301.0253-.477495.265645-.570472 1.157454-1.006994 1.413612-.472767.281458-1.367873-.172353-1.791788.096455-.472767.298851-.986507.499666-1.389935.777961-.400276.287782-.669754.796936-1.111003 1.108436-.403428.287783-.365606 1.241259-.7974 1.548016-.408156.286202-1.337932-.151797-1.776029.150217-.409732.284619-.327785 1.321901-.765883 1.619171-.412883.281457-1.43406-.324151-1.87531-.034787-.420762.281457-.73594.719456-1.17719 1.007238-.42549.27197-.480646 1.149548-.926623 1.4231-.431794.268807-1.244954-.072736-1.690931.19449-.434946.260902-.904561.46646-1.355266.728943-.436521.254577-.572048 1.072069-1.029056 1.325064-.442825.24509-1.103124.115429-1.564859.355775-.449129.237183-1.074758.12966-1.541221.363681-.455433.229277-.817888.637233-1.289079.858604-.463312.216627-.855708.578727-1.330051.787448-.466464.210303-.934503.42693-1.411998.627745-.469616.197653-.906137.487016-1.389936.679926-.47907.185002-.803704.792192-1.293806.972451-.477495.175516-.984931.330475-1.471882.496504-.485374.164447-.980203.222952-1.441939.411117-.474343.191328-1.202405-.216627-1.659413 0-.457008.21979-.984932.355775-1.421453.596121-.447553.243508-.665026.901296-1.092092 1.166942-.430218.265645-.814736.605608-1.229195.890227-.414459.289364-.712302.735269-1.11573 1.040444-.401853.302014-.791097.608771-1.183494.929759-.392397.317825-1.194525.151797-1.572739.483854-.384517.330475-.789521.657788-1.159855 1.000913-.37191.343125-.308875 1.155873-.669754 1.503742-.365606.34945-1.029056.392143-1.386783.751081-.356152.355774-.471192.959801-.827343 1.318739-.356151.365262-1.194525.24667-1.545949.60877-.356151.363681-.334088 1.092624-.687088 1.451562-.357727.363681-.972324.460135-1.325324.820654-.356151.355775-.064611 1.374081-.427066 1.723531-.359303.358938-1.471882-.080642-1.839064.265646-.370334.34945-.069339 1.426262-.442825 1.756737-.37979.343125-1.210284.151797-1.596378.475948-.389244.32415-.932927.420605-1.330051.725781-.401852.309919-.705999.713131-1.117306.997751-.401853.281457-.597263.890228-1.022753 1.192241-.400277.281458-.668178.777961-1.087365 1.084718-.403428.286201-.902985.450648-1.325324.752662-.3987.294107-1.046391.25932-1.464002.566077-.401852.292526-.562593.928177-.972324 1.231772-.405004.295688-.649267.814329-1.062151 1.121086-.406579.292526-.877771.505991-1.289078.809586-.401852.298851-.789521.629326-1.199253.934502-.408155.300432-.680784.779542-1.087364 1.078393-.408156.298851-1.413574-.21979-1.823306.080643-.408155.29885-.723333.73843-1.128337 1.034119-.412883.298851-.40658 1.176429-.816311 1.473698-.41446.298851-1.314293-.086967-1.724025.211884-.419186.29727-.378213 1.233353-.789521 1.519554-.419187.29727-.931351.45223-1.34581.741593-.422339.290945-.797401.641976-1.21186.923434-.42549.287782-.652419.868091-1.066878 1.143223-.427066.286201-1.197677.042693-1.613712.314663-.434946.281458-.71703.787449-1.139369 1.046769-.441249.278295-.753275.754243-1.17719 1.004076-.450704.265645-.977052.382656-1.405694.619839-.458584.257739-.795825.744756-1.226043.961383-.475919.240346-1.18507-.037949-1.620015.148635-.482223.203977-1.066878.156541-1.511279.370006-.472768.230858-.798977.719456-1.232347.955058-.466463.24667-.630356.959801-1.049543 1.212797-.45228.275132-1.31902-.159704-1.728752.113848-.438097.294107-.483798 1.110017-.876195 1.399381-.42549.317826-1.355266-.045855-1.733479.25932-.41446.343126-.743821.770055-1.101548 1.087881-.409731.360519-.31045 1.231772-.65557 1.555922-.405004.379494-1.267016.194491-1.605833.512316-.420762.385818-.876195.553428-1.224467.815911-.319905.240345-.639811.657788-1.197676 1.015144-.397125.257739-.917169.404793-1.421454.714712-.42549.259321-.737516.762149-1.229194 1.053094-.43337.25932-.543682 1.130574-1.027481 1.413612-.439673.252996-1.347386-.25932-1.826457.015813-.447553.256158-.945534.460135-1.419877.728943-.162317.091711-.280509.262483-.390821.450648-.195411.346288-.356151.762149-.66345.932921-.452281.252995-1.133065.12966-1.607408.388981-.46016.256158-.682361.951895-1.156704 1.214378-.463312.252995-.896682.580308-1.372601.836466-.461735.252996-.986507.398468-1.459274.660951-.469616.246671-1.101548.19449-1.575891.447486-.469615.249833-.762731.842791-1.235498 1.092624-.419187.222952-.929775.358937-1.404118.637232-.416035.246671-.614598.898134-1.071606 1.185917-.412883.265645-1.049543.210302-1.493944.502828-.414459.271971-1.215012.003163-1.651533.29727-.411308.286201-.535803 1.018307-.966021 1.318739-.409732.286201-.83995.570821-1.267016.872835-.409732.290944-.649267.838047-1.07003 1.143223-.411307.298851-1.022753.327313-1.44194.632489-.406579.303594-1.112578.213465-1.531765.521803-.403428.303594-.154437 1.502161-.567321 1.813661-.406579.305176-1.482913-.275132-1.895796.039531-.405004.309919-.375062 1.204891-.784793 1.516392-.405004.309919-.597263.909202-1.002267 1.223865-.40658.314663-1.489216-.24667-1.895796.067993s-.40658 1.157454-.810008 1.472117c-.408155.319407-1.215011.124917-1.613712.43958-.406579.320988-.701271.781124-1.103123 1.098949-.405004.320988-.422339 1.130574-.822615 1.442074-.409731.324151-.918744.509154-1.31902.828561-.40658.32415-.756428.719456-1.151976 1.034119-.408156.327313-1.237074.110685-1.631047.428511-.409731.327313-.187531 1.431006-.583079 1.745669-.409732.330475-1.241802.113848-1.632623.425348-.416035.333638-.564169.974033-.948686 1.282371-.417611.339963-.702847.806423-1.084213 1.111599-.427066.343125-1.394663-.049018-1.769725.249833-.442825.355775-.549985 1.053094-.907713 1.334552-.493253.392143-1.098395.444323-1.408846.676763-.414459.314663-.393972 1.095786-.679208 1.497417-.293116.411117-.182804.951895-.365607 1.426262-.072491.191328-.274205.346287-.491678.498085.46804.166028 1.058999.626163 1.378904.482272.431794-.197653.669754-.806423 1.101548-.997751h191.519548z" fill="url(#g)" fill-rule="evenodd" transform="matrix(.97029573 .2419219 -.2419219 .97029573 43.539324 -47.939185)"/><g fill="none" fill-rule="nonzero"><use fill="#000" filter="url(#i)" xlink:href="#h"/><use fill="#fff" fill-rule="evenodd" xlink:href="#h"/></g><g fill-rule="evenodd"><path d="m54.5845624 135.721761c.1251475-.01448.2539049-.044648.3850691-.090504.166061-.041028.3357321-.08085.5005898-.120672.0481336-.002413.0974706-.015687.1431975-.008447.3838658.063956.684701.598534 1.0649567.664904.3826624.061543.8218818-.240138 1.1985275-.176182.3850691.060336.7797649.022928 1.1576139.091711.3838657.061543.7003444.49717 1.0781934.558712.3838657.06275.8303052-.273925 1.2057475-.212383.3862724.063957.7749515.05913 1.1503939.118259.3862724.060336.6401773.927969 1.0120096.987099.3850691.063956.7581048.197902 1.1299371.257031.3946958.05913.8122551-.068783 1.2081542.004827.3958992.072404.8254918-.068783 1.2201876.015688.3934925.083264.6991411.530957 1.0878202.625082.3934924.094124.9446225-.452521 1.334505-.348743.3862724.106192.7135811.440454 1.0974468.556299.3886791.115845.8086451.119465 1.1925108.242551.3814591.125499.7244112.37529 1.1022603.50441.3838657.133946.8988956-.094125 1.2719312.044648.3790524.141187.7039544.435627 1.0757868.582847.3754423.15084.5511301.796437.918149.94969.3730357.158081.7051578.393392 1.0685667.556299.3730357.161701.7472747.292027 1.1046669.458554.3730357.174975.8242885.148427 1.1780707.325815.367019.181009.5679769.667318.9169457.850739.3658157.190662 1.0108064-.172561 1.3525552.019308.3646122.202729.4356093.88332.7689348 1.078809.3610022.214797 1.0444998-.131532 1.3681985.07361.3610023.228071.7532914.381324 1.0613467.593707.3056485.219624.5114198.608188.8483553.845912.3080552.219624.279175.947277.6088904 1.181381.3116653.218417 1.0216364-.115845 1.3561652.114639.3128686.21721.2502949 1.008819.5848236 1.235683.3152753.214797 1.0950402-.247378 1.4319756-.026548.321292.214797.5619602.549059.8988957.768682.324902.207556.3670189.877287.7075644 1.08605.3297154.205143.9506393-.055509 1.2911847.148427.3321221.199109.6907177.355983 1.0348732.556298.3333254.194283.4368127.818158.7857815 1.011233.3381388.187042.8423386.088091 1.1949175.271513.3429521.181008.8206785.098951 1.1768674.277546.3477655.174975.6245339.486309.9843328.65525.3537822.165321.6534141.44166 1.0156197.600947.3561888.160494.7135811.325815 1.0781934.479069.3585951.15084.6919211.37167 1.0613461.51889.365816.141187.613704.604568.987943.742134.364613.133946.752088.252205 1.123921.378911.370629.125499.748478.170148 1.101057.313748.362205.146013.918149-.165321 1.267117 0 .348969.167734.752089.271512 1.085414.454934.341749.185835.50781.687831.833915.890561.328512.202729.622127.462174.938606.679384.316479.22083.54391.561126.851965.794023.306852.230484.604077.464588.903709.709553.299632.242551.912133.115845 1.200934.369257.293616.252204.602874.501996.885659.763855.283989.261858.235855.882113.51142 1.147592.279175.266686.785782.299267 1.05894.573193.271955.271512.359799.73248.631754 1.006406.271955.278753.912132.188249 1.180478.464588.271955.277546.255108.833845.524656 1.107771.273158.277546.742461.351156 1.01201.626288.271955.271513.049337 1.048642.326105 1.315327.274362.273926 1.123921-.061543 1.404299.20273.282785.266685.052947 1.088463.338139 1.340668.290005.261858.924165.115845 1.218984.363223.297225.247378.712378.320988 1.01562.553885.306852.236518.539096.544232.853168.761442.306852.214796.456067.679384.780969.909868.305648.214797.510216.593707.830305.827811.308055.218417.689514.343916 1.012009.5744.304446.22445.799019.197902 1.117904.432006.306852.223244.429593.708346.742461.940037.309259.225657.495777.621462.811052.855566.310462.223243.670261.386151.984333.617841.306852.228071.602874.480276.915742.713173.311666.229277.519844.594914.830305.822984.311666.228071 1.079397-.167734 1.392266.061543.311665.228071.552333.563539.861592.789196.315275.228071.310462.897801.62333 1.124665.316479.228071 1.003587-.06637 1.316455.161701.320089.226864.288802.941243.602874 1.15966.320089.226863.711175.345122 1.027653.565952.322496.222037.608891.489929.925369.704726.324902.219623.498183.66249.814662.87246.326105.218416.914539.032581 1.232221.240137.332122.214797.54752.600948.870016.79885.336935.212383.575197.575607.898895.766269.344156.202729.746072.292026 1.07338.473035.350172.196695.607687.568366.936199.733687.363409.183421.904913-.028962 1.237035.113432.368222.155667.814662.119465 1.154004.282372.361002.176182.610094.549059.941012.72886.356189.188249.481337.732481.801425.925556.345359.20997 1.007197-.121879 1.320065.086884.334529.22445.369426.847119.669058 1.067949.324902.242551 1.034873-.034995 1.323675.197902.316478.261859.567977.587674.841135.830225.312869.275133.237058.940037.50059 1.187415.309258.289613.967486.148426 1.226204.390977.321292.294441.669058.422353.934996.622669.244278.183422.488556.501996.914539.774715.303242.196696.700344.308921 1.085413.545439.324902.197902.563164.58164.938606.803677.330919.197902.415153.862806.784578 1.078809.335733.193075 1.028857-.197902 1.394673.012067.341748.195489.722004.351156 1.08421.556299.123944.06999.214194.200316.298428.343916.149214.264272.271955.58164.506607.711966.345358.193075.865202.098951 1.227407.296853.351376.195489.521047.726447.883253.926763.353782.193075.6847.442867 1.048109.638356.352579.193075.753292.304093 1.114294.504409.358596.188249.841135.148427 1.203341.341503.358595.190662.582417.643182.943419.833844.320089.170148.709971.273926 1.072177.486309.317682.188249.469303.685418.818272.905042.315275.202729.801425.160494 1.140767.383737.316478.207557.927776.002414 1.261101.226864.314072.218417.409136.777129.737648 1.006406.312869.218417.641381.435627.967486.666111.312869.222037.495776.639562.817068.87246.314072.22807.780969.249791 1.101057.482688.310462.231691.849559.162908 1.169648.398219.308055.23169.117927 1.146385.433202 1.38411.310462.232897 1.132344-.20997 1.447619.030168.309259.236517.286395.919522.599264 1.157246.309259.236518.456066.693865.765325.934003.310462.240138 1.137157-.188249 1.447619.051889s.310462.88332.618517 1.123458c.311665.243758.927776.095331 1.232221.335469.310462.244964.535487.59612.842339.838671.309258.244965.322495.862807.628144 1.100531.312868.247378.701547.388564 1.007196.632322.310462.247378.577604.549059.879642.789196.311665.249792.944623.084471 1.245458.327022.312869.249791.143197 1.092083.445236 1.332221.312869.252205.948233.086884 1.246661.324608.317682.254618.430796.743341.724411.978652.318886.259445.53669.615428.827899.848325.326105.261859 1.064956-.037408 1.351352.190662.338138.271513.419966.803677.693124 1.018473.376646.299267.838729.339089 1.075787.516477.316478.240138.300835.836259.51864 1.142766.223821.313748.139587.726447.279175 1.088463.055353.146014.209381.264272.375442.380118-.357392.126705-.808645.477862-1.052923.36805h-150.947077v-86.375949z" fill="url(#j)" transform="matrix(.97029573 -.2419219 .2419219 .97029573 -39.769211 34.105771)"/><path d="m.16910219 214.983135c.14466283-.573193-.29114532-1.238278-.13465471-1.737774.18105599-.576832 2.25546639-2.440162 2.45380914-2.910543.24474403-.581381.59957739-1.188237.8716163-1.592201.37575942-.559545.93348467-1.581283 1.36383385-1.765069.54407781-.233826 1.62950395.913469 2.11717236.723314.55499577-.216539.93166502-.782453 1.42115309-.948042.57137269-.193793 1.09088512-.407603 1.58583216-.539528.58502012-.156491 1.18823682.062778 1.68682322-.019107.6004872-.098261 1.1099915-.416701 1.618586-.428529.5922987-.013648 1.1454748.001819 1.6713561.068237.5531761.070057.9489517.857059 1.5003082.973517.5186026.110089 1.139106-.161949 1.7186672-.049131.505865.099172 1.1054424-.145572 1.7022903-.070966.5231517.065507 1.0726885-.007279 1.6540693.028204.5304304.031844 1.0799672-.79792 1.6604382-.792461.5340697.005459 1.0681394.751519 1.6467907.732413.5358893-.019107 1.0708689-.150122 1.6467907-.191064.5367992-.039123 1.049033-.345736 1.6213155-.405784.5358893-.0555 1.2501052 1.249195 1.8196582 1.173679.5349795-.070057 1.0508527-.480389 1.6167664-.569553.5358893-.082794 1.1991548.415792 1.762339.314801.5358893-.096442.9625992-.90528 1.5239638-1.018099.5340696-.10645 1.2764902.664176 1.8351253.542259.5331599-.116459.8388624-1.323802 1.3929484-1.454817.5313402-.124647 1.2792197.570463 1.8305762.433078.5304303-.132835 1.1154505-.144662 1.6658971-.290235.5286107-.140114 1.0608607-.353014 1.607668-.504955.5613646-.155581.6350608-1.911551 1.1400159-2.060763.5595449-.165589 1.4966689 1.017189 1.9961651.860698.5586351-.177417.7851826-1.271941 1.2792198-1.43935.5540859-.188334.9043701-.816116 1.3920385-.993533.5531761-.199252 1.5394309.877985 2.0261895.69056.5422581-.20835.4258-2.009812.9152881-2.202696.5313402-.209261 1.4257022.564094 1.9306574.37394.5149632-.195613 1.4257022.794281 1.9543129.615954.5067748-.169228.7260437-1.196425 1.2819492-1.352006.5040454-.140114 1.0526723-.148302 1.6249549-.277498.5067748-.114638.857059-1.175499 1.4384398-1.281039.511324-.092803 1.213712.74242 1.7969125.655987.516783-.077336 1.1118112.298424 1.693192.225637.5468073-.068237 1.1036227-.010918 1.6731758-.071876.5486269-.059139.963509-1.517595 1.533062-1.570365.5513565-.051861 1.1618518.438537 1.7332245.392136.5522663-.044582 1.075418-.605946 1.6458809-.647798.5531761-.039123 1.0945244-.450366 1.6649873-.486759.5540859-.036393 1.2146219 1.510316 1.7850847 1.476653.5549958-.031844 1.0854262-.575922 1.6549792-.605946.5559056-.030025 1.0963441-.513144 1.6658971-.541349.5559056-.028204 1.1227291-.002729 1.6913723-.030024.5568155-.026385 1.1791386 1.22281 1.7486916 1.195515.5577253-.025475 1.0663197-1.219171 1.6349629-1.245556.5586351-.025475 1.1436552.423981 1.7122984.399415.5577253-.027295 1.1527535.627782 1.7204869.601397.5577253-.026385 1.1027129-.455824 1.6704463-.484029.5586351-.026385 1.0572214-1.38294 1.624045-1.411145.5595449-.028204 1.2037039 1.536702 1.7714373 1.507587.558635-.029114 1.1136308-.286596 1.6813642-.31844.5595449-.030024 1.1145406-.252023 1.682274-.284777.5613646-.031844 1.155483.408514 1.7241262.37394.5604547-.033664.9962629-2.148106 1.5649061-2.1845.5613646-.035483 1.1918761.982616 1.7605193.943493.5586351-.037303 1.0708689-.793371 1.6376922-.834313.557726-.040942 1.104533-.258392 1.670447-.302063.567733-.043672 1.230998 1.123639 1.778715 1.058131.565004-.065508.994444-1.002632 1.537612-1.090885.560454-.089163 1.06268-.299334 1.601299-.408513.555906-.113729 1.089065-.167409 1.624045-.300244.550447-.135565 1.447538 1.043574 1.976149.890723.544078-.157401.526791-2.07987 1.049943-2.252737.536799-.176507 1.458456.820666 1.976148.631421.530431-.193793.730593-1.211892 1.243737-1.416604.524971-.21017 1.729585 1.239187 2.238179 1.022648.519513-.220178.797011-1.013549 1.302876-1.238277.514963-.229277.666904-1.250105 1.17004-1.479382.512234-.233827 1.611307.829764 2.114443.599577.510414-.232916.792461-.945312 1.295597-1.17004.514053-.229277 1.005361-.476751 1.513955-.69238.518603-.219269.808838-.970788 1.324711-1.17186.524062-.203802 1.051763-.397595 1.577644-.577742.529521-.181056 1.163672-.012737 1.699561-.164679.537709-.151941 1.160942.164679 1.707749.047311.544078-.117368.834313-1.688642 1.390219-1.766888.548627-.077335 1.150024-.410333 1.714118-.444906.550447-.033664 1.192786.085524 1.760519.097352.547718.010917 1.024468 1.59675 1.592201 1.653159.562275.056409 1.124549.274768 1.678635.315711.564094.041852 1.228269-1.642242 1.783265-1.614037.564094.027295 1.104533-.05277 1.658619-.038213.565913.013647 1.099073 1.847863 1.652249 1.848773.566824.00091 1.108172-1.765069 1.660439-1.775077.565913-.011828 1.124548.463103 1.676815.440358.566823-.023656 1.157302.630511 1.706839.596847.567733-.036393 1.191876.681462 1.739593.636881.568644-.047311 1.130918-.241105 1.676815-.297514.569553-.05732 1.061771-.764257 1.603119-.828855.570463-.068237 1.01355-.986254 1.551259-1.059951.571373-.077335 1.079967-.375759 1.613127-.456734.575922-.087343 1.078148-.420341 1.605848-.505865.582291-.095532 1.412055 1.486661 1.931568 1.398408.595028-.102811 1.067229-.661446 1.572184-.74788.623233-.10645 1.296507.655077 1.772347.58684.395776-.057319.831584-.946222 1.503948-1.060861.47948-.081885 1.185507.722404 1.782355.615954.502226-.090983 1.050853-.166498 1.624045-.272039.512234-.094622.648708-2.362826 1.210073-2.468366.520422-.097352 1.352006 1.348367 1.907002 1.242827.524971-.100082.782453-1.661348 1.33199-1.767798.52861-.102811 1.4348 1.685913 1.981607 1.579463.531341-.103721 1.094525-.100081 1.638603-.207441.53316-.10736 1.027197-.443087 1.568545-.551356.536799-.10736.731503-1.909732 1.271031-2.018911.537709-.11009 1.028107-.436718 1.563997-.548627.537709-.11009 1.369292 1.215531 1.901543 1.104532.540438-.112819.84887-1.302875 1.378391-1.415694.542258-.115548 1.307424.841592 1.835125.727863.544988-.117367 1.251015.532251 1.774167.416702.548627-.121007.90255-1.06359 1.422063-1.180958.552266-.124647.961689-.786092 1.474833-.90619.559545-.131015 1.177319.100991 1.679544-.021836.573193-.140113 1.33108.58684 1.817839.459464.603217-.156491.570463-2.299138 1.017189-2.432883.524971-.1574 1.350186.569553 1.904272.473111.53407-.091893 1.197335 1.085426 1.764159 1.045394.538619-.037303 1.021738-1.002632 1.59402-.997173.538619.003639 1.083607.110089 1.655889.151032.539529.038212.998083.854329 1.569456.922566.535889.061869 1.144565-.453095 1.713208-.366661.53316.080975.935304.947132 1.499398 1.047214.53316.094622 1.381121-1.44026 1.943395-1.330171.53316.103721.733323 1.905183 1.293777 2.022551.53316.110999 1.12182-.018197 1.679545.10372.53225.115548 1.069049.248383 1.624955.37212.53134.118278 1.17004-.196523 1.724126-.071876.53225.120097 1.253744-.547717 1.80783-.421251.53316.121007.823396 1.367473 1.377482 1.49212.534069.121007 1.214621-.357563 1.768707-.233827.53498.119188.932575.90892 1.486661 1.030837.53498.118278 1.031746.474931 1.585832.595938.590479.127376 1.339269-.567733 1.883347-.461283.594118.116458 1.365653-.934395 1.907001-.841592.600488.1019 1.17277-.041853 1.715028.031844.605947.082794 1.035386 1.153663 1.575824 1.201884.614135.055499 1.201885-.589569 1.742323-.575012.618684.017287 1.163672.678732 1.699561.646888.617774-.037303.987165-1.123639 1.516685-1.219171.601397-.110089 1.604939 1.594021 2.126271 1.415695.558635-.189245 1.291957-.227458 1.801461-.48221.509505-.253842.520423-1.495759 1.026288-1.802371.47493-.288416.542258-1.251015 1.051762-1.574915.464013-.293874.831584-.832493 1.353826-1.147294.468562-.282047 1.536701.376669 2.07441.082794.507685-.276588.392137-1.519414.848871-1.803281.489488-.303883 1.291957-.017287 1.735954-.328448.465832-.328449 1.181868-.277498 1.613127-.614135.443087-.347555.58229-1.046303 1.004451-1.402956.4258-.360293 1.607668.1574 2.028919-.211991.414882-.363021.100991-1.565816.529521-1.938846.410333-.359382 1.563996.134655 2.000714-.232916.415792-.350284.335727-1.311064.787912-1.667717.42398-.336636.302973-1.448448.770625-1.791453.434898-.31844 1.122729-.361202 1.603119-.686011.445816-.302064 1.593111.440357 2.086238.133745.456734-.283867.924387-.546808 1.426612-.836133.467652-.2684.408514-1.523964.919838-1.796913.499496-.26658 1.107262-.408513 1.631323-.615954.522242-.205622.968058-.841592 1.514866-.994443.538618-.150122 1.109991-.565004 1.669536-.667815.549537-.101901 1.281949.671454 1.848773.610495.556815-.060048 1.107262-.695109 1.677725-.720584.557725-.024566 1.160032.415792 1.732314.418521.558635.003639 1.06905 1.535792 1.639512 1.562177.557726.024565 1.246466-2.058944 1.81511-2.016182.557725.042762 1.00991 1.426612 1.578553 1.483932.556816.054589 1.040845.746969 1.606758.812477.556816.064598 1.240097-.920747 1.805101-.84978.559545.070057 1.091795.373939 1.657709.448545.559545.072787 1.295597-1.185507 1.859691-1.111811.560454.072787.951681 1.471194 1.516685 1.541251.558635.070966 1.17004-.278408 1.732314-.21472.561365.064598 1.151844-.202892 1.715028-.146482.562275.056409 1.061771.761527 1.624955.807018.563184.044582 1.124549.173777 1.688643.205621.565004.030935 1.152754-.605946 1.716848-.590479.565913.014558 1.125458 1.533972 1.690462 1.530333.565914-.004549 1.134557-.788822 1.697741-.815207.631422-.030024 1.229179.588659 1.777806.576832.64143-.015467 1.201885-.402145 1.740503-.394866.657807.007278 1.210073.070967 1.730495.10645.686921.046401 1.251015-.156491 1.739594-.070967.733322.130106 1.552168-.489488 1.96887-.298424.678732.309342.751519 1.247376 1.126368 1.603119.370301.353014.720585.879805 1.432071 1.140016.432169.1574 1.06541.114638 1.808741.197433.560454.061868 1.133647.063688 1.697741.020016.552266-.041852.915288-1.037205 1.476653-1.160942.534979-.119187 1.239187.490398 1.789633.312072.522242-.167409.777904-1.061771 1.318343-1.268302.514053-.197433 1.027197-.379399 1.562176-.599578.512234-.21108 1.629504 1.017189 2.162664.796101.511324-.21199.95987-.576832 1.49394-.788822.514963-.203802.988074-.503135 1.528513-.698749.522241-.190154.886173-.845231 1.4348-1.018098.529521-.169229.882534-1.050853 1.43935-1.198245.536799-.141024 1.358375.844321 1.921559.728773.543168-.110999 1.129098.167408 1.698651.085524.650528-.092803 1.194605-.196523 1.660438-.261121.755158-.104631 1.284679.191974 1.662258.15922 1.289228-.111909.071876-.698749.293875-.030025.10645.32117.959869.554996 1.70138 1.039935.368481.242015 1.018099.141933 1.65043.42398.444906.196524 1.149114-.201072 1.753241.014558.536799.191064.978976.454004 1.48757.607766.544988.165588.95987.566823 1.474833.69238.552267.134654.871617 1.250105 1.393859 1.343817.558635.099172 1.240097-.84978 1.768707-.792461.560455.060959 1.01355 1.442989 1.54671 1.461186.561364.020016 1.148204-.341186 1.684094-.360293.558635-.020016 1.071778-.610495 1.609487-.665995.550447-.055499 1.276491 1.096344 1.8142 1.01173.544077-.085524 1.059041-.504045 1.59766-.610495.536799-.10554.728773-1.876978 1.266482-1.994345.53316-.114639 1.431161 1.431161 1.972509 1.312883.530431-.114639.815207-1.432071 1.362014-1.541251.513144-.10281 1.143656-.10281 1.711389-.115548.526791-.010918 1.078147.47857 1.640422.536799.526791.0555.842502 1.253745 1.392948 1.363834.524972.10463 1.361105-1.182778 1.898814-1.033566.518602.144663 1.058131.304793 1.584012.485849.510414.174687.656897 1.320162 1.169131 1.524874.504045.201982 1.17004-.019107 1.669536.207441.496767.225637.968968.47766 1.455727.724224.489488.247473.85069.699658 1.323801.964418.483119.2684 1.540341-.454914 2.000714-.173777.472202.289326.441267 1.364744.884354 1.662258.464923.312981.53134 1.11545.955321 1.431161.454914.339366 2.178131-.935304 2.575726-.598667.441267.373939-.671454 2.39558-.311162 2.755872.378489.379399 1.271032.436718 1.752331.751519.450366.293875 1.018099.580471 1.536702.823395.493127.231097 1.480292-.726953 2.014361-.538619.518603.183786.903461.69602 1.442079.843412.5368.146482.934395.876165 1.473924.990804.552266.117368 1.079057.431259 1.617676.520422.565004.091893 1.281949-.995353 1.81147-.929845.5832.072786 1.11818.085524 1.634053.131015.621413.0555 1.16822-.10463 1.644971-.080065 1.025377.0555.509504.453095.766076 1.242827.26294.807018.221088.69329.366661 1.493029.151941.835223 1.072689.810658 1.032656 1.657709l.001267 111.54778h-395.05089089z" fill="url(#k)"/><path d="m319.794836 301.129776c-.751128-.289786-1.356202-1.050187-2.146741-1.335337-.813721-.303697-2.081828.765037-2.805136.493797-.820676-.308334-.945864-2.251064-1.662217-2.536214-.822994-.317607-2.139785.832267-2.849183.547117-.822994-.329198-1.750312-.229511-2.452755-.523934-.804448-.345426-1.80827-.099687-2.517668-.412657-.778947-.343107-.922681-1.996051-1.650625-2.327567-.741854-.333834-1.149874-1.381703-1.910274-1.734084-.711717-.322243-1.750313-.009273-2.550124-.361654-.697807-.308333-1.516164-.484523-2.334522-.829949-.700125-.29906-1.513846-.470614-2.336841-.799812-.709398-.289786-1.530074-.449749-2.353068-.77431-.714035-.280513-1.244924-1.18233-2.056327-1.499936-.820676-.319925-2.225563.7604-2.965098.40802-.790539-.380201-1.838408-.42193-2.540851-.841541-.758082-.440476-1.231014-1.444297-1.898683-1.912593-.723307-.500751-.758082-1.882455-1.388658-2.404071-.674623-.561027-1.634397-.755764-2.227881-1.312154-.642167-.602757-.340789-2.081829-.901816-2.670675-.616666-.639849-2.295111-.199374-2.851502-.78822-.612029-.651441-1.425751-.982957-2.003006-1.534711-.649122-.625939-1.117418-1.177693-1.782768-1.627442-.723308-.491479-1.337656-.447431-2.149059-.669987-.771992-.210965-1.416478-2.295112-2.334522-2.200062-.850814.081141-1.550939.10896-2.443482.032457-.850814-.067231-1.785087.711716-2.66372.519297-.834586-.180827-1.543984-.846177-2.39248-1.112781-.822994-.25733-1.812906-.046366-2.642855-.36629-.806766-.317607-2.095738.403383-2.897868.034774-.48916-.215601-.929635-.574937-1.374748-.913408-.282832-.213283-.565664-.421929-.86936-.5703-.785902-.389474-1.905638-.20401-2.675312-.607393-.781265-.417293-.533207-2.740224-1.286653-3.150562-.783583-.435839-2.234836.361654-2.97669-.060276-.790538-.442794-1.217104-1.462843-1.949685-1.868545-.185464-.104323-.340789-.331516-.50307-.602756-.333834-.556391-.669987-1.316791-1.29129-1.57644-.700125-.294423-2.237154 1.300563-3.094922.987593-.7349-.27124-1.154511-1.585713-1.989097-1.8755-.758082-.261967-1.288971-1.326064-2.109647-1.606578-.771992-.261967-2.315976 1.694673-3.132016 1.421115-.778947-.261968-1.360838-1.175375-2.176878-1.448934-.783583-.257331-1.242606-1.539347-2.044735-1.805951-.01391-.004637-.020865-.01391-.034775-.01391-.771992-.275877-1.367793-1.103508-2.162968-1.377067-.785902-.261967-1.57644-.542481-2.373933-.813721-.795175-.27124-2.128195 1.036277-2.923369.7604-.792857-.275877-1.439661-.97832-2.227881-1.26347-.795175-.280513-1.65758-.36629-2.436527-.656077-.795175-.29906-1.641352-.452067-2.408708-.755764-.797493-.308333-1.532392-.765037-2.290474-1.078007-.792857-.326879-1.124373-1.680763-1.868546-2.009961-.792856-.350062-2.302066.873997-3.025373.519298-.792857-.389473-.941228-1.938094-1.627443-2.332204-.790538-.442794-2.47362.526253-3.094923.083459-.776628-.549436-.850814-2.028508-1.3307-2.56867-.547118-.614348.125187-2.547805-.493797-3.106514-.61203-.547118-1.59035-.873997-2.267292-1.363157-.663032-.479887-2.791226 1.268107-3.509897.843859-.700125-.42193-.530889-2.369297-1.284335-2.740224-.734899-.361654-1.669172-.322243-2.448119-.642167-.753445-.31297-1.217104-1.476754-2.009961-1.752631-.771992-.275877-2.186151 1.435024-2.992917 1.19624-.783584-.231829-1.247243-1.553257-2.0656-1.761903-.795175-.199374-1.79436.523934-2.617355.347744-.802129-.176191-1.509209-.741854-2.33684-.89718-.804448-.153008-1.583395-.447431-2.411026-.579574-.811403-.125188-1.588031-.505388-2.417981-.623621-.813721-.10896-1.715537.498433-2.547805.398747-.915726-.104323-1.599623-1.513846-2.401753-1.648307-.906453-.155326-1.564848-.973684-2.35075-1.168421-.894862-.227192-2.153695 1.068734-2.923369.797494-.860087-.303697-1.455889-1.163784-2.197743-1.534711-.797493-.384837-.906453-1.812906-1.629761-2.264974-.723307-.46134-2.040098.02782-2.754133-.493796-.674624-.493797-.841541-1.692355-1.557894-2.241791-.653759-.498433-2.656765.725626-3.387027.180827-.658396-.491478-.424248-2.258018-1.175376-2.784271-.672305-.470614-2.0656.064912-2.832955-.433521-.688533-.449749-1.00614-1.530074-1.792041-2.005324-.771992-.468296-1.444298-1.068734-2.253382-1.390977-.827631-.326879-1.492982-1.411841-2.350751-1.606578-.86936-.1901-1.891728.011592-2.772679-.060275-.88327-.067231-1.817543.166917-2.710086.194736-.878634.032456-1.787405.090414-2.668357.20401-.871678.113597-1.655262.827631-2.522304 1.010776-.871678.176191-1.996051-.697806-2.849183-.477568-.864724.222556-1.302882 1.95664-2.137467 2.202379-.864724.261968-1.643671.674624-2.468984.941228-.864723.275877-1.993733-.331516-2.800499-.062594-.878634.289787-1.599623.973683-2.401753 1.212468-.906453.275877-2.109647-.936591-2.907141-.760401-.966728.213283-1.604259 1.435024-2.376251 1.435024-.822995 0-1.342292-1.377067-2.223244-1.611214-.795175-.213283-1.97055.799811-2.802818.442794-.767355-.329198-.862405-2.014598-1.652944-2.441164-.751127-.391791-1.48139-.751127-2.24179-1.193921-.556391-.32688-1.145237-.59812-1.724811-.892543-.192418-.099687-.382518-.194737-.5703002-.303697-.7418541-.447431-1.6575803-.618985-2.3971161-1.064097-.7534456-.447431-1.3956131-1.126691-2.1421038-1.543984-.7696737-.433521-2.6753115 1.335337-3.4403485.959774-.7998115-.389474-1.2147862-1.384022-1.9983696-1.683082-.843859-.317606-1.1684202-2.62199-1.9821415-2.788908-.6908516-.136779-1.8940463 1.469799-2.8909128 1.307518-.7766285-.118233-1.6853998.076504-2.6150358-.05332-.8114029-.113597-1.8105877.850814-2.7170407.732581-.8229944-.10896-1.6645352-.280514-2.5570784-.389474-.8345859-.099687-1.3307009-3.282704-2.2162892-3.382391-.8438591-.099687-1.7503121.118233-2.6289456.023183-.8508139-.09505-1.8499987 1.068733-2.719359.973683-.8577689-.085776-1.6274425-1.173056-2.4944845-1.258833-.8600871-.076504-1.7688585.224874-2.6289456.148371-.867042-.081141-1.6390339-1.235651-2.4991211-1.307518-.8716786-.074186-1.7479937-.141416-2.6034443-.208647-.8739969-.062594-1.7642218.048684-2.6173541-.009273-.8786335-.062594-1.8847731 2.074873-2.7286322 2.023871-.8925432-.048684-1.6830815-1.597305-2.5176674-1.634398-.2086465-.006954-.4149747.062594-.6213028.155326l17.1391486 92.022368h255.8608516c-.621303-.280514-1.231014-.609712-1.884773-.867042-.751128-.294424-1.483709-.702443-2.26961-.996867" fill="url(#l)" transform="matrix(.99026807 -.1391731 .1391731 .99026807 -33.902167 28.586123)"/></g></g></g><g mask="url(#o)"><use fill="#000" filter="url(#n)" xlink:href="#m"/><g fill="#fff" fill-rule="evenodd"><use xlink:href="#m"/><use xlink:href="#m"/></g></g></g></svg>