<?xml version="1.0" encoding="UTF-8"?>
<svg width="400px" height="400px" viewBox="0 0 400 400" version="1.1" xmlns="http://www.w3.org/2000/svg" xmlns:xlink="http://www.w3.org/1999/xlink">
    <!-- Generator: Sketch 50.2 (55047) - http://www.bohemiancoding.com/sketch -->
    <title>ngHighCountryLogo</title>
    <desc>Created with Sketch.</desc>
    <defs>
        <polygon id="path-1" points="199 43 199 43 199 43 54 94.792 76.1160043 286.828 199 355 199 355 199 355 321.883996 286.828 344 94.792"></polygon>
        <filter x="-6.6%" y="-5.4%" width="113.1%" height="112.2%" filterUnits="objectBoundingBox" id="filter-2">
            <feOffset dx="0" dy="2" in="SourceAlpha" result="shadowOffsetOuter1"></feOffset>
            <feGaussianBlur stdDeviation="6" in="shadowOffsetOuter1" result="shadowBlurOuter1"></feGaussianBlur>
            <feColorMatrix values="0 0 0 0 0   0 0 0 0 0   0 0 0 0 0  0 0 0 0.2 0" type="matrix" in="shadowBlurOuter1"></feColorMatrix>
        </filter>
        <linearGradient x1="50%" y1="42.4447023%" x2="50%" y2="0%" id="linearGradient-3">
            <stop stop-color="#74A0CA" offset="0%"></stop>
            <stop stop-color="#40669A" offset="100%"></stop>
        </linearGradient>
        <polygon id="path-4" points="198.484929 48 198.484929 48 198.484929 48 59 97.7411348 80.2748227 282.172872 198.484929 347.64539 198.484929 347.64539 198.484929 347.64539 316.695035 282.172872 337.969858 97.7411348"></polygon>
        <linearGradient x1="50%" y1="47.9016927%" x2="50%" y2="0%" id="linearGradient-6">
            <stop stop-color="#4B80B3" offset="0%"></stop>
            <stop stop-color="#24497C" offset="100%"></stop>
        </linearGradient>
        <linearGradient x1="50%" y1="57.8107632%" x2="47.7703813%" y2="0%" id="linearGradient-7">
            <stop stop-color="#E1E8F2" offset="0%"></stop>
            <stop stop-color="#A4BFE3" offset="100%"></stop>
        </linearGradient>
        <linearGradient x1="66.4953829%" y1="80.1182257%" x2="52.0782131%" y2="28.2509824%" id="linearGradient-8">
            <stop stop-color="#D2E0F1" offset="0%"></stop>
            <stop stop-color="#88A4CC" offset="100%"></stop>
        </linearGradient>
        <path d="M175.635112,19.5 L97,196.5 L97,196.5 L126.319277,196.5 L126.319277,196.5 L142.127367,156.895402 L208.872633,156.895402 L224.680723,196.5 L224.680723,196.5 L254,196.5 L254,196.5 L175.635112,19.5 L175.635112,19.5 L175.635112,19.5 L175.635112,19.5 L175.635112,19.5 Z M198.604131,132.481609 L152.666093,132.481609 L175.635112,77.008046 L198.604131,132.481609 Z" id="path-9"></path>
        <filter x="-9.2%" y="-8.2%" width="119.7%" height="117.5%" filterUnits="objectBoundingBox" id="filter-10">
            <feOffset dx="1" dy="1" in="SourceAlpha" result="shadowOffsetOuter1"></feOffset>
            <feGaussianBlur stdDeviation="5" in="shadowOffsetOuter1" result="shadowBlurOuter1"></feGaussianBlur>
            <feColorMatrix values="0 0 0 0 0.137342289   0 0 0 0 0.264894587   0 0 0 0 0.439439838  0 0 0 0.75 0" type="matrix" in="shadowBlurOuter1"></feColorMatrix>
        </filter>
        <linearGradient x1="40.7391212%" y1="72.3929497%" x2="47.5744278%" y2="24.9596092%" id="linearGradient-11">
            <stop stop-color="#ABC7E4" offset="0%"></stop>
            <stop stop-color="#7395C4" offset="100%"></stop>
        </linearGradient>
        <linearGradient x1="50%" y1="86.5299501%" x2="50%" y2="7.54473624%" id="linearGradient-12">
            <stop stop-color="#97B6D7" offset="0%"></stop>
            <stop stop-color="#5D80AF" offset="100%"></stop>
        </linearGradient>
        <linearGradient x1="44.9768117%" y1="103.054456%" x2="48.7276787%" y2="19.7745003%" id="linearGradient-13">
            <stop stop-color="#749FCA" offset="0%"></stop>
            <stop stop-color="#40669A" offset="100%"></stop>
        </linearGradient>
        <path d="M91,254.056 L93.772,254.056 L93.772,260.348 L101.054,260.348 L101.054,254.056 L103.826,254.056 L103.826,269.632 L101.054,269.632 L101.054,262.724 L93.772,262.724 L93.772,269.632 L91,269.632 L91,254.056 Z M107.11,259.072 L109.75,259.072 L109.75,269.632 L107.11,269.632 L107.11,259.072 Z M106.736,255.486 C106.736,255.060665 106.893665,254.690335 107.209,254.375 C107.524335,254.059665 107.923998,253.902 108.408,253.902 C108.892002,253.902 109.298998,254.052332 109.629,254.353 C109.959002,254.653668 110.124,255.031331 110.124,255.486 C110.124,255.940669 109.959002,256.318332 109.629,256.619 C109.298998,256.919668 108.892002,257.07 108.408,257.07 C107.923998,257.07 107.524335,256.912335 107.209,256.597 C106.893665,256.281665 106.736,255.911335 106.736,255.486 Z M123.638,259.072 L123.638,268.686 C123.638,269.639338 123.520668,270.500996 123.286,271.271 C123.051332,272.041004 122.688336,272.693664 122.197,273.229 C121.705664,273.764336 121.086004,274.178665 120.338,274.472 C119.589996,274.765335 118.702672,274.912 117.676,274.912 C117.250665,274.912 116.799669,274.875334 116.323,274.802 C115.846331,274.728666 115.377002,274.618667 114.915,274.472 C114.452998,274.325333 114.009335,274.142001 113.584,273.922 C113.158665,273.701999 112.777335,273.452668 112.44,273.174 L113.958,271.128 C114.471336,271.612002 115.050663,271.982332 115.696,272.239 C116.341337,272.495668 116.993997,272.624 117.654,272.624 C118.28467,272.624 118.816331,272.532334 119.249,272.349 C119.681669,272.165666 120.026332,271.912668 120.283,271.59 C120.539668,271.267332 120.722999,270.886002 120.833,270.446 C120.943001,270.005998 120.998,269.522003 120.998,268.994 L120.998,268.224 L120.954,268.224 C120.572665,268.737336 120.085003,269.129665 119.491,269.401 C118.896997,269.672335 118.233337,269.808 117.5,269.808 C116.707996,269.808 115.989337,269.661335 115.344,269.368 C114.698663,269.074665 114.152336,268.678669 113.705,268.18 C113.257664,267.681331 112.909335,267.098337 112.66,266.431 C112.410665,265.763663 112.286,265.056004 112.286,264.308 C112.286,263.54533 112.406999,262.82667 112.649,262.152 C112.891001,261.47733 113.235664,260.890669 113.683,260.392 C114.130336,259.893331 114.672997,259.497335 115.311,259.204 C115.949003,258.910665 116.663996,258.764 117.456,258.764 C118.204004,258.764 118.900663,258.917998 119.546,259.226 C120.191337,259.534002 120.704665,260.010663 121.086,260.656 L121.13,260.656 L121.13,259.072 L123.638,259.072 Z M118.006,260.92 C117.521998,260.92 117.093002,261.007999 116.719,261.184 C116.344998,261.360001 116.029668,261.598332 115.773,261.899 C115.516332,262.199668 115.318334,262.555331 115.179,262.966 C115.039666,263.376669 114.97,263.816664 114.97,264.286 C114.97,264.711335 115.039666,265.121998 115.179,265.518 C115.318334,265.914002 115.516332,266.269665 115.773,266.585 C116.029668,266.900335 116.344998,267.153332 116.719,267.344 C117.093002,267.534668 117.514664,267.63 117.984,267.63 C118.468002,267.63 118.904331,267.538334 119.293,267.355 C119.681669,267.171666 120.011665,266.926002 120.283,266.618 C120.554335,266.309998 120.763333,265.954335 120.91,265.551 C121.056667,265.147665 121.13,264.726002 121.13,264.286 C121.13,263.831331 121.056667,263.398669 120.91,262.988 C120.763333,262.577331 120.554335,262.218002 120.283,261.91 C120.011665,261.601998 119.685335,261.360001 119.304,261.184 C118.922665,261.007999 118.490002,260.92 118.006,260.92 Z M132.62,258.764 C133.309337,258.764 133.899664,258.884999 134.391,259.127 C134.882336,259.369001 135.285665,259.687998 135.601,260.084 C135.916335,260.480002 136.147333,260.934664 136.294,261.448 C136.440667,261.961336 136.514,262.489331 136.514,263.032 L136.514,269.632 L133.874,269.632 L133.874,263.824 C133.874,263.515998 133.852,263.197002 133.808,262.867 C133.764,262.536998 133.672334,262.236335 133.533,261.965 C133.393666,261.693665 133.195668,261.470001 132.939,261.294 C132.682332,261.117999 132.341335,261.03 131.916,261.03 C131.490665,261.03 131.124002,261.110666 130.816,261.272 C130.507998,261.433334 130.251334,261.649665 130.046,261.921 C129.840666,262.192335 129.686667,262.496665 129.584,262.834 C129.481333,263.171335 129.43,263.515998 129.43,263.868 L129.43,269.632 L126.79,269.632 L126.79,253 L129.43,253 L129.43,260.546 L129.474,260.546 C129.576667,260.325999 129.726999,260.109668 129.925,259.897 C130.123001,259.684332 130.353999,259.493668 130.618,259.325 C130.882001,259.156332 131.182665,259.020667 131.52,258.918 C131.857335,258.815333 132.223998,258.764 132.62,258.764 Z M156.348,257.708 C155.937331,257.150664 155.402003,256.743668 154.742,256.487 C154.081997,256.230332 153.43667,256.102 152.806,256.102 C151.999329,256.102 151.266003,256.248665 150.606,256.542 C149.945997,256.835335 149.377669,257.238664 148.901,257.752 C148.424331,258.265336 148.057668,258.866663 147.801,259.556 C147.544332,260.245337 147.416,260.993329 147.416,261.8 C147.416,262.650671 147.540665,263.427996 147.79,264.132 C148.039335,264.836004 148.394998,265.440997 148.857,265.947 C149.319002,266.453003 149.872663,266.845332 150.518,267.124 C151.163337,267.402668 151.889329,267.542 152.696,267.542 C153.532004,267.542 154.272663,267.377002 154.918,267.047 C155.563337,266.716998 156.083998,266.280669 156.48,265.738 L158.702,267.3 C158.012663,268.165338 157.169338,268.836331 156.172,269.313 C155.174662,269.789669 154.008673,270.028 152.674,270.028 C151.456661,270.028 150.338338,269.826335 149.319,269.423 C148.299662,269.019665 147.423337,268.455004 146.69,267.729 C145.956663,267.002996 145.384669,266.137672 144.974,265.133 C144.563331,264.128328 144.358,263.017339 144.358,261.8 C144.358,260.553327 144.574331,259.427672 145.007,258.423 C145.439669,257.418328 146.033663,256.564004 146.789,255.86 C147.544337,255.155996 148.435328,254.613335 149.462,254.232 C150.488672,253.850665 151.603327,253.66 152.806,253.66 C153.304669,253.66 153.825331,253.707666 154.368,253.803 C154.910669,253.898334 155.431331,254.044999 155.93,254.243 C156.428669,254.441001 156.897998,254.686665 157.338,254.98 C157.778002,255.273335 158.151998,255.625331 158.46,256.036 L156.348,257.708 Z M159.346,264.308 C159.346,263.471996 159.496332,262.713003 159.797,262.031 C160.097668,261.348997 160.504664,260.766002 161.018,260.282 C161.531336,259.797998 162.139996,259.424001 162.844,259.16 C163.548004,258.895999 164.295996,258.764 165.088,258.764 C165.880004,258.764 166.627996,258.895999 167.332,259.16 C168.036004,259.424001 168.644664,259.797998 169.158,260.282 C169.671336,260.766002 170.078332,261.348997 170.379,262.031 C170.679668,262.713003 170.83,263.471996 170.83,264.308 C170.83,265.144004 170.679668,265.906663 170.379,266.596 C170.078332,267.285337 169.671336,267.875664 169.158,268.367 C168.644664,268.858336 168.036004,269.243332 167.332,269.522 C166.627996,269.800668 165.880004,269.94 165.088,269.94 C164.295996,269.94 163.548004,269.800668 162.844,269.522 C162.139996,269.243332 161.531336,268.858336 161.018,268.367 C160.504664,267.875664 160.097668,267.285337 159.797,266.596 C159.496332,265.906663 159.346,265.144004 159.346,264.308 Z M162.03,264.308 C162.03,264.718669 162.092333,265.129331 162.217,265.54 C162.341667,265.950669 162.528665,266.317332 162.778,266.64 C163.027335,266.962668 163.342665,267.226666 163.724,267.432 C164.105335,267.637334 164.559997,267.74 165.088,267.74 C165.616003,267.74 166.070665,267.637334 166.452,267.432 C166.833335,267.226666 167.148665,266.962668 167.398,266.64 C167.647335,266.317332 167.834333,265.950669 167.959,265.54 C168.083667,265.129331 168.146,264.718669 168.146,264.308 C168.146,263.897331 168.083667,263.490335 167.959,263.087 C167.834333,262.683665 167.647335,262.320668 167.398,261.998 C167.148665,261.675332 166.833335,261.415001 166.452,261.217 C166.070665,261.018999 165.616003,260.92 165.088,260.92 C164.559997,260.92 164.105335,261.018999 163.724,261.217 C163.342665,261.415001 163.027335,261.675332 162.778,261.998 C162.528665,262.320668 162.341667,262.683665 162.217,263.087 C162.092333,263.490335 162.03,263.897331 162.03,264.308 Z M182.958,269.632 L180.45,269.632 L180.45,267.938 L180.406,267.938 C180.171332,268.466003 179.764336,268.931665 179.185,269.335 C178.605664,269.738335 177.920004,269.94 177.128,269.94 C176.438663,269.94 175.848336,269.819001 175.357,269.577 C174.865664,269.334999 174.462335,269.016002 174.147,268.62 C173.831665,268.223998 173.600667,267.769336 173.454,267.256 C173.307333,266.742664 173.234,266.214669 173.234,265.672 L173.234,259.072 L175.874,259.072 L175.874,264.924 C175.874,265.232002 175.896,265.554665 175.94,265.892 C175.984,266.229335 176.079333,266.533665 176.226,266.805 C176.372667,267.076335 176.574332,267.299999 176.831,267.476 C177.087668,267.652001 177.428665,267.74 177.854,267.74 C178.264669,267.74 178.627665,267.655668 178.943,267.487 C179.258335,267.318332 179.514999,267.102001 179.713,266.838 C179.911001,266.573999 180.061333,266.269668 180.164,265.925 C180.266667,265.580332 180.318,265.232002 180.318,264.88 L180.318,259.072 L182.958,259.072 L182.958,269.632 Z M186.066,259.072 L188.574,259.072 L188.574,260.766 L188.618,260.766 C188.852668,260.237997 189.259664,259.772335 189.839,259.369 C190.418336,258.965665 191.103996,258.764 191.896,258.764 C192.585337,258.764 193.175664,258.884999 193.667,259.127 C194.158336,259.369001 194.561665,259.687998 194.877,260.084 C195.192335,260.480002 195.423333,260.934664 195.57,261.448 C195.716667,261.961336 195.79,262.489331 195.79,263.032 L195.79,269.632 L193.15,269.632 L193.15,263.78 C193.15,263.471998 193.128,263.149335 193.084,262.812 C193.04,262.474665 192.944667,262.170335 192.798,261.899 C192.651333,261.627665 192.449668,261.404001 192.193,261.228 C191.936332,261.051999 191.595335,260.964 191.17,260.964 C190.744665,260.964 190.378002,261.048332 190.07,261.217 C189.761998,261.385668 189.509001,261.601999 189.311,261.866 C189.112999,262.130001 188.962667,262.434332 188.86,262.779 C188.757333,263.123668 188.706,263.471998 188.706,263.824 L188.706,269.632 L186.066,269.632 L186.066,259.072 Z M197.292,261.184 L197.292,259.072 L199.14,259.072 L199.14,256.014 L201.736,256.014 L201.736,259.072 L204.376,259.072 L204.376,261.184 L201.736,261.184 L201.736,266.09 C201.736,266.559336 201.820333,266.947998 201.989,267.256 C202.157668,267.564002 202.53533,267.718 203.122,267.718 C203.298001,267.718 203.488666,267.699667 203.694,267.663 C203.899334,267.626333 204.082666,267.571334 204.244,267.498 L204.332,269.566 C204.097332,269.654 203.818668,269.723666 203.496,269.775 C203.173332,269.826334 202.865335,269.852 202.572,269.852 C201.867996,269.852 201.296002,269.753001 200.856,269.555 C200.415998,269.356999 200.067668,269.085668 199.811,268.741 C199.554332,268.396332 199.378334,268.000336 199.283,267.553 C199.187666,267.105664 199.14,266.625336 199.14,266.112 L199.14,261.184 L197.292,261.184 Z M206.23,259.072 L208.76,259.072 L208.76,260.832 L208.804,260.832 C209.097335,260.215997 209.507997,259.717335 210.036,259.336 C210.564003,258.954665 211.179996,258.764 211.884,258.764 C211.986667,258.764 212.096666,258.767667 212.214,258.775 C212.331334,258.782333 212.434,258.800667 212.522,258.83 L212.522,261.25 C212.345999,261.206 212.195667,261.176667 212.071,261.162 C211.946333,261.147333 211.825334,261.14 211.708,261.14 C211.106664,261.14 210.622669,261.249999 210.256,261.47 C209.889332,261.690001 209.603334,261.953998 209.398,262.262 C209.192666,262.570002 209.053334,262.885332 208.98,263.208 C208.906666,263.530668 208.87,263.787332 208.87,263.978 L208.87,269.632 L206.23,269.632 L206.23,259.072 Z M212.594,259.072 L215.52,259.072 L218.468,266.75 L218.512,266.75 L221.13,259.072 L223.88,259.072 L218.886,271.898 C218.695332,272.382002 218.490001,272.810998 218.27,273.185 C218.049999,273.559002 217.786002,273.874332 217.478,274.131 C217.169998,274.387668 216.807002,274.581999 216.389,274.714 C215.970998,274.846001 215.46867,274.912 214.882,274.912 C214.661999,274.912 214.438334,274.901 214.211,274.879 C213.983666,274.857 213.752668,274.816667 213.518,274.758 L213.738,272.47 C213.914001,272.528667 214.086333,272.569 214.255,272.591 C214.423668,272.613 214.581333,272.624 214.728,272.624 C215.006668,272.624 215.241332,272.591 215.432,272.525 C215.622668,272.459 215.783999,272.356334 215.916,272.217 C216.048001,272.077666 216.165333,271.905334 216.268,271.7 C216.370667,271.494666 216.480666,271.252668 216.598,270.974 L217.126,269.632 L212.594,259.072 Z M235.464,254.056 L237.862,254.056 L244.572,269.632 L241.404,269.632 L239.952,266.068 L233.198,266.068 L231.79,269.632 L228.688,269.632 L235.464,254.056 Z M238.984,263.692 L236.586,257.356 L234.144,263.692 L238.984,263.692 Z M245.92,259.072 L248.428,259.072 L248.428,260.766 L248.472,260.766 C248.706668,260.237997 249.113664,259.772335 249.693,259.369 C250.272336,258.965665 250.957996,258.764 251.75,258.764 C252.439337,258.764 253.029664,258.884999 253.521,259.127 C254.012336,259.369001 254.415665,259.687998 254.731,260.084 C255.046335,260.480002 255.277333,260.934664 255.424,261.448 C255.570667,261.961336 255.644,262.489331 255.644,263.032 L255.644,269.632 L253.004,269.632 L253.004,263.78 C253.004,263.471998 252.982,263.149335 252.938,262.812 C252.894,262.474665 252.798667,262.170335 252.652,261.899 C252.505333,261.627665 252.303668,261.404001 252.047,261.228 C251.790332,261.051999 251.449335,260.964 251.024,260.964 C250.598665,260.964 250.232002,261.048332 249.924,261.217 C249.615998,261.385668 249.363001,261.601999 249.165,261.866 C248.966999,262.130001 248.816667,262.434332 248.714,262.779 C248.611333,263.123668 248.56,263.471998 248.56,263.824 L248.56,269.632 L245.92,269.632 L245.92,259.072 Z M269.4,259.072 L269.4,268.686 C269.4,269.639338 269.282668,270.500996 269.048,271.271 C268.813332,272.041004 268.450336,272.693664 267.959,273.229 C267.467664,273.764336 266.848004,274.178665 266.1,274.472 C265.351996,274.765335 264.464672,274.912 263.438,274.912 C263.012665,274.912 262.561669,274.875334 262.085,274.802 C261.608331,274.728666 261.139002,274.618667 260.677,274.472 C260.214998,274.325333 259.771335,274.142001 259.346,273.922 C258.920665,273.701999 258.539335,273.452668 258.202,273.174 L259.72,271.128 C260.233336,271.612002 260.812663,271.982332 261.458,272.239 C262.103337,272.495668 262.755997,272.624 263.416,272.624 C264.04667,272.624 264.578331,272.532334 265.011,272.349 C265.443669,272.165666 265.788332,271.912668 266.045,271.59 C266.301668,271.267332 266.484999,270.886002 266.595,270.446 C266.705001,270.005998 266.76,269.522003 266.76,268.994 L266.76,268.224 L266.716,268.224 C266.334665,268.737336 265.847003,269.129665 265.253,269.401 C264.658997,269.672335 263.995337,269.808 263.262,269.808 C262.469996,269.808 261.751337,269.661335 261.106,269.368 C260.460663,269.074665 259.914336,268.678669 259.467,268.18 C259.019664,267.681331 258.671335,267.098337 258.422,266.431 C258.172665,265.763663 258.048,265.056004 258.048,264.308 C258.048,263.54533 258.168999,262.82667 258.411,262.152 C258.653001,261.47733 258.997664,260.890669 259.445,260.392 C259.892336,259.893331 260.434997,259.497335 261.073,259.204 C261.711003,258.910665 262.425996,258.764 263.218,258.764 C263.966004,258.764 264.662663,258.917998 265.308,259.226 C265.953337,259.534002 266.466665,260.010663 266.848,260.656 L266.892,260.656 L266.892,259.072 L269.4,259.072 Z M263.768,260.92 C263.283998,260.92 262.855002,261.007999 262.481,261.184 C262.106998,261.360001 261.791668,261.598332 261.535,261.899 C261.278332,262.199668 261.080334,262.555331 260.941,262.966 C260.801666,263.376669 260.732,263.816664 260.732,264.286 C260.732,264.711335 260.801666,265.121998 260.941,265.518 C261.080334,265.914002 261.278332,266.269665 261.535,266.585 C261.791668,266.900335 262.106998,267.153332 262.481,267.344 C262.855002,267.534668 263.276664,267.63 263.746,267.63 C264.230002,267.63 264.666331,267.538334 265.055,267.355 C265.443669,267.171666 265.773665,266.926002 266.045,266.618 C266.316335,266.309998 266.525333,265.954335 266.672,265.551 C266.818667,265.147665 266.892,264.726002 266.892,264.286 C266.892,263.831331 266.818667,263.398669 266.672,262.988 C266.525333,262.577331 266.316335,262.218002 266.045,261.91 C265.773665,261.601998 265.447335,261.360001 265.066,261.184 C264.684665,261.007999 264.252002,260.92 263.768,260.92 Z M282.144,269.632 L279.636,269.632 L279.636,267.938 L279.592,267.938 C279.357332,268.466003 278.950336,268.931665 278.371,269.335 C277.791664,269.738335 277.106004,269.94 276.314,269.94 C275.624663,269.94 275.034336,269.819001 274.543,269.577 C274.051664,269.334999 273.648335,269.016002 273.333,268.62 C273.017665,268.223998 272.786667,267.769336 272.64,267.256 C272.493333,266.742664 272.42,266.214669 272.42,265.672 L272.42,259.072 L275.06,259.072 L275.06,264.924 C275.06,265.232002 275.082,265.554665 275.126,265.892 C275.17,266.229335 275.265333,266.533665 275.412,266.805 C275.558667,267.076335 275.760332,267.299999 276.017,267.476 C276.273668,267.652001 276.614665,267.74 277.04,267.74 C277.450669,267.74 277.813665,267.655668 278.129,267.487 C278.444335,267.318332 278.700999,267.102001 278.899,266.838 C279.097001,266.573999 279.247333,266.269668 279.35,265.925 C279.452667,265.580332 279.504,265.232002 279.504,264.88 L279.504,259.072 L282.144,259.072 L282.144,269.632 Z M285.296,253 L287.936,253 L287.936,269.632 L285.296,269.632 L285.296,253 Z M297.644,268.29 L297.578,268.29 C297.313999,268.759336 296.88867,269.144332 296.302,269.445 C295.71533,269.745668 295.048004,269.896 294.3,269.896 C293.874665,269.896 293.431002,269.841001 292.969,269.731 C292.506998,269.620999 292.081669,269.437668 291.693,269.181 C291.304331,268.924332 290.981668,268.587002 290.725,268.169 C290.468332,267.750998 290.34,267.234003 290.34,266.618 C290.34,265.825996 290.563664,265.195336 291.011,264.726 C291.458336,264.256664 292.033997,263.897335 292.738,263.648 C293.442004,263.398665 294.222996,263.233667 295.081,263.153 C295.939004,263.072333 296.778663,263.032 297.6,263.032 L297.6,262.768 C297.6,262.107997 297.361669,261.620335 296.885,261.305 C296.408331,260.989665 295.840003,260.832 295.18,260.832 C294.622664,260.832 294.087336,260.949332 293.574,261.184 C293.060664,261.418668 292.635335,261.704665 292.298,262.042 L290.934,260.436 C291.535336,259.878664 292.228329,259.460668 293.013,259.182 C293.797671,258.903332 294.593329,258.764 295.4,258.764 C296.338671,258.764 297.11233,258.895999 297.721,259.16 C298.32967,259.424001 298.809998,259.768665 299.162,260.194 C299.514002,260.619335 299.759666,261.095997 299.899,261.624 C300.038334,262.152003 300.108,262.679997 300.108,263.208 L300.108,269.632 L297.644,269.632 L297.644,268.29 Z M297.6,264.814 L297.006,264.814 C296.580665,264.814 296.133336,264.832333 295.664,264.869 C295.194664,264.905667 294.762002,264.986333 294.366,265.111 C293.969998,265.235667 293.640001,265.411666 293.376,265.639 C293.111999,265.866334 292.98,266.177998 292.98,266.574 C292.98,266.823335 293.034999,267.032332 293.145,267.201 C293.255001,267.369668 293.397999,267.505333 293.574,267.608 C293.750001,267.710667 293.947999,267.784 294.168,267.828 C294.388001,267.872 294.607999,267.894 294.828,267.894 C295.737338,267.894 296.426664,267.652002 296.896,267.168 C297.365336,266.683998 297.6,266.024004 297.6,265.188 L297.6,264.814 Z M303.128,259.072 L305.658,259.072 L305.658,260.832 L305.702,260.832 C305.995335,260.215997 306.405997,259.717335 306.934,259.336 C307.462003,258.954665 308.077997,258.764 308.782,258.764 C308.884667,258.764 308.994666,258.767667 309.112,258.775 C309.229334,258.782333 309.332,258.800667 309.42,258.83 L309.42,261.25 C309.243999,261.206 309.093667,261.176667 308.969,261.162 C308.844333,261.147333 308.723334,261.14 308.606,261.14 C308.004664,261.14 307.520669,261.249999 307.154,261.47 C306.787332,261.690001 306.501334,261.953998 306.296,262.262 C306.090666,262.570002 305.951334,262.885332 305.878,263.208 C305.804666,263.530668 305.768,263.787332 305.768,263.978 L305.768,269.632 L303.128,269.632 L303.128,259.072 Z" id="path-14"></path>
        <filter x="-2.3%" y="-18.3%" width="104.6%" height="145.6%" filterUnits="objectBoundingBox" id="filter-15">
            <feOffset dx="0" dy="1" in="SourceAlpha" result="shadowOffsetOuter1"></feOffset>
            <feGaussianBlur stdDeviation="1.5" in="shadowOffsetOuter1" result="shadowBlurOuter1"></feGaussianBlur>
            <feColorMatrix values="0 0 0 0 0.117647059   0 0 0 0 0.211764706   0 0 0 0 0.341176471  0 0 0 0.65 0" type="matrix" in="shadowBlurOuter1"></feColorMatrix>
        </filter>
    </defs>
    <g id="ngHighCountryLogo" stroke="none" stroke-width="1" fill="none" fill-rule="evenodd">
        <g id="shield-outline">
            <use fill="black" fill-opacity="1" filter="url(#filter-2)" xlink:href="#path-1"></use>
            <use fill="#FFFFFF" fill-rule="evenodd" xlink:href="#path-1"></use>
        </g>
        <mask id="mask-5" fill="white">
            <use xlink:href="#path-4"></use>
        </mask>
        <use id="shield" fill="url(#linearGradient-3)" xlink:href="#path-4"></use>
        <g id="Group" mask="url(#mask-5)">
            <g transform="translate(23.000000, 48.000000)">
                <polygon id="shield-shade" fill="url(#linearGradient-6)" fill-rule="nonzero" points="175.444444 33.8 175.444444 185.6 175.444444 300.5 293.794444 234.95 315.094444 50.3 175.444444 0.5"></polygon>
                <path d="M218.628711,147.553026 C216.698122,147.458351 214.630639,147.645141 212.632242,147.463469 C210.572435,147.272841 208.728844,145.353766 206.813608,145.086375 C204.604113,144.776764 202.377986,145.541835 200.66873,145.133712 C198.308268,144.574622 195.821148,144.771647 193.444054,144.487624 C190.860979,144.179292 188.47493,143.087978 186.270552,143.049597 C182.949274,142.988187 180.133351,142.650429 178.848851,143.017612 C175.921622,143.854329 175.581306,144.949481 170.567404,144.529843 C168.171119,144.331539 165.88742,142.852572 163.683043,143.052156 C161.271406,143.269651 159.035044,144.189527 156.852416,143.972032 C155.525696,143.840256 153.508109,144.769088 151.03762,144.976348 C149.240086,145.128595 147.148295,144.380155 145.089767,144.63987 C143.154061,144.881674 141.252897,145.775962 139.333823,146.063824 C137.26506,146.368317 135.124652,145.743978 133.3655,146.038236 C130.893732,146.451477 129.268915,148.030236 127.885902,148.185041 C125.052069,148.504887 123.608924,148.169688 121.922697,147.608039 C120.558875,147.153858 117.822274,147.00545 114.654522,147.023361 C111.998522,147.041272 109.204349,145.793874 107.106161,145.793874 C104.933768,145.793874 102.280328,146.981141 99.7458698,146.895423 C96.918433,146.793072 94.3954894,145.481704 92.6286613,145.039038 C91.2635595,144.700001 88.547429,145.938444 85.5216879,145.903901 C83.3492953,145.875754 80.937658,144.642429 78.5426528,144.671855 C76.1067073,144.701281 73.6925113,144.756294 71.5738528,144.756294 C68.5148476,144.756294 66.6264781,146.475785 64.8289448,147.043831 C62.4441746,147.788432 60.3728533,147.642582 57.7513972,147.880548 C55.7734708,148.059661 53.9887313,149.391499 52.3536797,149.419646 C50.1902427,149.45163 48.3888713,148.110837 46.9572415,147.872871 C46.0987754,147.73086 43.5886257,147.015685 40.7586301,147.08861 C38.7691893,147.133388 36.577606,147.416132 34.6137529,147.498012 C34.530593,147.500571 34.5549012,147.618274 34.6418993,147.692478 L34.6418993,206.811494 L219.609998,206.811494 L218.628711,147.553026 Z" id="hill-5" fill="url(#linearGradient-7)" fill-rule="evenodd" transform="translate(127.086259, 174.830241) rotate(8.000000) translate(-127.086259, -174.830241) "></path>
                <path d="M303.873839,96.6206619 C303.709946,96.6016873 303.541326,96.5621567 303.369554,96.5020703 C303.152081,96.4483088 302.92988,96.3961284 302.713983,96.3439481 C302.650948,96.3407857 302.586336,96.3233922 302.526452,96.3328796 C302.023743,96.4166843 301.629771,97.1171656 301.131789,97.2041328 C300.630656,97.2847751 300.055456,96.8894696 299.562202,96.9732744 C299.057917,97.0523355 298.541025,97.0033176 298.046196,97.0934473 C297.543487,97.1740896 297.129027,97.7449106 296.634198,97.825553 C296.131489,97.9077765 295.546833,97.4666156 295.055156,97.5472579 C294.549295,97.6310627 294.040282,97.6247378 293.548604,97.7022177 C293.042743,97.7812788 292.71023,98.9181772 292.22328,98.9956571 C291.718995,99.0794619 291.230469,99.2549775 290.743519,99.3324574 C290.226627,99.4099372 289.679793,99.2423277 289.161325,99.3387823 C288.642857,99.4336556 288.080264,99.2486526 287.563372,99.3593381 C287.048056,99.4684424 286.64778,100.055076 286.138767,100.178411 C285.623451,100.301746 284.901693,99.5854529 284.391105,99.7214379 C283.885244,99.8605855 283.456601,100.298584 282.953892,100.450381 C282.44488,100.602178 281.894894,100.606922 281.392185,100.768207 C280.892628,100.932654 280.443499,101.259967 279.948669,101.429158 C279.44596,101.604673 278.771479,101.305822 278.282953,101.487663 C277.786547,101.672666 277.361057,102.058484 276.874107,102.251393 C276.382429,102.449046 276.152349,103.294999 275.671702,103.495814 C275.183176,103.702954 274.748231,104.011293 274.272312,104.224758 C273.783786,104.436641 273.293684,104.607413 272.825644,104.825622 C272.337118,105.054899 271.746159,105.020112 271.282847,105.252552 C270.802201,105.489735 270.539027,106.126968 270.082019,106.367313 C269.602948,106.617146 268.758271,106.141199 268.310718,106.392613 C267.833223,106.658258 267.740246,107.550067 267.303724,107.806225 C266.830957,108.087683 265.935851,107.633872 265.511936,107.90268 C265.039169,108.201531 264.525429,108.402346 264.122001,108.680641 C263.721725,108.968423 263.452247,109.477577 263.010998,109.789077 C262.60757,110.07686 262.645392,111.030336 262.213598,111.337093 C261.805442,111.623295 260.875666,111.185296 260.437569,111.48731 C260.027837,111.771929 260.109784,112.809211 259.671686,113.106481 C259.258803,113.387938 258.237626,112.78233 257.796376,113.071694 C257.375614,113.353151 257.060436,113.79115 256.619186,114.078932 C256.193696,114.350902 256.13854,115.22848 255.692563,115.502032 C255.260769,115.770839 254.447609,115.429296 254.001632,115.696522 C253.566686,115.957424 253.097071,116.162982 252.646366,116.425465 C252.209845,116.680042 252.074318,117.497534 251.61731,117.750529 C251.174485,117.995619 250.514186,117.865958 250.052451,118.106304 C249.603322,118.343487 248.977693,118.235964 248.51123,118.469985 C248.055797,118.699262 247.693342,119.107218 247.222151,119.328589 C246.758839,119.545216 246.366443,119.907316 245.8921,120.116037 C245.425636,120.32634 244.957597,120.542967 244.480102,120.743782 C244.010486,120.941435 243.573965,121.230798 243.090166,121.423708 C242.611096,121.60871 242.286462,122.2159 241.79636,122.396159 C241.318865,122.571675 240.811429,122.726634 240.324478,122.892663 C239.839104,123.05711 239.344275,123.115615 238.882539,123.30378 C238.408196,123.495108 237.680134,123.087153 237.223126,123.30378 C236.766118,123.52357 236.238194,123.659555 235.801673,123.899901 C235.35412,124.143409 235.136647,124.801197 234.709581,125.066843 C234.279363,125.332488 233.894845,125.672451 233.480386,125.95707 C233.065927,126.246434 232.768084,126.692339 232.364656,126.997514 C231.962803,127.299528 231.573559,127.606285 231.181162,127.927273 C230.788765,128.245098 229.986637,128.07907 229.608423,128.411127 C229.223906,128.741602 228.818902,129.068915 228.448568,129.41204 C228.076658,129.755165 228.139693,130.567913 227.778814,130.915782 C227.413208,131.265232 226.749758,131.307925 226.392031,131.666863 C226.035879,132.022637 225.920839,132.626664 225.564688,132.985602 C225.208537,133.350864 224.370163,133.232272 224.018739,133.594372 C223.662588,133.958053 223.684651,134.686996 223.331651,135.045934 C222.973924,135.409615 222.359327,135.506069 222.006327,135.866588 C221.650176,136.222363 221.941716,137.240669 221.579261,137.590119 C221.219958,137.949057 220.107379,137.509477 219.740197,137.855765 C219.369863,138.205215 219.670858,139.282027 219.297372,139.612502 C218.917582,139.955627 218.087088,139.764299 217.700994,140.08845 C217.31175,140.4126 216.768067,140.509055 216.370943,140.814231 C215.969091,141.12415 215.664944,141.527362 215.253637,141.811982 C214.851784,142.093439 214.656374,142.70221 214.230884,143.004223 C213.830607,143.285681 213.562706,143.782184 213.143519,144.088941 C212.740091,144.375142 212.240534,144.539589 211.818195,144.841603 C211.419495,145.13571 210.771804,145.100923 210.354193,145.40768 C209.952341,145.700206 209.7916,146.335857 209.381869,146.639452 C208.976865,146.93514 208.732602,147.453781 208.319718,147.760538 C207.913139,148.053064 207.441947,148.266529 207.03064,148.570124 C206.628788,148.868975 206.241119,149.19945 205.831387,149.504626 C205.423232,149.805058 205.150603,150.284168 204.744023,150.583019 C204.335867,150.88187 203.330449,150.363229 202.920717,150.663662 C202.512562,150.962512 202.197384,151.402092 201.79238,151.697781 C201.379497,151.996632 201.3858,152.87421 200.976069,153.171479 C200.561609,153.47033 199.661776,153.084512 199.252044,153.383363 C198.832858,153.680633 198.873831,154.616716 198.462523,154.902917 C198.043336,155.200187 197.531172,155.355147 197.116713,155.64451 C196.694374,155.935455 196.319312,156.286486 195.904853,156.567944 C195.479363,156.855726 195.252434,157.436035 194.837975,157.711167 C194.410909,157.997368 193.640298,157.75386 193.224263,158.02583 C192.789317,158.307288 192.507233,158.813279 192.084894,159.072599 C191.643645,159.350894 191.331619,159.826842 190.907704,160.076675 C190.457,160.34232 189.930652,160.459331 189.50201,160.696514 C189.043426,160.954253 188.706185,161.44127 188.275967,161.657897 C187.800048,161.898243 187.090897,161.619948 186.655952,161.806532 C186.173729,162.010509 185.589074,161.963073 185.144673,162.176538 C184.671905,162.407396 184.345696,162.895994 183.912326,163.131596 C183.445863,163.378266 183.28197,164.091397 182.862783,164.344393 C182.410503,164.619525 181.543763,164.184689 181.134031,164.458241 C180.695934,164.752348 180.650233,165.568258 180.257836,165.857622 C179.832346,166.175448 178.90257,165.811767 178.524357,166.116942 C178.109897,166.460068 177.780536,166.886997 177.422809,167.204823 C177.013078,167.565342 177.112359,168.436595 176.767239,168.760745 C176.362235,169.140239 175.500223,168.955236 175.161406,169.273061 C174.740644,169.658879 174.285211,169.826489 173.936939,170.088972 C173.617034,170.329317 173.297128,170.74676 172.739263,171.104116 C172.342138,171.361855 171.822094,171.508909 171.317809,171.818828 C170.892319,172.078149 170.580293,172.580977 170.088615,172.871922 C169.655245,173.131242 169.544933,174.002496 169.061134,174.285534 C168.621461,174.53853 167.713748,174.026214 167.234677,174.301347 C166.787124,174.557505 166.289143,174.761482 165.8148,175.03029 C165.652483,175.122001 165.534291,175.292773 165.423979,175.480938 C165.228568,175.827226 165.067828,176.243087 164.760529,176.413859 C164.308248,176.666854 163.627464,176.543519 163.153121,176.80284 C162.692961,177.058998 162.47076,177.754735 161.996417,178.017218 C161.533105,178.270213 161.099735,178.597526 160.623816,178.853684 C160.162081,179.10668 159.637309,179.252152 159.164542,179.514635 C158.694926,179.761306 158.062994,179.709125 157.588651,179.962121 C157.119036,180.211954 156.82592,180.804912 156.353153,181.054745 C155.933966,181.277697 155.423378,181.413682 154.949035,181.691977 C154.533,181.938648 154.334437,182.590111 153.877429,182.877894 C153.464546,183.143539 152.827886,183.088196 152.383485,183.380722 C151.969026,183.652693 151.168473,183.383885 150.731952,183.677992 C150.320644,183.964193 150.196149,184.696299 149.765931,184.996731 C149.356199,185.282932 148.925981,185.567552 148.498915,185.869566 C148.089183,186.16051 147.849648,186.707613 147.428885,187.012789 C147.017578,187.31164 146.406132,187.340102 145.986945,187.645278 C145.580366,187.948872 144.874367,187.858743 144.45518,188.167081 C144.051752,188.470675 144.300743,189.669242 143.887859,189.980742 C143.48128,190.285918 142.404946,189.70561 141.992063,190.020273 C141.587059,190.330192 141.617001,191.225164 141.20727,191.536665 C140.802266,191.846584 140.610007,192.445867 140.205003,192.76053 C139.798423,193.075193 138.715787,192.51386 138.309207,192.828523 C137.902627,193.143186 137.902627,193.985977 137.499199,194.30064 C137.091044,194.620047 136.284188,194.425557 135.885487,194.74022 C135.478908,195.061208 135.184216,195.521344 134.782364,195.839169 C134.37736,196.160157 134.360025,196.969743 133.959749,197.281243 C133.550018,197.605394 133.041005,197.790397 132.640729,198.109804 C132.234149,198.433954 131.884301,198.82926 131.488753,199.143923 C131.080597,199.471236 130.251679,199.254608 129.857706,199.572434 C129.447975,199.899747 129.670175,201.00344 129.274627,201.318103 C128.864895,201.648578 128.032825,201.431951 127.642004,201.743451 C127.225969,202.077089 127.077835,202.717484 126.693318,203.025822 C126.275707,203.365785 125.990471,203.832245 125.609105,204.137421 C125.182039,204.480546 124.214442,204.088403 123.83938,204.387254 C123.396555,204.743029 123.289395,205.440348 122.931667,205.721806 C122.438414,206.113949 121.833272,206.166129 121.522821,206.398569 C121.108362,206.713232 121.128849,207.494355 120.843613,207.895986 C120.550497,208.307103 120.660809,208.847881 120.478006,209.322248 C120.405515,209.513576 120.203801,209.668535 119.986328,209.820333 C120.454368,209.986361 121.045327,210.446496 121.365232,210.302605 C121.797026,210.104952 122.034986,209.496182 122.46678,209.304854 L313.986328,209.304854 L303.873839,96.6206619 Z" id="hill-4" fill="url(#linearGradient-8)" fill-rule="evenodd" transform="translate(216.986328, 153.330078) rotate(14.000000) translate(-216.986328, -153.330078) "></path>
                <g id="A-Copy" fill="none" fill-rule="nonzero">
                    <use fill="black" fill-opacity="1" filter="url(#filter-10)" xlink:href="#path-9"></use>
                    <use fill="#FFFFFF" fill-rule="evenodd" xlink:href="#path-9"></use>
                </g>
                <path d="M54.5845624,135.721761 C54.7097099,135.707281 54.8384673,135.677113 54.9696315,135.631257 C55.1356925,135.590229 55.3053636,135.550407 55.4702213,135.510585 C55.5183549,135.508172 55.5676919,135.494898 55.6134188,135.502138 C55.9972846,135.566094 56.2981198,136.100672 56.6783755,136.167042 C57.0610379,136.228585 57.5002573,135.926904 57.876903,135.99086 C58.2619721,136.051196 58.6566679,136.013788 59.0345169,136.082571 C59.4183826,136.144114 59.7348613,136.579741 60.1127103,136.641283 C60.496576,136.704033 60.9430155,136.367358 61.3184578,136.4289 C61.7047302,136.492857 62.0934093,136.48803 62.4688517,136.547159 C62.8551241,136.607495 63.109029,137.475128 63.4808613,137.534258 C63.8659304,137.598214 64.2389661,137.73216 64.6107984,137.791289 C65.0054942,137.850419 65.4230535,137.722506 65.8189526,137.796116 C66.2148518,137.86852 66.6444444,137.727333 67.0391402,137.811804 C67.4326327,137.895068 67.7382813,138.342761 68.1269604,138.436886 C68.5204528,138.53101 69.0715829,137.984365 69.4614654,138.088143 C69.8477378,138.194335 70.1750465,138.528597 70.5589122,138.644442 C70.9475913,138.760287 71.3675573,138.763907 71.751423,138.886993 C72.1328821,139.012492 72.4758342,139.262283 72.8536833,139.391403 C73.237549,139.525349 73.7525789,139.297278 74.1256145,139.436051 C74.5046669,139.577238 74.8295689,139.871678 75.2014013,140.018898 C75.5768436,140.169738 75.7525314,140.815335 76.1195503,140.968588 C76.492586,141.126669 76.8247081,141.36198 77.188117,141.524887 C77.5611527,141.686588 77.9353917,141.816914 78.2927839,141.983441 C78.6658196,142.158416 79.1170724,142.131868 79.4708546,142.309256 C79.8378736,142.490265 80.0388315,142.976574 80.3878003,143.159995 C80.753616,143.350657 81.3986067,142.987434 81.7403555,143.179303 C82.1049677,143.382032 82.1759648,144.062623 82.5092903,144.258112 C82.8702925,144.472909 83.5537901,144.12658 83.8774888,144.331722 C84.2384911,144.559793 84.6307802,144.713046 84.9388355,144.925429 C85.244484,145.145053 85.4502553,145.533617 85.7871908,145.771341 C86.095246,145.990965 86.0663658,146.718618 86.3960812,146.952722 C86.7077465,147.171139 87.4177176,146.836877 87.7522464,147.067361 C88.065115,147.284571 88.0025413,148.07618 88.33707,148.303044 C88.6523453,148.517841 89.4321102,148.055666 89.7690456,148.276496 C90.0903376,148.491293 90.3310058,148.825555 90.6679413,149.045178 C90.9928433,149.252734 91.0349602,149.922465 91.3755057,150.131228 C91.7052211,150.336371 92.326145,150.075719 92.6666904,150.279655 C92.9988125,150.478764 93.3574081,150.635638 93.7015636,150.835953 C94.034889,151.030236 94.1383763,151.654111 94.4873451,151.847186 C94.8254839,152.034228 95.3296837,151.935277 95.6822626,152.118699 C96.0252147,152.299707 96.5029411,152.21765 96.85913,152.396245 C97.2068955,152.57122 97.4836639,152.882554 97.8434628,153.051495 C98.197245,153.216816 98.4968769,153.493155 98.8590825,153.652442 C99.2152713,153.812936 99.5726636,153.978257 99.9372759,154.131511 C100.295871,154.282351 100.629197,154.503181 100.998622,154.650401 C101.364438,154.791588 101.612326,155.254969 101.986565,155.392535 C102.351178,155.526481 102.738653,155.64474 103.110486,155.771446 C103.481115,155.896945 103.858964,155.941594 104.211543,156.085194 C104.573748,156.231207 105.129692,155.919873 105.47866,156.085194 C105.827629,156.252928 106.230749,156.356706 106.564074,156.540128 C106.905823,156.725963 107.071884,157.227959 107.397989,157.430689 C107.726501,157.633418 108.020116,157.892863 108.336595,158.110073 C108.653074,158.330903 108.880505,158.671199 109.18856,158.904096 C109.495412,159.13458 109.792637,159.368684 110.092269,159.613649 C110.391901,159.8562 111.004402,159.729494 111.293203,159.982906 C111.586819,160.23511 111.896077,160.484902 112.178862,160.746761 C112.462851,161.008619 112.414717,161.628874 112.690282,161.894353 C112.969457,162.161039 113.476064,162.19362 113.749222,162.467546 C114.021177,162.739058 114.109021,163.200026 114.380976,163.473952 C114.652931,163.752705 115.293108,163.662201 115.561454,163.93854 C115.833409,164.216086 115.816562,164.772385 116.08611,165.046311 C116.359268,165.323857 116.828571,165.397467 117.09812,165.672599 C117.370075,165.944112 117.147457,166.721241 117.424225,166.987926 C117.698587,167.261852 118.548146,166.926383 118.828524,167.190656 C119.111309,167.457341 118.881471,168.279119 119.166663,168.531324 C119.456668,168.793182 120.090828,168.647169 120.385647,168.894547 C120.682872,169.141925 121.098025,169.215535 121.401267,169.448432 C121.708119,169.68495 121.940363,169.992664 122.254435,170.209874 C122.561287,170.42467 122.710502,170.889258 123.035404,171.119742 C123.341052,171.334539 123.54562,171.713449 123.865709,171.947553 C124.173764,172.16597 124.555223,172.291469 124.877718,172.521953 C125.182164,172.746403 125.676737,172.719855 125.995622,172.953959 C126.302474,173.177203 126.425215,173.662305 126.738083,173.893996 C127.047342,174.119653 127.23386,174.515458 127.549135,174.749562 C127.859597,174.972805 128.219396,175.135713 128.533468,175.367403 C128.84032,175.595474 129.136342,175.847679 129.44921,176.080576 C129.760876,176.309853 129.969054,176.67549 130.279515,176.90356 C130.591181,177.131631 131.358912,176.735826 131.671781,176.965103 C131.983446,177.193174 132.224114,177.528642 132.533373,177.754299 C132.848648,177.98237 132.843835,178.6521 133.156703,178.878964 C133.473182,179.107035 134.16029,178.812594 134.473158,179.040665 C134.793247,179.267529 134.76196,179.981908 135.076032,180.200325 C135.396121,180.427188 135.787207,180.545447 136.103685,180.766277 C136.426181,180.988314 136.712576,181.256206 137.029054,181.471003 C137.353956,181.690626 137.527237,182.133493 137.843716,182.343463 C138.169821,182.561879 138.758255,182.376044 139.075937,182.5836 C139.408059,182.798397 139.623457,183.184548 139.945953,183.38245 C140.282888,183.594833 140.52115,183.958057 140.844848,184.148719 C141.189004,184.351448 141.59092,184.440745 141.918228,184.621754 C142.2684,184.818449 142.525915,185.19012 142.854427,185.355441 C143.217836,185.538862 143.75934,185.326479 144.091462,185.468873 C144.459684,185.62454 144.906124,185.588338 145.245466,185.751245 C145.606468,185.927427 145.85556,186.300304 146.186478,186.480105 C146.542667,186.668354 146.667815,187.212586 146.987903,187.405661 C147.333262,187.615631 147.9951,187.283782 148.307968,187.492545 C148.642497,187.716995 148.677394,188.339664 148.977026,188.560494 C149.301928,188.803045 150.011899,188.525499 150.300701,188.758396 C150.617179,189.020255 150.868678,189.34607 151.141836,189.588621 C151.454705,189.863754 151.378894,190.528658 151.642426,190.776036 C151.951684,191.065649 152.609912,190.924462 152.86863,191.167013 C153.189922,191.461454 153.537688,191.589366 153.803626,191.789682 C154.047904,191.973104 154.292182,192.291678 154.718165,192.564397 C155.021407,192.761093 155.418509,192.873318 155.803578,193.109836 C156.12848,193.307738 156.366742,193.691476 156.742184,193.913513 C157.073103,194.111415 157.157337,194.776319 157.526762,194.992322 C157.862495,195.185397 158.555619,194.79442 158.921435,195.004389 C159.263183,195.199878 159.643439,195.355545 160.005645,195.560688 C160.129589,195.630678 160.219839,195.761004 160.304073,195.904604 C160.453287,196.168876 160.576028,196.486244 160.81068,196.61657 C161.156038,196.809645 161.675882,196.715521 162.038087,196.913423 C162.389463,197.108912 162.559134,197.63987 162.92134,197.840186 C163.275122,198.033261 163.60604,198.283053 163.969449,198.478542 C164.322028,198.671617 164.722741,198.782635 165.083743,198.982951 C165.442339,199.1712 165.924878,199.131378 166.287084,199.324454 C166.645679,199.515116 166.869501,199.967636 167.230503,200.158298 C167.550592,200.328446 167.940474,200.432224 168.30268,200.644607 C168.620362,200.832856 168.771983,201.330025 169.120952,201.549649 C169.436227,201.752378 169.922377,201.710143 170.261719,201.933386 C170.578197,202.140943 171.189495,201.9358 171.52282,202.16025 C171.836892,202.378667 171.931956,202.937379 172.260468,203.166656 C172.573337,203.385073 172.901849,203.602283 173.227954,203.832767 C173.540823,204.054804 173.72373,204.472329 174.045022,204.705227 C174.359094,204.933297 174.825991,204.955018 175.146079,205.187915 C175.456541,205.419606 175.995638,205.350823 176.315727,205.586134 C176.623782,205.817824 176.433654,206.732519 176.748929,206.970244 C177.059391,207.203141 177.881273,206.760274 178.196548,207.000412 C178.505807,207.236929 178.482943,207.919934 178.795812,208.157658 C179.105071,208.394176 179.251878,208.851523 179.561137,209.091661 C179.871599,209.331799 180.698294,208.903412 181.008756,209.14355 C181.319218,209.383688 181.319218,210.02687 181.627273,210.267008 C181.938938,210.510766 182.555049,210.362339 182.859494,210.602477 C183.169956,210.847441 183.394981,211.198597 183.701833,211.441148 C184.011091,211.686113 184.024328,212.303955 184.329977,212.541679 C184.642845,212.789057 185.031524,212.930243 185.337173,213.174001 C185.647635,213.421379 185.914777,213.72306 186.216815,213.963197 C186.52848,214.212989 187.161438,214.047668 187.462273,214.290219 C187.775142,214.54001 187.60547,215.382302 187.907509,215.62244 C188.220378,215.874645 188.855742,215.709324 189.15417,215.947048 C189.471852,216.201666 189.584966,216.690389 189.878581,216.9257 C190.197467,217.185145 190.415271,217.541128 190.70648,217.774025 C191.032585,218.035884 191.771436,217.736617 192.057832,217.964687 C192.39597,218.2362 192.477798,218.768364 192.750956,218.98316 C193.127602,219.282427 193.589685,219.322249 193.826743,219.499637 C194.143221,219.739775 194.127578,220.335896 194.345383,220.642403 C194.569204,220.956151 194.48497,221.36885 194.624558,221.730866 C194.679911,221.87688 194.833939,221.995138 195,222.110984 C194.642608,222.237689 194.191355,222.588846 193.947077,222.479034 L43,222.479034 L43,136.103085 L54.5845624,135.721761 Z" id="hill-3" fill="url(#linearGradient-11)" fill-rule="evenodd" transform="translate(119.000000, 179.000000) rotate(-14.000000) translate(-119.000000, -179.000000) "></path>
                <path d="M0.169102189,214.983135 C0.313765019,214.409942 -0.12204313,213.744857 0.0344474793,213.245361 C0.215503474,212.668529 2.28991387,210.805199 2.48825662,210.334818 C2.73300065,209.753437 3.08783401,209.146581 3.35987292,208.742617 C3.73563234,208.183072 4.29335759,207.161334 4.72370677,206.977548 C5.26778458,206.743722 6.35321072,207.891017 6.84087913,207.700862 C7.3958749,207.484323 7.77254415,206.918409 8.26203222,206.75282 C8.83340491,206.559027 9.35291734,206.345217 9.84786438,206.213292 C10.4328845,206.056801 11.0361012,206.27607 11.5346876,206.194185 C12.1351748,206.095924 12.6446791,205.777484 13.1532736,205.765656 C13.7455723,205.752008 14.2987484,205.767475 14.8246297,205.833893 C15.3778058,205.90395 15.7735814,206.690952 16.3249379,206.80741 C16.8435405,206.917499 17.4640439,206.645461 18.0436051,206.758279 C18.5494701,206.857451 19.1490475,206.612707 19.7458954,206.687313 C20.2690471,206.75282 20.8185839,206.680034 21.3999647,206.715517 C21.9303951,206.747361 22.4799319,205.917597 23.0604029,205.923056 C23.5944726,205.928515 24.1285423,206.674575 24.7071936,206.655469 C25.2430829,206.636362 25.7780625,206.505347 26.3539843,206.464405 C26.8907835,206.425282 27.4030173,206.118669 27.9752998,206.058621 C28.5111891,206.003121 29.225405,207.307816 29.794958,207.2323 C30.3299375,207.162243 30.8458107,206.751911 31.4117244,206.662747 C31.9476137,206.579953 32.6108792,207.078539 33.1740634,206.977548 C33.7099527,206.881106 34.1366626,206.072268 34.6980272,205.959449 C35.2320968,205.852999 35.9745174,206.623625 36.5331525,206.501708 C37.0663124,206.385249 37.3720149,205.177906 37.9261009,205.046891 C38.4574411,204.922244 39.2053206,205.617354 39.7566771,205.479969 C40.2871074,205.347134 40.8721276,205.335307 41.4225742,205.189734 C41.9511849,205.04962 42.4834349,204.83672 43.0302422,204.684779 C43.5916068,204.529198 43.665303,202.773228 44.1702581,202.624016 C44.729803,202.458427 45.666927,203.641205 46.1664232,203.484714 C46.7250583,203.307297 46.9516058,202.212773 47.445643,202.045364 C47.9997289,201.85703 48.3500131,201.229248 48.8376815,201.051831 C49.3908576,200.852579 50.3771124,201.929816 50.863871,201.742391 C51.4061291,201.534041 51.289671,199.732579 51.7791591,199.539695 C52.3104993,199.330434 53.2048613,200.103789 53.7098165,199.913635 C54.2247797,199.718022 55.1355187,200.707916 55.6641294,200.529589 C56.1709042,200.360361 56.3901731,199.333164 56.9460786,199.177583 C57.450124,199.037469 57.9987509,199.029281 58.5710335,198.900085 C59.0778083,198.785447 59.4280925,197.724586 60.0094733,197.619046 C60.5207973,197.526243 61.2231853,198.361466 61.8063858,198.275033 C62.3231688,198.197697 62.918197,198.573457 63.4995778,198.50067 C64.0463851,198.432433 64.6032005,198.489752 65.1727536,198.428794 C65.7213805,198.369655 66.1362626,196.911199 66.7058156,196.858429 C67.2571721,196.806568 67.8676674,197.296966 68.4390401,197.250565 C68.9913064,197.205983 69.5144581,196.644619 70.084921,196.602767 C70.6380971,196.563644 71.1794454,196.152401 71.7499083,196.116008 C72.3039942,196.079615 72.9645302,197.626324 73.534993,197.592661 C74.0899888,197.560817 74.6204192,197.016739 75.1899722,196.986715 C75.7458778,196.95669 76.2863163,196.473571 76.8558693,196.445366 C77.4117749,196.417162 77.9785984,196.442637 78.5472416,196.415342 C79.1040571,196.388957 79.7263802,197.638152 80.2959332,197.610857 C80.8536585,197.585382 81.3622529,196.391686 81.9308961,196.365301 C82.4895312,196.339826 83.0745513,196.789282 83.6431945,196.764716 C84.2009198,196.737421 84.795948,197.392498 85.3636814,197.366113 C85.9214067,197.339728 86.4663943,196.910289 87.0341277,196.882084 C87.5927628,196.855699 88.0913491,195.499144 88.6581727,195.470939 C89.2177176,195.442735 89.8618766,197.007641 90.42961,196.978526 C90.988245,196.949412 91.5432408,196.69193 92.1109742,196.660086 C92.6705191,196.630062 93.2255148,196.408063 93.7932482,196.375309 C94.3546128,196.343465 94.9487312,196.783823 95.5173744,196.749249 C96.0778291,196.715585 96.5136373,194.601143 97.0822805,194.564749 C97.6436451,194.529266 98.2741566,195.547365 98.8427998,195.508242 C99.4014349,195.470939 99.9136687,194.714871 100.480492,194.673929 C101.038218,194.632987 101.585025,194.415537 102.150939,194.371866 C102.718672,194.328194 103.381937,195.495505 103.929654,195.429997 C104.494658,195.364489 104.924098,194.427365 105.467266,194.339112 C106.02772,194.249949 106.529946,194.039778 107.068565,193.930599 C107.624471,193.81687 108.15763,193.76319 108.69261,193.630355 C109.243057,193.49479 110.140148,194.673929 110.668759,194.521078 C111.212837,194.363677 111.19555,192.441208 111.718702,192.268341 C112.255501,192.091834 113.177158,193.089007 113.69485,192.899762 C114.225281,192.705969 114.425443,191.68787 114.938587,191.483158 C115.463558,191.272988 116.668172,192.722345 117.176766,192.505806 C117.696279,192.285628 117.973777,191.492257 118.479642,191.267529 C118.994605,191.038252 119.146546,190.017424 119.649682,189.788147 C120.161916,189.55432 121.260989,190.617911 121.764125,190.387724 C122.274539,190.154808 122.556586,189.442412 123.059722,189.217684 C123.573775,188.988407 124.065083,188.740933 124.573677,188.525304 C125.09228,188.306035 125.382515,187.554516 125.898388,187.353444 C126.42245,187.149642 126.950151,186.955849 127.476032,186.775702 C128.005553,186.594646 128.639704,186.762965 129.175593,186.611023 C129.713302,186.459082 130.336535,186.775702 130.883342,186.658334 C131.42742,186.540966 131.717655,184.969692 132.273561,184.891446 C132.822188,184.814111 133.423585,184.481113 133.987679,184.44654 C134.538126,184.412876 135.180465,184.532064 135.748198,184.543892 C136.295916,184.554809 136.772666,186.140642 137.340399,186.197051 C137.902674,186.25346 138.464948,186.471819 139.019034,186.512762 C139.583128,186.554614 140.247303,184.87052 140.802299,184.898725 C141.366393,184.92602 141.906832,184.845955 142.460918,184.860512 C143.026831,184.874159 143.559991,186.708375 144.113167,186.709285 C144.679991,186.710195 145.221339,184.944216 145.773606,184.934208 C146.339519,184.92238 146.898154,185.397311 147.450421,185.374566 C148.017244,185.35091 148.607723,186.005077 149.15726,185.971413 C149.724993,185.93502 150.349136,186.652875 150.896853,186.608294 C151.465497,186.560983 152.027771,186.367189 152.573668,186.31078 C153.143221,186.25346 153.635439,185.546523 154.176787,185.481925 C154.74725,185.413688 155.190337,184.495671 155.728046,184.421974 C156.299419,184.344639 156.808013,184.046215 157.341173,183.96524 C157.917095,183.877897 158.419321,183.544899 158.947021,183.459375 C159.529312,183.363843 160.359076,184.946036 160.878589,184.857783 C161.473617,184.754972 161.945818,184.196337 162.450773,184.109903 C163.074006,184.003453 163.74728,184.76498 164.22312,184.696743 C164.618896,184.639424 165.054704,183.750521 165.727068,183.635882 C166.206548,183.553997 166.912575,184.358286 167.509423,184.251836 C168.011649,184.160853 168.560276,184.085338 169.133468,183.979797 C169.645702,183.885175 169.782176,181.616971 170.343541,181.511431 C170.863963,181.414079 171.695547,182.859798 172.250543,182.754258 C172.775514,182.654176 173.032996,181.09291 173.582533,180.98646 C174.111143,180.883649 175.017333,182.672373 175.56414,182.565923 C176.095481,182.462202 176.658665,182.465842 177.202743,182.358482 C177.735903,182.251122 178.22994,181.915395 178.771288,181.807126 C179.308087,181.699766 179.502791,179.897394 180.042319,179.788215 C180.580028,179.678125 181.070426,179.351497 181.606316,179.239588 C182.144025,179.129498 182.975608,180.455119 183.507859,180.34412 C184.048297,180.231301 184.356729,179.041245 184.88625,178.928426 C185.428508,178.812878 186.193674,179.770018 186.721375,179.656289 C187.266363,179.538922 187.97239,180.18854 188.495542,180.072991 C189.044169,179.951984 189.398092,179.009401 189.917605,178.892033 C190.469871,178.767386 190.879294,178.105941 191.392438,177.985843 C191.951983,177.854828 192.569757,178.086834 193.071982,177.964007 C193.645175,177.823894 194.403062,178.550847 194.889821,178.423471 C195.493038,178.26698 195.460284,176.124333 195.90701,175.990588 C196.431981,175.833188 197.257196,176.560141 197.811282,176.463699 C198.345352,176.371806 199.008617,177.549125 199.575441,177.509093 C200.11406,177.47179 200.597179,176.506461 201.169461,176.51192 C201.70808,176.515559 202.253068,176.622009 202.82535,176.662952 C203.364879,176.701164 203.823433,177.517281 204.394806,177.585518 C204.930695,177.647387 205.539371,177.132423 206.108014,177.218857 C206.641174,177.299832 207.043318,178.165989 207.607412,178.266071 C208.140572,178.360693 208.988533,176.825811 209.550807,176.9359 C210.083967,177.039621 210.28413,178.841083 210.844584,178.958451 C211.377744,179.06945 211.966404,178.940254 212.524129,179.062171 C213.056379,179.177719 213.593178,179.310554 214.149084,179.434291 C214.680424,179.552569 215.319124,179.237768 215.87321,179.362415 C216.40546,179.482512 217.126954,178.814698 217.68104,178.941164 C218.2142,179.062171 218.504436,180.308637 219.058522,180.433284 C219.592591,180.554291 220.273143,180.075721 220.827229,180.199457 C221.362209,180.318645 221.759804,181.108377 222.31389,181.230294 C222.84887,181.348572 223.345636,181.705225 223.899722,181.826232 C224.490201,181.953608 225.238991,181.258499 225.783069,181.364949 C226.377187,181.481407 227.148722,180.430554 227.69007,180.523357 C228.290558,180.625257 228.86284,180.481504 229.405098,180.555201 C230.011045,180.637995 230.440484,181.708864 230.980922,181.757085 C231.595057,181.812584 232.182807,181.167516 232.723245,181.182073 C233.341929,181.19936 233.886917,181.860805 234.422806,181.828961 C235.04058,181.791658 235.409971,180.705322 235.939491,180.60979 C236.540888,180.499701 237.54443,182.203811 238.065762,182.025485 C238.624397,181.83624 239.357719,181.798027 239.867223,181.543275 C240.376728,181.289433 240.387646,180.047516 240.893511,179.740904 C241.368441,179.452488 241.435769,178.489889 241.945273,178.165989 C242.409286,177.872115 242.776857,177.333496 243.299099,177.018695 C243.767661,176.736648 244.8358,177.395364 245.373509,177.101489 C245.881194,176.824901 245.765646,175.582075 246.22238,175.298208 C246.711868,174.994325 247.514337,175.280921 247.958334,174.96976 C248.424166,174.641311 249.140202,174.692262 249.571461,174.355625 C250.014548,174.00807 250.153751,173.309322 250.575912,172.952669 C251.001712,172.592376 252.18358,173.110069 252.604831,172.740678 C253.019713,172.377657 252.705822,171.174862 253.134352,170.801832 C253.544685,170.44245 254.698348,170.936487 255.135066,170.568916 C255.550858,170.218632 255.470793,169.257852 255.922978,168.901199 C256.346958,168.564563 256.225951,167.452751 256.693603,167.109746 C257.128501,166.791306 257.816332,166.748544 258.296722,166.423735 C258.742538,166.121671 259.889833,166.864092 260.38296,166.55748 C260.839694,166.273613 261.307347,166.010672 261.809572,165.721347 C262.277224,165.452947 262.218086,164.197383 262.72941,163.924434 C263.228906,163.657854 263.836672,163.515921 264.360733,163.30848 C264.882975,163.102858 265.328791,162.466888 265.875599,162.314037 C266.414217,162.163915 266.98559,161.749033 267.545135,161.646222 C268.094672,161.544321 268.827084,162.317676 269.393908,162.256717 C269.950723,162.196669 270.50117,161.561608 271.071633,161.536133 C271.629358,161.511567 272.231665,161.951925 272.803947,161.954654 C273.362582,161.958293 273.872997,163.490446 274.443459,163.516831 C275.001185,163.541396 275.689925,161.457887 276.258569,161.500649 C276.816294,161.543411 277.268479,162.927261 277.837122,162.984581 C278.393938,163.03917 278.877967,163.73155 279.44388,163.797058 C280.000696,163.861656 280.683977,162.876311 281.248981,162.947278 C281.808526,163.017335 282.340776,163.321217 282.90669,163.395823 C283.466235,163.46861 284.202287,162.210316 284.766381,162.284012 C285.326835,162.356799 285.718062,163.755206 286.283066,163.825263 C286.841701,163.896229 287.453106,163.546855 288.01538,163.610543 C288.576745,163.675141 289.167224,163.407651 289.730408,163.464061 C290.292683,163.52047 290.792179,164.225588 291.355363,164.271079 C291.918547,164.315661 292.479912,164.444856 293.044006,164.4767 C293.60901,164.507635 294.19676,163.870754 294.760854,163.886221 C295.326767,163.900779 295.886312,165.420193 296.451316,165.416554 C297.01723,165.412005 297.585873,164.627732 298.149057,164.601347 C298.780479,164.571323 299.378236,165.190006 299.926863,165.178179 C300.568293,165.162712 301.128748,164.776034 301.667366,164.783313 C302.325173,164.790591 302.877439,164.85428 303.397861,164.889763 C304.084782,164.936164 304.648876,164.733272 305.137455,164.818796 C305.870777,164.948902 306.689623,164.329308 307.106325,164.520372 C307.785057,164.829714 307.857844,165.767748 308.232693,166.123491 C308.602994,166.476505 308.953278,167.003296 309.664764,167.263507 C310.096933,167.420907 310.730174,167.378145 311.473505,167.46094 C312.033959,167.522808 312.607152,167.524628 313.171246,167.480956 C313.723512,167.439104 314.086534,166.443751 314.647899,166.320014 C315.182878,166.200827 315.887086,166.810412 316.437532,166.632086 C316.959774,166.464677 317.215436,165.570315 317.755875,165.363784 C318.269928,165.166351 318.783072,164.984385 319.318051,164.764206 C319.830285,164.553126 320.947555,165.781395 321.480715,165.560307 C321.992039,165.348317 322.440585,164.983475 322.974655,164.771485 C323.489618,164.567683 323.962729,164.26835 324.503168,164.072736 C325.025409,163.882582 325.389341,163.227505 325.937968,163.054638 C326.467489,162.885409 326.820502,162.003785 327.377318,161.856393 C327.914117,161.715369 328.735693,162.700714 329.298877,162.585166 C329.842045,162.474167 330.427975,162.752574 330.997528,162.67069 C331.648056,162.577887 332.192133,162.474167 332.657966,162.409569 C333.413124,162.304938 333.942645,162.601543 334.320224,162.568789 C335.609452,162.45688 334.3921,161.87004 334.614099,162.538764 C334.720549,162.859934 335.573968,163.09376 336.315479,163.578699 C336.68396,163.820714 337.333578,163.720632 337.965909,164.002679 C338.410815,164.199203 339.115023,163.801607 339.71915,164.017237 C340.255949,164.208301 340.698126,164.471241 341.20672,164.625003 C341.751708,164.790591 342.16659,165.191826 342.681553,165.317383 C343.23382,165.452037 343.55317,166.567488 344.075412,166.6612 C344.634047,166.760372 345.315509,165.81142 345.844119,165.868739 C346.404574,165.929698 346.857669,167.311728 347.390829,167.329925 C347.952193,167.349941 348.539033,166.988739 349.074923,166.969632 C349.633558,166.949616 350.146701,166.359137 350.68441,166.303637 C351.234857,166.248138 351.960901,167.399981 352.49861,167.315367 C353.042687,167.229843 353.557651,166.811322 354.09627,166.704872 C354.633069,166.599332 354.825043,164.827894 355.362752,164.710527 C355.895912,164.595888 356.793913,166.141688 357.335261,166.02341 C357.865692,165.908771 358.150468,164.591339 358.697275,164.482159 C359.210419,164.379349 359.840931,164.379349 360.408664,164.366611 C360.935455,164.355693 361.486811,164.845181 362.049086,164.90341 C362.575877,164.95891 362.891588,166.157155 363.442034,166.267244 C363.967006,166.371874 364.803139,165.084466 365.340848,165.233678 C365.85945,165.378341 366.398979,165.538471 366.92486,165.719527 C367.435274,165.894214 367.581757,167.039689 368.093991,167.244401 C368.598036,167.446383 369.264031,167.225294 369.763527,167.451842 C370.260294,167.677479 370.732495,167.929502 371.219254,168.176066 C371.708742,168.423539 372.069944,168.875724 372.543055,169.140484 C373.026174,169.408884 374.083396,168.68557 374.543769,168.966707 C375.015971,169.256033 374.985036,170.331451 375.428123,170.628965 C375.893046,170.941946 375.959463,171.744415 376.383444,172.060126 C376.838358,172.399492 378.561575,171.124822 378.95917,171.461459 C379.400437,171.835398 378.287716,173.857039 378.648008,174.217331 C379.026497,174.59673 379.91904,174.654049 380.400339,174.96885 C380.850705,175.262725 381.418438,175.549321 381.937041,175.792245 C382.430168,176.023342 383.417333,175.065292 383.951402,175.253626 C384.470005,175.437412 384.854863,175.949646 385.393481,176.097038 C385.930281,176.24352 386.327876,176.973203 386.867405,177.087842 C387.419671,177.20521 387.946462,177.519101 388.485081,177.608264 C389.050085,177.700157 389.76703,176.612911 390.296551,176.678419 C390.879751,176.751205 391.414731,176.763943 391.930604,176.809434 C392.552017,176.864934 393.098824,176.704804 393.575575,176.729369 C394.600952,176.784869 394.085079,177.182464 394.341651,177.972196 C394.604591,178.779214 394.562739,178.665486 394.708312,179.465225 C394.860253,180.300448 395.781001,180.275883 395.740968,181.122934 L395.742235,292.670714 L0.691344105,292.670714 L0.169102189,214.983135 Z" id="hill-2" fill="url(#linearGradient-12)" fill-rule="evenodd"></path>
                <path d="M319.794836,301.129776 C319.043708,300.83999 318.438634,300.079589 317.648095,299.794439 C316.834374,299.490742 315.566267,300.559476 314.842959,300.288236 C314.022283,299.979902 313.897095,298.037172 313.180742,297.752022 C312.357748,297.434415 311.040957,298.584289 310.331559,298.299139 C309.508565,297.969941 308.581247,298.069628 307.878804,297.775205 C307.074356,297.429779 306.070534,297.675518 305.361136,297.362548 C304.582189,297.019441 304.438455,295.366497 303.710511,295.034981 C302.968657,294.701147 302.560637,293.653278 301.800237,293.300897 C301.08852,292.978654 300.049924,293.291624 299.250113,292.939243 C298.552306,292.63091 297.733949,292.45472 296.915591,292.109294 C296.215466,291.810234 295.401745,291.63868 294.57875,291.309482 C293.869352,291.019696 293.048676,290.859733 292.225682,290.535172 C291.511647,290.254659 290.980758,289.352842 290.169355,289.035236 C289.348679,288.715311 287.943792,289.795636 287.204257,289.443256 C286.413718,289.063055 285.365849,289.021326 284.663406,288.601715 C283.905324,288.161239 283.432392,287.157418 282.764723,286.689122 C282.041416,286.188371 282.006641,284.806667 281.376065,284.285051 C280.701442,283.724024 279.741668,283.529287 279.148184,282.972897 C278.506017,282.37014 278.807395,280.891068 278.246368,280.302222 C277.629702,279.662373 275.951257,280.102848 275.394866,279.514002 C274.782837,278.862561 273.969115,278.531045 273.39186,277.979291 C272.742738,277.353352 272.274442,276.801598 271.609092,276.351849 C270.885784,275.86037 270.271436,275.904418 269.460033,275.681862 C268.688041,275.470897 268.043555,273.38675 267.125511,273.4818 C266.274697,273.562941 265.574572,273.59076 264.682029,273.514257 C263.831215,273.447026 262.896942,274.225973 262.018309,274.033554 C261.183723,273.852727 260.474325,273.187377 259.625829,272.920773 C258.802835,272.663443 257.812923,272.874407 256.982974,272.554483 C256.176208,272.236876 254.887236,272.957866 254.085106,272.589257 C253.595946,272.373656 253.155471,272.01432 252.710358,271.675849 C252.427526,271.462566 252.144694,271.25392 251.840998,271.105549 C251.055096,270.716075 249.93536,270.901539 249.165686,270.498156 C248.384421,270.080863 248.632479,267.757932 247.879033,267.347594 C247.09545,266.911755 245.644197,267.709248 244.902343,267.287318 C244.111805,266.844524 243.685239,265.824475 242.952658,265.418773 C242.767194,265.31445 242.611869,265.087257 242.449588,264.816017 C242.115754,264.259626 241.779601,263.499226 241.158298,263.239577 C240.458173,262.945154 238.921144,264.54014 238.063376,264.22717 C237.328476,263.95593 236.908865,262.641457 236.074279,262.35167 C235.316197,262.089703 234.785308,261.025606 233.964632,260.745092 C233.19264,260.483125 231.648656,262.439765 230.832616,262.166207 C230.053669,261.904239 229.471778,260.990832 228.655738,260.717273 C227.872155,260.459942 227.413132,259.177926 226.611003,258.911322 C226.597093,258.906685 226.590138,258.897412 226.576228,258.897412 C225.804236,258.621535 225.208435,257.793904 224.41326,257.520345 C223.627358,257.258378 222.83682,256.977864 222.039327,256.706624 C221.244152,256.435384 219.911132,257.742901 219.115958,257.467024 C218.323101,257.191147 217.676297,256.488704 216.888077,256.203554 C216.092902,255.923041 215.230497,255.837264 214.45155,255.547477 C213.656375,255.248417 212.810198,255.09541 212.042842,254.791713 C211.245349,254.48338 210.51045,254.026676 209.752368,253.713706 C208.959511,253.386827 208.627995,252.032943 207.883822,251.703745 C207.090966,251.353683 205.581756,252.577742 204.858449,252.223043 C204.065592,251.83357 203.917221,250.284949 203.231006,249.890839 C202.440468,249.448045 200.757386,250.417092 200.136083,249.974298 C199.359455,249.424862 199.285269,247.94579 198.805383,247.405628 C198.258265,246.79128 198.93057,244.857823 198.311586,244.299114 C197.699556,243.751996 196.721236,243.425117 196.044294,242.935957 C195.381262,242.45607 193.253068,244.204064 192.534397,243.779816 C191.834272,243.357886 192.003508,241.410519 191.250062,241.039592 C190.515163,240.677938 189.58089,240.717349 188.801943,240.397425 C188.048498,240.084455 187.584839,238.920671 186.791982,238.644794 C186.01999,238.368917 184.605831,240.079818 183.799065,239.841034 C183.015481,239.609205 182.551822,238.287777 181.733465,238.079131 C180.93829,237.879757 179.939105,238.603065 179.11611,238.426875 C178.313981,238.250684 177.606901,237.685021 176.77927,237.529695 C175.974822,237.376687 175.195875,237.082264 174.368244,236.950121 C173.556841,236.824933 172.780213,236.444733 171.950263,236.3265 C171.136542,236.21754 170.234726,236.824933 169.402458,236.725247 C168.486732,236.620924 167.802835,235.211401 167.000705,235.07694 C166.094252,234.921614 165.435857,234.103256 164.649955,233.908519 C163.755093,233.681327 162.49626,234.977253 161.726586,234.706013 C160.866499,234.402316 160.270697,233.542229 159.528843,233.171302 C158.73135,232.786465 158.62239,231.358396 157.899082,230.906328 C157.175775,230.444988 155.858984,230.934148 155.144949,230.412532 C154.470325,229.918735 154.303408,228.720177 153.587055,228.170741 C152.933296,227.672308 150.93029,228.896367 150.200028,228.351568 C149.541632,227.86009 149.77578,226.09355 149.024652,225.567297 C148.352347,225.096683 146.959052,225.632209 146.191697,225.133776 C145.503164,224.684027 145.185557,223.603702 144.399656,223.128452 C143.627664,222.660156 142.955358,222.059718 142.146274,221.737475 C141.318643,221.410596 140.653292,220.325634 139.795523,220.130897 C138.926163,219.940797 137.903795,220.142489 137.022844,220.070622 C136.139574,220.003391 135.205301,220.237539 134.312758,220.265358 C133.434124,220.297814 132.525353,220.355772 131.644401,220.469368 C130.772723,220.582965 129.989139,221.296999 129.122097,221.480144 C128.250419,221.656335 127.126046,220.782338 126.272914,221.002576 C125.40819,221.225132 124.970032,222.959216 124.135447,223.204955 C123.270723,223.466923 122.491776,223.879579 121.666463,224.146183 C120.80174,224.42206 119.67273,223.814667 118.865964,224.083589 C117.98733,224.373376 117.266341,225.057272 116.464211,225.296057 C115.557758,225.571934 114.354564,224.359466 113.55707,224.535656 C112.590342,224.748939 111.952811,225.97068 111.180819,225.97068 C110.357824,225.97068 109.838527,224.593613 108.957575,224.359466 C108.1624,224.146183 106.987025,225.159277 106.154757,224.80226 C105.387402,224.473062 105.292352,222.787662 104.501813,222.361096 C103.750686,221.969305 103.020423,221.609969 102.260023,221.167175 C101.703632,220.840295 101.114786,220.569055 100.535212,220.274632 C100.342794,220.174945 100.152694,220.079895 99.9649118,219.970935 C99.2230577,219.523504 98.3073315,219.35195 97.5677957,218.906838 C96.8143501,218.459407 96.1721826,217.780147 95.4256919,217.362854 C94.6560182,216.929333 92.7503804,218.698191 91.9853434,218.322628 C91.1855319,217.933154 90.7705572,216.938606 89.9869738,216.639546 C89.1431148,216.32194 88.8185536,214.017556 88.0048323,213.850638 C87.3139807,213.713859 86.110786,215.320437 85.1139195,215.158156 C84.337291,215.039923 83.4285197,215.23466 82.4988837,215.104836 C81.6874808,214.991239 80.688296,215.95565 79.781843,215.837417 C78.9588486,215.728457 78.1173078,215.556903 77.2247646,215.447943 C76.3901787,215.348256 75.8940637,212.165239 75.0084754,212.065552 C74.1646163,211.965865 73.2581633,212.183785 72.3795298,212.088735 C71.5287159,211.993685 70.5295311,213.157468 69.6601708,213.062418 C68.8024019,212.976642 68.0327283,211.889362 67.1656863,211.803585 C66.3055992,211.727081 65.3968278,212.028459 64.5367407,211.951956 C63.6696987,211.870815 62.8977068,210.716305 62.0376196,210.644438 C61.165941,210.570252 60.2896259,210.503022 59.4341753,210.435791 C58.5601784,210.373197 57.6699535,210.484475 56.8168212,210.426518 C55.9381877,210.363924 54.9320481,212.501391 54.088189,212.450389 C53.1956458,212.401705 52.4051075,210.853084 51.5705216,210.815991 C51.3618751,210.809037 51.1555469,210.878585 50.9492188,210.971317 L68.0883674,302.993685 L323.949219,302.993685 C323.327916,302.713171 322.718205,302.383973 322.064446,302.126643 C321.313318,301.832219 320.580737,301.4242 319.794836,301.129776" id="hill-1" fill="url(#linearGradient-13)" fill-rule="evenodd" transform="translate(187.449219, 256.704850) rotate(-8.000000) translate(-187.449219, -256.704850) "></path>
            </g>
        </g>
        <g id="High-Country-Angular-Copy" mask="url(#mask-5)">
            <use fill="black" fill-opacity="1" filter="url(#filter-15)" xlink:href="#path-14"></use>
            <use fill="#FFFFFF" fill-rule="evenodd" xlink:href="#path-14"></use>
            <use fill="#FFFFFF" fill-rule="evenodd" xlink:href="#path-14"></use>
        </g>
    </g>
</svg>