<svg viewBox="0 0 216.25 117.5" xmlns="http://www.w3.org/2000/svg"><g fill="#666669"><path d="m0 32.8h4.28l11.34-27.66 5.94 14.36h-8.01l-1.11 3.32h10.48l4.08 9.98h4.54l-14.4-32.8h-2.74z"/><path d="m34.19 32.79v-31.73h4.08l19.4 25.54v-25.54h3.88v31.73h-4.08l-19.4-25.79v25.79z"/><path d="m93.13 31.54a23.72 23.72 0 0 1 -8.26 1.46c-11.49 0-17.23-5.49-17.23-16.53 0-10.42 5.54-15.66 16.62-15.66a29.34 29.34 0 0 1 8.87 1.31v3.52a23 23 0 0 0 -8.41-1.56c-8.67 0-13 4.13-13 12.29 0 8.82 4.28 13.2 12.8 13.2a22.29 22.29 0 0 0 4.53-.57v-10.61h4.08z"/><path d="m99.68 20.55v-19.49h4.08v19.49c0 6.1 3 9.17 9.12 9.17s9.12-3.07 9.12-9.17v-19.49h4.08v19.49q0 12.48-13.2 12.5c-8.82 0-13.2-4.18-13.2-12.5z"/><path d="m137.46 1.06v28.41h16.62v3.32h-20.7v-31.73z"/><path d="m155.7 32.8h4.28l11.33-27.66 5.95 14.36h-8.01l-1.11 3.32h10.48l4.08 9.98h4.53l-14.39-32.8h-2.75z"/><path d="m191.61 32.79v-31.73h13.56c6 0 9.06 2.52 9.06 7.61 0 4.13-3 7.2-8.86 9.16l10.88 15h-5.39l-10.08-14.29v-2.67c6.05-1 9.12-3.28 9.12-7 0-2.93-1.66-4.39-5-4.39h-9.1v28.31z"/></g><path d="m108.12 37.5-37.24 13.28 5.68 49.24 31.56 17.48 31.56-17.48 5.68-49.24z" fill="#df1f36"/><path d="m108.12 37.5v8.88-.04 40.52 30.64l31.56-17.48 5.68-49.24z" fill="#c32032"/><path d="m98.05 71-6.05 12.27h-3l-6.06-12.27v14.14h-5v-22.48h6.79l5.76 12.34 5.82-12.35h6.75v22.49h-5z" fill="#fff"/><path d="m108.59 62.66h5v22.48h-5z" fill="#fff"/><path d="m131.77 62.66h6l-7 10.84 7.59 11.64h-6.11l-4.79-7.4-4.76 7.4h-6l7.56-11.51-7-11h6l4.28 6.66z" fill="#fff"/></svg>