<svg id="Layer_1" data-name="Layer 1" xmlns="http://www.w3.org/2000/svg" xmlns:xlink="http://www.w3.org/1999/xlink" viewBox="0 0 600.3 560"><defs><style>.cls-1,.cls-7{fill:none;}.cls-2{fill:#dd0330;stroke:#dd0330;stroke-width:25px;}.cls-2,.cls-7{stroke-miterlimit:10;}.cls-3{opacity:0.13;}.cls-4{opacity:0.92;}.cls-5{clip-path:url(#clip-path);}.cls-6{fill:#262626;}.cls-7{stroke:#262626;stroke-width:16px;}.cls-8{font-size:125.66px;fill:#f4f4f4;font-family:Poppins-Bold, Poppins;font-weight:700;}.cls-9{font-size:34.87px;fill:#f2f2f2;font-family:OpenSans-ExtraBold, Open Sans;font-weight:800;}</style><clipPath id="clip-path"><polygon class="cls-1" points="300.58 70.31 87.89 144.49 119.84 425.21 300.58 525.63 481.59 426.35 512.4 145.63 300.58 70.31"/></clipPath></defs><title>Artboard 6</title><polygon class="cls-2" points="301.58 52.31 91.01 125.75 122.64 403.68 301.58 503.1 480.78 404.81 511.29 126.88 301.58 52.31"/><polygon class="cls-3" points="300.15 40.98 300.15 514.43 488.36 411.2 520.4 119.3 300.15 40.98"/><g class="cls-4"><g class="cls-5"><polygon class="cls-6" points="117.45 422.96 125.06 304.72 180.11 304.72 190.39 463.49 117.45 422.96"/><polyline class="cls-6" points="129.84 304.72 132.5 290.38 136.22 304.72"/><polyline class="cls-6" points="148.63 304.72 151.28 290.38 155 304.72"/><polyline class="cls-6" points="165.18 304.72 167.83 290.38 171.55 304.72"/><polygon class="cls-6" points="316.53 502.92 316.53 379.6 344.97 379.6 344.97 487.32 316.53 502.92"/><rect class="cls-6" x="318.99" y="400.43" width="5.2" height="5.2"/><rect class="cls-6" x="328.15" y="400.43" width="5.2" height="5.2"/><rect class="cls-6" x="336.82" y="400.43" width="5.2" height="5.2"/><rect class="cls-6" x="319.24" y="415.74" width="5.2" height="5.2"/><rect class="cls-6" x="328.4" y="415.74" width="5.2" height="5.2"/><rect class="cls-6" x="337.07" y="415.74" width="5.2" height="5.2"/><rect class="cls-6" x="319.24" y="431.87" width="5.2" height="5.2"/><rect class="cls-6" x="328.4" y="431.87" width="5.2" height="5.2"/><rect class="cls-6" x="337.07" y="431.87" width="5.2" height="5.2"/><rect class="cls-6" x="319.24" y="446.58" width="5.2" height="5.2"/><rect class="cls-6" x="328.4" y="446.58" width="5.2" height="5.2"/><rect class="cls-6" x="337.07" y="446.58" width="5.2" height="5.2"/><rect class="cls-6" x="319.24" y="461.34" width="5.2" height="5.2"/><rect class="cls-6" x="328.4" y="461.34" width="5.2" height="5.2"/><rect class="cls-6" x="337.07" y="461.34" width="5.2" height="5.2"/><rect class="cls-6" x="318.99" y="372.94" width="23.73" height="6.66"/><polygon class="cls-6" points="351.91 484.71 351.91 379.42 380.35 379.42 380.35 471.39 351.91 484.71"/><rect class="cls-6" x="354.37" y="397.21" width="5.2" height="4.44"/><rect class="cls-6" x="363.53" y="397.21" width="5.2" height="4.44"/><rect class="cls-6" x="372.2" y="397.21" width="5.2" height="4.44"/><rect class="cls-6" x="354.61" y="410.27" width="5.2" height="4.44"/><rect class="cls-6" x="363.77" y="410.27" width="5.2" height="4.44"/><rect class="cls-6" x="372.44" y="410.27" width="5.2" height="4.44"/><rect class="cls-6" x="354.61" y="424.06" width="5.2" height="4.44"/><rect class="cls-6" x="363.77" y="424.06" width="5.2" height="4.44"/><rect class="cls-6" x="372.44" y="424.06" width="5.2" height="4.44"/><rect class="cls-6" x="354.61" y="436.61" width="5.2" height="4.44"/><rect class="cls-6" x="363.77" y="436.61" width="5.2" height="4.44"/><rect class="cls-6" x="372.44" y="436.61" width="5.2" height="4.44"/><rect class="cls-6" x="354.61" y="449.22" width="5.2" height="4.44"/><rect class="cls-6" x="363.77" y="449.22" width="5.2" height="4.44"/><rect class="cls-6" x="372.44" y="449.22" width="5.2" height="4.44"/><rect class="cls-6" x="354.37" y="373.73" width="23.73" height="5.69"/><path class="cls-6" d="M289.23,513s10.92,10.94,4.6-141.46c0,0-.62-11.33-1.11-13.55,0,0-11.21-15.9-8.75-22.06l.74,1s-.62-9.62,2.34-15l.12,2.59s3.33-4.93,4.81-6.53l-.12-4.68,2.27-.86v-4.69h2.16V294.35h1.85v-6.9h-2.09v-.86h1l-.12-1.23h1.23l1.73-47.56,2,47.68,1.35-.12v1.11h.87v1.23H302l.25,6.65,1.85-.12v13.31l2.21-.12v5.29l1.36.5v4.31l5.05,7v-2.46s3.33,4.81,3,14.17l1-.86s1.36,9-9.36,22.42l-.86,13.56S301,513,310.7,513.07Z"/><path class="cls-6" d="M159.32,490.06s12.3-11.61,59.44-11.61v11.61Z"/><path class="cls-6" d="M234.57,478.45v11.61h58.85S280.61,478.85,234.57,478.45Z"/><path class="cls-6" d="M172.53,481.65s-2.41-12.81,54.44-14c0,0,54,1.2,52.84,14,0,0-16.28-4.8-46-5.6,0,0-.6-4.2-7.2-5.34,0,0-4.94-.27-7.41,5.27C219.16,476,179.13,478.45,172.53,481.65Z"/><path class="cls-6" d="M179.73,472.25s-9.8-12,46.44-14.42c0,0,53,1,46.63,14.42a130.68,130.68,0,0,0-45.88-6.61S200,464.84,179.73,472.25Z"/><path class="cls-6" d="M186.82,462.44s-8.31-13,39.36-15.61c0,0,44.95,1.08,39.52,15.61a89.44,89.44,0,0,0-38.89-7.16S204,454.42,186.82,462.44Z"/><path class="cls-6" d="M194.14,450.23S193,411,226.21,412c0,0,31.38-4.6,32,38.23,0,0-11.21-4.8-30.82-5.21C227.37,445,201.55,446,194.14,450.23Z"/><path class="cls-6" d="M213.76,397h24.42L236,400v11s-7.8-2.6-19,0l.2-10.61Z"/><polygon class="cls-6" points="218.76 394.99 226.21 353.76 234.57 394.99 218.76 394.99"/><path class="cls-6" d="M220.56,490.06V477.65s1.6-5.8,6.11-4.6c0,0,4.5,0,5.3,4v13Z"/><rect class="cls-6" x="238.3" y="492.09" width="54.33" height="18.37"/><polygon class="cls-6" points="420.11 315.81 445.1 315.81 445.1 330.01 420.82 461.16 389.41 460.32 416.54 315.81 420.11 315.81"/><polygon class="cls-6" points="417.09 315.93 411.03 315.95 415.88 322.37 417.09 315.93"/><polygon class="cls-6" points="415.88 322.47 409.82 322.49 414.67 328.91 415.88 322.47"/><polygon class="cls-6" points="414.67 329.01 408.61 329.03 413.45 335.45 414.67 329.01"/><polygon class="cls-6" points="413.46 335.55 407.4 335.57 412.24 341.99 413.46 335.55"/><polygon class="cls-6" points="412.25 342.09 406.19 342.12 411.03 348.54 412.25 342.09"/><polygon class="cls-6" points="411.03 348.63 404.98 348.66 409.82 355.07 411.03 348.63"/><polygon class="cls-6" points="409.82 355.17 403.76 355.2 408.61 361.62 409.82 355.17"/><polygon class="cls-6" points="408.61 361.83 402.55 361.86 407.4 368.28 408.61 361.83"/><polygon class="cls-6" points="407.64 368.5 401.58 368.52 406.43 374.94 407.64 368.5"/><polygon class="cls-6" points="406.19 374.67 400.13 374.7 404.98 381.12 406.19 374.67"/><polygon class="cls-6" points="404.98 381.09 398.92 381.12 403.76 387.54 404.98 381.09"/><polygon class="cls-6" points="403.77 387.63 397.71 387.66 402.55 394.08 403.77 387.63"/><polygon class="cls-6" points="402.54 394 396.48 394.03 401.32 400.45 402.54 394"/><polygon class="cls-6" points="401.38 399.41 395.32 399.44 400.17 405.85 401.38 399.41"/><polygon class="cls-6" points="400.17 405.95 394.11 405.98 398.96 412.39 400.17 405.95"/><polygon class="cls-6" points="398.96 412.49 392.9 412.52 397.75 418.94 398.96 412.49"/><polygon class="cls-6" points="397.75 419.03 391.69 419.06 396.53 425.48 397.75 419.03"/><polygon class="cls-6" points="396.54 425.57 390.48 425.6 395.32 432.02 396.54 425.57"/><polygon class="cls-6" points="395.32 432.12 389.27 432.14 394.11 438.56 395.32 432.12"/><polygon class="cls-6" points="394.11 438.65 388.06 438.68 392.9 445.1 394.11 438.65"/><polygon class="cls-6" points="392.9 445.32 386.84 445.34 391.69 451.76 392.9 445.32"/><polygon class="cls-6" points="444.94 442.91 444.94 302.25 477.38 302.25 477.38 425.12 444.94 442.91"/><rect class="cls-6" x="444.93" y="306.01" width="34.15" height="2.63"/><rect class="cls-6" x="444.93" y="311.85" width="34.15" height="2.63"/><rect class="cls-6" x="444.93" y="318.03" width="34.15" height="2.63"/><rect class="cls-6" x="444.93" y="323.82" width="34.15" height="2.63"/><rect class="cls-6" x="444.93" y="329.65" width="34.15" height="2.63"/><rect class="cls-6" x="444.93" y="335.83" width="34.15" height="2.63"/><rect class="cls-6" x="444.98" y="342.11" width="34.15" height="2.63"/><rect class="cls-6" x="444.98" y="347.95" width="34.15" height="2.63"/><rect class="cls-6" x="444.98" y="354.13" width="34.15" height="2.63"/><rect class="cls-6" x="445.13" y="360.69" width="34.15" height="2.63"/><rect class="cls-6" x="445.13" y="366.53" width="34.15" height="2.63"/><rect class="cls-6" x="445.13" y="372.71" width="34.15" height="2.63"/><rect class="cls-6" x="445.28" y="378.94" width="34.15" height="2.63"/><rect class="cls-6" x="445.28" y="385.12" width="34.15" height="2.63"/><rect class="cls-6" x="445.31" y="390.8" width="34.15" height="2.63"/><rect class="cls-6" x="445.45" y="397.02" width="34.15" height="2.63"/><rect class="cls-6" x="445.45" y="403.2" width="34.15" height="2.63"/><rect class="cls-6" x="447.37" y="298.15" width="20.24" height="4.09"/></g></g><polygon class="cls-7" points="300.61 34.37 73.28 113.65 107.43 413.71 300.61 521.04 494.09 414.93 527.02 114.87 300.61 34.37"/><text class="cls-8" transform="translate(204.76 180.35)">NG</text><text class="cls-9" transform="translate(209.94 220.87)">SRILANKA</text></svg>