<?xml version="1.0" encoding="UTF-8"?>
<svg width="150px" height="159px" viewBox="0 0 150 159" version="1.1" xmlns="http://www.w3.org/2000/svg" xmlns:xlink="http://www.w3.org/1999/xlink">
    <!-- Generator: Sketch 51.2 (57519) - http://www.bohemiancoding.com/sketch -->
    <title>ngTaiwan</title>
    <desc>Created with Sketch.</desc>
    <defs>
        <polygon id="path-1" points="0.0582437275 26.4008316 73.6113016 0.192222327 149.144452 25.9349295 136.914778 123.256749 73.6113016 158.318145 11.2979472 123.722651"></polygon>
        <polygon id="path-3" points="37.8998485 13.0635759 75.6664237 25.9349295 63.4367494 123.256749 0.133273198 158.318145 0.133273198 0.192222327"></polygon>
        <polygon id="path-5" points="17.7114777 5.87977089e-13 20.902883 1.08767357 20.902883 13.5995141 22.1681703 13.5995141 24.168238 13.5995141 22.1681703 15.9869931 22.1681703 17.429738 22.9781525 17.429738 22.9781525 22.1781897 25.1988697 22.1781897 23.4203135 26.9223316 24.6616828 26.9223316 24.6616828 28.2842656 23.4405685 28.2842656 23.4405685 34.0298168 29.945852 34.0298168 28.6133355 39.0110041 38.7386509 39.0110041 33.2489156 60.5924859 38.7386509 60.5924859 33.4626698 79.4679856 38.7386509 79.4679856 33.2489156 99.1072029 38.7386509 99.1072029 33.7556716 116.933529 4.10889044 133.353757 0.0252755793 118.745774 5.51535563 118.745774 0.0252755793 99.1065563 5.51535563 99.1065563 0.0252755793 79.467339 5.3013428 79.467339 0.0252755793 60.5918393 5.51535563 60.5918393 0.0252755793 39.0110041 9.53275067 39.0110041 8.00048596 34.0296013 14.4777789 34.0296013 14.4777789 28.2842656 13.2066305 28.2842656 13.2066305 26.9223316 14.5989207 26.9223316 12.512317 22.1781897 14.940044 22.1781897 14.940044 17.429738 15.7782107 17.429738 15.7782107 15.9869931 13.7776475 13.5995141 15.7782107 13.5995141 16.8635307 13.5995141 16.8635307 0 17.7114777 0"></polygon>
        <linearGradient x1="58.7301587%" y1="7.89115646%" x2="58.7301587%" y2="147.210884%" id="linearGradient-7">
            <stop stop-color="#E23237" offset="0%"></stop>
            <stop stop-color="#B52E31" offset="100%"></stop>
        </linearGradient>
        <polygon id="path-8" points="17.7114777 5.87977089e-13 20.902883 1.08767357 20.902883 13.5995141 22.1681703 13.5995141 24.168238 13.5995141 22.1681703 15.9869931 22.1681703 17.429738 22.9781525 17.429738 22.9781525 22.1781897 25.1988697 22.1781897 23.4203135 26.9223316 24.6616828 26.9223316 24.6616828 28.2842656 23.4405685 28.2842656 23.4405685 34.0298168 29.945852 34.0298168 28.6133355 39.0110041 38.7386509 39.0110041 33.2489156 60.5924859 38.7386509 60.5924859 33.4626698 79.4679856 38.7386509 79.4679856 33.2489156 99.1072029 38.7386509 99.1072029 33.7556716 116.933529 4.10889044 133.353757 0.0252755793 118.745774 5.51535563 118.745774 0.0252755793 99.1065563 5.51535563 99.1065563 0.0252755793 79.467339 5.3013428 79.467339 0.0252755793 60.5918393 5.51535563 60.5918393 0.0252755793 39.0110041 9.53275067 39.0110041 8.00048596 34.0296013 14.4777789 34.0296013 14.4777789 28.2842656 13.2066305 28.2842656 13.2066305 26.9223316 14.5989207 26.9223316 12.512317 22.1781897 14.940044 22.1781897 14.940044 17.429738 15.7782107 17.429738 15.7782107 15.9869931 13.7776475 13.5995141 15.7782107 13.5995141 16.8635307 13.5995141 16.8635307 0 17.7114777 0"></polygon>
        <linearGradient x1="74.59557%" y1="7.89115646%" x2="74.59557%" y2="107.363946%" id="linearGradient-10">
            <stop stop-color="#E23237" offset="0%"></stop>
            <stop stop-color="#B52E31" offset="100%"></stop>
        </linearGradient>
        <path d="M0.133014624,101.811892 L45.7156158,0.122186166 L93.7609808,102.394377 L77.3964327,102.103242 L67.0717356,78.9055414 L45.9328178,78.9055414 L45.4658766,78.9055414 L25.9565553,78.9055414 L17.0048844,101.811892 L0.133014624,101.811892 Z M61.3230817,61.9455843 L45.8321034,29.5632336 L32.2046872,61.9455843 L45.598676,55.9349732 L45.598676,61.9455843 L61.3230817,61.9455843 Z" id="path-11"></path>
        <path d="M7.30604317,0 L7.30604317,1.5489844 L4.54525172,1.5489844 L4.54525172,9.63008 L2.76081302,9.63008 L2.76081302,1.5489844 L0,1.5489844 L0,0 L7.30604317,0 Z M8.29590642,9.63008 L6.46434269,9.63008 L10.5517035,0 L12.4707944,0 L16.6456824,9.63008 L14.7265914,9.63008 L13.6289891,7.00361619 L10.4304755,7.00361619 L11.0432521,5.45463176 L12.9825549,5.45463176 L11.4674853,1.83839538 L8.29590642,9.63008 Z M19.6085061,0 L19.6085061,9.63008 L17.824089,9.63008 L17.824089,0 L19.6085061,0 Z M20.854228,0 L22.6656015,0 L23.6958669,6.91612485 L26.2007997,0 L27.9178799,0 L30.2612041,6.64675502 L31.352062,0 L33.1095444,0 L31.2981925,9.63008 L29.6013025,9.63008 L26.954973,2.07414787 L24.1133341,9.63008 L22.436656,9.63008 L20.854228,0 Z M35.3451295,9.63008 L33.5135658,9.63008 L37.6009266,0 L39.5200175,0 L43.6949054,9.63008 L41.7758147,9.63008 L40.6782122,7.00361619 L37.4797201,7.00361619 L38.0924752,5.45463176 L40.031778,5.45463176 L38.5167084,1.83839538 L35.3451295,9.63008 Z M44.8733122,9.63008 L44.8733122,0 L46.6577294,0 L51.7416761,7.01697694 L51.7416761,0 L53.4587778,0 L53.4587778,9.63008 L51.6743393,9.63008 L46.590414,2.4648419 L46.590414,9.63008 L44.8733122,9.63008 Z" id="path-13"></path>
    </defs>
    <g id="landing" stroke="none" stroke-width="1" fill="none" fill-rule="evenodd">
        <g id="ngTaiwan" transform="translate(-7.000000, -3.000000)">
            <rect id="base" fill-opacity="0" fill="#FFFFFF" fill-rule="nonzero" x="0" y="0" width="164" height="164"></rect>
            <g id="Left" transform="translate(7.336843, 2.805265)">
                <g id="Fill-5-Clipped">
                    <mask id="mask-2" fill="white">
                        <use xlink:href="#path-1"></use>
                    </mask>
                    <g id="path-1"></g>
                    <polygon id="Fill-5" fill="#E23237" fill-rule="nonzero" mask="url(#mask-2)" points="-1.01914672 159.395624 150.221821 159.395624 150.221821 -0.885278634 -1.01914672 -0.885278634"></polygon>
                </g>
            </g>
            <g id="Right" transform="translate(80.814870, 2.805265)">
                <g id="Group-13">
                    <g id="Fill-11-Clipped">
                        <mask id="mask-4" fill="white">
                            <use xlink:href="#path-3"></use>
                        </mask>
                        <g id="path-3"></g>
                        <polygon id="Fill-11" fill="#B52E31" fill-rule="nonzero" mask="url(#mask-4)" points="-0.944117246 159.395624 76.7437713 159.395624 76.7437713 -0.885278634 -0.944117246 -0.885278634"></polygon>
                    </g>
                </g>
                <g id="Group-20" transform="translate(18.531114, 12.498760)">
                    <g id="Group-16">
                        <g id="Fill-14-Clipped">
                            <mask id="mask-6" fill="white">
                                <use xlink:href="#path-5"></use>
                            </mask>
                            <g id="path-5"></g>
                            <polygon id="Fill-14" fill="url(#linearGradient-7)" fill-rule="nonzero" mask="url(#mask-6)" points="-92.0091443 145.890712 57.3171718 145.890712 57.3171718 -12.4987612 -92.0091443 -12.4987612"></polygon>
                        </g>
                    </g>
                    <g id="Group-19">
                        <g id="Fill-17-Clipped">
                            <mask id="mask-9" fill="white">
                                <use xlink:href="#path-8"></use>
                            </mask>
                            <g id="path-8"></g>
                            <polygon id="Fill-17" fill="url(#linearGradient-10)" fill-rule="nonzero" mask="url(#mask-9)" points="-92.0091443 145.890712 57.3171718 145.890712 57.3171718 -12.4987612 -92.0091443 -12.4987612"></polygon>
                        </g>
                    </g>
                </g>
            </g>
            <g id="Center" transform="translate(35.348995, 24.570349)">
                <g id="Fill-22-Clipped">
                    <mask id="mask-12" fill="white">
                        <use xlink:href="#path-11"></use>
                    </mask>
                    <g id="path-11"></g>
                    <polygon id="Fill-22" fill="#FFFFFF" fill-rule="nonzero" mask="url(#mask-12)" points="-0.944375821 103.471857 94.8383714 103.471857 94.8383714 -0.955336346 -0.944375821 -0.955336346"></polygon>
                </g>
            </g>
            <g id="Taiwan" transform="translate(55.172978, 90.512088)">
                <g id="Fill-25-Clipped">
                    <mask id="mask-14" fill="white">
                        <use xlink:href="#path-13"></use>
                    </mask>
                    <g id="path-13"></g>
                    <polygon id="Fill-25" fill="#E23237" fill-rule="nonzero" mask="url(#mask-14)" points="-1.07739045 10.7075594 54.5361684 10.7075594 54.5361684 -1.07737167 -1.07739045 -1.07737167"></polygon>
                </g>
            </g>
        </g>
    </g>
</svg>