<svg enable-background="new 0 0 697 584.007" height="584.007" viewBox="0 0 697 584.007" width="697" xmlns="http://www.w3.org/2000/svg"><path d="m346.667 30.997-244.677 86.101 38.671 320.542 206.006 113.363 207.67-114.897 38.657-320.532z" fill="#dc1e32"/><path d="m347.492 31.28v519.266l206.845-114.44 38.657-320.532z" fill="#c32030"/><path d="m104.993 329.528c-23.505-1.596-104.993-6.44-104.993-6.44l31.473-51.468-26.845-52.615s104.226 6.944 104.866 6.986c2.796.164 4.96 2.516 4.894 5.357l-2.34 93.185c-.03 1.416-.635 2.747-1.706 3.731-.982.894-2.235 1.381-3.54 1.381-.004-.001-.633-.037-1.809-.117z" fill="#2f3c42"/><path d="m592.007 329.528c23.506-1.595 104.994-6.44 104.994-6.44l-31.473-51.468 26.844-52.616s-104.226 6.944-104.866 6.986c-2.795.164-4.959 2.516-4.894 5.357l2.341 93.185c.029 1.416.634 2.747 1.705 3.731.982.894 2.235 1.381 3.54 1.381.003 0 .634-.036 1.809-.116z" fill="#2f3c42"/><path d="m44.735 270.3 77.573-29.958-4.465 35.016z" fill="#1e2427"/><path d="m651.985 270.3-77.573-29.958 4.464 35.016z" fill="#1e2427"/><path d="m349.215 38.096 236.603 81.982-37.411 313.993-199.412 108.916-199.412-108.915-37.409-313.978zm.01-38.096-276.23 95.553 43.037 361.213 232.963 127.24 232.963-127.24 43.037-361.213z" fill="#192838"/><path d="m195.13 188.618c-2.393-13.432-4.786-26.864-7.178-40.295-2.897.516-5.792 1.046-8.686 1.589 2.518 13.409 5.036 26.818 7.554 40.227 2.768-.521 5.538-1.028 8.31-1.521zm9.353-1.565c2.775-.465 5.553-.916 8.331-1.355-1.181-7.482-2.362-14.965-3.542-22.447 9.767 6.393 19.332 12.94 28.691 19.632-1.79-13.841-3.58-27.682-5.37-41.523-2.922.378-5.843.769-8.763 1.175 1.042 7.503 2.083 15.006 3.125 22.509-9.59-6.573-19.385-12.996-29.379-19.261 2.302 13.757 4.605 27.514 6.907 41.27zm-18.488 243.954 61-1 102-245v-118z" fill="#fff"/><path d="m462.148 181.411c4.612.554 8.763-.532 12.508-3.277 3.728-2.763 5.932-6.391 6.563-10.919 1.138-8.182 2.276-16.363 3.414-24.545-2.928-.407-5.858-.801-8.789-1.18-1.06 8.183-2.12 16.367-3.181 24.551-.578 4.398-4.984 7.646-9.548 7.099-4.608-.554-8.076-4.72-7.594-9.157.907-8.202 1.814-16.404 2.721-24.606-2.936-.325-5.873-.635-8.811-.933-.831 8.219-1.662 16.437-2.493 24.656-.459 4.548.822 8.595 3.787 12.161 2.968 3.551 6.759 5.59 11.423 6.15zm29.852 3.704c1.251-1.906 2.508-3.808 3.771-5.709 4.767.749 9.53 1.536 14.288 2.361.585 2.206 1.164 4.412 1.736 6.619 3.004.53 6.005 1.076 9.005 1.637-3.729-14.862-7.758-29.71-12.086-44.537-8.858 12.647-17.435 25.413-25.728 38.287 3.006.433 6.011.88 9.014 1.342zm13.54-20.26c.82 3.061 1.627 6.122 2.422 9.184-2.573-.436-5.147-.862-7.723-1.276 1.756-2.64 3.522-5.277 5.301-7.908zm-156.545 20.152 102 245 61 1-163-364z" fill="#b4b4b3"/><path d="m348.688 377.994c-142.228 0-270.057-9.312-297.682-11.463v-90.544c29.697 2.381 156.659 11.848 297.682 11.848 134.25 0 267.189-9.541 297.678-11.874v90.548c-28.483 2.114-162.425 11.485-297.678 11.485z" fill="#fff"/><g fill="#263238"><path d="m640.365 282.429v78.502c-37.408 2.693-163.972 11.063-291.678 11.063-134.073 0-255.381-8.292-291.682-11.022v-78.495c38.806 2.995 159.046 11.358 291.682 11.358 126.503 0 251.848-8.458 291.678-11.406m12-12.957s-149.988 12.363-303.678 12.363c-162.093 0-303.682-12.363-303.682-12.363v102.598s141.589 11.924 303.682 11.924c153.69 0 303.678-11.924 303.678-11.924z"/><path clip-rule="evenodd" d="m104.459 329.52c8.306.518 16.612 1.01 24.92 1.475.165-2.943.33-5.887.495-8.83-8.289-.464-16.578-.955-24.865-1.472-.183 2.943-.366 5.885-.55 8.827zm110.631-.19c-9.874-9.98-19.672-19.997-29.395-30.05-.722 17.151-1.444 34.303-2.166 51.454 3.424.144 6.848.284 10.272.419.368-9.316.736-18.631 1.104-27.947 9.819 10.041 19.714 20.046 29.685 30.013.545-17.168 1.09-34.337 1.635-51.505-3.392-.108-6.783-.22-10.174-.336-.321 9.317-.641 18.635-.961 27.952zm43.96-4.487c-.075 3.218-.15 6.436-.224 9.654 4.84.112 9.681.216 14.521.31-2.318 4.699-7.526 8.666-14.156 8.513-4.303-.099-7.916-1.69-10.83-4.766-2.956-3.078-4.372-6.733-4.258-10.96.114-4.228 1.724-7.799 4.818-10.72 3.074-2.942 6.73-4.362 10.978-4.264 4.165.096 7.751 1.683 10.77 4.766 2.469-2.357 4.934-4.716 7.394-7.077-4.059-4.118-10.201-7.664-17.992-7.844-.01-.031-.019-.063-.029-.094-7.076-.164-13.157 2.188-18.274 7.069-5.158 4.9-7.856 10.852-8.064 17.87-.21 7.08 2.134 13.175 7.062 18.272 4.863 5.116 10.904 7.765 18.094 7.931 7.127.165 13.294-2.202 18.472-7.086 5.133-4.845 8.364-11.629 7.792-21.054-8.691-.145-17.383-.318-26.074-.52zm90.544-21.031c-11.672-.003-23.344-.058-35.015-.165-.031 3.344-.061 6.687-.092 10.031 4.155.038 8.31.07 12.465.095-.081 13.448-.162 26.895-.243 40.343 3.436.021 6.873.037 10.31.049.046-13.448.092-26.896.138-40.344 4.145.014 8.29.022 12.434.023.001-3.345.002-6.688.003-10.032zm-1.508 50.374c3.701.002 7.402 0 11.103-.008 1.147-2.555 2.292-5.11 3.435-7.665 5.826-.018 11.651-.048 17.477-.091 1.169 2.544 2.341 5.086 3.515 7.629 3.711-.031 7.423-.067 11.134-.108-7.973-17.048-15.844-34.12-23.616-51.215-7.583 17.175-15.265 34.328-23.048 51.458zm27.904-16.674c-3.117.02-6.234.036-9.35.049 1.555-3.558 3.105-7.118 4.651-10.678 1.562 3.544 3.128 7.087 4.699 10.629zm37.215 6.118c-.212-13.436-.424-26.872-.637-40.307-3.382.053-6.765.102-10.147.147.222 16.79.444 33.58.665 50.371 10.277-.136 20.554-.311 30.83-.527-.07-3.353-.141-6.707-.211-10.06-6.832.143-13.666.268-20.5.376zm62.643-41.817c-3.903.125-7.806.244-11.709.357-4.095 7.549-8.215 15.091-12.36 22.627-.19-7.425-.381-14.849-.571-22.274-3.371.086-6.743.169-10.114.246.387 16.787.775 33.574 1.162 50.362 3.415-.079 6.829-.162 10.244-.25-.181-7.039-.361-14.079-.542-21.118 5.123 6.913 10.272 13.815 15.447 20.708 4.165-.122 8.329-.252 12.494-.387-6.124-8.065-12.213-16.145-18.265-24.238 4.77-8.67 9.509-17.348 14.214-26.033zm26.633 20.785c-3.565-.901-9.393-1.896-9.556-6.432-.1-2.794 2.148-5.199 4.97-5.305 2.776-.104 5.199 2.126 5.306 4.889 3.342-.838 6.682-1.68 10.021-2.527-1.357-7.422-8.018-12.895-15.772-12.605-8.502.319-15.176 7.387-14.897 15.879.227 6.856 5.864 11.714 12.141 13.579 3.559 1.08 9.815 1.481 9.995 6.075.11 2.794-2.923 5.236-5.754 5.342.016.015.032.029.048.044-2.877.108-6.052-2.071-6.152-4.881-3.362.834-6.725 1.664-10.091 2.49 1.404 7.459 8.747 12.932 16.658 12.634 8.611-.321 16.061-7.501 15.701-15.988-.294-7.005-6.148-11.608-12.618-13.194zm89.889-1.665c-8.287.509-16.576.991-24.866 1.447.162 2.943.324 5.887.486 8.83 8.308-.457 16.616-.941 24.922-1.45-.18-2.943-.361-5.885-.542-8.827z" fill-rule="evenodd"/></g></svg>