<svg height="152" viewBox="0 0 168 152" width="168" xmlns="http://www.w3.org/2000/svg"><g fill="none" transform="matrix(1 0 0 -1 -.66792 151.70078)"><path d="m85.3200534.76386476c-1.1933304-1.13866382-2.007995.11866637-2.8399929.55066529-16.9172911 8.80397795-33.8012489 17.67328915-50.7278732 26.45993385-1.6146626.8386646-2.4053273 1.8239954-2.6239935 3.6773241-.8186646 6.9279827-1.7373289 13.8479654-2.7946596 20.7452815-.3466658 2.254661 1.2373302 1.9573284 2.3453274 2.1399947 7.2066487 1.1893303 14.423964 2.3133275 21.6439459 3.4199914 11.4186381 1.7519956 22.8439429 3.4719913 34.2652477 5.203987-.0013333-7.8253138-.0013333-15.6506275-.0026667-23.4772746-3.0239924-.8773312-6.0426515-1.7786623-9.0773106-2.6213268-1.2786635-.3546658-2.1599946-.7159982-.7719981-2.0559949 3.3599916-3.2506585 6.1773179-7.0386491 9.8546421-9.9773084-.0013334-6.9146494-.0213333-13.8279654.0133333-20.74261478.0066666-1.13199717-.4253323-2.41199397.7159982-3.32265836" fill="#e46825"/><path d="m84.5857885 39.483768c.0013334 7.8266471.0013334 15.6519608.0026667 23.4772746 7.0906489-.4839988 13.9946317-2.1826612 20.9866138-3.3026584 11.214639-1.7946622 22.379944-3.8959903 33.594583-5.7039858 2.59866-.4199989 3.330658-1.2093303 2.86666-3.9693234-.977331-5.8106521-1.483997-11.7039707-2.094662-17.5746227-.150666-1.4306631-.619998-2.3373275-1.954662-3.0639923-17.362623-9.4453098-34.691913-18.9519527-52.0332029-28.4385956-.1826662-.09866642-.4213323-.09866642-.6333317-.14399964-1.1426638.91066439-.7093316 2.19066119-.7159982 3.32265836-.036 6.91464938-.0146667 13.82796538-.0133333 20.74261478 4.9226543 5.7786522 9.8453087 11.5559711 14.767963 17.3346234l-.6479983.7279981c-4.7093216-1.1359971-9.4173098-2.270661-14.1252981-3.4079914" fill="#e16025"/><path d="m85.4919196 132.861135c11.211972-3.917324 22.4732774-7.695981 33.6065824-11.826638 3.918657-1.451996 7.557315-1.478663 11.465305-.370665 12.965301 3.678657 22.577277 12.030636 30.989256 22.059945 2.211994 2.63866 4.229323 5.441319 6.817316 8.793311.941331-14.437297-1.642662-27.129266-9.922642-38.339904-1.29333-1.750663-2.793326-3.354659-4.257322-4.974655-4.970655-5.503986-10.881307-8.201312-18.594621-8.4346451-15.382628-.4639988-30.738589-1.8839953-46.1052177-2.8893261-1.6293293-.1053331-3.2653252-.0786665-4.8999878-.1119997-.0013333 10.8279729-.0173333 21.6572789.016 32.4852519.004 1.239997-.5039988 2.679994.8853311 3.609325" fill="#2956a6"/><path d="m85.4919196 132.861135c-1.3893299-.929331-.8813311-2.369328-.8853311-3.609325-.0333333-10.827973-.0173333-21.657279-.016-32.4852519-14.7292965.929331-29.458593 1.8519954-44.1865562 2.791993-4.3639891.278666-8.7226448.6573319-13.0906339.8866649-1.3613299.071999-2.4413272.475998-3.587991 1.234663-15.02262916 9.938642-21.62127933 24.375939-22.43461063 41.886562-.1066664 2.322661-.46266551 4.731988.61733179 7.511981 3.12265886-4.277322 6.00265166-8.238646 9.33464334-11.830637 7.7693139-8.375979 16.4959588-15.271962 27.7159307-18.515953 3.8013238-1.099998 7.3239817-1.145331 11.1426388.299999 10.6133068 4.018656 21.3506133 7.71598 32.0652532 11.462638 1.0173308.355999 2.0959947 1.442663 3.325325.366666" fill="#2e5dab"/><path d="m95.586961 89.4127098c-.0626665-.2013328-.125333-.4013323-.1879995-.6026652 8.1039795-4.9799875 16.2079595-9.9586417 24.5839385-15.1066289.657332 4.9639876 1.222664 9.4959763 1.877329 14.0146317.189333 1.2959967-.170667 1.7226623-1.491997 1.7159957-8.259979-.0426666-16.521292-.0213333-24.781271-.0213333zm-11.0026391 4.4986554c18.9506191 1.2839968 37.9039051 2.5439937 56.8505241 3.8919903 2.111995.1506663 2.75066-.1199997 2.449328-2.525327-1.523997-12.1199697-2.879993-24.262606-4.126657-36.415909-.263999-2.5866602-1.454663-2.250661-3.270658-1.9346618-17.29329 3.0173258-34.59858 5.9613184-51.9025371 8.925311z" fill="#c32033"/><path d="m47.8684137 73.6595492c8.4106456 5.1853204 16.5452919 10.2013078 24.6812716 15.2172953-8.3626458.5386653-16.4359589.529332-24.5092721.5493319-1.2879967.004-2.3573274.0959998-2.0586615-1.8319954.6999983-4.5159887 1.2373303-9.0559773 1.886662-13.9346318m36.7159082 20.250616v-28.0572632c-12.4893021-1.995995-24.9786042-3.99599-37.4679064-5.9853183-5.0613206-.8066647-10.1346413-1.5439962-15.183962-2.419994-1.5946627-.2773326-2.3226609-.1119997-2.5226604 1.7666623-1.2893301 12.1466363-2.6479933 24.2892726-4.1319896 36.4145756-.2506661 2.0426616.2839993 2.3506608 2.137328 2.2199944 19.0532857-1.3533299 38.1119047-2.6359934 57.1691904-3.9386568" fill="#de1d39"/><path d="m84.5857885 39.483768c4.7079883 1.1373304 9.4159765 2.2719943 14.1252981 3.4079914l.6479983-.7279981c-4.9226543-5.7786523-9.8453087-11.5559712-14.767963-17.3346234-3.6773242 2.9386593-6.4946505 6.7266499-9.8559754 9.9773084-1.3866632 1.3399967-.5066654 1.7013291.7719981 2.0559949 3.0359924.8426645 6.0533182 1.7439956 9.0786439 2.6213268" fill="#fdfaf7"/><path d="m95.586961 89.4127098c8.259979 0 16.521292-.0213333 24.781271.0213333 1.32133.0066666 1.68133-.419999 1.491997-1.7159957-.654665-4.5186554-1.219997-9.0506441-1.877329-14.0146317-8.375979 5.1479872-16.479959 10.1266414-24.5839385 15.1066289.0626665.2013329.125333.4013324.1879995.6026652" fill="#fdfafc"/><path d="m47.8684137 73.6595492c-.6493317 4.8786545-1.1866637 9.4186431-1.886662 13.9346318-.2986659 1.9279952.7706648 1.8359954 2.0586615 1.8319954 8.0733132-.0199999 16.1466263-.0106666 24.5092721-.5493319-8.1359797-5.0159875-16.270626-10.0319749-24.6812716-15.2172953" fill="#fdfafb"/></g></svg>