<?xml version="1.0" encoding="utf-8"?>
<!-- Generator: Adobe Illustrator 22.0.1, SVG Export Plug-In . SVG Version: 6.00 Build 0)  -->
<svg version="1.1" id="Layer_1" xmlns="http://www.w3.org/2000/svg" xmlns:xlink="http://www.w3.org/1999/xlink" x="0px" y="0px"
	 viewBox="0 0 300 300" style="enable-background:new 0 0 300 300;" xml:space="preserve">
<style type="text/css">
	.st0{fill:#E13336;}
	.st1{fill:#B53132;}
	.st2{fill:#FFFFFF;}
</style>
<title>Artboard 1</title>
<g>
	<path class="st0" d="M14.9,53.1L149.8,5l138.5,47.2L266,230.7L149.8,295L35.6,231.6L14.9,53.1z"/>
	<path class="st1" d="M275.2,156.8l13.1-104.6L149.8,5v290L266,230.8l1-8c-0.7-0.1-1.2-0.5-1.5-1c-0.5-0.4-1-0.9-1.3-1.4
		c-0.6-1.1-0.9-2.6-0.5-3.8c0.2-0.5,0.3-1,0.5-1.5c0.3-1,0.9-1.8,1.6-2.4c-1.8-1.8-1.9-5.1-0.3-7c-0.5-2.1,0.1-4.5,2-5.7
		c-0.6-2.1,0.1-4.6,2-5.8c-1.2-1.9-1-4.5,0.4-6.2c-0.6-1.4-0.5-3.1,0.2-4.4c-0.2-1.5,0.2-3.1,1.2-4.2c-1.3-1.6-1.4-3.9-0.5-5.7
		c-0.3-1.7,0.2-3.5,1.5-4.6c-0.6-1.1-0.7-2.4-0.5-3.7C269.4,162.6,270.5,156.9,275.2,156.8z"/>
	<path class="st2" d="M273.4,150.9c0-0.7,0.2-1.4,0.5-2.1c-1.9,0-3.8,0-5.8,0c-0.3,0-0.7,0-1.2,0.1v2.4c-0.7,0-1.3,0-1.9,0
		c-0.4,0-0.7,0.2-1.1,0.4c-0.5,0.4-0.5,0.9-0.5,1.5c0,6,0,12,0,18.1v1.3H256v-5.3c-0.5-0.1-0.8-0.2-1.3-0.3v-2.5h-2.4v-2.3h-3.7v2.9
		c-0.8,0-1.6,0.3-2-0.2c-0.8-0.9-1.7-0.7-2.7-0.6c-0.1,0.4-0.1,0.7-0.2,1.1h-5.3v-3.8c0-1.3,0-2.5,0-3.8c0-1.2,0-2.5,0-3.8h-2.7
		c0-0.6-0.1-1.1-0.1-1.7c-1.2-0.1-2.4-0.1-3.5,0c-0.1,0.5-0.1,0.8-0.1,1.2h-2.6v-20.9c-1.6-0.8-1.6-2.4-2.2-3.8c-2.3,0-4.6,0-6.9,0
		c-0.7,0-1.2-0.2-1.6-0.8c-0.6-1-1.3-1.9-2-2.9c-0.9,1.1-1.7,2.1-2.5,3.1c-0.3,0.4-0.7,0.6-1.2,0.6c-1.8,0-3.7,0-5.5,0h-1
		c-0.1,0.6-0.2,1.1-0.4,1.6c-0.3,0.6-0.5,1.2-1,1.6c-0.4,0.4-0.5,0.7-0.5,1.2c0,1.8-0.1,3.7-0.2,5.5c0,0.3,0,0.5,0,0.8
		c-0.2-0.3-0.3-0.5-0.4-0.8c-0.9-3.5-1.8-6.9-2.8-10.3c-0.7,0.6-1.7,0.9-2.9,0.9c-3,0-4.6-2.2-4.8-4.5c-0.2,0.1-0.5,0.1-0.8,0.2
		c1.8,6.3,3.3,12.6,4.3,19.1c0.5,3.2,0.8,6.5,1.1,9.7c0.1,0.8,0.2,1.6,0.3,2.7h-13.7v2.6c-0.7,0-1.2,0.1-1.9,0.1
		c0,0.7-0.1,1.4-0.1,2.1h-5.1v-9.4c-0.6-0.1-1-0.1-1.5-0.2c0-0.8-0.1-1.6-0.1-2.4c-0.7,0-1.3-0.1-2.1-0.1c0-0.7-0.1-1.3-0.1-2H169
		c0,0.6-0.1,1.1-0.1,1.8c-0.5,0-1,0.1-1.6,0.1v3c-0.7,0-1.2,0.1-1.9,0.1c0,0.4-0.1,0.8-0.1,1.2c0,4,0,8.1,0,12.1
		c0,0.6-0.1,1.1-0.6,1.5c-0.4,0.3-0.5,0.7-0.5,1.1c0,0.5,0,1,0,1.5c0.1,0.7-0.1,1.3-0.7,1.8c-0.2,0.2-0.3,0.6-0.3,1
		c0,1.3,0,2.6,0,3.9c0,0.3,0,0.7,0,1.1c-0.6,0-1.2,0.1-1.8,0.1v7.3h-2.3c0-0.4-0.1-0.7-0.1-1.1h-1.9c-0.1,0.4-0.1,0.7-0.2,1.1h-1.9
		c-0.2-0.9-0.1-1.8-0.1-2.7c0-0.9,0-1.9,0-2.8v-5.7h-5.3c0-0.7,0-1.2,0-1.7c0-0.3-0.1-0.7-0.4-0.9c-0.4-0.4-0.5-0.8-0.5-1.3
		c0-1.3,0-2.5,0-3.8v-1c-0.5-0.2-0.6,0-0.6,0.3c0,0.9,0,1.9,0,2.8c0,0.6,0,1.2,0,1.8c0,0.2,0.1,0.5,0,0.6c-0.7,1-0.3,2.1-0.5,3.2
		c-1.2,0.1-2.4,0-3.7,0c0-0.7-0.1-1.3-0.1-2c-0.5-0.3-1.1-0.6-1.7-0.8c0-0.4-0.1-0.7-0.1-1.2c-0.4,0-0.8-0.1-1.3-0.1
		c0,0.6-0.1,1-0.1,1.5c-0.6,0.2-1.1,0.5-0.9,1.3c-1.3,0-1.9,1.1-2.6,1.8c-0.2,0.2-0.2,0.7-0.2,1c0,2.9,0,5.7,0,8.6v1.3
		c-0.4,0-0.7,0.1-1,0.1c-2.3,0-4.6,0-6.9,0c-0.6,0-1.1-0.2-1.5-0.6c-0.5-0.6-1.1-1-2-0.9c-0.8,0.1-1.6-0.1-2.4-0.2
		c-0.7-0.1-1-0.4-1.2-1.2c-0.1-0.5-0.1-1.1-0.2-1.6c0-0.2,0-0.5-0.2-0.7c-0.6-0.7-0.5-1.5-0.5-2.3c0-6.9,0-13.9,0-20.8v-1.4
		c-0.6,0-1.2-0.1-1.8-0.1c-0.1-0.3-0.1-0.5-0.2-0.8h-0.9c-0.4,0.3,0.1,1.2-0.9,1c-0.1-0.3-0.1-0.7-0.2-1.1c-0.3,0-0.5-0.1-0.9-0.1
		c-0.1,0.4-0.1,0.8-0.2,1.2h-3.5c-0.1-0.3-0.1-0.7-0.2-1c-0.7,0-0.7,0-0.8,0.9h-0.8c-0.1-0.3-0.1-0.6-0.2-0.9c-0.2,0-0.5,0-0.8-0.1
		c-0.1,0.3-0.2,0.6-0.3,1c-0.5,0-0.9,0.1-1.5,0.1v6.2h-4.9c0,0.6-0.1,1.1-0.1,1.7H101v-4.8c-0.5-0.1-0.8-0.1-1.3-0.2
		c0.2-1.1,0.4-2.1,0.6-3.2c1-5,2-9.9,3.2-14.8c-1.5,0.7-3.3,0.6-4.7-0.2c-1.3-0.7-2.2-1.7-2.8-2.8c-1.7,6-3.3,12.1-5,18.2
		c-0.1,0.3-0.2,0.7-0.4,1.1c-0.9,0-1.7,0-2.6,0c-0.2,0-0.5-0.1-0.7-0.2c-3.8-2.1-7.5-1.7-11,0.7c-0.6,0.4-0.9,0.8-0.8,1.6
		c0.1,0.8,0,1.6-0.9,1.9c0,1,0,2,0,3c0,0.7-0.2,1.2-0.8,1.6c-1,0.5-1.5,1.3-1.3,2.4c0,0.1-0.1,0.2-0.1,0.4c-0.4-0.2-0.7-0.3-1.1-0.5
		c-1.4-0.9-2.8-1.5-4.5-1.3c-0.2,0-0.6-0.1-0.8-0.2c-0.3-0.5-0.7-0.4-1.1-0.4c-5.4,0-10.8,0-16.2,0c-0.3,0-0.5,0.1-0.8,0.1
		c0,0.5-0.1,1-0.1,1.5c-0.5,0-1,0.1-1.6,0.1v6.4c0,1.1,0,2.1,0,3.2c0,1.1,0.1,2.1,0,3.2c-2.5,0.2-4.9,0.4-7.3,0.2
		c-0.5,0-0.9-0.1-1.4,0c-0.9,0.2-1.9,0.4-2.8,0.6c0-0.1-0.1-0.2-0.1-0.3c0-7.3,0-14.5,0-21.8c0-0.2,0-0.5,0.1-0.6
		c0.7-0.6,0.3-1.2,0.3-2h-2.6v-2.6c-0.6,0-1.3,0-1.9,0c-0.4,0-0.9,0-1.3,0h-0.8c0.6,1.1,0.8,2.4,0.6,3.6c0.8,1.3,1,3,0.5,4.5
		c0.6,1,0.9,2.3,0.7,3.5c0.8,1.6,0.7,3.6-0.2,5.1c1,1.5,1.1,3.6,0.4,5.2c0.3,1,0.3,2.1,0.1,3.1c0.6,0.8,0.9,1.8,1,2.8
		c1.1,1.6,1.2,3.9,0.3,5.6c0.1,0.4,0.2,0.8,0.2,1.1c0.7,1.3,0.8,2.8,0.4,4.2c0.7,1,0.9,2.3,0.8,3.6c0.8,1.2,1,2.8,0.6,4.3
		c0.5,1.1,0.5,2.4,0.3,3.5c0.7,1.1,0.9,2.6,0.6,3.9c0.1,0.2,0.2,0.3,0.3,0.5c0,0,0,0,0,0.1c0.1,0.2,0.1,0.3,0.2,0.5c0,0,0,0,0,0
		c0.1,0.4,0.2,0.7,0.3,1.1c0,0,0,0,0,0c0,0.2,0,0.4,0,0.6c0,0,0,0,0,0c0,0.6,0,1.2-0.2,1.7v0c0.2,0.3,0.4,0.6,0.5,1c0,0,0,0,0,0
		c0.1,0.3,0.2,0.6,0.3,1c0,0,0,0,0,0.1c0.1,0.3,0.1,0.7,0.1,1c75.5,0,151,0,226.5,0c0.1-1.5,0.8-2.8,2-3.7c-0.2-0.5-0.3-1-0.3-1.5
		c0-0.6,0.1-1.1,0.3-1.6c0.1-0.7,0.3-1.3,0.6-1.8c0.1-0.7,0.3-1.4,0.7-2c0-0.2,0-0.3,0-0.5c0,0,0-0.1,0-0.1c0-0.1,0-0.2,0-0.4
		c0-0.1,0-0.1,0-0.2c0-0.1,0-0.2,0-0.3c0-0.1,0-0.1,0-0.2c0-0.1,0-0.2,0.1-0.3c0-0.1,0-0.1,0.1-0.2c0-0.1,0.1-0.2,0.1-0.3
		c0-0.1,0-0.1,0.1-0.2c0-0.1,0.1-0.2,0.1-0.3c0-0.1,0.1-0.1,0.1-0.2c0-0.1,0.1-0.2,0.1-0.2c0-0.1,0.1-0.1,0.1-0.2
		c0-0.1,0.1-0.1,0.1-0.2c0-0.1,0.1-0.1,0.1-0.2c0,0,0,0,0,0c-0.3-1.1-0.2-2.3,0.2-3.4c-0.2-0.5-0.3-1.1-0.3-1.7v-0.2
		c0-0.9,0.3-1.7,0.7-2.4c-0.6-1.7-0.3-3.7,0.9-5.1c-0.8-0.8-1.3-2.2-1.3-3.4c0-0.6,0.1-1.1,0.3-1.7c0.1-0.6,0.3-1.2,0.6-1.7
		c-0.2-0.6-0.4-1.2-0.4-1.9v-1c0-0.6,0.1-1.1,0.3-1.7c0-0.3-0.1-0.5-0.1-0.8c0-0.7,0.1-1.3,0.4-1.8c0-0.1,0.1-0.2,0.1-0.3
		c-0.8-2.3,0-5.2,2.3-6.3c0.1-0.7,0.3-1.4,0.5-2.1c0-0.1,0.1-0.3,0.1-0.4c-0.4-1.5-0.3-3.1,0.5-4.4c0-0.2,0-0.4,0-0.6
		c-1.4-2.3-0.9-5.8,1.6-7.1c0-0.1-0.1-0.2-0.1-0.3C273.6,151.8,273.5,151.3,273.4,150.9z"/>
	<path class="st2" d="M81.2,184.9c0.3-1.1,0.5-2.2,0.8-3.4c3.2-13.6,7-27.1,11.3-40.4c4.6-14.1,9.7-28.1,16.1-41.6
		c4-8.5,8.5-16.7,14.1-24.3c3.4-4.7,7.3-9,12-12.5c3.2-2.4,6.7-4.2,10.6-5c4.8-1,9.3-0.2,13.7,1.9c4.4,2.2,8.1,5.3,11.4,8.9
		c4.7,5,8.5,10.6,11.9,16.4c6.1,10.4,11,21.3,15.4,32.4c3.9,10,7.4,20.2,10.6,30.5c3.7,12,7,24.2,9.8,36.5c0,0.2,0,0.3,0.1,0.6
		c-0.3,0-0.5,0-0.7,0c-4.6,0-9.2,0-13.8,0c-0.5,0-0.7-0.2-0.8-0.7c-3.1-16.6-6.9-33.1-11.5-49.5c-3.3-11.8-7-23.5-11.7-34.9
		c-2.9-7.2-6.1-14.2-10.3-20.9c-2.3-3.7-4.8-7.2-8-10.3c-1.9-1.9-4-3.5-6.4-4.6c-4.6-2.1-9.1-1.6-13.3,1c-3.6,2.2-6.3,5.1-8.8,8.4
		c-4.1,5.4-7.3,11.4-10.2,17.5c-4.6,9.9-8.3,20.2-11.6,30.7c-3.4,10.8-6.4,21.7-9,32.7c-2,8.8-3.9,17.5-5.8,26.3
		c-0.3,1.2-0.5,2.5-0.7,3.7c-0.1,0.3-0.1,0.5-0.5,0.5c-4.8,0-9.7,0-14.5,0C81.4,185,81.4,185,81.2,184.9z"/>
	<polygon class="st2" points="28.7,153.3 27.4,153.3 34.5,214.9 38.8,214.9 31.4,169.8 32.2,159 	"/>
	<polygon class="st1" points="266.4,226.5 276.4,147.1 271.4,144.6 256.9,220.8 	"/>
	<polygon class="st2" points="272.5,148.8 275.2,148.8 266.9,214.9 261,214.9 258.6,208.3 268.2,160.6 	"/>
	<polygon class="st2" points="255.3,214.9 262.8,214.9 261.5,209.5 259.8,207.6 257.8,207.9 	"/>
	<polygon class="st2" points="273.9,148.8 269,148.8 267.8,161.5 	"/>
</g>
<polygon class="st2" points="255.3,200.1 268.9,199.2 266.9,214.9 34.5,214.9 33.4,205 63.2,201.2 198.5,199.7 "/>
</svg>
