<svg enable-background="new 0 0 300 300" viewBox="0 0 300 300" xmlns="http://www.w3.org/2000/svg"><path d="m14.9 53.1 134.9-48.1 138.5 47.2-22.3 178.5-116.2 64.3-114.2-63.4z" fill="#e13336"/><path d="m275.2 156.8 13.1-104.6-138.5-47.2v290l116.2-64.2 1-8c-.7-.1-1.2-.5-1.5-1-.5-.4-1-.9-1.3-1.4-.6-1.1-.9-2.6-.5-3.8.2-.5.3-1 .5-1.5.3-1 .9-1.8 1.6-2.4-1.8-1.8-1.9-5.1-.3-7-.5-2.1.1-4.5 2-5.7-.6-2.1.1-4.6 2-5.8-1.2-1.9-1-4.5.4-6.2-.6-1.4-.5-3.1.2-4.4-.2-1.5.2-3.1 1.2-4.2-1.3-1.6-1.4-3.9-.5-5.7-.3-1.7.2-3.5 1.5-4.6-.6-1.1-.7-2.4-.5-3.7-2.4-2.8-1.3-8.5 3.4-8.6z" fill="#b53132"/><path d="m273.4 150.9c0-.7.2-1.4.5-2.1-1.9 0-3.8 0-5.8 0-.3 0-.7 0-1.2.1v2.4c-.7 0-1.3 0-1.9 0-.4 0-.7.2-1.1.4-.5.4-.5.9-.5 1.5v18.1 1.3h-7.4v-5.3c-.5-.1-.8-.2-1.3-.3v-2.5h-2.4v-2.3h-3.7v2.9c-.8 0-1.6.3-2-.2-.8-.9-1.7-.7-2.7-.6-.1.4-.1.7-.2 1.1h-5.3v-3.8c0-1.3 0-2.5 0-3.8 0-1.2 0-2.5 0-3.8h-2.7c0-.6-.1-1.1-.1-1.7-1.2-.1-2.4-.1-3.5 0-.1.5-.1.8-.1 1.2h-2.6v-20.9c-1.6-.8-1.6-2.4-2.2-3.8-2.3 0-4.6 0-6.9 0-.7 0-1.2-.2-1.6-.8-.6-1-1.3-1.9-2-2.9-.9 1.1-1.7 2.1-2.5 3.1-.3.4-.7.6-1.2.6-1.8 0-3.7 0-5.5 0h-1c-.1.6-.2 1.1-.4 1.6-.3.6-.5 1.2-1 1.6-.4.4-.5.7-.5 1.2 0 1.8-.1 3.7-.2 5.5v.8c-.2-.3-.3-.5-.4-.8-.9-3.5-1.8-6.9-2.8-10.3-.7.6-1.7.9-2.9.9-3 0-4.6-2.2-4.8-4.5-.2.1-.5.1-.8.2 1.8 6.3 3.3 12.6 4.3 19.1.5 3.2.8 6.5 1.1 9.7.1.8.2 1.6.3 2.7h-13.7v2.6c-.7 0-1.2.1-1.9.1 0 .7-.1 1.4-.1 2.1h-5.1v-9.4c-.6-.1-1-.1-1.5-.2 0-.8-.1-1.6-.1-2.4-.7 0-1.3-.1-2.1-.1 0-.7-.1-1.3-.1-2h-4.8c0 .6-.1 1.1-.1 1.8-.5 0-1 .1-1.6.1v3c-.7 0-1.2.1-1.9.1 0 .4-.1.8-.1 1.2v12.1c0 .6-.1 1.1-.6 1.5-.4.3-.5.7-.5 1.1v1.5c.1.7-.1 1.3-.7 1.8-.2.2-.3.6-.3 1v3.9 1.1c-.6 0-1.2.1-1.8.1v7.3h-2.3c0-.4-.1-.7-.1-1.1h-1.9c-.1.4-.1.7-.2 1.1h-1.9c-.2-.9-.1-1.8-.1-2.7s0-1.9 0-2.8v-5.7h-5.3c0-.7 0-1.2 0-1.7 0-.3-.1-.7-.4-.9-.4-.4-.5-.8-.5-1.3 0-1.3 0-2.5 0-3.8v-1c-.5-.2-.6 0-.6.3v2.8 1.8c0 .2.1.5 0 .6-.7 1-.3 2.1-.5 3.2-1.2.1-2.4 0-3.7 0 0-.7-.1-1.3-.1-2-.5-.3-1.1-.6-1.7-.8 0-.4-.1-.7-.1-1.2-.4 0-.8-.1-1.3-.1 0 .6-.1 1-.1 1.5-.6.2-1.1.5-.9 1.3-1.3 0-1.9 1.1-2.6 1.8-.2.2-.2.7-.2 1v8.6 1.3c-.4 0-.7.1-1 .1-2.3 0-4.6 0-6.9 0-.6 0-1.1-.2-1.5-.6-.5-.6-1.1-1-2-.9-.8.1-1.6-.1-2.4-.2-.7-.1-1-.4-1.2-1.2-.1-.5-.1-1.1-.2-1.6 0-.2 0-.5-.2-.7-.6-.7-.5-1.5-.5-2.3 0-6.9 0-13.9 0-20.8v-1.4c-.6 0-1.2-.1-1.8-.1-.1-.3-.1-.5-.2-.8h-.9c-.4.3.1 1.2-.9 1-.1-.3-.1-.7-.2-1.1-.3 0-.5-.1-.9-.1-.1.4-.1.8-.2 1.2h-3.5c-.1-.3-.1-.7-.2-1-.7 0-.7 0-.8.9h-.8c-.1-.3-.1-.6-.2-.9-.2 0-.5 0-.8-.1-.1.3-.2.6-.3 1-.5 0-.9.1-1.5.1v6.2h-4.9c0 .6-.1 1.1-.1 1.7h-1.8v-4.8c-.5-.1-.8-.1-1.3-.2.2-1.1.4-2.1.6-3.2 1-5 2-9.9 3.2-14.8-1.5.7-3.3.6-4.7-.2-1.3-.7-2.2-1.7-2.8-2.8-1.7 6-3.3 12.1-5 18.2-.1.3-.2.7-.4 1.1-.9 0-1.7 0-2.6 0-.2 0-.5-.1-.7-.2-3.8-2.1-7.5-1.7-11 .7-.6.4-.9.8-.8 1.6s0 1.6-.9 1.9v3c0 .7-.2 1.2-.8 1.6-1 .5-1.5 1.3-1.3 2.4 0 .1-.1.2-.1.4-.4-.2-.7-.3-1.1-.5-1.4-.9-2.8-1.5-4.5-1.3-.2 0-.6-.1-.8-.2-.3-.5-.7-.4-1.1-.4-5.4 0-10.8 0-16.2 0-.3 0-.5.1-.8.1 0 .5-.1 1-.1 1.5-.5 0-1 .1-1.6.1v6.4 3.2c0 1.1.1 2.1 0 3.2-2.5.2-4.9.4-7.3.2-.5 0-.9-.1-1.4 0-.9.2-1.9.4-2.8.6 0-.1-.1-.2-.1-.3 0-7.3 0-14.5 0-21.8 0-.2 0-.5.1-.6.7-.6.3-1.2.3-2h-2.6v-2.6c-.6 0-1.3 0-1.9 0-.4 0-.9 0-1.3 0h-.8c.6 1.1.8 2.4.6 3.6.8 1.3 1 3 .5 4.5.6 1 .9 2.3.7 3.5.8 1.6.7 3.6-.2 5.1 1 1.5 1.1 3.6.4 5.2.3 1 .3 2.1.1 3.1.6.8.9 1.8 1 2.8 1.1 1.6 1.2 3.9.3 5.6.1.4.2.8.2 1.1.7 1.3.8 2.8.4 4.2.7 1 .9 2.3.8 3.6.8 1.2 1 2.8.6 4.3.5 1.1.5 2.4.3 3.5.7 1.1.9 2.6.6 3.9.1.2.2.3.3.5v.1c.1.2.1.3.2.5.1.4.2.7.3 1.1v.6c0 .6 0 1.2-.2 1.7.2.3.4.6.5 1 .1.3.2.6.3 1v.1c.1.3.1.7.1 1h226.5c.1-1.5.8-2.8 2-3.7-.2-.5-.3-1-.3-1.5 0-.6.1-1.1.3-1.6.1-.7.3-1.3.6-1.8.1-.7.3-1.4.7-2 0-.2 0-.3 0-.5v-.1c0-.1 0-.2 0-.4 0-.1 0-.1 0-.2s0-.2 0-.3 0-.1 0-.2 0-.2.1-.3c0-.1 0-.1.1-.2 0-.1.1-.2.1-.3s0-.1.1-.2c0-.1.1-.2.1-.3s.1-.1.1-.2.1-.2.1-.2c0-.1.1-.1.1-.2s.1-.1.1-.2.1-.1.1-.2c-.3-1.1-.2-2.3.2-3.4-.2-.5-.3-1.1-.3-1.7v-.2c0-.9.3-1.7.7-2.4-.6-1.7-.3-3.7.9-5.1-.8-.8-1.3-2.2-1.3-3.4 0-.6.1-1.1.3-1.7.1-.6.3-1.2.6-1.7-.2-.6-.4-1.2-.4-1.9v-1c0-.6.1-1.1.3-1.7 0-.3-.1-.5-.1-.8 0-.7.1-1.3.4-1.8 0-.1.1-.2.1-.3-.8-2.3 0-5.2 2.3-6.3.1-.7.3-1.4.5-2.1 0-.1.1-.3.1-.4-.4-1.5-.3-3.1.5-4.4 0-.2 0-.4 0-.6-1.4-2.3-.9-5.8 1.6-7.1 0-.1-.1-.2-.1-.3.3-.6.2-1.1.1-1.5z" fill="#fff"/><path d="m81.2 184.9c.3-1.1.5-2.2.8-3.4 3.2-13.6 7-27.1 11.3-40.4 4.6-14.1 9.7-28.1 16.1-41.6 4-8.5 8.5-16.7 14.1-24.3 3.4-4.7 7.3-9 12-12.5 3.2-2.4 6.7-4.2 10.6-5 4.8-1 9.3-.2 13.7 1.9 4.4 2.2 8.1 5.3 11.4 8.9 4.7 5 8.5 10.6 11.9 16.4 6.1 10.4 11 21.3 15.4 32.4 3.9 10 7.4 20.2 10.6 30.5 3.7 12 7 24.2 9.8 36.5 0 .2 0 .3.1.6-.3 0-.5 0-.7 0-4.6 0-9.2 0-13.8 0-.5 0-.7-.2-.8-.7-3.1-16.6-6.9-33.1-11.5-49.5-3.3-11.8-7-23.5-11.7-34.9-2.9-7.2-6.1-14.2-10.3-20.9-2.3-3.7-4.8-7.2-8-10.3-1.9-1.9-4-3.5-6.4-4.6-4.6-2.1-9.1-1.6-13.3 1-3.6 2.2-6.3 5.1-8.8 8.4-4.1 5.4-7.3 11.4-10.2 17.5-4.6 9.9-8.3 20.2-11.6 30.7-3.4 10.8-6.4 21.7-9 32.7-2 8.8-3.9 17.5-5.8 26.3-.3 1.2-.5 2.5-.7 3.7-.1.3-.1.5-.5.5-4.8 0-9.7 0-14.5 0 0 .2 0 .2-.2.1z" fill="#fff"/><path d="m28.7 153.3h-1.3l7.1 61.6h4.3l-7.4-45.1.8-10.8z" fill="#fff"/><path d="m266.4 226.5 10-79.4-5-2.5-14.5 76.2z" fill="#b53132"/><g fill="#fff"><path d="m272.5 148.8h2.7l-8.3 66.1h-5.9l-2.4-6.6 9.6-47.7z"/><path d="m255.3 214.9h7.5l-1.3-5.4-1.7-1.9-2 .3z"/><path d="m273.9 148.8h-4.9l-1.2 12.7z"/><path d="m255.3 200.1 13.6-.9-2 15.7h-232.4l-1.1-9.9 29.8-3.8 135.3-1.5z"/></g></svg>