<svg height="120" viewBox="0 0 820 120" width="820" xmlns="http://www.w3.org/2000/svg" xmlns:xlink="http://www.w3.org/1999/xlink"><linearGradient id="a" x1="50%" x2="50%" y1="100%" y2="0%"><stop offset="0" stop-color="#a804c7"/><stop offset="1" stop-color="#7406a5" stop-opacity=".9"/></linearGradient><linearGradient id="b" x1="50%" x2="50%" y1="100%" y2="0%"><stop offset="0" stop-color="#219963"/><stop offset="1" stop-color="#24b373"/></linearGradient><g fill="none" fill-rule="evenodd"><g fill-rule="nonzero"><path d="m0 0h820v105c0 8.284271-6.715729 15-15 15h-790c-8.28427125 0-15-6.715729-15-15z" fill="#fff"/><path d="m0 0h820v105c0 8.284271-6.715729 15-15 15h-790c-8.28427125 0-15-6.715729-15-15z" fill="url(#a)" fill-opacity=".9"/><g transform="translate(70 44)"><path d="m15.23 0-15.23 5.333 2.363 19.663 12.867 7.004 12.933-7.004 2.297-19.663zm7.156 21.655-1.379-3.599-2.1.064c-.397.666-.859 1.29-1.38 1.864-.59.643-1.181 1.028-1.969 1.35-.853.385-1.575.578-2.823.578-1.247 0-2.297-.386-2.954-.772-.656-.385-1.247-.835-1.706-1.477-.329-.45-.591-.836-.788-1.286-.066-.257-.262-.706-.262-.77-.132-.515-.263-.836-.263-2.057v-6.554h1.772v6.554c.066.45.197 1.35.263 1.735.065.257.065.321.196.643.132.32.263.578.525.835.33.385.657.707 1.117.964s1.182.578 2.1.578c1.51 0 2.56-.707 3.48-1.478.394-.385.853-1.156 1.247-1.863.066-.193.263-.579.263-.579h2.757l-2.035-5.333-3.282 6.169h-1.773v-8.289h1.773v4.498l2.363-4.498h1.97l4.791 12.723z" fill="#fff" opacity=".8"/><path d="m17.274 17.333c.06-.2.24-.6.24-.6h2.526l-1.864-5.533-2.946 6.267v2.533c.3-.2.6-.467.902-.733.36-.4.78-1.2 1.142-1.934z" fill="#f3f2f4" opacity=".4"/><path d="m15.23 0v13.301l2.298-4.37h1.97l4.791 12.724h-1.903l-1.379-3.599-2.1.064c-.397.666-.859 1.29-1.38 1.864-.59.643-1.181 1.028-1.969 1.35-.13.064-.197.128-.328.128v10.538l12.933-7.004 2.297-19.663z" fill="#f3f2f4" opacity=".7"/><path d="m36.873 9.56c0 1.025.849 1.64 1.894 1.64 1.176 0 2.09-.751 2.286-1.98l.653-3.552h-.914l-.654 3.415c-.195.751-.653 1.161-1.371 1.161-.654 0-.98-.273-.98-.888v-.273l.653-3.415h-.914l-.653 3.552zm5.03 1.572h3.2l.195-.888h-2.285l.849-4.576h-.915l-1.045 5.464zm5.029 0h.914l.849-4.576h1.764l.13-.888h-4.31l-.262.82h1.633zm3.33 0h.915l.98-5.464h-.915zm2.09 0h.915l.849-3.073c.065-.41.196-.888.196-.888s.065.546.065.888l.458 2.117h.848l1.176-2.117c.196-.274.457-.888.457-.888s-.065.478-.195.888l-.392 3.073h.914l.523-5.464h-.98l-1.568 2.664c-.196.273-.391.75-.391.75s0-.477-.066-.75l-.522-2.664h-.98c-.065 0-1.306 5.464-1.306 5.464zm6.924 0 .718-1.434h1.83l.195 1.434h.915l-.85-5.464h-1.044l-2.744 5.464zm1.11-2.254.719-1.434c.195-.273.392-.888.392-.888s0 .547.065.888l.196 1.434zm4.18 2.254h.915l.849-4.576h1.764l.195-.888h-4.31l-.196.888h1.633c0-.068-.85 4.576-.85 4.576zm3.331 0h3.2l.197-.888h-2.286l.261-1.434h1.763l.196-.888h-1.763l.261-1.434h2.22l.196-.888h-3.265c0 .068-.98 5.532-.98 5.532zm-26.94 12.67h1.75l-3.243-9.335h-1.752l-3.243 9.336h1.75l.78-2.367h3.243l.714 2.367zm-2.401-7.69s.194.92.39 1.446l.842 2.498h-2.4l.843-2.498c.13-.526.325-1.447.325-1.447zm5.319 7.69h1.687v-5.39c0-.526-.065-1.447-.065-1.447s.39.92.779 1.447l3.503 5.391h1.687v-9.336h-1.752v5.39c0 .527.065 1.447.065 1.447s-.39-.92-.778-1.446l-3.504-5.391h-1.622zm9.213-4.667c0 2.958 2.076 4.865 4.541 4.865 1.687 0 2.66-.986 2.66-.986v.854h1.428v-4.93h-2.92v1.446h1.427v1.118s-.908.986-2.335.986c-1.752 0-3.115-1.315-3.115-3.353 0-1.775 1.104-3.221 3.18-3.221 1.492 0 2.465.92 2.465.92l.844-1.25s-1.168-1.183-3.439-1.183c-2.725-.065-4.736 2.039-4.736 4.734zm10.38 1.315c0 2.104 1.492 3.484 3.698 3.484s3.699-1.446 3.699-3.484v-5.982h-1.688v5.982c0 1.249-.843 1.972-2.076 1.972-1.232 0-2.01-.723-2.01-1.972v-5.982h-1.687l.064 5.982c-.064 0 0 0 0 0zm9.602 3.353h5.645v-1.447h-3.958v-7.888h-1.687zm12.392 0h1.752l-3.244-9.336h-1.817l-3.244 9.336h1.752l.779-2.367h3.243zm-2.4-7.692s.194.92.389 1.446l.843 2.498h-2.4l.843-2.498c.13-.526.325-1.446.325-1.446zm5.32 7.692h1.686v-3.485h1.622l1.817 3.485h1.881l-1.881-3.485c-.195-.329-.324-.46-.324-.46.973-.394 1.557-1.446 1.557-2.564 0-1.25-.584-2.104-1.493-2.564-.389-.197-.843-.263-1.881-.263h-2.984zm1.621-4.931v-2.892h1.298c1.298 0 1.687.525 1.687 1.446 0 .92-.584 1.446-1.427 1.446zm6.187-4.06v-.412h1.977v.412h-.725v1.988h-.461v-1.988h-.79zm2.965-.412.593 1.714.593-1.714h.659v2.4h-.395v-1.92l-.659 1.92h-.33l-.658-1.92v1.92h-.396v-2.4z" fill="#fff"/></g></g><path d="m295.781999 50.799v-18.2h5.772c1.820009 0 3.271661.433329 4.355 1.3s1.625 2.0366593 1.625 3.51c0 .8320042-.199331 1.6033298-.598 2.314s-.92733 1.2479982-1.586 1.612c.866671.3640018 1.546998.9099964 2.041 1.638.494003.7280036.741 1.5599953.741 2.496 0 1.6986752-.597994 3.011662-1.794 3.939s-2.677991 1.391-4.446 1.391zm3.666-10.842h2.08c.641337 0 1.178665-.1993313 1.612-.598.433336-.3986687.65-.9099969.65-1.534s-.212331-1.1223315-.637-1.495-.983663-.559-1.677-.559h-2.028zm0 7.696h2.236c.762671 0 1.395331-.2166645 1.898-.65s.754-1.0139964.754-1.742-.251331-1.2999979-.754-1.716-1.135329-.624-1.898-.624h-2.236zm10.4-3.614c0-2.062677.628327-3.7743265 1.885-5.135s2.846991-2.041 4.771-2.041c2.080011 0 3.700661.6456602 4.862 1.937s1.742 3.0636554 1.742 5.317c0 .3466684-.008666.6066658-.026.78h-9.568c.034667.9186713.38133 1.6683304 1.04 2.249s1.490662.871 2.496.871c1.438674 0 2.53933-.5546611 3.302-1.664l2.366 1.794c-.381335.6933368-1.057328 1.3649968-2.028 2.015-.970671.6500032-2.201326.975-3.692.975-2.149344 0-3.878327-.6629934-5.187-1.989s-1.963-3.0289896-1.963-5.109zm3.77-1.482h5.85c-.034667-.8320042-.320664-1.4993308-.858-2.002s-1.221996-.754-2.054-.754-1.507997.2599974-2.028.78c-.520002.5200026-.823333 1.1786627-.91 1.976zm18.46 5.408c1.057339 0 2.079995-.4073293 3.068-1.222l.962 2.938c-1.213339.9706715-2.625992 1.456-4.238 1.456-2.114677 0-3.852326-.6673267-5.213-2.002-1.360673-1.3346733-2.041-3.033323-2.041-5.096s.688993-3.7743265 2.067-5.135 3.098323-2.041 5.161-2.041c1.594675 0 3.024661.4853285 4.29 1.456l-1.014 3.016c-.953338-.866671-2.010661-1.3-3.172-1.3-1.126672 0-2.03233.3813295-2.717 1.144s-1.027 1.7073277-1.027 2.834c0 1.1613391.363997 2.1103297 1.092 2.847.728004.7366703 1.655328 1.105 2.782 1.105zm7.592 1.17c-1.36934-1.3346733-2.054-3.033323-2.054-5.096s.69766-3.7743265 2.093-5.135c1.395341-1.3606735 3.13299-2.041 5.213-2.041 2.080011 0 3.821993.6846598 5.226 2.054s2.106 3.0766564 2.106 5.122c0 2.062677-.688993 3.7613267-2.067 5.096-1.378006 1.3346733-3.132989 2.002-5.265 2.002-2.114677 0-3.865326-.6673267-5.252-2.002zm1.534-5.096c0 1.1440057.350997 2.0843297 1.053 2.821.702004.7366703 1.590328 1.105 2.665 1.105 1.092006 0 1.988997-.3683297 2.691-1.105.702004-.7366703 1.053-1.6769943 1.053-2.821 0-1.1613391-.355329-2.1189962-1.066-2.873-.71067-.7540038-1.603328-1.131-2.678-1.131s-1.962996.3769962-2.665 1.131c-.702003.7540038-1.053 1.7116609-1.053 2.873zm32.786001-2.21v8.97h-3.588v-8.138c0-.7973373-.190665-1.4256644-.572-1.885-.381336-.4593356-.90133-.689-1.56-.689s-1.191665.2296644-1.599.689c-.407336.4593356-.611 1.0963293-.611 1.911v8.112h-3.588v-8.268c0-.7626705-.186332-1.3606645-.559-1.794-.372669-.4333355-.88833-.65-1.547-.65s-1.191665.2296644-1.599.689c-.407336.4593356-.611 1.0876627-.611 1.885v8.138h-3.588v-13.598h3.51v1.586c.277334-.537336.723663-.9923315 1.339-1.365.615336-.3726685 1.347662-.559 2.197-.559 1.716008 0 2.955329.6759932 3.718 2.028.866671-1.3520068 2.20999-2.028 4.03-2.028 1.508007 0 2.656329.4506622 3.445 1.352.78867.9013378 1.183 2.1059925 1.183 3.614zm2.236 2.21c0-2.062677.628327-3.7743265 1.885-5.135s2.84699-2.041 4.771-2.041c2.08001 0 3.700661.6456602 4.862 1.937s1.742 3.0636554 1.742 5.317c0 .3466684-.008667.6066658-.026.78h-9.568c.034666.9186713.38133 1.6683304 1.04 2.249s1.490661.871 2.496.871c1.438674 0 2.539329-.5546611 3.302-1.664l2.366 1.794c-.381336.6933368-1.057329 1.3649968-2.028 2.015-.970672.6500032-2.201326.975-3.692.975-2.149344 0-3.878327-.6629934-5.187-1.989-1.308674-1.3260066-1.963-3.0289896-1.963-5.109zm3.77-1.482h5.85c-.034667-.8320042-.320664-1.4993308-.858-2.002s-1.221996-.754-2.054-.754c-.832005 0-1.507998.2599974-2.028.78-.520003.5200026-.823333 1.1786627-.91 1.976zm17.68 4.03c0-1.3346733.485328-2.4179958 1.456-3.25.970671-.8320042 2.244659-1.248 3.822-1.248 1.230673 0 2.209996.2513308 2.938.754v-.884c0-.6066697-.216665-1.0919982-.65-1.456-.433336-.3640018-1.039996-.546-1.82-.546-1.161339 0-2.365994.3206635-3.614.962l-1.352-2.444c.65867-.4506689 1.468995-.8319984 2.431-1.144s1.936995-.468 2.925-.468c2.045343 0 3.501329.4723286 4.368 1.417s1.3 2.2489917 1.3 3.913v8.606h-3.172l-.234-.884c-.762671.8146707-1.863326 1.222-3.302 1.222s-2.647662-.4116626-3.627-1.235-1.469-1.9283264-1.469-3.315zm4.238-1.456c-.433336.3466684-.65.7973306-.65 1.352s.225331 1.0053316.676 1.352 1.013996.52 1.69.52c.693337 0 1.256664-.1689983 1.69-.507.433335-.3380017.65-.7929971.65-1.365 0-.5893363-.216665-1.0529983-.65-1.391-.433336-.3380017-1.00533-.507-1.716-.507-.693337 0-1.256665.1819982-1.69.546zm17.628-8.268c3.137349 0 4.706 2.0279797 4.706 6.084v7.852h-3.588v-8.268c0-.7280036-.220998-1.3173311-.663-1.768s-.974997-.676-1.599-.676c-.728004 0-1.312998.238331-1.755.715s-.663 1.0876629-.663 1.833v8.164h-3.588v-13.598h3.51v1.586c.329335-.5200026.814663-.9706648 1.456-1.352.641336-.3813352 1.369329-.572 2.184-.572zm24.648 9.256h-6.188l-1.586 4.68h-3.692l6.448-18.2h3.848l6.448 18.2h-3.692zm-.962-3.042-2.132-6.552-2.106 6.552zm15.262-6.214c3.137349 0 4.706 2.0279797 4.706 6.084v7.852h-3.588v-8.268c0-.7280036-.220998-1.3173311-.663-1.768s-.974997-.676-1.599-.676c-.728003 0-1.312998.238331-1.755.715s-.663 1.0876629-.663 1.833v8.164h-3.588v-13.598h3.51v1.586c.329335-.5200026.814664-.9706648 1.456-1.352.641337-.3813352 1.36933-.572 2.184-.572zm8.658 17.68 1.092-2.756c1.178673.6240031 2.469993.936 3.874.936 2.496013 0 3.744-.9013243 3.744-2.704v-.624c-.138667.1906676-.346665.4029988-.624.637-.277334.2340012-.727997.4766654-1.352.728s-1.291329.377-2.002.377c-1.958676 0-3.53166-.6586601-4.719-1.976-1.187339-1.3173399-1.781-3.0333228-1.781-5.148 0-2.0973438.619661-3.8133267 1.859-5.148 1.23934-1.3346733 2.829657-2.002 4.771-2.002 1.005339 0 1.858997.1949981 2.561.585.702004.3900019 1.200332.7843313 1.495 1.183v-1.43h3.38v11.882c0 2.3746785-.667326 4.0863281-2.002 5.135-1.334673 1.0486719-3.102655 1.573-5.304 1.573-1.820009 0-3.483992-.4159958-4.992-1.248zm8.814-10.556c0-1.1613391-.324996-2.1103297-.975-2.847-.650003-.7366704-1.494994-1.105-2.535-1.105-1.022671 0-1.854663.3639964-2.496 1.092-.641336.7280036-.962 1.6813274-.962 2.86s.324997 2.1363297.975 2.873c.650004.7366703 1.486329 1.105 2.509 1.105 1.040006 0 1.880664-.3639964 2.522-1.092.641337-.7280036.962-1.689994.962-2.886zm11.05 7.15c-3.137349 0-4.706-2.0279797-4.706-6.084v-7.852h3.588v8.268c0 .7280036.220998 1.3173311.663 1.768.442003.4506689.974997.676 1.599.676.728004 0 1.312998-.238331 1.755-.715.442003-.4766691.663-1.0876629.663-1.833v-8.164h3.588v13.598h-3.51v-1.586c-.329335.5200026-.814663.9706648-1.456 1.352-.641336.3813352-1.369329.572-2.184.572zm10.114001-.338v-18.798h3.588v18.798zm5.902-4.212c0-1.3346733.485328-2.4179958 1.456-3.25.970671-.8320042 2.244658-1.248 3.822-1.248 1.230672 0 2.209996.2513308 2.938.754v-.884c0-.6066697-.216665-1.0919982-.65-1.456-.433336-.3640018-1.039996-.546-1.82-.546-1.161339 0-2.365994.3206635-3.614.962l-1.352-2.444c.65867-.4506689 1.468995-.8319984 2.431-1.144.962004-.3120016 1.936995-.468 2.925-.468 2.045343 0 3.501329.4723286 4.368 1.417s1.3 2.2489917 1.3 3.913v8.606h-3.172l-.234-.884c-.762671.8146707-1.863326 1.222-3.302 1.222s-2.647662-.4116626-3.627-1.235c-.979339-.8233374-1.469-1.9283264-1.469-3.315zm4.238-1.456c-.433336.3466684-.65.7973306-.65 1.352s.225331 1.0053316.676 1.352 1.013996.52 1.69.52c.693336 0 1.256664-.1689983 1.69-.507.433335-.3380017.65-.7929971.65-1.365 0-.5893363-.216665-1.0529983-.65-1.391-.433336-.3380017-1.00533-.507-1.716-.507-.693337 0-1.256665.1819982-1.69.546zm17.732-8.268v3.64c-2.444012 0-3.666 1.4559854-3.666 4.368v5.928h-3.588v-13.598h3.51v1.976c.312001-.6933368.79733-1.2523312 1.456-1.677s1.421329-.637 2.288-.637zm-200.005002 39.176c0-2.062677.628327-3.7743265 1.885-5.135s2.846991-2.041 4.771-2.041c2.080011 0 3.700661.6456602 4.862 1.937s1.742 3.0636554 1.742 5.317c0 .3466684-.008666.6066658-.026.78h-9.568c.034667.9186713.38133 1.6683304 1.04 2.249s1.490662.871 2.496.871c1.438674 0 2.53933-.5546611 3.302-1.664l2.366 1.794c-.381335.6933368-1.057328 1.3649968-2.028 2.015-.970671.6500033-2.201326.975-3.692.975-2.149344 0-3.878326-.6629934-5.187-1.989-1.308673-1.3260066-1.963-3.0289896-1.963-5.109zm3.77-1.482h5.85c-.034667-.8320042-.320664-1.4993308-.858-2.002s-1.221996-.754-2.054-.754-1.507997.2599974-2.028.78c-.520002.5200026-.823333 1.1786627-.91 1.976zm20.15 8.242-2.886-4.264-2.912 4.264h-3.874l4.784-6.942-4.576-6.656h4.03l2.548 4.134 2.548-4.134h4.03l-4.576 6.656 4.784 6.942zm5.694001 4.862v-18.46h3.38v1.43c.173334-.2253345.402998-.4549988.688999-.689.286002-.2340012.740997-.4723321 1.365-.715.624004-.2426679 1.282664-.364 1.976-.364 1.941344 0 3.535994.6673267 4.784 2.002 1.248007 1.3346733 1.872001 3.0419896 1.872001 5.122 0 2.1146772-.589328 3.8349934-1.768 5.161-1.178673 1.3260066-2.738657 1.989-4.68 1.989-.710671 0-1.377997-.1213321-2.002-.364-.624004-.2426679-1.078999-.4809988-1.365-.715-.286002-.2340012-.507-.454999-.663001-.663v6.266zm3.484-11.7c0 1.2480062.324996 2.2273298.974999 2.938.650004.7106702 1.486329 1.066 2.509 1.066 1.040006 0 1.880664-.3726629 2.522001-1.118.641336-.7453371.962-1.7073274.962-2.886 0-1.196006-.324997-2.1493298-.975-2.86-.650004-.7106702-1.486329-1.066-2.509001-1.066-1.057338 0-1.90233.3769962-2.534999 1.131-.63267.7540038-.949 1.6856611-.949 2.795zm12.194.078c0-2.062677.628327-3.7743265 1.885-5.135s2.84699-2.041 4.771-2.041c2.08001 0 3.70066.6456602 4.862 1.937 1.161339 1.2913398 1.742 3.0636554 1.742 5.317 0 .3466684-.008667.6066658-.026.78h-9.568c.034666.9186713.38133 1.6683304 1.04 2.249s1.490661.871 2.496.871c1.438673 0 2.539329-.5546611 3.302-1.664l2.366 1.794c-.381336.6933368-1.057329 1.3649968-2.028 2.015-.970672.6500033-2.201326.975-3.692.975-2.149344 0-3.878327-.6629934-5.187-1.989-1.308674-1.3260066-1.963-3.0289896-1.963-5.109zm3.77-1.482h5.85c-.034667-.8320042-.320664-1.4993308-.858-2.002s-1.221996-.754-2.054-.754c-.832005 0-1.507998.2599974-2.028.78-.520003.5200026-.823333 1.1786627-.91 1.976zm19.006-5.694v3.64c-2.444013 0-3.666 1.4559854-3.666 4.368v5.928h-3.588v-13.598h3.51v1.976c.312001-.6933368.79733-1.2523312 1.456-1.677s1.421329-.637 2.288-.637zm3.484.338v-2.86h3.536v2.86h2.548v2.912h-2.548v5.252c0 .9706715.151665 1.620665.455 1.95s.818996.494 1.547.494c.242668 0 .459332-.0086666.65-.026v3.068c-.364002.0866671-.87533.13-1.534.13-1.612008 0-2.794996-.4549954-3.549-1.365s-1.131-2.2923241-1.131-4.147v-5.356h-1.43v-2.912zm27.144 13.598-2.496-8.71-2.522 8.71h-4.004l-4.056-13.598h3.9l2.392 9.646 2.6-9.646h3.38l2.574 9.646 2.418-9.646h3.9l-4.082 13.598zm9.932 0v-13.598h3.588v13.598zm.286-15.392c-.398669-.3986687-.598-.8926637-.598-1.482s.199331-1.0789981.598-1.469c.398669-.390002.892664-.585 1.482-.585.60667 0 1.109331.194998 1.508.585.398669.3900019.598.8796637.598 1.469s-.199331 1.0789981-.598 1.469c-.398669.390002-.90133.585-1.508.585-.589336 0-1.083331-.1906648-1.482-.572zm6.734 1.794v-2.86h3.536v2.86h2.548v2.912h-2.548v5.252c0 .9706715.151665 1.620665.455 1.95s.818997.494 1.547.494c.242668 0 .459333-.0086666.65-.026v3.068c-.364002.0866671-.87533.13-1.534.13-1.612008 0-2.794996-.4549954-3.549-1.365s-1.131-2.2923241-1.131-4.147v-5.356h-1.43v-2.912zm15.756-.338c3.137349 0 4.706 2.0279797 4.706 6.084v7.852h-3.562v-8.268c0-.7280036-.220997-1.3173311-.663-1.768-.442002-.4506689-.974997-.676-1.599-.676-.745337 0-1.343331.2383309-1.794.715-.450669.476669-.676 1.0876629-.676 1.833v8.164h-3.588v-18.798h3.588v6.786c.329335-.537336.805997-.9923315 1.43-1.365s1.34333-.559 2.158-.559zm19.006001 14.274c-3.13735 0-4.706-2.0279797-4.706-6.084v-7.852h3.588v8.268c0 .7280036.220997 1.3173311.663 1.768.442002.4506689.974996.676 1.599.676.728003 0 1.312997-.2383309 1.755-.715.442002-.476669.663-1.0876629.663-1.833v-8.164h3.588v13.598h-3.51v-1.586c-.329335.5200026-.814664.9706648-1.456 1.352-.641337.3813352-1.36933.572-2.184.572zm14.274 0c-1.230673 0-2.274996-.2469975-3.133-.741-.858005-.4940025-1.503665-1.0876632-1.937-1.781l2.106-1.872c.849337.9880049 1.889327 1.482 3.12 1.482.520002 0 .927331-.1083322 1.222-.325.294668-.2166677.442-.5156648.442-.897 0-.3640018-.220998-.680332-.663-.949-.442003-.268668-.979331-.5113323-1.612-.728-.63267-.2166678-1.260997-.4766652-1.885-.78-.624004-.3033349-1.156998-.7626636-1.599-1.378-.442003-.6153364-.663-1.3736622-.663-2.275 0-1.2306728.467995-2.2099964 1.404-2.938.936004-.7280036 2.114659-1.092 3.536-1.092 2.114677 0 3.665995.8059919 4.654 2.418l-2.366 1.768c-.693337-.866671-1.507996-1.3-2.444-1.3-.416002 0-.753999.0996657-1.014.299-.260002.1993343-.39.463665-.39.793 0 .3813352.220997.7019987.663.962.442002.2600013.97933.4896657 1.612.689.632669.1993343 1.26533.4419986 1.898.728.632669.2860014 1.169997.7323303 1.612 1.339.442002.6066697.663 1.3606622.663 2.262 0 1.3000065-.493995 2.3443294-1.482 3.133s-2.235993 1.183-3.744 1.183z" fill="#fff"/><g fill-rule="nonzero" transform="translate(629 40)"><rect fill="#000" height="40" rx="20" width="121"/><rect fill="url(#b)" height="40" rx="20" width="121"/><path d="m24.336 13.592c1.045 0 1.947.195 2.704.584.757.39 1.328.813 1.712 1.272l-1.424 1.472c-.747-.821-1.712-1.232-2.896-1.232-1.077 0-1.939.352-2.584 1.056s-.968 1.59-.968 2.656c0 1.12.333 2.016 1 2.688s1.517 1.008 2.552 1.008c.683 0 1.253-.099 1.712-.296s.784-.392.976-.584v-1.376h-2.128v-1.904h4.24v4.432c-.6439739.5662264-1.3728469 1.027846-2.16 1.368-.747.315-1.659.472-2.736.472-1.632 0-3.008-.536-4.128-1.608s-1.68-2.472-1.68-4.2c0-1.632.547-3.008 1.64-4.128s2.483-1.68 4.168-1.68zm6.28 7.248c0-1.27.387-2.323 1.16-3.16s1.752-1.256 2.936-1.256c1.28 0 2.277.397 2.992 1.192s1.072 1.885 1.072 3.272c0 .213-.005.373-.016.48h-5.888c.021.565.235 1.027.64 1.384s.917.536 1.536.536c.885 0 1.563-.341 2.032-1.024l1.456 1.104c-.235.427-.65.84-1.248 1.24-.597.4-1.355.6-2.272.6-1.323 0-2.387-.408-3.192-1.224s-1.208-1.864-1.208-3.144zm2.32-.912h3.6c-.021-.512-.197-.923-.528-1.232-.33-.31-.752-.464-1.264-.464s-.928.16-1.248.48-.507.725-.56 1.216zm7.48-3.296v-1.76h2.176v1.76h1.568v1.792h-1.568v3.232c0 .597.093.997.28 1.2s.504.304.952.304c.15 0 .283-.005.4-.016v1.888c-.224.053-.539.08-.944.08-.992 0-1.72-.28-2.184-.84s-.696-1.41-.696-2.552v-3.296h-.88v-1.792zm12.832-3.04c.533 0 1.016.085 1.448.256.432.17.779.395 1.04.672s.467.539.616.784c.15.245.267.49.352.736l-1.872.848c-.373-.81-.917-1.216-1.632-1.216-.373 0-.67.101-.888.304-.2158876.196069-.3356404.4764659-.328.768 0 .33.168.627.504.888s.741.496 1.216.704.95.443 1.424.704c.475.261.88.627 1.216 1.096.336.47.504 1.024.504 1.664 0 1.003-.336 1.821-1.008 2.456s-1.584.952-2.736.952c-.5238817.0072491-1.0446026-.0822498-1.536-.264-.459-.176-.83-.408-1.112-.696-.2522127-.2503986-.4774466-.5265783-.672-.824-.1614384-.2532875-.2929824-.5244292-.392-.808l1.904-.928c.395.95 1.04 1.424 1.936 1.424.416 0 .741-.101.976-.304s.352-.485.352-.848c0-.341-.165-.645-.496-.912-.3703418-.2904935-.7762985-.5324544-1.208-.72-.475-.213-.95-.453-1.424-.72-.4837544-.2750376-.8972269-.6583897-1.208-1.12-.33-.48-.496-1.05-.496-1.712 0-.95.32-1.717.96-2.304s1.493-.88 2.56-.88zm5.4 3.04v-1.76h2.176v1.76h1.568v1.792h-1.568v3.232c0 .597.093.997.28 1.2s.504.304.952.304c.15 0 .283-.005.4-.016v1.888c-.224.053-.539.08-.944.08-.992 0-1.72-.28-2.184-.84s-.696-1.41-.696-2.552v-3.296h-.88v-1.792zm4.84 5.776c0-.821.299-1.488.896-2s1.381-.768 2.352-.768c.757 0 1.36.155 1.808.464v-.544c0-.373-.133-.672-.4-.896s-.64-.336-1.12-.336c-.715 0-1.456.197-2.224.592l-.832-1.504c.405-.277.904-.512 1.496-.704.5810729-.1902606 1.1885717-.2874604 1.8-.288 1.259 0 2.155.29 2.688.872.533.581.8 1.384.8 2.408v5.296h-1.952l-.144-.544c-.47.501-1.147.752-2.032.752s-1.63-.253-2.232-.76c-.603-.507-.904-1.187-.904-2.04zm2.608-.896c-.267.213-.4.49-.4.832 0 .341.139.619.416.832s.624.32 1.04.32c.427 0 .773-.104 1.04-.312s.4-.488.4-.84c0-.363-.133-.648-.4-.856s-.619-.312-1.056-.312c-.427 0-.773.112-1.04.336zm10.952-5.088v2.24c-1.504 0-2.256.896-2.256 2.688v3.648h-2.208v-8.368h2.16v1.216c.192-.427.49-.77.896-1.032.405-.261.875-.392 1.408-.392zm2.184.208v-1.76h2.176v1.76h1.568v1.792h-1.568v3.232c0 .597.093.997.28 1.2s.504.304.952.304c.15 0 .283-.005.4-.016v1.888c-.224.053-.539.08-.944.08-.992 0-1.72-.28-2.184-.84s-.696-1.41-.696-2.552v-3.296h-.88v-1.792zm4.872 4.208c0-1.27.387-2.323 1.16-3.16s1.752-1.256 2.936-1.256c1.28 0 2.277.397 2.992 1.192s1.072 1.885 1.072 3.272c0 .213-.005.373-.016.48h-5.888c.021.565.235 1.027.64 1.384s.917.536 1.536.536c.885 0 1.563-.341 2.032-1.024l1.456 1.104c-.235.427-.65.84-1.248 1.24-.597.4-1.355.6-2.272.6-1.323 0-2.387-.408-3.192-1.224s-1.208-1.864-1.208-3.144zm2.32-.912h3.6c-.021-.512-.197-.923-.528-1.232-.33-.31-.752-.464-1.264-.464s-.928.16-1.248.48-.507.725-.56 1.216zm15.464-6.496v11.568h-2.08v-.864c-.1237296.1555381-.2661336.2952552-.424.416-.176.139-.456.283-.84.432-.384.15-.79.224-1.216.224-1.205 0-2.19-.408-2.952-1.224-.763-.816-1.144-1.87-1.144-3.16 0-1.301.363-2.36 1.088-3.176s1.685-1.224 2.88-1.224c.63 0 1.157.123 1.584.368s.725.485.896.72v-4.08zm-2.144 7.408c0-.768-.2-1.37-.6-1.808-.4-.437-.915-.656-1.544-.656-.64 0-1.157.23-1.552.688-.395.459-.592 1.05-.592 1.776 0 .736.2 1.323.6 1.76s.915.656 1.544.656c.65 0 1.17-.232 1.56-.696s.584-1.037.584-1.72z" fill="#fff"/></g></g></svg>