<?xml version="1.0" encoding="UTF-8"?>
<svg width="820px" height="120px" viewBox="0 0 820 120" version="1.1" xmlns="http://www.w3.org/2000/svg" xmlns:xlink="http://www.w3.org/1999/xlink">
    <!-- Generator: Sketch 51.2 (57519) - http://www.bohemiancoding.com/sketch -->
    <title>ua-vert</title>
    <desc>Created with Sketch.</desc>
    <defs>
        <linearGradient x1="50%" y1="100%" x2="50%" y2="0%" id="linearGradient-1">
            <stop stop-color="#A804C7" offset="0%"></stop>
            <stop stop-color="#7406A5" stop-opacity="0.9" offset="100%"></stop>
        </linearGradient>
        <linearGradient x1="50%" y1="100%" x2="50%" y2="0%" id="linearGradient-2">
            <stop stop-color="#219963" offset="0%"></stop>
            <stop stop-color="#24B373" offset="100%"></stop>
        </linearGradient>
    </defs>
    <g id="landing" stroke="none" stroke-width="1" fill="none" fill-rule="evenodd">
        <g id="0.1-modal-v1" transform="translate(-220.000000, -513.000000)">
            <g id="ua-vert" transform="translate(220.000000, 513.000000)">
                <g id="a-link" fill="#FFFFFF" fill-rule="nonzero">
                    <path d="M0,0 L820,0 L820,105 C820,113.284271 813.284271,120 805,120 L15,120 C6.71572875,120 1.01453063e-15,113.284271 0,105 L0,0 Z" id="a"></path>
                </g>
                <g id="a-link" fill="url(#linearGradient-1)" fill-opacity="0.9" fill-rule="nonzero">
                    <path d="M0,0 L820,0 L820,105 C820,113.284271 813.284271,120 805,120 L15,120 C6.71572875,120 1.01453063e-15,113.284271 0,105 L0,0 Z" id="a"></path>
                </g>
                <g id="Group" transform="translate(70.000000, 44.000000)" fill-rule="nonzero">
                    <path d="M15.23,0 L0,5.333 L2.363,24.996 L15.23,32 L28.163,24.996 L30.46,5.333 L15.23,0 Z M22.386,21.655 L21.007,18.056 L18.907,18.12 C18.51,18.786 18.048,19.41 17.527,19.984 C16.937,20.627 16.346,21.012 15.558,21.334 C14.705,21.719 13.983,21.912 12.735,21.912 C11.488,21.912 10.438,21.526 9.781,21.14 C9.125,20.755 8.534,20.305 8.075,19.663 C7.746,19.213 7.484,18.827 7.287,18.377 C7.221,18.12 7.025,17.671 7.025,17.607 C6.893,17.092 6.762,16.771 6.762,15.55 L6.762,8.996 L8.534,8.996 L8.534,15.55 C8.6,16 8.731,16.9 8.797,17.285 C8.862,17.542 8.862,17.606 8.993,17.928 C9.125,18.248 9.256,18.506 9.518,18.763 C9.848,19.148 10.175,19.47 10.635,19.727 C11.095,19.984 11.817,20.305 12.735,20.305 C14.245,20.305 15.295,19.598 16.215,18.827 C16.609,18.442 17.068,17.671 17.462,16.964 C17.528,16.771 17.725,16.385 17.725,16.385 L20.482,16.385 L18.447,11.052 L15.165,17.221 L13.392,17.221 L13.392,8.932 L15.165,8.932 L15.165,13.43 L17.528,8.932 L19.498,8.932 L24.289,21.655 L22.386,21.655 Z" id="Shape" fill="#FFFFFF" opacity="0.8"></path>
                    <path d="M17.274,17.333 C17.334,17.133 17.514,16.733 17.514,16.733 L20.04,16.733 L18.176,11.2 L15.23,17.467 L15.23,20 C15.53,19.8 15.83,19.533 16.132,19.267 C16.492,18.867 16.912,18.067 17.274,17.333 Z" id="Shape" fill="#F3F2F4" opacity="0.4"></path>
                    <path d="M15.23,0 L15.23,13.301 L17.528,8.931 L19.498,8.931 L24.289,21.655 L22.386,21.655 L21.007,18.056 L18.907,18.12 C18.51,18.786 18.048,19.41 17.527,19.984 C16.937,20.627 16.346,21.012 15.558,21.334 C15.428,21.398 15.361,21.462 15.23,21.462 L15.23,32 L28.163,24.996 L30.46,5.333 L15.23,0 Z" id="Shape" fill="#F3F2F4" opacity="0.7"></path>
                    <path d="M36.873,9.56 C36.873,10.585 37.722,11.2 38.767,11.2 C39.943,11.2 40.857,10.449 41.053,9.22 L41.706,5.668 L40.792,5.668 L40.138,9.083 C39.943,9.834 39.485,10.244 38.767,10.244 C38.113,10.244 37.787,9.971 37.787,9.356 L37.787,9.083 L38.44,5.668 L37.526,5.668 L36.873,9.22 L36.873,9.56 Z M41.903,11.132 L45.103,11.132 L45.298,10.244 L43.013,10.244 L43.862,5.668 L42.947,5.668 L41.902,11.132 L41.903,11.132 Z M46.932,11.132 L47.846,11.132 L48.695,6.556 L50.459,6.556 L50.589,5.668 L46.279,5.668 L46.017,6.488 L47.65,6.488 L46.932,11.132 Z M50.262,11.132 L51.177,11.132 L52.157,5.668 L51.242,5.668 L50.262,11.132 Z M52.352,11.132 L53.267,11.132 L54.116,8.059 C54.181,7.649 54.312,7.171 54.312,7.171 C54.312,7.171 54.377,7.717 54.377,8.059 L54.835,10.176 L55.683,10.176 L56.859,8.059 C57.055,7.785 57.316,7.171 57.316,7.171 C57.316,7.171 57.251,7.649 57.121,8.059 L56.729,11.132 L57.643,11.132 L58.166,5.668 L57.186,5.668 L55.618,8.332 C55.422,8.605 55.227,9.082 55.227,9.082 C55.227,9.082 55.227,8.605 55.161,8.332 L54.639,5.668 L53.659,5.668 C53.594,5.668 52.353,11.132 52.353,11.132 L52.352,11.132 Z M59.276,11.132 L59.994,9.698 L61.824,9.698 L62.019,11.132 L62.934,11.132 L62.084,5.668 L61.04,5.668 L58.296,11.132 L59.276,11.132 Z M60.386,8.878 L61.105,7.444 C61.3,7.171 61.497,6.556 61.497,6.556 C61.497,6.556 61.497,7.103 61.562,7.444 L61.758,8.878 L60.386,8.878 Z M64.566,11.132 L65.481,11.132 L66.33,6.556 L68.094,6.556 L68.289,5.668 L63.979,5.668 L63.783,6.556 L65.416,6.556 C65.416,6.488 64.566,11.132 64.566,11.132 Z M67.897,11.132 L71.097,11.132 L71.294,10.244 L69.008,10.244 L69.269,8.81 L71.032,8.81 L71.228,7.922 L69.465,7.922 L69.726,6.488 L71.946,6.488 L72.142,5.6 L68.877,5.6 C68.877,5.668 67.897,11.132 67.897,11.132 Z M40.957,23.802 L42.707,23.802 L39.464,14.467 L37.712,14.467 L34.469,23.803 L36.219,23.803 L36.999,21.436 L40.242,21.436 L40.956,23.803 L40.957,23.802 Z M38.556,16.112 C38.556,16.112 38.75,17.032 38.946,17.558 L39.788,20.056 L37.388,20.056 L38.231,17.558 C38.361,17.032 38.556,16.111 38.556,16.111 L38.556,16.112 Z M43.875,23.802 L45.562,23.802 L45.562,18.412 C45.562,17.886 45.497,16.965 45.497,16.965 C45.497,16.965 45.887,17.885 46.276,18.412 L49.779,23.803 L51.466,23.803 L51.466,14.467 L49.714,14.467 L49.714,19.857 C49.714,20.384 49.779,21.304 49.779,21.304 C49.779,21.304 49.389,20.384 49.001,19.858 L45.497,14.467 L43.875,14.467 L43.875,23.802 Z M53.088,19.135 C53.088,22.093 55.164,24 57.629,24 C59.316,24 60.289,23.014 60.289,23.014 L60.289,23.868 L61.717,23.868 L61.717,18.938 L58.797,18.938 L58.797,20.384 L60.224,20.384 L60.224,21.502 C60.224,21.502 59.316,22.488 57.889,22.488 C56.137,22.488 54.774,21.173 54.774,19.135 C54.774,17.36 55.878,15.914 57.954,15.914 C59.446,15.914 60.419,16.834 60.419,16.834 L61.263,15.584 C61.263,15.584 60.095,14.401 57.824,14.401 C55.099,14.336 53.088,16.44 53.088,19.135 Z M63.468,20.45 C63.468,22.554 64.96,23.934 67.166,23.934 C69.372,23.934 70.865,22.488 70.865,20.45 L70.865,14.468 L69.177,14.468 L69.177,20.45 C69.177,21.699 68.334,22.422 67.101,22.422 C65.869,22.422 65.091,21.699 65.091,20.45 L65.091,14.468 L63.404,14.468 L63.468,20.45 C63.404,20.45 63.468,20.45 63.468,20.45 Z M73.07,23.803 L78.715,23.803 L78.715,22.356 L74.757,22.356 L74.757,14.468 L73.07,14.468 L73.07,23.803 Z M85.462,23.803 L87.214,23.803 L83.97,14.467 L82.153,14.467 L78.909,23.803 L80.661,23.803 L81.44,21.436 L84.683,21.436 L85.462,23.803 Z M83.062,16.111 C83.062,16.111 83.256,17.031 83.451,17.557 L84.294,20.055 L81.894,20.055 L82.737,17.557 C82.867,17.031 83.062,16.111 83.062,16.111 Z M88.382,23.803 L90.068,23.803 L90.068,20.318 L91.69,20.318 L93.507,23.803 L95.388,23.803 L93.507,20.318 C93.312,19.989 93.183,19.858 93.183,19.858 C94.156,19.464 94.74,18.412 94.74,17.294 C94.74,16.044 94.156,15.19 93.247,14.73 C92.858,14.533 92.404,14.467 91.366,14.467 L88.382,14.467 L88.382,23.803 Z M90.003,18.872 L90.003,15.98 L91.301,15.98 C92.599,15.98 92.988,16.505 92.988,17.426 C92.988,18.346 92.404,18.872 91.561,18.872 L90.003,18.872 Z M96.19,14.812 L96.19,14.4 L98.167,14.4 L98.167,14.812 L97.442,14.812 L97.442,16.8 L96.981,16.8 L96.981,14.812 L96.191,14.812 L96.19,14.812 Z M99.155,14.4 L99.748,16.114 L100.341,14.4 L101,14.4 L101,16.8 L100.605,16.8 L100.605,14.88 L99.946,16.8 L99.616,16.8 L98.958,14.88 L98.958,16.8 L98.562,16.8 L98.562,14.4 L99.155,14.4 Z" id="Shape" fill="#FFFFFF"></path>
                </g>
                <path d="M295.781999,50.799 L295.781999,32.599 L301.553999,32.599 C303.374008,32.599 304.82566,33.032329 305.908999,33.899 C306.992338,34.765671 307.533999,35.9356593 307.533999,37.409 C307.533999,38.2410042 307.334668,39.0123298 306.935999,39.723 C306.53733,40.4336702 306.008669,40.9709982 305.349999,41.335 C306.21667,41.6990018 306.896997,42.2449964 307.390999,42.973 C307.885002,43.7010036 308.131999,44.5329953 308.131999,45.469 C308.131999,47.1676752 307.534005,48.480662 306.337999,49.408 C305.141993,50.335338 303.660008,50.799 301.891999,50.799 L295.781999,50.799 Z M299.447999,39.957 L301.527999,39.957 C302.169336,39.957 302.706664,39.7576687 303.139999,39.359 C303.573335,38.9603313 303.789999,38.4490031 303.789999,37.825 C303.789999,37.2009969 303.577668,36.7026685 303.152999,36.33 C302.72833,35.9573315 302.169336,35.771 301.475999,35.771 L299.447999,35.771 L299.447999,39.957 Z M299.447999,47.653 L301.683999,47.653 C302.44667,47.653 303.07933,47.4363355 303.581999,47.003 C304.084668,46.5696645 304.335999,45.9890036 304.335999,45.261 C304.335999,44.5329964 304.084668,43.9610021 303.581999,43.545 C303.07933,43.1289979 302.44667,42.921 301.683999,42.921 L299.447999,42.921 L299.447999,47.653 Z M309.847999,44.039 C309.847999,41.976323 310.476326,40.2646735 311.732999,38.904 C312.989672,37.5433265 314.57999,36.863 316.503999,36.863 C318.58401,36.863 320.20466,37.5086602 321.365999,38.8 C322.527338,40.0913398 323.107999,41.8636554 323.107999,44.117 C323.107999,44.4636684 323.099333,44.7236658 323.081999,44.897 L313.513999,44.897 C313.548666,45.8156713 313.895329,46.5653304 314.553999,47.146 C315.212669,47.7266696 316.044661,48.017 317.049999,48.017 C318.488673,48.017 319.589329,47.4623389 320.351999,46.353 L322.717999,48.147 C322.336664,48.8403368 321.660671,49.5119968 320.689999,50.162 C319.719328,50.8120032 318.488673,51.137 316.997999,51.137 C314.848655,51.137 313.119672,50.4740066 311.810999,49.148 C310.502326,47.8219934 309.847999,46.1190104 309.847999,44.039 Z M313.617999,42.557 L319.467999,42.557 C319.433332,41.7249958 319.147335,41.0576692 318.609999,40.555 C318.072663,40.0523308 317.388003,39.801 316.555999,39.801 C315.723995,39.801 315.048002,40.0609974 314.527999,40.581 C314.007997,41.1010026 313.704666,41.7596627 313.617999,42.557 Z M332.077999,47.965 C333.135338,47.965 334.157994,47.5576707 335.145999,46.743 L336.107999,49.681 C334.89466,50.6516715 333.482007,51.137 331.869999,51.137 C329.755322,51.137 328.017673,50.4696733 326.656999,49.135 C325.296326,47.8003267 324.615999,46.101677 324.615999,44.039 C324.615999,41.976323 325.304992,40.2646735 326.682999,38.904 C328.061006,37.5433265 329.781322,36.863 331.843999,36.863 C333.438674,36.863 334.86866,37.3483285 336.133999,38.319 L335.119999,41.335 C334.166661,40.468329 333.109338,40.035 331.947999,40.035 C330.821327,40.035 329.915669,40.4163295 329.230999,41.179 C328.546329,41.9416705 328.203999,42.8863277 328.203999,44.013 C328.203999,45.1743391 328.567996,46.1233297 329.295999,46.86 C330.024003,47.5966703 330.951327,47.965 332.077999,47.965 Z M339.669999,49.135 C338.300659,47.8003267 337.615999,46.101677 337.615999,44.039 C337.615999,41.976323 338.313659,40.2646735 339.708999,38.904 C341.10434,37.5433265 342.841989,36.863 344.921999,36.863 C347.00201,36.863 348.743992,37.5476598 350.147999,38.917 C351.552006,40.2863402 352.253999,41.9936564 352.253999,44.039 C352.253999,46.101677 351.565006,47.8003267 350.186999,49.135 C348.808993,50.4696733 347.05401,51.137 344.921999,51.137 C342.807322,51.137 341.056673,50.4696733 339.669999,49.135 Z M341.203999,44.039 C341.203999,45.1830057 341.554996,46.1233297 342.256999,46.86 C342.959003,47.5966703 343.847327,47.965 344.921999,47.965 C346.014005,47.965 346.910996,47.5966703 347.612999,46.86 C348.315003,46.1233297 348.665999,45.1830057 348.665999,44.039 C348.665999,42.8776609 348.31067,41.9200038 347.599999,41.166 C346.889329,40.4119962 345.996671,40.035 344.921999,40.035 C343.847327,40.035 342.959003,40.4119962 342.256999,41.166 C341.554996,41.9200038 341.203999,42.8776609 341.203999,44.039 Z M373.99,41.829 L373.99,50.799 L370.402,50.799 L370.402,42.661 C370.402,41.8636627 370.211335,41.2353356 369.83,40.776 C369.448664,40.3166644 368.92867,40.087 368.27,40.087 C367.61133,40.087 367.078335,40.3166644 366.671,40.776 C366.263664,41.2353356 366.06,41.8723293 366.06,42.687 L366.06,50.799 L362.472,50.799 L362.472,42.531 C362.472,41.7683295 362.285668,41.1703355 361.913,40.737 C361.540331,40.3036645 361.02467,40.087 360.366,40.087 C359.70733,40.087 359.174335,40.3166644 358.767,40.776 C358.359664,41.2353356 358.156,41.8636627 358.156,42.661 L358.156,50.799 L354.568,50.799 L354.568,37.201 L358.078,37.201 L358.078,38.787 C358.355334,38.249664 358.801663,37.7946685 359.417,37.422 C360.032336,37.0493315 360.764662,36.863 361.614,36.863 C363.330008,36.863 364.569329,37.5389932 365.332,38.891 C366.198671,37.5389932 367.54199,36.863 369.362,36.863 C370.870007,36.863 372.018329,37.3136622 372.807,38.215 C373.59567,39.1163378 373.99,40.3209925 373.99,41.829 Z M376.226,44.039 C376.226,41.976323 376.854327,40.2646735 378.111,38.904 C379.367673,37.5433265 380.95799,36.863 382.882,36.863 C384.96201,36.863 386.582661,37.5086602 387.744,38.8 C388.905339,40.0913398 389.486,41.8636554 389.486,44.117 C389.486,44.4636684 389.477333,44.7236658 389.46,44.897 L379.892,44.897 C379.926666,45.8156713 380.27333,46.5653304 380.932,47.146 C381.59067,47.7266696 382.422661,48.017 383.428,48.017 C384.866674,48.017 385.967329,47.4623389 386.73,46.353 L389.096,48.147 C388.714664,48.8403368 388.038671,49.5119968 387.068,50.162 C386.097328,50.8120032 384.866674,51.137 383.376,51.137 C381.226656,51.137 379.497673,50.4740066 378.189,49.148 C376.880326,47.8219934 376.226,46.1190104 376.226,44.039 Z M379.996,42.557 L385.846,42.557 C385.811333,41.7249958 385.525336,41.0576692 384.988,40.555 C384.450664,40.0523308 383.766004,39.801 382.934,39.801 C382.101995,39.801 381.426002,40.0609974 380.906,40.581 C380.385997,41.1010026 380.082667,41.7596627 379.996,42.557 Z M397.676,46.587 C397.676,45.2523267 398.161328,44.1690042 399.132,43.337 C400.102671,42.5049958 401.376659,42.089 402.954,42.089 C404.184673,42.089 405.163996,42.3403308 405.892,42.843 L405.892,41.959 C405.892,41.3523303 405.675335,40.8670018 405.242,40.503 C404.808664,40.1389982 404.202004,39.957 403.422,39.957 C402.260661,39.957 401.056006,40.2776635 399.808,40.919 L398.456,38.475 C399.11467,38.0243311 399.924995,37.6430016 400.887,37.331 C401.849005,37.0189984 402.823995,36.863 403.812,36.863 C405.857343,36.863 407.313329,37.3353286 408.18,38.28 C409.046671,39.2246714 409.48,40.5289917 409.48,42.193 L409.48,50.799 L406.308,50.799 L406.074,49.915 C405.311329,50.7296707 404.210674,51.137 402.772,51.137 C401.333326,51.137 400.124338,50.7253374 399.145,49.902 C398.165662,49.0786626 397.676,47.9736736 397.676,46.587 Z M401.914,45.131 C401.480664,45.4776684 401.264,45.9283306 401.264,46.483 C401.264,47.0376694 401.489331,47.4883316 401.94,47.835 C402.390669,48.1816684 402.953996,48.355 403.63,48.355 C404.323337,48.355 404.886664,48.1860017 405.32,47.848 C405.753335,47.5099983 405.97,47.0550029 405.97,46.483 C405.97,45.8936637 405.753335,45.4300017 405.32,45.092 C404.886664,44.7539983 404.31467,44.585 403.604,44.585 C402.910663,44.585 402.347335,44.7669982 401.914,45.131 Z M419.542,36.863 C422.679349,36.863 424.248,38.8909797 424.248,42.947 L424.248,50.799 L420.66,50.799 L420.66,42.531 C420.66,41.8029964 420.439002,41.2136689 419.997,40.763 C419.554998,40.3123311 419.022003,40.087 418.398,40.087 C417.669996,40.087 417.085002,40.325331 416.643,40.802 C416.200998,41.278669 415.98,41.8896629 415.98,42.635 L415.98,50.799 L412.392,50.799 L412.392,37.201 L415.902,37.201 L415.902,38.787 C416.231335,38.2669974 416.716663,37.8163352 417.358,37.435 C417.999336,37.0536648 418.727329,36.863 419.542,36.863 Z M444.19,46.119 L438.002,46.119 L436.416,50.799 L432.724,50.799 L439.172,32.599 L443.02,32.599 L449.468,50.799 L445.776,50.799 L444.19,46.119 Z M443.228,43.077 L441.096,36.525 L438.99,43.077 L443.228,43.077 Z M458.49,36.863 C461.627349,36.863 463.196,38.8909797 463.196,42.947 L463.196,50.799 L459.608,50.799 L459.608,42.531 C459.608,41.8029964 459.387002,41.2136689 458.945,40.763 C458.502998,40.3123311 457.970003,40.087 457.346,40.087 C456.617997,40.087 456.033002,40.325331 455.591,40.802 C455.148998,41.278669 454.928,41.8896629 454.928,42.635 L454.928,50.799 L451.34,50.799 L451.34,37.201 L454.85,37.201 L454.85,38.787 C455.179335,38.2669974 455.664664,37.8163352 456.306,37.435 C456.947337,37.0536648 457.67533,36.863 458.49,36.863 Z M467.148,54.543 L468.24,51.787 C469.418673,52.4110031 470.709993,52.723 472.114,52.723 C474.610013,52.723 475.858,51.8216757 475.858,50.019 L475.858,49.395 C475.719333,49.5856676 475.511335,49.7979988 475.234,50.032 C474.956666,50.2660012 474.506003,50.5086654 473.882,50.76 C473.257997,51.0113346 472.590671,51.137 471.88,51.137 C469.921324,51.137 468.34834,50.4783399 467.161,49.161 C465.973661,47.8436601 465.38,46.1276772 465.38,44.013 C465.38,41.9156562 465.999661,40.1996733 467.239,38.865 C468.47834,37.5303267 470.068657,36.863 472.01,36.863 C473.015339,36.863 473.868997,37.0579981 474.571,37.448 C475.273004,37.8380019 475.771332,38.2323313 476.066,38.631 L476.066,37.201 L479.446,37.201 L479.446,49.083 C479.446,51.4576785 478.778674,53.1693281 477.444,54.218 C476.109327,55.2666719 474.341345,55.791 472.14,55.791 C470.319991,55.791 468.656008,55.3750042 467.148,54.543 Z M475.962,43.987 C475.962,42.8256609 475.637004,41.8766703 474.987,41.14 C474.336997,40.4033296 473.492006,40.035 472.452,40.035 C471.429329,40.035 470.597337,40.3989964 469.956,41.127 C469.314664,41.8550036 468.994,42.8083274 468.994,43.987 C468.994,45.1656726 469.318997,46.1233297 469.969,46.86 C470.619004,47.5966703 471.455329,47.965 472.478,47.965 C473.518006,47.965 474.358664,47.6010036 475,46.873 C475.641337,46.1449964 475.962,45.183006 475.962,43.987 Z M487.012,51.137 C483.874651,51.137 482.306,49.1090203 482.306,45.053 L482.306,37.201 L485.894,37.201 L485.894,45.469 C485.894,46.1970036 486.114998,46.7863311 486.557,47.237 C486.999003,47.6876689 487.531997,47.913 488.156,47.913 C488.884004,47.913 489.468998,47.674669 489.911,47.198 C490.353003,46.7213309 490.574,46.1103371 490.574,45.365 L490.574,37.201 L494.162,37.201 L494.162,50.799 L490.652,50.799 L490.652,49.213 C490.322665,49.7330026 489.837337,50.1836648 489.196,50.565 C488.554664,50.9463352 487.826671,51.137 487.012,51.137 Z M497.126001,50.799 L497.126001,32.001 L500.714001,32.001 L500.714001,50.799 L497.126001,50.799 Z M503.028001,46.587 C503.028001,45.2523267 503.513329,44.1690042 504.484001,43.337 C505.454672,42.5049958 506.728659,42.089 508.306001,42.089 C509.536673,42.089 510.515997,42.3403308 511.244001,42.843 L511.244001,41.959 C511.244001,41.3523303 511.027336,40.8670018 510.594001,40.503 C510.160665,40.1389982 509.554005,39.957 508.774001,39.957 C507.612662,39.957 506.408007,40.2776635 505.160001,40.919 L503.808001,38.475 C504.466671,38.0243311 505.276996,37.6430016 506.239001,37.331 C507.201005,37.0189984 508.175996,36.863 509.164001,36.863 C511.209344,36.863 512.66533,37.3353286 513.532001,38.28 C514.398672,39.2246714 514.832001,40.5289917 514.832001,42.193 L514.832001,50.799 L511.660001,50.799 L511.426001,49.915 C510.66333,50.7296707 509.562675,51.137 508.124001,51.137 C506.685327,51.137 505.476339,50.7253374 504.497001,49.902 C503.517662,49.0786626 503.028001,47.9736736 503.028001,46.587 Z M507.266001,45.131 C506.832665,45.4776684 506.616001,45.9283306 506.616001,46.483 C506.616001,47.0376694 506.841332,47.4883316 507.292001,47.835 C507.74267,48.1816684 508.305997,48.355 508.982001,48.355 C509.675337,48.355 510.238665,48.1860017 510.672001,47.848 C511.105336,47.5099983 511.322001,47.0550029 511.322001,46.483 C511.322001,45.8936637 511.105336,45.4300017 510.672001,45.092 C510.238665,44.7539983 509.666671,44.585 508.956001,44.585 C508.262664,44.585 507.699336,44.7669982 507.266001,45.131 Z M524.998001,36.863 L524.998001,40.503 C522.553989,40.503 521.332001,41.9589854 521.332001,44.871 L521.332001,50.799 L517.744001,50.799 L517.744001,37.201 L521.254001,37.201 L521.254001,39.177 C521.566002,38.4836632 522.051331,37.9246688 522.710001,37.5 C523.368671,37.0753312 524.13133,36.863 524.998001,36.863 Z M324.992999,76.039 C324.992999,73.976323 325.621326,72.2646735 326.877999,70.904 C328.134672,69.5433265 329.72499,68.863 331.648999,68.863 C333.72901,68.863 335.34966,69.5086602 336.510999,70.8 C337.672338,72.0913398 338.252999,73.8636554 338.252999,76.117 C338.252999,76.4636684 338.244333,76.7236658 338.226999,76.897 L328.658999,76.897 C328.693666,77.8156713 329.040329,78.5653304 329.698999,79.146 C330.357669,79.7266696 331.189661,80.017 332.194999,80.017 C333.633673,80.017 334.734329,79.4623389 335.496999,78.353 L337.862999,80.147 C337.481664,80.8403368 336.805671,81.5119968 335.834999,82.162 C334.864328,82.8120033 333.633673,83.137 332.142999,83.137 C329.993655,83.137 328.264673,82.4740066 326.955999,81.148 C325.647326,79.8219934 324.992999,78.1190104 324.992999,76.039 Z M328.762999,74.557 L334.612999,74.557 C334.578332,73.7249958 334.292335,73.0576692 333.754999,72.555 C333.217663,72.0523308 332.533003,71.801 331.700999,71.801 C330.868995,71.801 330.193002,72.0609974 329.672999,72.581 C329.152997,73.1010026 328.849666,73.7596627 328.762999,74.557 Z M348.912999,82.799 L346.026999,78.535 L343.114999,82.799 L339.240999,82.799 L344.024999,75.857 L339.448999,69.201 L343.478999,69.201 L346.026999,73.335 L348.574999,69.201 L352.604999,69.201 L348.028999,75.857 L352.812999,82.799 L348.912999,82.799 Z M354.607,87.661 L354.607,69.201 L357.987,69.201 L357.987,70.631 C358.160334,70.4056655 358.389998,70.1760012 358.675999,69.942 C358.962001,69.7079988 359.416996,69.4696679 360.040999,69.227 C360.665003,68.9843321 361.323663,68.863 362.016999,68.863 C363.958343,68.863 365.552993,69.5303267 366.800999,70.865 C368.049006,72.1996733 368.673,73.9069896 368.673,75.987 C368.673,78.1016772 368.083672,79.8219934 366.905,81.148 C365.726327,82.4740066 364.166343,83.137 362.225,83.137 C361.514329,83.137 360.847003,83.0156679 360.223,82.773 C359.598996,82.5303321 359.144001,82.2920012 358.858,82.058 C358.571998,81.8239988 358.351,81.603001 358.194999,81.395 L358.194999,87.661 L354.607,87.661 Z M358.091,75.961 C358.091,77.2090062 358.415996,78.1883298 359.065999,78.899 C359.716003,79.6096702 360.552328,79.965 361.574999,79.965 C362.615005,79.965 363.455663,79.5923371 364.097,78.847 C364.738336,78.1016629 365.059,77.1396726 365.059,75.961 C365.059,74.764994 364.734003,73.8116702 364.084,73.101 C363.433996,72.3903298 362.597671,72.035 361.574999,72.035 C360.517661,72.035 359.672669,72.4119962 359.04,73.166 C358.40733,73.9200038 358.091,74.8516611 358.091,75.961 Z M370.285,76.039 C370.285,73.976323 370.913327,72.2646735 372.17,70.904 C373.426673,69.5433265 375.01699,68.863 376.941,68.863 C379.02101,68.863 380.64166,69.5086602 381.803,70.8 C382.964339,72.0913398 383.545,73.8636554 383.545,76.117 C383.545,76.4636684 383.536333,76.7236658 383.519,76.897 L373.951,76.897 C373.985666,77.8156713 374.33233,78.5653304 374.991,79.146 C375.64967,79.7266696 376.481661,80.017 377.487,80.017 C378.925673,80.017 380.026329,79.4623389 380.789,78.353 L383.155,80.147 C382.773664,80.8403368 382.097671,81.5119968 381.127,82.162 C380.156328,82.8120033 378.925674,83.137 377.435,83.137 C375.285656,83.137 373.556673,82.4740066 372.248,81.148 C370.939326,79.8219934 370.285,78.1190104 370.285,76.039 Z M374.055,74.557 L379.905,74.557 C379.870333,73.7249958 379.584336,73.0576692 379.047,72.555 C378.509664,72.0523308 377.825004,71.801 376.993,71.801 C376.160995,71.801 375.485002,72.0609974 374.965,72.581 C374.444997,73.1010026 374.141667,73.7596627 374.055,74.557 Z M393.061,68.863 L393.061,72.503 C390.616987,72.503 389.395,73.9589854 389.395,76.871 L389.395,82.799 L385.807,82.799 L385.807,69.201 L389.317,69.201 L389.317,71.177 C389.629001,70.4836632 390.11433,69.9246688 390.773,69.5 C391.43167,69.0753312 392.194329,68.863 393.061,68.863 Z M396.545,69.201 L396.545,66.341 L400.081,66.341 L400.081,69.201 L402.629,69.201 L402.629,72.113 L400.081,72.113 L400.081,77.365 C400.081,78.3356715 400.232665,78.985665 400.536,79.315 C400.839335,79.644335 401.354996,79.809 402.083,79.809 C402.325668,79.809 402.542332,79.8003334 402.733,79.783 L402.733,82.851 C402.368998,82.9376671 401.85767,82.981 401.199,82.981 C399.586992,82.981 398.404004,82.5260046 397.65,81.616 C396.895996,80.7059954 396.519,79.3236759 396.519,77.469 L396.519,72.113 L395.089,72.113 L395.089,69.201 L396.545,69.201 Z M423.689,82.799 L421.193,74.089 L418.671,82.799 L414.667,82.799 L410.611,69.201 L414.511,69.201 L416.903,78.847 L419.503,69.201 L422.883,69.201 L425.457,78.847 L427.875,69.201 L431.775,69.201 L427.693,82.799 L423.689,82.799 Z M433.621,82.799 L433.621,69.201 L437.209,69.201 L437.209,82.799 L433.621,82.799 Z M433.907,67.407 C433.508331,67.0083313 433.309,66.5143363 433.309,65.925 C433.309,65.3356637 433.508331,64.8460019 433.907,64.456 C434.305669,64.065998 434.799664,63.871 435.389,63.871 C435.99567,63.871 436.498331,64.065998 436.897,64.456 C437.295669,64.8460019 437.495,65.3356637 437.495,65.925 C437.495,66.5143363 437.295669,67.0039981 436.897,67.394 C436.498331,67.784002 435.99567,67.979 435.389,67.979 C434.799664,67.979 434.305669,67.7883352 433.907,67.407 Z M440.641,69.201 L440.641,66.341 L444.177,66.341 L444.177,69.201 L446.725,69.201 L446.725,72.113 L444.177,72.113 L444.177,77.365 C444.177,78.3356715 444.328665,78.985665 444.632,79.315 C444.935335,79.644335 445.450997,79.809 446.179,79.809 C446.421668,79.809 446.638333,79.8003334 446.829,79.783 L446.829,82.851 C446.464998,82.9376671 445.95367,82.981 445.295,82.981 C443.682992,82.981 442.500004,82.5260046 441.746,81.616 C440.991996,80.7059954 440.615,79.3236759 440.615,77.469 L440.615,72.113 L439.185,72.113 L439.185,69.201 L440.641,69.201 Z M456.397,68.863 C459.534349,68.863 461.103,70.8909797 461.103,74.947 L461.103,82.799 L457.541,82.799 L457.541,74.531 C457.541,73.8029964 457.320003,73.2136689 456.878,72.763 C456.435998,72.3123311 455.903003,72.087 455.279,72.087 C454.533663,72.087 453.935669,72.3253309 453.485,72.802 C453.034331,73.278669 452.809,73.8896629 452.809,74.635 L452.809,82.799 L449.221,82.799 L449.221,64.001 L452.809,64.001 L452.809,70.787 C453.138335,70.249664 453.614997,69.7946685 454.239,69.422 C454.863003,69.0493315 455.58233,68.863 456.397,68.863 Z M475.403001,83.137 C472.265651,83.137 470.697001,81.1090203 470.697001,77.053 L470.697001,69.201 L474.285001,69.201 L474.285001,77.469 C474.285001,78.1970036 474.505998,78.7863311 474.948001,79.237 C475.390003,79.6876689 475.922997,79.913 476.547001,79.913 C477.275004,79.913 477.859998,79.6746691 478.302001,79.198 C478.744003,78.721331 478.965001,78.1103371 478.965001,77.365 L478.965001,69.201 L482.553001,69.201 L482.553001,82.799 L479.043001,82.799 L479.043001,81.213 C478.713666,81.7330026 478.228337,82.1836648 477.587001,82.565 C476.945664,82.9463352 476.217671,83.137 475.403001,83.137 Z M489.677001,83.137 C488.446328,83.137 487.402005,82.8900025 486.544001,82.396 C485.685996,81.9019975 485.040336,81.3083368 484.607001,80.615 L486.713001,78.743 C487.562338,79.7310049 488.602328,80.225 489.833001,80.225 C490.353003,80.225 490.760332,80.1166678 491.055001,79.9 C491.349669,79.6833323 491.497001,79.3843352 491.497001,79.003 C491.497001,78.6389982 491.276003,78.322668 490.834001,78.054 C490.391998,77.785332 489.85467,77.5426677 489.222001,77.326 C488.589331,77.1093322 487.961004,76.8493348 487.337001,76.546 C486.712997,76.2426651 486.180003,75.7833364 485.738001,75.168 C485.295998,74.5526636 485.075001,73.7943378 485.075001,72.893 C485.075001,71.6623272 485.542996,70.6830036 486.479001,69.955 C487.415005,69.2269964 488.59366,68.863 490.015001,68.863 C492.129678,68.863 493.680996,69.6689919 494.669001,71.281 L492.303001,73.049 C491.609664,72.182329 490.795005,71.749 489.859001,71.749 C489.442999,71.749 489.105002,71.8486657 488.845001,72.048 C488.584999,72.2473343 488.455001,72.511665 488.455001,72.841 C488.455001,73.2223352 488.675998,73.5429987 489.118001,73.803 C489.560003,74.0630013 490.097331,74.2926657 490.730001,74.492 C491.36267,74.6913343 491.995331,74.9339986 492.628001,75.22 C493.26067,75.5060014 493.797998,75.9523303 494.240001,76.559 C494.682003,77.1656697 494.903001,77.9196622 494.903001,78.821 C494.903001,80.1210065 494.409006,81.1653294 493.421001,81.954 C492.432996,82.7426706 491.185008,83.137 489.677001,83.137 Z" id="Become-an-Angular-ex" fill="#FFFFFF"></path>
                <g id="Group" transform="translate(629.000000, 40.000000)" fill-rule="nonzero">
                    <g id="d-link">
                        <g fill="#000000">
                            <rect id="d" x="0" y="0" width="121" height="40" rx="20"></rect>
                        </g>
                        <g fill="url(#linearGradient-2)">
                            <rect id="d" x="0" y="0" width="121" height="40" rx="20"></rect>
                        </g>
                    </g>
                    <path d="M24.336,13.592 C25.381,13.592 26.283,13.787 27.04,14.176 C27.797,14.566 28.368,14.989 28.752,15.448 L27.328,16.92 C26.581,16.099 25.616,15.688 24.432,15.688 C23.355,15.688 22.493,16.04 21.848,16.744 C21.203,17.448 20.88,18.334 20.88,19.4 C20.88,20.52 21.213,21.416 21.88,22.088 C22.547,22.76 23.397,23.096 24.432,23.096 C25.115,23.096 25.685,22.997 26.144,22.8 C26.603,22.603 26.928,22.408 27.12,22.216 L27.12,20.84 L24.992,20.84 L24.992,18.936 L29.232,18.936 L29.232,23.368 C28.5880261,23.9342264 27.8591531,24.395846 27.072,24.736 C26.325,25.051 25.413,25.208 24.336,25.208 C22.704,25.208 21.328,24.672 20.208,23.6 C19.088,22.528 18.528,21.128 18.528,19.4 C18.528,17.768 19.075,16.392 20.168,15.272 C21.261,14.152 22.651,13.592 24.336,13.592 Z M30.616,20.84 C30.616,19.57 31.003,18.517 31.776,17.68 C32.549,16.843 33.528,16.424 34.712,16.424 C35.992,16.424 36.989,16.821 37.704,17.616 C38.419,18.411 38.776,19.501 38.776,20.888 C38.776,21.101 38.771,21.261 38.76,21.368 L32.872,21.368 C32.893,21.933 33.107,22.395 33.512,22.752 C33.917,23.109 34.429,23.288 35.048,23.288 C35.933,23.288 36.611,22.947 37.08,22.264 L38.536,23.368 C38.301,23.795 37.886,24.208 37.288,24.608 C36.691,25.008 35.933,25.208 35.016,25.208 C33.693,25.208 32.629,24.8 31.824,23.984 C31.019,23.168 30.616,22.12 30.616,20.84 Z M32.936,19.928 L36.536,19.928 C36.515,19.416 36.339,19.005 36.008,18.696 C35.678,18.386 35.256,18.232 34.744,18.232 C34.232,18.232 33.816,18.392 33.496,18.712 C33.176,19.032 32.989,19.437 32.936,19.928 Z M40.416,16.632 L40.416,14.872 L42.592,14.872 L42.592,16.632 L44.16,16.632 L44.16,18.424 L42.592,18.424 L42.592,21.656 C42.592,22.253 42.685,22.653 42.872,22.856 C43.059,23.059 43.376,23.16 43.824,23.16 C43.974,23.16 44.107,23.155 44.224,23.144 L44.224,25.032 C44,25.085 43.685,25.112 43.28,25.112 C42.288,25.112 41.56,24.832 41.096,24.272 C40.632,23.712 40.4,22.862 40.4,21.72 L40.4,18.424 L39.52,18.424 L39.52,16.632 L40.416,16.632 Z M53.248,13.592 C53.781,13.592 54.264,13.677 54.696,13.848 C55.128,14.018 55.475,14.243 55.736,14.52 C55.997,14.797 56.203,15.059 56.352,15.304 C56.502,15.549 56.619,15.794 56.704,16.04 L54.832,16.888 C54.459,16.078 53.915,15.672 53.2,15.672 C52.827,15.672 52.53,15.773 52.312,15.976 C52.0961124,16.172069 51.9763596,16.4524659 51.984,16.744 C51.984,17.074 52.152,17.371 52.488,17.632 C52.824,17.893 53.229,18.128 53.704,18.336 C54.179,18.544 54.654,18.779 55.128,19.04 C55.603,19.301 56.008,19.667 56.344,20.136 C56.68,20.606 56.848,21.16 56.848,21.8 C56.848,22.803 56.512,23.621 55.84,24.256 C55.168,24.891 54.256,25.208 53.104,25.208 C52.5801183,25.2152491 52.0593974,25.1257502 51.568,24.944 C51.109,24.768 50.738,24.536 50.456,24.248 C50.2037873,23.9976014 49.9785534,23.7214217 49.784,23.424 C49.6225616,23.1707125 49.4910176,22.8995708 49.392,22.616 L51.296,21.688 C51.691,22.638 52.336,23.112 53.232,23.112 C53.648,23.112 53.973,23.011 54.208,22.808 C54.443,22.605 54.56,22.323 54.56,21.96 C54.56,21.619 54.395,21.315 54.064,21.048 C53.6936582,20.7575065 53.2877015,20.5155456 52.856,20.328 C52.381,20.115 51.906,19.875 51.432,19.608 C50.9482456,19.3329624 50.5347731,18.9496103 50.224,18.488 C49.894,18.008 49.728,17.438 49.728,16.776 C49.728,15.826 50.048,15.059 50.688,14.472 C51.328,13.885 52.181,13.592 53.248,13.592 Z M58.648,16.632 L58.648,14.872 L60.824,14.872 L60.824,16.632 L62.392,16.632 L62.392,18.424 L60.824,18.424 L60.824,21.656 C60.824,22.253 60.917,22.653 61.104,22.856 C61.291,23.059 61.608,23.16 62.056,23.16 C62.206,23.16 62.339,23.155 62.456,23.144 L62.456,25.032 C62.232,25.085 61.917,25.112 61.512,25.112 C60.52,25.112 59.792,24.832 59.328,24.272 C58.864,23.712 58.632,22.862 58.632,21.72 L58.632,18.424 L57.752,18.424 L57.752,16.632 L58.648,16.632 Z M63.488,22.408 C63.488,21.587 63.787,20.92 64.384,20.408 C64.981,19.896 65.765,19.64 66.736,19.64 C67.493,19.64 68.096,19.795 68.544,20.104 L68.544,19.56 C68.544,19.187 68.411,18.888 68.144,18.664 C67.877,18.44 67.504,18.328 67.024,18.328 C66.309,18.328 65.568,18.525 64.8,18.92 L63.968,17.416 C64.373,17.139 64.872,16.904 65.464,16.712 C66.0450729,16.5217394 66.6525717,16.4245396 67.264,16.424 C68.523,16.424 69.419,16.714 69.952,17.296 C70.485,17.877 70.752,18.68 70.752,19.704 L70.752,25 L68.8,25 L68.656,24.456 C68.186,24.957 67.509,25.208 66.624,25.208 C65.739,25.208 64.994,24.955 64.392,24.448 C63.789,23.941 63.488,23.261 63.488,22.408 Z M66.096,21.512 C65.829,21.725 65.696,22.002 65.696,22.344 C65.696,22.685 65.835,22.963 66.112,23.176 C66.389,23.389 66.736,23.496 67.152,23.496 C67.579,23.496 67.925,23.392 68.192,23.184 C68.459,22.976 68.592,22.696 68.592,22.344 C68.592,21.981 68.459,21.696 68.192,21.488 C67.925,21.28 67.573,21.176 67.136,21.176 C66.709,21.176 66.363,21.288 66.096,21.512 Z M77.048,16.424 L77.048,18.664 C75.544,18.664 74.792,19.56 74.792,21.352 L74.792,25 L72.584,25 L72.584,16.632 L74.744,16.632 L74.744,17.848 C74.936,17.421 75.234,17.078 75.64,16.816 C76.045,16.555 76.515,16.424 77.048,16.424 Z M79.232,16.632 L79.232,14.872 L81.408,14.872 L81.408,16.632 L82.976,16.632 L82.976,18.424 L81.408,18.424 L81.408,21.656 C81.408,22.253 81.501,22.653 81.688,22.856 C81.875,23.059 82.192,23.16 82.64,23.16 C82.79,23.16 82.923,23.155 83.04,23.144 L83.04,25.032 C82.816,25.085 82.501,25.112 82.096,25.112 C81.104,25.112 80.376,24.832 79.912,24.272 C79.448,23.712 79.216,22.862 79.216,21.72 L79.216,18.424 L78.336,18.424 L78.336,16.632 L79.232,16.632 Z M84.104,20.84 C84.104,19.57 84.491,18.517 85.264,17.68 C86.037,16.843 87.016,16.424 88.2,16.424 C89.48,16.424 90.477,16.821 91.192,17.616 C91.907,18.411 92.264,19.501 92.264,20.888 C92.264,21.101 92.259,21.261 92.248,21.368 L86.36,21.368 C86.381,21.933 86.595,22.395 87,22.752 C87.405,23.109 87.917,23.288 88.536,23.288 C89.421,23.288 90.099,22.947 90.568,22.264 L92.024,23.368 C91.789,23.795 91.374,24.208 90.776,24.608 C90.179,25.008 89.421,25.208 88.504,25.208 C87.181,25.208 86.117,24.8 85.312,23.984 C84.507,23.168 84.104,22.12 84.104,20.84 Z M86.424,19.928 L90.024,19.928 C90.003,19.416 89.827,19.005 89.496,18.696 C89.166,18.386 88.744,18.232 88.232,18.232 C87.72,18.232 87.304,18.392 86.984,18.712 C86.664,19.032 86.477,19.437 86.424,19.928 Z M101.888,13.432 L101.888,25 L99.808,25 L99.808,24.136 C99.6842704,24.2915381 99.5418664,24.4312552 99.384,24.552 C99.208,24.691 98.928,24.835 98.544,24.984 C98.16,25.134 97.754,25.208 97.328,25.208 C96.123,25.208 95.138,24.8 94.376,23.984 C93.613,23.168 93.232,22.114 93.232,20.824 C93.232,19.523 93.595,18.464 94.32,17.648 C95.045,16.832 96.005,16.424 97.2,16.424 C97.83,16.424 98.357,16.547 98.784,16.792 C99.211,17.037 99.509,17.277 99.68,17.512 L99.68,13.432 L101.888,13.432 Z M99.744,20.84 C99.744,20.072 99.544,19.47 99.144,19.032 C98.744,18.595 98.229,18.376 97.6,18.376 C96.96,18.376 96.443,18.606 96.048,19.064 C95.653,19.523 95.456,20.114 95.456,20.84 C95.456,21.576 95.656,22.163 96.056,22.6 C96.456,23.037 96.971,23.256 97.6,23.256 C98.25,23.256 98.77,23.024 99.16,22.56 C99.55,22.096 99.744,21.523 99.744,20.84 Z" id="Shape" fill="#FFFFFF"></path>
                </g>
            </g>
        </g>
    </g>
</svg>