<svg height="34" viewBox="0 0 32 34" width="32" xmlns="http://www.w3.org/2000/svg"><g fill="none"><path d="m15.9153439 0-15.9153439 5.627 2.51428571 20.927 13.41798939 7.395 13.4857143-7.48 2.5142857-20.944" fill="#b2b2b2"/><path d="m30.3407407 6.732-14.4761904-4.947v30.4045l12.1312169-6.732" fill="#b52e31"/><path d="m1.77777778 6.8255 2.16719576 18.717 11.93650796 6.647v-30.4045" fill="#e23237"/><path d="m19.2338624 16.915-3.3185185-6.9955-2.9375661 6.97h6.2645502zm1.2698413 2.924h-8.821164l-1.97248679 4.9555-3.67407407.068 9.83703706-21.9725 10.184127 21.9725h-3.4031746l-2.1587302-5.015z" fill="#f2f2f2"/><path d="m15.8730159 2.89.0338624 7.038 3.3015873 6.987h-3.3354497v2.924h4.6137566l2.1671958 5.015 3.5132275.085" fill="#b2b2b2"/></g></svg>