<?xml version="1.0" encoding="UTF-8"?><svg width="32px" height="34px" viewBox="0 0 32 34" version="1.1" xmlns="http://www.w3.org/2000/svg" xmlns:xlink="http://www.w3.org/1999/xlink"><g id="assets" stroke="none" stroke-width="1" fill="none" fill-rule="evenodd"><g transform="translate(-236.000000, -523.000000)" fill-rule="nonzero" id="angularjs"><g transform="translate(236.000000, 523.000000)"><polyline id="Shape" fill="#B2B2B2" points="15.9153439 0 0 5.627 2.51428571 26.554 15.9322751 33.949 29.4179894 26.469 31.9322751 5.525"></polyline><polyline id="Shape" fill="#B52E31" points="30.3407407 6.732 15.8645503 1.785 15.8645503 32.1895 27.9957672 25.4575"></polyline><polyline id="Shape" fill="#E23237" points="1.77777778 6.8255 3.94497354 25.5425 15.8814815 32.1895 15.8814815 1.785"></polyline><path d="M19.2338624,16.915 L15.9153439,9.9195 L12.9777778,16.8895 L19.242328,16.8895 L19.2338624,16.915 Z M20.5037037,19.839 L11.6825397,19.839 L9.71005291,24.7945 L6.03597884,24.8625 L15.8730159,2.89 L26.0571429,24.8625 L22.6539683,24.8625 L20.4952381,19.8475 L20.5037037,19.839 Z" id="Shape" fill="#F2F2F2"></path><polyline id="Shape" fill="#B2B2B2" points="15.8730159 2.89 15.9068783 9.928 19.2084656 16.915 15.8730159 16.915 15.8730159 19.839 20.4867725 19.839 22.6539683 24.854 26.1671958 24.939"></polyline></g></g></g></svg>