<svg height="34" viewBox="0 0 34 34" width="34" xmlns="http://www.w3.org/2000/svg"><g fill="none" fill-rule="evenodd"><path d="m3 0h28c1.6568542 0 3 1.34314575 3 3v28c0 1.6568542-1.3431458 3-3 3h-28c-1.65685425 0-3-1.3431458-3-3v-28c0-1.65685425 1.34314575-3 3-3z" fill="#f77a1e" fill-rule="nonzero"/><path d="m4 30.384v-12.24h8.1v2.214h-5.58v3.888h4.914v2.16h-4.914v1.764h5.832v2.214zm13.59.162c-2.34 0-3.852-1.116-4.59-2.574l2.052-1.188c.54.882 1.242 1.53 2.484 1.53 1.044 0 1.71-.522 1.71-1.242 0-.864-.684-1.17-1.836-1.674l-.63-.27c-1.818-.774-3.024-1.746-3.024-3.798 0-1.89 1.44-3.33 3.69-3.33 1.602 0 2.754.558 3.582 2.016l-1.962 1.26c-.432-.774-.9-1.08-1.62-1.08-.738 0-1.206.468-1.206 1.08 0 .756.468 1.062 1.548 1.53l.63.27c2.142.918 3.348 1.854 3.348 3.96 0 2.268-1.782 3.51-4.176 3.51zm8.9460001 0c-2.268 0-4.176-1.512-4.176-3.744 0-1.35.558-2.43 1.512-3.744l2.628-3.636h2.736l-2.214 3.042c-.396.54-1.134 1.098-1.134 1.098.396-.198.81-.306 1.35-.306 1.926 0 3.438 1.332 3.438 3.492 0 2.358-1.854 3.798-4.14 3.798zm-.018-2.142c1.062 0 1.674-.792 1.674-1.656s-.612-1.656-1.674-1.656-1.674.792-1.674 1.656.612 1.656 1.674 1.656z" fill="#000"/></g></svg>