<svg height="34" viewBox="0 0 32 34" width="32" xmlns="http://www.w3.org/2000/svg"><g fill="none"><path d="m15.9742627 0-15.9742627 5.644 2.43646113 20.927 13.53780157 7.429 13.5378016-7.429 2.4364612-20.927" fill="#4a4a4a"/><path d="m15.9571046 0v3.774-.017 30.243l13.5378016-7.429 2.4364611-20.927" fill="#545454"/><path d="m12.7924504 7.149945c-.0441555.00850642-.0872874.02158312-.1286863.039015-.0330295.01496-.094799.032895-.1372654.03978-.0424665.00697-.0956569.026945-.1181341.044455s-.061941.03179-.0875067.03179c-.0257373 0-.0669169.01853-.0915389.04114-.0247077.022695-.0608257.04624-.0803002.05236-.0194746.00612-.0540483.029665-.0769545.05236-.0229061.02261-.0496729.04114-.0595388.04114-.009866 0-.0179303.011645-.0179303.025925s-.0182735.03281-.0405791.041225c-.0223056.00833-.0446113.03111-.0497587.050575-.0051475.01938-.0217051.035275-.0367185.035275-.0150992 0-.0273673.00765-.0273673.01717 0 .00935-.0231636.04114-.0514745.070465-.028311.02941-.0514746.059415-.0514746.066725s-.0154423.01819-.0343163.02414-.0343164.018445-.0343164.02788c0 .020825-.1118713.14025-.3174263.33932-.0849329.08228-.1739839.169065-.1980053.192865-.0239357.0238-.0490724.04335-.0557641.04335-.0068633 0-.0466702.03451-.0885362.0765-.0418659.04216-.0830456.0765-.0915389.0765-.0085791 0-.0288257.014705-.045126.032555-.0163002.01785-.0531903.042075-.0821018.053975-.0289116.011815-.070177.0374-.0917963.05678-.075496.06766-.1367507.10659-.1870241.11883-.0279679.0068-.0608258.02652-.0729223.043775-.0123539.01734-.0473565.03689-.0778123.04352-.0305416.006715-.0637426.02329-.0737802.036975-.0102091.0136-.0552493.03162-.1002037.03995s-.1010617.030175-.1246542.04845c-.0235925.01853-.07892759.038675-.12319569.044965-.0441823.00629-.0931689.02261-.10895442.036295-.01835925.015895-.09814477.03077-.2230563.04148-.10689544.009095-.21953887.027965-.25025201.041905-.03062735.01394-.1497051.03315-.2644933.042925-.12525469.010625-.22391421.02754-.24664879.04233-.02093298.013515-.0866488.0323-.14635925.041905-.07189276.011475-.1158177.027965-.13074531.049045-.01235389.017425-.04478284.03655-.07206434.0425-.0273673.00595-.06331368.025755-.07978553.04386-.01672922.01819-.04066488.033065-.05336193.033065-.02616622 0-.22897587.19516-.22897587.22032 0 .00901-.01441287.030005-.032.04675-.01767292.016745-.041437.059075-.05276139.09401-.01141019.03502-.03131368.06953-.04418231.07667-.01441287.00799-.03054155.06936-.04178016.15912-.01012332.080325-.0291689.183515-.04263807.22933-.0187882.064345-.02556568.24395-.02985523.7888-.00540482.682805-.00677748.707455-.04186595.76636-.02269749.039323-.04181846.0805689-.05713673.12325-.01141018.03434-.02805362.06239-.03689008.06239-.00909383 0-.02307775.01734-.03114209.03859-.02650938.06902-.39969973.457555-.5590134.58191-.03594638.02805-.08922252.071655-.11856301.0969-.0291689.02516-.07455228.06341-.1006327.085-.04006435.03298-.2692118.257125-.38949062.3808-.01921716.019805-.03491689.043265-.03491689.052275s-.02316354.042075-.05147453.073525-.05147453.06987-.05147453.085425-.0150992.04182-.03345845.05831c-.01844504.016575-.04203753.07072-.05233244.12036-.01055228.04964-.03019839.09945-.04375335.11067-.03594638.029495-.03474531.36278.00171582.4488.01458445.03468.03457373.151895.04461126.260525.0103807.11271.02873995.21352.04263807.234515.01346917.020315.03157104.09911.04032171.175015.01123861.097495.02573727.148665.04932976.17374.01844504.01955.03869169.06358.04504022.09775.00643431.03434.02556568.07769.04272386.09639s.03637533.058905.04289544.08942c.00643432.03043.02625201.06307.04401072.07242.018874.01003.03620376.043265.04203754.08058.00540482.03502.022563.101745.03817694.148325.04032172.12036.04075067.53601.00060054.620755-.01544236.032725-.03320107.095455-.03946381.1394-.00626273.043945-.02985523.10472-.05233244.135065-.02273458.030345-.04117962.066215-.04117962.079815 0 .034425-.11367293.2006-.14541555.212755-.01441287.00544-.02616622.02516-.02616622.04386 0 .018615-.01544236.042075-.03431636.052105-.01887399.01003-.03431635.029155-.03431635.0425s-.02204826.04947-.0489008.080155c-.02710992.0306-.05430563.083725-.06065416.117895-.00626273.034-.02282038.0714-.0367185.08279-.03586059.029495-.0348311.272.00137266.341445.01467024.02805.03320107.10863.04117962.17901.00995174.0884.02487936.13923.04821448.16473.01861662.020315.03894906.058225.045126.08415.00617695.025925.02659518.062305.04512601.08075.01861662.018445.0338874.04726.0338874.064005 0 .01683.03474531.068425.07721179.11475.0423807.04641.08836462.10727.10191957.13532.01372655.02805.04066488.060605.06013942.07242.01938873.01173.03526005.03196.03526005.04488 0 .013005.01166756.027965.02590885.033405.01424128.00544.0347453.029155.04564075.0527.01089544.023715.03036997.043095.0432386.043095.01295443 0 .02856837.013345.03457373.02975.00609115.016405.02710992.04607.04667024.06596.01956032.019975.07806971.08398.12997319.14229.05190349.05831.13040215.1445.17424129.191675.04392493.04709.08441823.10795.08990884.13532.00557641.02737.02487936.068425.04298124.091205.01810187.02278.03817694.07956.04469705.12614.00643432.04658.01775871.08466.02522252.08466.01801608 0 .04692761.078625.05799464.157505.00497587.03519.02427882.083215.04289544.10676.01870241.023545.03912064.0731.04546917.110245.00634852.037145.01758713.06749.02505094.06749.01750134 0 .04769973.07633.06176943.15606.00600537.034425.02119035.066555.0338874.0714.01269705.00476.03302949.04148.04512601.081515.01209651.03995.03568901.086275.05241823.10285s.03045576.05253.03045576.0799c0 .0272.01827346.07123.04057909.09775.02230563.02635.04649866.06715.05379089.090525.00729222.023375.02771045.060775.04529758.083045.01750134.02227.03191421.05423.03191421.070975 0 .01666.018874.05253.04178016.07956.02299196.02703.04684183.06919.05301877.0935.00617694.02448.02170509.04845.03448794.053295.01286863.004845.0329437.04165.04486863.08194.01201072.04029.03551742.083215.05241823.09537.01698659.01224.03088472.03332.03088472.04692s.01552815.037995.03474531.05423c.01913136.01615.04255227.058225.05207506.09333s.0245362.06375.03345845.06375c.00875067 0 .04658445.047855.08407506.10625.03749062.058565.08012869.12155.09471314.14025.06108311.0782.11290081.15555.13005898.19431.01003754.02261.03534585.0578.05619303.07837.02084719.0204.05156032.05542.06820376.077775.08630563.1156.1515067.1972.18316353.229415.01947454.01972.03534585.04437.03534585.054825 0 .01054.01930295.03162.04289544.04692s.04289544.035445.04289544.044625.02119035.037145.04718499.06205c.02590885.025075.08579089.0901.13297587.1445.04718499.05457.12628418.142375.17587132.19516.04958713.0527.09008042.10557.09008042.1173s.01003754.02125.02230563.02125c.02779625 0 .14927614.12172.14927614.149515 0 .011305.00969437.020825.02144772.02108.02745309.000595.12422521.08755.14936194.134045.01055227.019465.02779624.035445.03843431.035445.01775871 0 .07300804.04743.31862737.2737.0497587.045815.0978016.0833.107067.0833s.0264236.0153.0381769.034c.0118392.0187.0309706.034.0426381.034.0117534 0 .0338874.019125.0493298.0425.0155281.023375.0374048.0425.0489008.0425.0113244 0 .047185.02312.0794423.051425.0323432.028305.0838177.07225.1143593.09775.0305415.0255.0914531.07888.135378.118745.0438391.039865.0969437.08194.1178767.0935.0890509.04913.1802466.11628.1802466.1326 0 .009775.022563.0255.0501019.03502s.0543056.028305.0595389.04165c.0051474.013345.0198177.02431.0326005.02431.0126971 0 .0490724.02295.080815.051.0317427.02805.0666595.051.0776408.051.0109812 0 .0339732.0153.0510456.034.0171581.0187.0398069.034.0506166.034.0105523 0 .0460697.02261.078756.05032.0326005.027625.0717212.050575.0867346.051.0150134.00034.0413512.01598.0584236.03468.0171582.0187.0417801.034.0549062.034.013126 0 .0424664.018445.065201.0408.0226488.02261.0680322.04981.1007185.06052.0327721.010625.0688043.030515.0801287.04403.0114102.0136.0307131.02465.0429812.02465s.0452976.019125.073437.0425c.0280537.023545.0744665.047345.1030349.052955.0286541.005695.0664879.023715.0841609.03995.0177587.016405.0600536.038845.0941126.04998.0339731.01105.0657158.03026.0704343.0425.0048043.012325.0434959.031025.0860482.04165s.0885362.03043.1023485.04403c.0137266.0136.047185.030005.0742092.036295.0271099.006375.0646863.025415.0835603.04233s.0677748.038165.1084397.04726c.0408364.009095.0871635.027965.102949.042075.0158713.01411.0579947.03094.0935979.0374.0356032.00663.0742091.025075.0857909.041055.0118391.016405.0654584.037825.1226809.049045.0558499.01105.1137587.030855.1286864.04403.0148418.01326.0570509.02958.0936836.036295.0367185.0068.0803861.02584.0971153.042415.0176729.01751.0784129.0374.1455013.047855.0633137.009775.1278284.0289.1432708.0425.0152708.0136.0646863.03026.109555.036805.0449544.00663.1006327.026775.1237962.044795.0272815.02125.086992.037825.169437.04692.0700912.00782.1495335.02635.1765576.04114.0269384.01479.1020912.03451.1669491.043775.0647721.009265.1309169.02856.146874.04284.0192172.017255.0901662.03128.2105308.04165.0998606.0085.207614.0272.239185.041565.0317427.014195.1444719.033915.250681.04369.1116997.0102.2158499.029495.2473351.045645.1367507.07004 2.1164611.06919 2.2566434-.00102.0323432-.01615.1407829-.03485.2659518-.04573.1162466-.0102.2319785-.0289.2573726-.04165.0252226-.01275.1367507-.03111.2477641-.0408.1377802-.0119.2111314-.02584.2312064-.043775.0161287-.01445.0860483-.033575.1553673-.0425.0693191-.00884.1467882-.027625.1721823-.04165s.1101555-.03349.188311-.04318c.0782413-.00969.1462735-.0238.1512494-.03111.0163002-.02465.0766112-.04845.1544236-.0612.0422091-.00697.0933404-.023375.1134155-.03655.0201609-.01292.0851046-.03213.1442145-.0425.0591957-.010285.1207936-.031875.137008-.04794.0163003-.01615.0632279-.03451.1044933-.041055.0413512-.006545.0875067-.023035.1026059-.03655.0150992-.0136.0638284-.03145.1082681-.03961.0446113-.008245.0952279-.02771.1125577-.04335.0174155-.01564.0613404-.03655.0978016-.046495.0362895-.009945.0837319-.031875.1055228-.04879.0215335-.01683.0704343-.03587.1086112-.042245.0380912-.006375.073437-.02227.0784987-.035275.0049758-.013005.0411796-.032895.0803002-.0442.0391207-.011305.0772118-.03026.0845899-.04216.007378-.0119.0459839-.030005.0857908-.04029.0397212-.01037.0803003-.0289.0900805-.04114.0171581-.021845.093512-.06494.2138766-.1207.0330295-.0153.075496-.041395.09437-.05814s.0524183-.03587.0746381-.042585c.022134-.00663.0547346-.026435.0724933-.04403.0176729-.01751.0523324-.03689.0769544-.04301s.0653727-.02975.0905094-.0527c.0251367-.022695.0577373-.052105.0724075-.065195s.0552493-.0357.0900804-.05015c.0348311-.01428.0634853-.03383.0634853-.04335 0-.00935.0207614-.026435.0463271-.03791.0254799-.011475.0636568-.03621.0849329-.05491.0842467-.074205.1574263-.1275.1750134-.1275.0101234 0 .0262521-.01445.0357748-.032045.0095228-.017595.0368901-.03689.0606542-.04284.0238499-.00595.0433244-.022355.0433244-.03655 0-.014025.0134692-.0306.0300268-.03655.0165576-.006035.0460697-.02686.0657158-.04624.0197319-.01938.0506166-.04726.0686327-.06205.1207936-.09775.3283217-.281775.3470242-.3077.0123538-.017085.0326863-.031025.0452118-.031025.0125254 0 .0269383-.015895.0320857-.035275.0068311-.0211289.0235432-.0376869.0448687-.044455.0195603-.0051.0356032-.01717.0356032-.026775 0-.00969.0428954-.060435.0953995-.112795.1135871-.11339.1087828-.10812.2639785-.29053.0675174-.079305.1340054-.15045.1476461-.1581.0137266-.00765.0248794-.024395.0248794-.037485 0-.013005.0139839-.03366.0311421-.0459.0171581-.012155.0364611-.036295.0429812-.05355.0084338-.0190149.0246674-.0335523.0446113-.03995.0180161-.00459.0374048-.026435.0429812-.048535s.0294263-.060775.052933-.085935c.0235067-.025075.0427238-.051935.0427238-.0595 0-.00765.0164719-.02907.036547-.047685.0201608-.01853.0452117-.04811.055764-.065705.0512172-.085425.0966006-.15096.1223378-.17663.0156998-.015555.0413512-.05117.057051-.079305l.0664021-.11832c.0208472-.03706.0498445-.07191.0643432-.077435.0145844-.005525.0265951-.021675.0265951-.035785 0-.03281.1159035-.21335.1369223-.21335.0087507 0 .0208472-.02652.0270241-.058905.0060912-.032385.0219625-.06783.0352601-.07871.0132976-.01105.0396354-.05134.0585094-.089845.0319142-.06511.0537051-.10574.1147882-.21454.0132118-.023375.0358606-.06902.0506166-.101405.0145844-.032385.0367185-.06681.0491582-.0765.0125254-.00969.0310563-.0493.0412654-.08789.0102949-.03859.029512-.079305.043067-.09044.0134692-.01105.0296837-.044455.0360322-.074205s.0255657-.06936.0427238-.08806c.017244-.0187.0406649-.070975.0520751-.116195s.0312279-.08619.0440965-.091035c.0150134-.005695.0226488-.03417.0214477-.079305-.001201-.03876-.0055764-.05746-.0097801-.04148-.0042038.015895-.0245362.03417-.0452118.040545-.0205898.006375-.0622842.03145-.0926542.056015-.1076675.08687-.1512493.116365-.1893405.12818-.0211903.00663-.0386058.0187-.0386058.02703 0 .018615-.1664344.12784-.2187668.14348-.0211904.006375-.0386059.018445-.0386059.02686 0 .018105-.1662627.126055-.2201394.14297-.020504.00646-.0372333.019295-.0372333.02856 0 .00918-.0347453.032045-.0772118.05066-.0424664.018615-.0772117.040545-.0772117.048705s-.0260805.023375-.0579947.03383-.0712064.033575-.0875067.05134c-.0163003.01785-.0513887.037145-.0778981.042925s-.0523325.02108-.0573941.034c-.0050617.013005-.0420375.03247-.0825308.04318-.0403218.010795-.0832172.033575-.0952279.050575-.0120108.017-.0442681.03587-.0716354.04165-.0272815.00595-.0625416.025075-.0782413.04233-.0157855.01717-.0568794.03655-.0912815.042925-.0344879.00646-.0725791.02567-.0846756.04284-.0121823.01717-.047185.036465-.0778123.042925-.0307132.00646-.0686327.02312-.0845899.03689-.0157855.013855-.0612546.0323-.1009758.041225-.0397212.00884-.090681.030515-.113244.04811-.0226488.017595-.0717212.03706-.1092118.04335s-.068118.017765-.068118.0255c0 .017425-.085705.0442-.1867667.05848-.0413512.00578-.0932547.024565-.1152172.04165-.0229919.01802-.0851045.036295-.1458445.043095-.0581662.006545-.1221662.02244-.1421555.035275-.1115281.07191-.3468525.034425-.2753029-.043945.016386-.017935.0404933-.03264.0534477-.03264.0130402 0 .028311-.0119.0338874-.02635.0120107-.031025.184193-.14365.2197105-.14365.0133833 0 .0351742-.01513.0482144-.03366.0130403-.01853.0520751-.04539.0867346-.059755.0346595-.01428.0629705-.03315.0629705-.04165 0-.008585.0174156-.020995.0386059-.027625.0212762-.006545.0634853-.031875.0937695-.056355.1072386-.08653.156311-.120955.1724396-.120955.0088365 0 .0395496-.020995.0682038-.04675.1055228-.094605.1456729-.12359.1855657-.133535.0223914-.005525.0454692-.02465.0510456-.0425.0057479-.01768.0175871-.0323.0265951-.0323.0087507 0 .0327722-.01904.0532762-.0425.0205898-.02329.0444397-.0425.0531903-.0425.0085791 0 .0364611-.02091.0618553-.04675.0253941-.02567.1111849-.10404.1907131-.17425.2180804-.19227.3635818-.340425.6091153-.6205.0245362-.02805.0770402-.0867.1166756-.13022.0395496-.04352.0835603-.09809.0978016-.121125.0654584-.106845.121823-.18207.1362359-.18207.0086649 0 .0211904-.017255.027882-.03825.0066059-.020995.0302842-.05984.0525899-.086275.0223056-.026435.040579-.05763.040579-.06919 0-.011645.019303-.037825.0428955-.05814.0235925-.0204.0428954-.0493.0428954-.064345s.019303-.05015.0428955-.07786c.0235925-.027795.0428954-.06103.0428954-.07378s.0144129-.033235.032-.045475c.0175871-.012155.0374906-.04675.0440965-.07667s.0258231-.071995.0427239-.0935c.016815-.02142.0400643-.06766.0515603-.102595.011496-.03502.0307131-.069445.0426381-.0765.0120107-.00714.0312279-.05117.0428954-.09792.0116676-.04675.0313995-.096475.043925-.1105.0125254-.014025.0308847-.05508.0408364-.09129.009866-.036125.0301984-.07905.0450402-.09537.0149276-.01632.0344022-.07395.0432386-.12784.0088365-.053975.0272815-.1105.0408365-.12563.0137265-.015045.0300268-.06562.0363753-.11237.0064343-.04675.026252-.10557.0441823-.130645.0214478-.03009.0386059-.09928.0503593-.20213.0097801-.08602.0289115-.17646.0424665-.200855.0135549-.024395.0327721-.124355.0428954-.222105.0116676-.1156.0283968-.19278.0477855-.221.0323432-.047175.056622-1.475175.0285684-1.68317l-.012697-.094095-.0187882.070805c-.010295.038845-.0317427.084745-.0475282.102-.0157855.01717-.034059.052445-.0405791.07837s-.0253941.056525-.0419517.068c-.0165577.011475-.0355175.045305-.0420376.07531-.0066917.02992-.0259946.071995-.0428954.0935-.0181873.0236537-.0327034.0498685-.043067.077775-.0067775.02125-.0308847.05882-.0538767.0833-.0228204.024395-.0415228.05712-.0415228.07259 0 .015555-.0193029.054145-.0428954.08585s-.0428955.06715-.0428955.07888c0 .011645-.0144128.031195-.032.04335-.0175871.01224-.037319.046325-.0437533.07565-.0066059.029495-.0270242.067065-.0452976.08347-.0183593.01649-.0333727.0391-.0333727.050405s-.0231635.04947-.0514745.084745-.0514745.07344-.0514745.084745c0 .01122-.0154424.03434-.0343164.051255s-.0343163.0408-.0343163.05304-.0221341.04743-.0491582.078115c-.0270241.0306-.054563.073015-.0611689.094095-.0066917.020995-.0192172.03825-.0278821.03825-.008579 0-.0263378.024905-.039378.05525-.0128686.03043-.0400643.0697-.0602252.08755-.0202466.01785-.0367185.04267-.0367185.055165s-.0154423.0323-.0343163.043945c-.018874.01173-.0343164.030515-.0343164.041905s-.0185308.039015-.0411796.06137c-.0269807.0284088-.050189.0601153-.0690617.09435-.0153565.02941-.0342305.053465-.0418659.053465-.0077212 0-.0227346.019125-.0334585.0425-.0108096.023375-.0307989.0425-.0445254.0425-.0137266 0-.0302842.01666-.0368043.036975-.0142413.04437-.1145309.150025-.1423271.150025-.0108954 0-.0197319.01122-.0197319.024905 0 .01377-.0289115.05185-.0643432.08466-.0419581.0391294-.0834268.0787708-.1243967.118915-.1121287.1105-.2439893.10999-.1560537-.00085.0197319-.02482.0360322-.05797.0360322-.07361s.0192172-.0544.0428954-.08602c.0235067-.031705.0428955-.06715.0428955-.07888 0-.011645.0145844-.03145.0326005-.04386.0178445-.01241.041437-.055335.0523325-.095285.0108096-.040035.0300268-.07667.042638-.08143.0126113-.00476.0274531-.03094.0328579-.05814.0054907-.0272.0251368-.064345.0437534-.08279.0185308-.01836.0416086-.061625.0511314-.09605.0096085-.034425.0281394-.075055.0411796-.090355.0128686-.0153.0326005-.0595.0437533-.098175.0111529-.03876.0313137-.0748.0446971-.0799s.0296836-.0442.0361179-.08687c.0064344-.04267.0257373-.0952.0427239-.11662s.0364611-.068255.0432386-.104125c.0068633-.03587.0257373-.078455.0420375-.094605.0163861-.016235.0382628-.077435.0487293-.136.0103807-.05865.0301126-.12342.0437533-.144075.0137266-.020655.0331153-.08211.0432386-.13651.0102949-.054485.0300268-.11169.0440965-.127075.0156998-.01717.0322574-.09197.0428955-.193375.0095228-.09095.0284826-.186745.0421233-.212925.0144129-.02754.0322574-.143395.0424665-.275485.0096944-.125375.0294263-.27234.0438391-.32657.0338016-.12699.034488-.435455.0012869-.56729-.0137265-.054485-.0338874-.210035-.0447828-.34561-.0116676-.145435-.0300268-.26622-.0448687-.294695-.0137265-.02652-.0321716-.11628-.0408364-.19958-.0114102-.10948-.024622-.16014-.047614-.18292-.0174155-.017255-.0368901-.068425-.0431528-.113645-.0061769-.04522-.0228204-.094775-.0368901-.110245-.0141555-.015385-.0324289-.064005-.0407506-.108035-.0083218-.0442-.0274531-.093755-.0427239-.11033-.015185-.01666-.0366327-.056525-.0476139-.088655-.0125805-.0353998-.0292183-.0692528-.0495872-.100895-.0191337-.0301292-.0331872-.0631447-.0416086-.09775-.0066058-.030345-.0185308-.05525-.0263378-.05525-.0077211 0-.0310563-.034425-.0516461-.0765s-.0437533-.0765-.0516461-.0765c-.0078927 0-.0233351-.0272-.0343163-.06035-.0111528-.03315-.0379196-.0799-.0595389-.10387-.0855335-.09486-.0985737-.112795-.1213083-.166685-.0128686-.03077-.035689-.06052-.0503593-.06613-.014756-.00561-.0338874-.027625-.0424665-.048875-.0126112-.031025-.0158713-.021675-.0167292.048025-.0006005.0476.0112386.11118.026252.1411.0155282.03077.034488.13583.0437534.24242.0102949.118065.0263378.20315.0432386.22882.0181877.027455.0344021.12512.0497587.29988.0125255.142545.0317426.297415.0427239.344165.0277962.118575.0281394 1.01099.0003431 1.1135-.0113244.042075-.0308847.18564-.0434959.31909-.0145845.15572-.0323432.2567-.049244.28237-.0156997.023715-.0331153.112625-.0431528.21981-.0092654.099025-.0284826.20145-.0427239.22763s-.0342306.092905-.0444397.148325c-.0101233.05525-.0302842.11356-.0446112.12937-.0145845.01581-.0308847.069955-.0364612.12036-.0054906.05032-.024193.116195-.041437.1462-.0195532.0361961-.0339596.0748978-.0428096.115005-.0062627.033065-.0261662.078625-.0440965.10132-.0179303.02261-.0392922.07633-.0474424.119425-.0081501.043095-.0259946.09146-.0396354.10744-.0137265.016065-.0339732.06086-.045126.09962s-.0310563.07463-.0441823.07956c-.013126.005015-.0291689.03995-.0356032.077775s-.0259946.0867-.043496.1088c-.0194523.0258652-.0341474.054927-.0434102.08585-.0064343.025245-.0251367.05525-.0416943.066725-.0165577.011475-.0357748.046495-.0426381.077775-.0068633.031365-.026252.070465-.0427239.0867-.0165576.01649-.0353458.050405-.0416085.075395-.0063486.02499-.0306274.06188-.0539625.082025s-.0426381.04845-.0428097.06324c-.0002573.027455-.0762681.149175-.1369222.2193-.018874.02193-.0343164.048705-.0345737.0595-.0002574.02108-.0465845.08415-.1241394.168895-.0259947.028305-.047185.059925-.047185.070295 0 .0102-.019303.0408-.0428955.068s-.0428954.054825-.0428954.0612c0 .00663-.0211904.035105-.047185.063325-.0259089.02822-.0626274.071825-.0815013.096815-.018874.02499-.0536194.067405-.0772118.09435-.0357154.0421575-.0700496.085445-.1029491.129795-.0414725.0544503-.0858615.1066586-.1329759.1564-.0401501.041565-.0729222.08245-.0729222.090865s-.019303.022525-.0428955.03145-.0428954.02635-.0428954.039015c0 .01258-.0173298.039015-.0386059.05865-.0212762.019805-.0480429.04607-.0595389.058395-.0265952.02839-.0436675.045645-.1283431.12954l-.0857909.085-.0857909.085-.0857909.085c-.009437.00935-.0491582.048365-.0883646.0867-.0391207.03825-.1062949.10404-.1491046.1462-.0428096.042075-.0874209.0765-.0990027.0765-.0116675 0-.029941.019125-.0406648.0425-.0108097.023375-.0268526.0425-.035689.0425-.0088365 0-.0375764.020995-.0637427.04675-.026252.025755-.0617694.05797-.0788418.07174-.0171582.0136-.0663163.053805-.1092976.08908-.043067.03519-.0995174.081345-.1255978.10251-.0260805.021165-.0736086.062815-.1056944.09265l-.058252.05423.0917962.011305c.2062413.0255 1.0080429.00085 1.0583164-.03247.0261662-.01734.1040643-.037995.1775871-.04709.0720644-.00884.1477319-.02703.1684075-.04046.0206756-.013345.0903378-.03179.1549384-.0408.0763538-.01071.1301447-.02839.1539946-.050575.0201609-.018785.0688901-.03927.1083539-.04556.0394638-.006205.0756675-.02176.0806434-.03451s.0413512-.028305.0809008-.034595.0867346-.026095.1049223-.0442c.0181876-.017935.0575657-.04097.0875067-.051085.0333386-.0118413.0648871-.0281422.0937694-.04845.0272586-.019123.0578599-.0330722.090252-.04114.0279679-.00612.0583378-.024905.0673459-.041735.0091796-.017.0361179-.03553.0600536-.04148.0237641-.00595.0432386-.01853.0432386-.02805s.03363-.031535.0747239-.049045c.0411796-.017425.0794423-.043945.0852761-.058905.005748-.014875.0257373-.0272.0440965-.0272.0185308 0 .0452118-.01139.0593673-.0255.0284826-.02805.0725791-.033575.0868204-.01071.0051474.00816-.0053191.027795-.0231636.043775-.0177587.01598-.0370616.0476-.0428096.070295s-.0170724.041225-.0252225.041225c-.0081502 0-.0456408.03162-.0832172.07021-.0376622.03859-.0777265.078795-.0890509.08925s-.0583378.05542-.1044933.09979c-.0461555.044455-.0915389.08075-.1008901.08075s-.0235067.01156-.0314853.02567c-.0214477.037995-.2788203.24633-.304386.24633-.0120107 0-.0259947.0153-.0308847.033915-.0049759.018615-.0231636.0391-.0406649.045645-.0174156.00646-.0417802.0255-.0540483.0425-.0123539.017-.0304557.03094-.0403217.03094-.0098659 0-.0389491.020995-.0647721.04675-.0603968.06035-.1192493.104465-.1719249.129115-.0231636.010795-.0617695.0374-.0857909.059075l-.0703486.063155c-.0145844.013005-.0495871.03349-.0776407.04556-.0280536.0119-.0663164.03553-.084933.05219-.0785844.070465-.1419839.112625-.1856515.123505-.0255656.006375-.0539624.0255-.063142.042415-.0091797.017-.0329437.03604-.0527614.042245-.0197319.00629-.0506167.025925-.0686327.04369-.0179303.017765-.0480429.0323-.0669169.0323s-.0480429.013345-.0648579.02975c-.0502735.048875-.2026381.136-.2595175.14841-.0291689.006375-.0531045.01734-.0531045.02448s-.0289116.027625-.0643432.045475c-.0354316.017765-.0827882.04573-.1052654.06205-.0224772.01649-.0573941.02975-.077555.02975-.020075 0-.0649437.01921-.099689.0425-.0347453.02346-.0694048.0425-.0770402.0425s-.0485576.01819-.0909383.04029c-.0424665.0221-.1065523.045475-.1424129.05185-.0359464.006545-.0792708.02567-.0963432.0425-.0170723.017-.0609115.036295-.0977158.043095-.0366327.006715-.0793565.023545-.0948847.037315-.0154424.013855-.0748096.03162-.131689.03961s-.1252547.02975-.1518499.04845c-.0267667.018615-.086563.0391-.1328901.04539-.046327.006375-.1025201.02329-.1247399.037655-.022134.01445-.1071528.032895-.1887399.04114-.0951421.00952-.1597427.02482-.179303.042415-.0200751.01785-.0860483.03298-.1900268.04335-.0876783.008755-.1902842.02805-.2280322.04284-.0499303.01955-.1606863.030005-.4069061.038165-.1860805.006205-.3427346.015555-.3479679.020825-.012697.01258.0772976.106675.1158177.120955.0164719.00612.0301126.020995.0302842.03298.0002574.0119.028311.04471.06237.07276.1389812.11424.1661769.137615.2029812.17425.0211904.020995.0460697.03825.0553351.03825s.0314853.01615.0495014.0357c.0180161.019805.0617694.050575.0970295.068425.0354316.01785.0643431.03927.0643431.047345 0 .00816.0174156.019295.0386059.02465.0211904.005525.0609973.029325.0884504.052955s.0626274.042925.0781555.042925c.015614 0 .0544772.019125.0864772.0425s.0679464.0425.0798714.0425c.0120107 0 .0355174.01445.0524182.03213s.0746381.041055.1280858.05185c.0535335.010965.1063807.0306.1171903.043605.0108955.01309.0540483.028815.0959142.03502.0417802.006205.09437.0255.1166756.042925.0272815.02142.0917963.0374.1985201.0493.0869062.00986.1786167.02839.2037534.041225.047185.02414.1121287.031025.5775442.0612.150992.00986.301555.0221.3345845.027455l.0600536.00952-.0643432.03281c-.0353458.01802-.0643431.039015-.0643431.046665 0 .03281-.109555.057545-.3244612.07327-.1490187.01088-.2436461.02567-.2689544.04199-.1162466.075565-1.7688364.07514-1.8852547-.000425-.0295978-.01921-.1086112-.0323-.2573726-.042585-.141555-.00969-.2283754-.02363-.2546274-.04063-.0219624-.01428-.0916246-.03145-.1549383-.03825-.0715496-.00748-.1306595-.02431-.1563968-.04437-.0253941-.019805-.0891367-.03825-.164118-.0476-.0674316-.0085-.1355496-.02652-.1513351-.04029-.0157855-.013855-.0633994-.0306-.1058659-.03723-.0424665-.0068-.0934263-.026945-.113244-.04505-.0199035-.01802-.0759249-.0391-.1245684-.04675-.0486434-.00748-.1019195-.0255-.1183914-.03995-.0163002-.01428-.0568793-.031535-.0899088-.03825-.0330295-.0068-.075496-.02635-.09437-.04335-.018874-.01717-.067689-.03859-.1084397-.047685-.0408364-.009095-.0871635-.02771-.102949-.041395-.0158714-.013685-.0561073-.03349-.0894799-.0442-.0332869-.010455-.0737802-.034425-.0899089-.05304-.0160429-.0187-.0486434-.034-.0723217-.034s-.0583378-.015045-.0769544-.03349c-.0221447-.0204576-.0486941-.0356591-.0776408-.044455-.0240214-.00595-.050874-.02397-.0594531-.03995-.008579-.01598-.0474423-.03842-.0863056-.04998-.0387775-.01156-.0748096-.03196-.0800429-.045475-.0051474-.0136-.0238498-.02465-.0413512-.02465-.0175871 0-.0583378-.02295-.0905094-.051-.0322573-.02805-.0701769-.051-.0843324-.051-.0140697 0-.035689-.0119-.0479571-.02652s-.0459839-.03876-.0749812-.05355c-.0289974-.01479-.0628848-.041055-.0751529-.058395-.0123538-.017255-.03363-.03145-.0473565-.03145-.0137266 0-.038177-.0153-.0543057-.034-.0162144-.0187-.0379195-.034-.0482144-.034s-.0447829-.02295-.0765255-.051-.0628847-.051-.0692333-.051c-.0063485 0-.0323431-.019125-.057823-.0425s-.0531046-.0425-.0614263-.0425-.0199893-.0153-.0259946-.034c-.0060054-.0187-.0211904-.034-.0338874-.034-.0271099 0-.2112172-.14586-.3803968-.301325-.0226488-.020825-.0564504-.045985-.075067-.055845-.0187024-.009945-.0339732-.02924-.0339732-.042925s-.0093512-.024905-.0207614-.024905c-.0247936 0-.0214477.00306-.4300697-.402645-.4261233-.4233-.4070778-.40324-.4070778-.426785 0-.011305-.0113244-.02057-.0251367-.02057-.0137265 0-.0334584-.015555-.0437533-.03451s-.06074-.07616-.1121287-.127075l-.0935121-.09265v.209525c0 .151215.0071207.22355.0254799.2601.0140697.02788.0339732.111265.0443539.1853.0124397.088825.0293405.1445.0495871.1632.0169008.01564.0360322.05695.0426381.091715s.0228204.07395.0360322.087125c.0132118.01309.0326005.05491.0428954.09299s.0339732.085425.0525898.105145c.0185308.019805.0380054.0527.0432386.073355.0051475.0204.0195603.04114.0319142.0459.0123539.004675.0317427.036295.0429813.07021.0113244.034.0360321.078455.0549061.09894.0716354.078115.1339196.170595.1339196.19907 0 .01632.0154424.03366.0343164.03859.0187024.004845.0394638.02295.0459839.040205s.025823.041395.0429812.05355c.0171582.01224.0311421.03162.0311421.04301s.0211903.04012.047185.06375c.0259946.0238.0664879.06868.0900804.099705s.0641716.077265.0900804.102765c.0259947.025415.047185.054145.047185.06375s.019303.02992.0428955.045305c.0235925.0153.0428954.03825.0428954.050915 0 .01275.0160429.0272.0356032.0323.0212222.0066298.0378831.0230421.0446971.04403.0051474.01904.0237641.03927.0416943.04488.0178446.00561.032429.017.032429.0255 0 .00833.0236783.0391.0525898.06851.0501877.05083.0512172.054825.0231636.085595-.037748.041225-.0676891.04097-.0972869-.00085-.0128686-.018275-.0574799-.0408-.0991743-.05015-.0416086-.00918-.0837319-.02771-.093512-.04097-.009866-.013345-.0428955-.02975-.073437-.03638-.0304558-.00663-.0651153-.0255-.0769545-.04182-.0117533-.01632-.0469276-.03842-.0779839-.049045-.0360296-.0132116-.0700174-.0313506-.1009758-.05389-.0244504-.01904-.0547346-.034595-.0672601-.034595s-.0307131-.014705-.0403217-.03264c-.0097802-.017935-.0413512-.03774-.070177-.04403-.0288257-.00629-.0615978-.02601-.0729222-.04386-.0111528-.01785-.0295979-.03247-.0407507-.03247s-.0420375-.017935-.0688043-.03995c-.0290548-.0235505-.0598866-.0448627-.0922252-.06375-.1038069-.056525-.154252-.09367-.1628311-.11985-.0049758-.01547-.0274531-.03264-.0497587-.03825-.0427238-.01054-.1024343-.0544-.182134-.13345-.0259089-.025755-.0528472-.04675-.0597105-.04675s-.0300268-.01717-.0514745-.03825-.0494156-.04743-.0621126-.05865c-.0150882-.0136485-.0296819-.0278241-.0437534-.0425-.0113244-.012155-.0519035-.04879-.0900804-.08143s-.0694048-.068085-.0694048-.078795-.0160429-.023545-.0356032-.028645c-.0195604-.0051-.0394638-.024395-.0444397-.042925-.0065623-.0201806-.0225271-.0359982-.0428955-.0425-.0187024-.004845-.0382627-.02465-.0433244-.04403-.0051474-.01938-.0197319-.035275-.0324289-.035275-.0127829 0-.0313137-.01513-.0413512-.03366-.0099518-.018445-.0353459-.05168-.0563646-.07378-.1217373-.128095-.2571153-.30005-.2853405-.362355-.0090938-.019975-.0343164-.05576-.056193-.079475-.0705202-.0765-.1114424-.138125-.1232815-.18598-.0063486-.025755-.0195604-.04675-.0293405-.04675-.0097802 0-.0326006-.033405-.0509598-.07429-.0181877-.0408-.0440107-.08313-.0573083-.094095-.0132976-.01088-.0294263-.04794-.0359464-.08245-.0065201-.03434-.0257373-.07225-.0427239-.08398s-.0362895-.042585-.0428096-.06851-.0223056-.058735-.0351743-.07293c-.0128686-.014195-.032-.06307-.0422949-.10863-.0102949-.045475-.0330295-.10081-.050445-.122825-.0175014-.0221-.0372333-.06885-.0437534-.10387-.0066059-.03519-.0234209-.076585-.0374906-.092055-.0139839-.01547-.0332011-.083895-.0428096-.15215-.0099518-.071145-.0278821-.13158-.0422092-.14195-.0138981-.0102-.0324289-.070295-.0420375-.13685-.0096086-.06545-.0296836-.14093-.0447828-.167875-.0181877-.03247-.0325148-.1241-.0425523-.272-.0093512-.136595-.026252-.24939-.0435818-.29104-.0591957-.14178-.0594531-1.53595-.0002574-1.6575.0189598-.038845.0343164-.13498.0442681-.27693.0105523-.1513.022992-.22627.0409223-.2465.0141555-.01598.0312279-.074205.0379196-.129455.0126112-.103445.0390348-.1802.0621126-.1802.0072064 0 .018445-.04386.0249651-.09775.0064343-.05372.0259946-.12444.0434102-.15725.0211406-.0424638.0380361-.0868754.050445-.1326.0102949-.04012.0296837-.07735.0430671-.08245.0133833-.0051.0291689-.03706.0350026-.07123.0060054-.03417.0241931-.08126.0406649-.104635.0164719-.023375.0397212-.07174.0516461-.10744.0118392-.0357.0322574-.06902.0454692-.074035.0130402-.00493.0319142-.03927.0420375-.07616.0099518-.03689.0293405-.0714.0429813-.076585.0137265-.005185.0248793-.0204.0248793-.03383 0-.0136.0174156-.04182.0386059-.06307.0212762-.02125.0519893-.066725.0683754-.101235.0163002-.034425.0370616-.062645.0459839-.062645.009008 0 .0217909-.01717.0283968-.03825.0066916-.020995.0304557-.057375.0528471-.08075l.0748097-.078285c.018874-.01972.0341448-.041395.0341448-.048195 0-.0306.4026166-.43265.5507774-.55012.0603968-.047855.1261126-.10268.1459303-.12172.0199035-.01904.0435818-.03468.0526756-.03468.0090939 0 .0335443-.01938.0543057-.04301.0206756-.02363.0607399-.0476.0888793-.053125.02874-.005695.0511314-.020995.0511314-.034935 0-.013685.0231635-.033575.0514745-.0442.028311-.01054.0514746-.025585.0514746-.033405s.0338874-.02907.0754959-.04726c.0413512-.01819.0792708-.04352.0842467-.056355s.0296836-.028475.0549062-.03468c.0250509-.00629.0618552-.026435.0817587-.04471.0198177-.01836.0527614-.03332.0732654-.03332.0204182 0 .0579088-.01904.0832171-.04233.0253941-.02329.0662306-.047345.0907668-.05355.024622-.006035.0590241-.025245.0765255-.042585.0175013-.01734.0543914-.031535.0820161-.031535.0276246 0 .0718927-.01802.0986595-.04029.0266809-.022185.073008-.045645.1030348-.052105s.0634853-.022355.0742949-.035275c.0108097-.01292.0634853-.03247.116933-.043435.0535335-.01105.1146166-.033575.135807-.05015.0211903-.016405.0675174-.035275.102949-.041735.0355175-.006545.0772118-.02312.0924826-.03672.0154424-.013685.0806434-.03298.1447292-.042925.066488-.010285.137437-.03315.1648043-.05321.0736086-.05389.3159679-.05321.3903485.001105.0289974.02125.0878499.04522.1306596.05321.0428954.007905.0911099.026095.1072386.040545.0163002.014365.0577372.03128.092311.037655.0345737.006375.0791849.026605.0990884.04505.0199893.018445.0747239.039525.1218231.04675.0469276.00748.0990027.025755.1158177.040715.0165576.01496.06237.0323.1016622.038505s.0868204.0255.1056086.042925c.018874.017425.0676032.03655.1083539.0425.0407506.00595.0989168.024905.1292868.04199.0304558.01717.0826166.03621.1159893.042415.0334584.006205.0783271.025075.0999464.041905.0215335.01683.0845898.038845.1400107.049045.0554209.010115.1135871.02992.1292011.043945.0156997.01411.0394638.02567.0529329.02567.0473566.00017.1521931.03553.1763003.059415.0134692.01326.0726649.031875.1315174.041225.0589384.00935.1196783.02805.1349491.04165.0152708.013515.0645147.030005.1093834.03655.0449544.00663.1001179.02635.1226809.04386.0229062.01785.09111.03893.1559679.048025.0633136.00884.1278284.02737.1433565.04114.0155282.01377.0669169.03026.1141019.03655.047185.006375.105866.0255.130488.042755.0252225.017595.1038069.03944.1793887.04981.0740375.0102.1514209.029495.1720965.042925.0205898.013345.0789276.02924.1295442.035275.0506167.00595.113673.026265.1403539.044795.034059.0238.0941984.03808.2027239.048195.084933.00782.1716675.0255.1930295.03944.0212761.013855.1023485.032725.1801608.042075.084933.010115.1535657.02788.1718392.0442.0220482.01989.0901662.031875.2472493.043775.1192493.00901.2440751.02771.2774477.041565.0357748.01479.1716676.032555.3308097.043095.148504.00986.3124504.02924.3643539.043095.1304021.03468.5778016.03451.6933619-.00017.0464129-.01394.1729544-.033575.2813941-.04352.116933-.010795.2127614-.028475.2360107-.043605.0215335-.01394.0899089-.032555.1519357-.041225.0724075-.0102.1247399-.02771.1461877-.04896.0183592-.01819.0609115-.03825.0944557-.044455.0335443-.006205.0609973-.018445.0609973-.02703 0-.00867.0328579-.030855.0729223-.049385.1130724-.05219.3255764-.230945.3810831-.320535.0098659-.01581.0332869-.05423.0521609-.085425.0216709-.0349713.0460517-.0682213.0729222-.09945.0212761-.02346.0386059-.06171.0386059-.085 0-.023205.0150134-.0663.0332869-.095625.0183592-.02941.0412654-.102.050874-.16133.0096943-.05933.0294262-.1258.0439249-.14773.0337158-.051085.0339732-.175695.0003432-.22321-.0142413-.02023-.0345738-.1003-.0450403-.177735-.0105522-.07752-.0291689-.156485-.0416085-.175355-.0123539-.018785-.0317427-.087805-.0432386-.15317-.0113244-.06545-.0315711-.12682-.0448687-.13651-.0133834-.009605-.0316568-.05032-.0407506-.09044-.0090939-.04012-.0311421-.0935-.0489008-.118575-.0178446-.025075-.0376622-.075905-.0440108-.11305-.0064343-.036975-.0255657-.07701-.0425523-.088825-.0169865-.01173-.0360321-.04199-.0425522-.067235-.0093343-.0310478-.024116-.0602237-.0436676-.08619-.0200345-.0272613-.0346767-.0580352-.0431528-.090695-.0061769-.02771-.0254799-.057885-.0428954-.06715-.0199482-.01229-.0351698-.0308424-.0432387-.0527-.0063485-.01955-.0263378-.05032-.0446112-.068425-.0182735-.018105-.037748-.05559-.0433244-.0833-.0056622-.027795-.0211904-.05049-.0346595-.05049-.0134692 0-.0326006-.02295-.0424665-.051-.009866-.02805-.0247078-.051-.0329437-.051-.0083217 0-.0274531-.02397-.0428097-.05321-.0265951-.051-.0594531-.09214-.1380375-.172975-.0199035-.02057-.0416944-.05457-.0483861-.07565-.0066059-.02091-.0223056-.03825-.0346595-.03825-.0124397 0-.0363753-.02091-.0531045-.04675-.0407507-.06239-.6762038-.690455-.7246756-.716125-.020933-.011135-.0380912-.03094-.0380912-.04403 0-.013005-.0173297-.02907-.0386059-.0357-.0211903-.00646-.0706917-.04522-.1098123-.086105-.0392065-.0408-.0783271-.074205-.086992-.074205-.0085791 0-.0416086-.02295-.0730938-.050745-.0315711-.02788-.0715496-.05525-.0888794-.060605-.0174155-.00544-.031571-.02074-.031571-.034 0-.013175-.0194745-.0289-.0433244-.03485s-.0511314-.02516-.0606542-.042755c-.009437-.017595-.0274531-.032045-.0398069-.032045-.0123539 0-.0371475-.01615-.0551636-.0357-.0236811-.02402553-.0508644-.04439702-.0806434-.060435-.0458981-.02346-.0643432-.037485-.1534799-.11645-.0211046-.0187-.0674316-.04692-.1029491-.0629-.0354316-.01581-.0645147-.03689-.0645147-.04675 0-.009775-.0109812-.01785-.0244504-.01785-.0133834 0-.0470992-.018785-.0748097-.041905-.0277104-.02312-.0688043-.04998-.0913673-.059585-.022563-.00969-.0757533-.04437-.1182198-.077095s-.1099839-.074545-.150134-.09282c-.0401502-.01836-.0729223-.040375-.0729223-.049045s-.018874-.020485-.0422091-.02635c-.0231635-.005695-.0628847-.029495-.0882788-.052785-.0253083-.02329-.0589384-.04233-.0745523-.04233-.0156997 0-.0546488-.019125-.0866488-.0425s-.0679464-.0425-.0797855-.0425c-.0120107 0-.0356032-.014535-.052504-.032385s-.0626274-.0408-.1016622-.051085c-.0389491-.010285-.0800429-.02975-.0912815-.043095-.0111529-.013345-.0428955-.029155-.0706059-.03519-.0276247-.006035-.0598821-.024395-.0717212-.040885-.0117534-.016405-.0446113-.03519-.0729223-.041735-.0783271-.017935-.1458445-.04709-.1458445-.0629 0-.00782-.0263378-.019125-.0585952-.025075-.0321715-.00595-.0745522-.02567-.0941126-.043775-.0196461-.01802-.0707774-.039355-.1136729-.04726-.0428954-.00799-.0912815-.02618-.1074102-.04063-.0162144-.01445-.0590241-.031535-.0951421-.03825-.0360321-.006545-.0785844-.02567-.0943699-.04233-.0157856-.01666-.0743807-.03859-.1302306-.04879-.0557641-.0102-.1142734-.030005-.1298874-.043945-.0156139-.014025-.0657158-.0306-.1113566-.03672-.0456407-.006205-.0971152-.02533-.114445-.0425-.0195603-.01938-.0686327-.03502-.1302306-.04165-.0543914-.005695-.1297158-.02414-.1674638-.04097s-.1179624-.03876-.1783592-.04879c-.060311-.01003-.1229384-.03009-.1391528-.044625-.0195604-.01751-.0875067-.03145-.2016086-.041225-.0946274-.00816-.1980054-.026605-.2296622-.04097-.0317426-.01445-.1527078-.03434-.269126-.04437-.1325469-.011475-.2318928-.028985-.2659518-.04675-.0469276-.02448-.1346916-.029495-.6304772-.03587l-.576-.00731-.1360643-.12461c-.1870241-.171275-.2084719-.1887-.3162252-.25466-.0519035-.03179-.1123861-.073355-.1344343-.092225-.0220483-.018955-.0499303-.034425-.0620268-.034425-.0120108 0-.0403218-.014195-.0628848-.031535-.0224772-.01734-.0698337-.040885-.1050938-.052275-.0353458-.01139-.0705201-.031875-.0782413-.045475-.0076354-.0136-.0535335-.03094-.1018338-.038505-.048386-.00765-.1069812-.026095-.1301447-.04114-.0231636-.015045-.0835604-.03264-.134177-.0391-.0954852-.011985-.1521072-.03315-.1724397-.06426-.0137265-.02091-.8544772-.03196-.9661769-.01275" fill="#ba2bd2"/></g></svg>