<?xml version="1.0" encoding="UTF-8"?><svg width="32px" height="34px" viewBox="0 0 32 34" version="1.1" xmlns="http://www.w3.org/2000/svg" xmlns:xlink="http://www.w3.org/1999/xlink"><g id="assets" stroke="none" stroke-width="1" fill="none" fill-rule="evenodd"><g transform="translate(-286.000000, -523.000000)" fill-rule="nonzero" id="ngrx"><g transform="translate(286.000000, 523.000000)"><polyline id="Shape" fill="#4A4A4A" points="15.9742627 0 0 5.644 2.43646113 26.571 15.9742627 34 29.5120643 26.571 31.9485255 5.644"></polyline><polyline id="Shape" fill="#545454" points="15.9571046 0 15.9571046 3.774 15.9571046 3.757 15.9571046 34 29.4949062 26.571 31.9313673 5.644"></polyline><path d="M12.7924504,7.149945 C12.7482949,7.15845142 12.705163,7.17152812 12.6637641,7.18896 C12.6307346,7.20392 12.5689651,7.221855 12.5264987,7.22874 C12.4840322,7.23571 12.4308418,7.255685 12.4083646,7.273195 C12.3858874,7.290705 12.3464236,7.304985 12.3208579,7.304985 C12.2951206,7.304985 12.253941,7.323515 12.229319,7.346125 C12.2046113,7.36882 12.1684933,7.392365 12.1490188,7.398485 C12.1295442,7.404605 12.0949705,7.42815 12.0720643,7.450845 C12.0491582,7.473455 12.0223914,7.491985 12.0125255,7.491985 C12.0026595,7.491985 11.9945952,7.50363 11.9945952,7.51791 C11.9945952,7.53219 11.9763217,7.55072 11.9540161,7.559135 C11.9317105,7.567465 11.9094048,7.590245 11.9042574,7.60971 C11.8991099,7.62909 11.8825523,7.644985 11.8675389,7.644985 C11.8524397,7.644985 11.8401716,7.652635 11.8401716,7.662155 C11.8401716,7.671505 11.817008,7.703295 11.7886971,7.73262 C11.7603861,7.76203 11.7372225,7.792035 11.7372225,7.799345 C11.7372225,7.806655 11.7217802,7.817535 11.7029062,7.823485 C11.6840322,7.829435 11.6685898,7.84193 11.6685898,7.851365 C11.6685898,7.87219 11.5567185,7.991615 11.3511635,8.190685 C11.2662306,8.272965 11.1771796,8.35975 11.1531582,8.38355 C11.1292225,8.40735 11.1040858,8.4269 11.0973941,8.4269 C11.0905308,8.4269 11.0507239,8.46141 11.0088579,8.5034 C10.966992,8.54556 10.9258123,8.5799 10.917319,8.5799 C10.9087399,8.5799 10.8884933,8.594605 10.872193,8.612455 C10.8558928,8.630305 10.8190027,8.65453 10.7900912,8.66643 C10.7611796,8.678245 10.7199142,8.70383 10.6982949,8.72321 C10.6227989,8.79087 10.5615442,8.8298 10.5112708,8.84204 C10.4833029,8.84884 10.450445,8.86856 10.4383485,8.885815 C10.4259946,8.903155 10.390992,8.922705 10.3605362,8.929335 C10.3299946,8.93605 10.2967936,8.952625 10.286756,8.96631 C10.2765469,8.97991 10.2315067,8.99793 10.1865523,9.00626 C10.1415979,9.01459 10.0854906,9.036435 10.0618981,9.05471 C10.0383056,9.07324 9.98297051,9.093385 9.93870241,9.099675 C9.89452011,9.105965 9.84553351,9.122285 9.82974799,9.13597 C9.81138874,9.151865 9.73160322,9.16674 9.60669169,9.17745 C9.49979625,9.186545 9.38715282,9.205415 9.35643968,9.219355 C9.32581233,9.233295 9.20673458,9.252505 9.09194638,9.26228 C8.96669169,9.272905 8.86803217,9.28982 8.84529759,9.30461 C8.82436461,9.318125 8.75864879,9.33691 8.69893834,9.346515 C8.62704558,9.35799 8.58312064,9.37448 8.56819303,9.39556 C8.55583914,9.412985 8.52341019,9.43211 8.49612869,9.43806 C8.46876139,9.44401 8.43281501,9.463815 8.41634316,9.48192 C8.39961394,9.50011 8.37567828,9.514985 8.36298123,9.514985 C8.33681501,9.514985 8.13400536,9.710145 8.13400536,9.735305 C8.13400536,9.744315 8.11959249,9.76531 8.10200536,9.782055 C8.08433244,9.7988 8.06056836,9.84113 8.04924397,9.876065 C8.03783378,9.911085 8.01793029,9.945595 8.00506166,9.952735 C7.99064879,9.960725 7.97452011,10.022095 7.9632815,10.111855 C7.95315818,10.19218 7.9341126,10.29537 7.92064343,10.341185 C7.90185523,10.40553 7.89507775,10.585135 7.8907882,11.129985 C7.88538338,11.81279 7.88401072,11.83744 7.84892225,11.896345 C7.82622476,11.935668 7.80710379,11.9769139 7.79178552,12.019595 C7.78037534,12.053935 7.7637319,12.081985 7.75489544,12.081985 C7.74580161,12.081985 7.73181769,12.099325 7.72375335,12.120575 C7.69724397,12.189595 7.32405362,12.57813 7.16473995,12.702485 C7.12879357,12.730535 7.07551743,12.77414 7.04617694,12.799385 C7.01700804,12.824545 6.97162466,12.862795 6.94554424,12.884385 C6.90547989,12.917365 6.67633244,13.14151 6.55605362,13.265185 C6.53683646,13.28499 6.52113673,13.30845 6.52113673,13.31746 C6.52113673,13.32647 6.49797319,13.359535 6.4696622,13.390985 C6.44135121,13.422435 6.41818767,13.460855 6.41818767,13.47641 C6.41818767,13.491965 6.40308847,13.51823 6.38472922,13.53472 C6.36628418,13.551295 6.34269169,13.60544 6.33239678,13.65508 C6.3218445,13.70472 6.30219839,13.75453 6.28864343,13.76575 C6.25269705,13.795245 6.25389812,14.12853 6.29035925,14.21455 C6.3049437,14.24923 6.32493298,14.366445 6.33497051,14.475075 C6.34535121,14.587785 6.36371046,14.688595 6.37760858,14.70959 C6.39107775,14.729905 6.40917962,14.8087 6.41793029,14.884605 C6.4291689,14.9821 6.44366756,15.03327 6.46726005,15.058345 C6.48570509,15.077895 6.50595174,15.121925 6.51230027,15.156095 C6.51873458,15.190435 6.53786595,15.233785 6.55502413,15.252485 C6.57218231,15.271185 6.59139946,15.31139 6.59791957,15.341905 C6.60435389,15.372335 6.62417158,15.404975 6.64193029,15.414325 C6.66080429,15.424355 6.67813405,15.45759 6.68396783,15.494905 C6.68937265,15.529925 6.70653083,15.59665 6.72214477,15.64323 C6.76246649,15.76359 6.76289544,16.17924 6.72274531,16.263985 C6.70730295,16.29671 6.68954424,16.35944 6.6832815,16.403385 C6.67701877,16.44733 6.65342627,16.508105 6.63094906,16.53845 C6.60821448,16.568795 6.58976944,16.604665 6.58976944,16.618265 C6.58976944,16.65269 6.47609651,16.818865 6.44435389,16.83102 C6.42994102,16.83646 6.41818767,16.85618 6.41818767,16.87488 C6.41818767,16.893495 6.40274531,16.916955 6.38387131,16.926985 C6.36499732,16.937015 6.34955496,16.95614 6.34955496,16.969485 C6.34955496,16.98283 6.3275067,17.018955 6.30065416,17.04964 C6.27354424,17.08024 6.24634853,17.133365 6.24,17.167535 C6.23373727,17.201535 6.21717962,17.238935 6.2032815,17.250325 C6.16742091,17.27982 6.1684504,17.522325 6.20465416,17.59177 C6.2193244,17.61982 6.23785523,17.7004 6.24583378,17.77078 C6.25578552,17.85918 6.27071314,17.91001 6.29404826,17.93551 C6.31266488,17.955825 6.33299732,17.993735 6.33917426,18.01966 C6.34535121,18.045585 6.36576944,18.081965 6.38430027,18.10041 C6.40291689,18.118855 6.41818767,18.14767 6.41818767,18.164415 C6.41818767,18.181245 6.45293298,18.23284 6.49539946,18.279165 C6.53778016,18.325575 6.58376408,18.386435 6.59731903,18.414485 C6.61104558,18.442535 6.63798391,18.47509 6.65745845,18.486905 C6.67684718,18.498635 6.6927185,18.518865 6.6927185,18.531785 C6.6927185,18.54479 6.70438606,18.55975 6.71862735,18.56519 C6.73286863,18.57063 6.75337265,18.594345 6.7642681,18.61789 C6.77516354,18.641605 6.79463807,18.660985 6.8075067,18.660985 C6.82046113,18.660985 6.83607507,18.67433 6.84208043,18.690735 C6.84817158,18.70714 6.86919035,18.736805 6.88875067,18.756695 C6.90831099,18.77667 6.96682038,18.840675 7.01872386,18.898985 C7.07062735,18.957295 7.14912601,19.043485 7.19296515,19.09066 C7.23689008,19.13775 7.27738338,19.19861 7.28287399,19.22598 C7.2884504,19.25335 7.30775335,19.294405 7.32585523,19.317185 C7.3439571,19.339965 7.36403217,19.396745 7.37055228,19.443325 C7.3769866,19.489905 7.38831099,19.527985 7.3957748,19.527985 C7.41379088,19.527985 7.44270241,19.60661 7.45376944,19.68549 C7.45874531,19.72068 7.47804826,19.768705 7.49666488,19.79225 C7.51536729,19.815795 7.53578552,19.86535 7.54213405,19.902495 C7.54848257,19.93964 7.55972118,19.969985 7.56718499,19.969985 C7.58468633,19.969985 7.61488472,20.046315 7.62895442,20.126045 C7.63495979,20.16047 7.65014477,20.1926 7.66284182,20.197445 C7.67553887,20.202205 7.69587131,20.238925 7.70796783,20.27896 C7.72006434,20.31891 7.74365684,20.365235 7.76038606,20.38181 C7.77711528,20.398385 7.79084182,20.43434 7.79084182,20.46171 C7.79084182,20.48891 7.80911528,20.53294 7.83142091,20.55946 C7.85372654,20.58581 7.87791957,20.62661 7.8852118,20.649985 C7.89250402,20.67336 7.91292225,20.71076 7.93050938,20.73303 C7.94801072,20.7553 7.96242359,20.78726 7.96242359,20.804005 C7.96242359,20.820665 7.98129759,20.856535 8.00420375,20.883565 C8.02719571,20.910595 8.05104558,20.952755 8.05722252,20.977065 C8.06339946,21.001545 8.07892761,21.025515 8.09171046,21.03036 C8.10457909,21.035205 8.12465416,21.07201 8.13657909,21.1123 C8.14858981,21.15259 8.17209651,21.195515 8.18899732,21.20767 C8.20598391,21.21991 8.21988204,21.24099 8.21988204,21.25459 C8.21988204,21.26819 8.23541019,21.292585 8.25462735,21.30882 C8.27375871,21.32497 8.29717962,21.367045 8.30670241,21.40215 C8.3162252,21.437255 8.33123861,21.4659 8.34016086,21.4659 C8.34891153,21.4659 8.38674531,21.513755 8.42423592,21.57215 C8.46172654,21.630715 8.50436461,21.6937 8.51894906,21.7124 C8.58003217,21.7906 8.63184987,21.86795 8.64900804,21.90671 C8.65904558,21.92932 8.68435389,21.96451 8.70520107,21.98508 C8.72604826,22.00548 8.75676139,22.0405 8.77340483,22.062855 C8.85971046,22.178455 8.92491153,22.260055 8.95656836,22.29227 C8.9760429,22.31199 8.99191421,22.33664 8.99191421,22.347095 C8.99191421,22.357635 9.01121716,22.378715 9.03480965,22.394015 C9.05840214,22.409315 9.07770509,22.42946 9.07770509,22.43864 C9.07770509,22.44782 9.09889544,22.475785 9.12489008,22.50069 C9.15079893,22.525765 9.21068097,22.59079 9.25786595,22.64519 C9.30505094,22.69976 9.38415013,22.787565 9.43373727,22.84035 C9.4833244,22.89305 9.52381769,22.94592 9.52381769,22.95765 C9.52381769,22.96938 9.53385523,22.9789 9.54612332,22.9789 C9.57391957,22.9789 9.69539946,23.10062 9.69539946,23.128415 C9.69539946,23.13972 9.70509383,23.14924 9.71684718,23.149495 C9.74430027,23.15009 9.84107239,23.237045 9.86620912,23.28354 C9.87676139,23.303005 9.89400536,23.318985 9.90464343,23.318985 C9.92240214,23.318985 9.97765147,23.366415 10.2232708,23.592685 C10.2730295,23.6385 10.3210724,23.675985 10.3303378,23.675985 C10.3396032,23.675985 10.3567614,23.691285 10.3685147,23.709985 C10.3803539,23.728685 10.3994853,23.743985 10.4111528,23.743985 C10.4229062,23.743985 10.4450402,23.76311 10.4604826,23.786485 C10.4760107,23.80986 10.4978874,23.828985 10.5093834,23.828985 C10.5207078,23.828985 10.5565684,23.852105 10.5888257,23.88041 C10.6211689,23.908715 10.6726434,23.95266 10.703185,23.97816 C10.7337265,24.00366 10.7946381,24.05704 10.838563,24.096905 C10.8824021,24.13677 10.9355067,24.178845 10.9564397,24.190405 C11.0454906,24.239535 11.1366863,24.306685 11.1366863,24.323005 C11.1366863,24.33278 11.1592493,24.348505 11.1867882,24.358025 C11.2143271,24.367545 11.2410938,24.38633 11.2463271,24.399675 C11.2514745,24.41302 11.2661448,24.423985 11.2789276,24.423985 C11.2916247,24.423985 11.328,24.446935 11.3597426,24.474985 C11.3914853,24.503035 11.4264021,24.525985 11.4373834,24.525985 C11.4483646,24.525985 11.4713566,24.541285 11.488429,24.559985 C11.5055871,24.578685 11.5282359,24.593985 11.5390456,24.593985 C11.5495979,24.593985 11.5851153,24.616595 11.6178016,24.644305 C11.6504021,24.67193 11.6895228,24.69488 11.7045362,24.695305 C11.7195496,24.695645 11.7458874,24.711285 11.7629598,24.729985 C11.780118,24.748685 11.8047399,24.763985 11.817866,24.763985 C11.830992,24.763985 11.8603324,24.78243 11.883067,24.804785 C11.9057158,24.827395 11.9510992,24.854595 11.9837855,24.865305 C12.0165576,24.87593 12.0525898,24.89582 12.0639142,24.909335 C12.0753244,24.922935 12.0946273,24.933985 12.1068954,24.933985 C12.1191635,24.933985 12.152193,24.95311 12.1803324,24.976485 C12.2083861,25.00003 12.2547989,25.02383 12.2833673,25.02944 C12.3120214,25.035135 12.3498552,25.053155 12.3675282,25.06939 C12.3852869,25.085795 12.4275818,25.108235 12.4616408,25.11937 C12.4956139,25.13042 12.5273566,25.14963 12.5320751,25.16187 C12.5368794,25.174195 12.575571,25.192895 12.6181233,25.20352 C12.6606756,25.214145 12.7066595,25.23395 12.7204718,25.24755 C12.7341984,25.26115 12.7676568,25.277555 12.794681,25.283845 C12.8217909,25.29022 12.8593673,25.30926 12.8782413,25.326175 C12.8971153,25.34309 12.9460161,25.36434 12.986681,25.373435 C13.0275174,25.38253 13.0738445,25.4014 13.08963,25.41551 C13.1055013,25.42962 13.1476247,25.44645 13.1832279,25.45291 C13.2188311,25.45954 13.257437,25.477985 13.2690188,25.493965 C13.2808579,25.51037 13.3344772,25.53179 13.3916997,25.54301 C13.4475496,25.55406 13.5054584,25.573865 13.5203861,25.58704 C13.5352279,25.6003 13.577437,25.61662 13.6140697,25.623335 C13.6507882,25.630135 13.6944558,25.649175 13.711185,25.66575 C13.7288579,25.68326 13.7895979,25.70315 13.8566863,25.713605 C13.92,25.72338 13.9845147,25.742505 13.9999571,25.756105 C14.0152279,25.769705 14.0646434,25.786365 14.1095121,25.79291 C14.1544665,25.79954 14.2101448,25.819685 14.2333083,25.837705 C14.2605898,25.858955 14.3203003,25.87553 14.4027453,25.884625 C14.4728365,25.892445 14.5522788,25.910975 14.5793029,25.925765 C14.6062413,25.940555 14.6813941,25.960275 14.746252,25.96954 C14.8110241,25.978805 14.8771689,25.9981 14.893126,26.01238 C14.9123432,26.029635 14.9832922,26.04366 15.1036568,26.05403 C15.2035174,26.06253 15.3112708,26.08123 15.3428418,26.095595 C15.3745845,26.10979 15.4873137,26.12951 15.5935228,26.139285 C15.7052225,26.149485 15.8093727,26.16878 15.8408579,26.18493 C15.9776086,26.25497 17.957319,26.25412 18.0975013,26.18391 C18.1298445,26.16776 18.2382842,26.14906 18.3634531,26.13818 C18.4796997,26.12798 18.5954316,26.10928 18.6208257,26.09653 C18.6460483,26.08378 18.7575764,26.06542 18.8685898,26.05573 C19.00637,26.04383 19.0797212,26.02989 19.0997962,26.011955 C19.1159249,25.997505 19.1858445,25.97838 19.2551635,25.969455 C19.3244826,25.960615 19.4019517,25.94183 19.4273458,25.927805 C19.4527399,25.91378 19.5375013,25.894315 19.6156568,25.884625 C19.6938981,25.874935 19.7619303,25.860825 19.7669062,25.853515 C19.7832064,25.828865 19.8435174,25.805065 19.9213298,25.792315 C19.9635389,25.785345 20.0146702,25.76894 20.0347453,25.755765 C20.0549062,25.742845 20.1198499,25.723635 20.1789598,25.713265 C20.2381555,25.70298 20.2997534,25.68139 20.3159678,25.665325 C20.3322681,25.649175 20.3791957,25.630815 20.4204611,25.62427 C20.4618123,25.617725 20.5079678,25.601235 20.523067,25.58772 C20.5381662,25.57412 20.5868954,25.55627 20.6313351,25.54811 C20.6759464,25.539865 20.726563,25.5204 20.7438928,25.50476 C20.7613083,25.48912 20.8052332,25.46821 20.8416944,25.458265 C20.8779839,25.44832 20.9254263,25.42639 20.9472172,25.409475 C20.9687507,25.392645 21.0176515,25.373605 21.0558284,25.36723 C21.0939196,25.360855 21.1292654,25.34496 21.1343271,25.331955 C21.1393029,25.31895 21.1755067,25.29906 21.2146273,25.287755 C21.253748,25.27645 21.2918391,25.257495 21.2992172,25.245595 C21.3065952,25.233695 21.3452011,25.21559 21.385008,25.205305 C21.4247292,25.194935 21.4653083,25.176405 21.4750885,25.164165 C21.4922466,25.14232 21.5686005,25.099225 21.6889651,25.043465 C21.7219946,25.028165 21.7644611,25.00207 21.7833351,24.985325 C21.8022091,24.96858 21.8357534,24.949455 21.8579732,24.94274 C21.8801072,24.93611 21.9127078,24.916305 21.9304665,24.89871 C21.9481394,24.8812 21.9827989,24.86182 22.0074209,24.8557 C22.0320429,24.84958 22.0727936,24.82595 22.0979303,24.803 C22.123067,24.780305 22.1556676,24.750895 22.1703378,24.737805 C22.185008,24.724715 22.2255871,24.702105 22.2604182,24.687655 C22.2952493,24.673375 22.3239035,24.653825 22.3239035,24.644305 C22.3239035,24.634955 22.3446649,24.61787 22.3702306,24.606395 C22.3957105,24.59492 22.4338874,24.570185 22.4551635,24.551485 C22.5394102,24.47728 22.6125898,24.423985 22.6301769,24.423985 C22.6403003,24.423985 22.656429,24.409535 22.6659517,24.39194 C22.6754745,24.374345 22.7028418,24.35505 22.7266059,24.3491 C22.7504558,24.34315 22.7699303,24.326745 22.7699303,24.31255 C22.7699303,24.298525 22.7833995,24.28195 22.7999571,24.276 C22.8165147,24.269965 22.8460268,24.24914 22.8656729,24.22976 C22.8854048,24.21038 22.9162895,24.1825 22.9343056,24.16771 C23.0550992,24.06996 23.2626273,23.885935 23.2813298,23.86001 C23.2936836,23.842925 23.3140161,23.828985 23.3265416,23.828985 C23.339067,23.828985 23.3534799,23.81309 23.3586273,23.79371 C23.3654584,23.7725811 23.3821705,23.7560231 23.403496,23.749255 C23.4230563,23.744155 23.4390992,23.732085 23.4390992,23.72248 C23.4390992,23.71279 23.4819946,23.662045 23.5344987,23.609685 C23.6480858,23.496295 23.6432815,23.501565 23.7984772,23.319155 C23.8659946,23.23985 23.9324826,23.168705 23.9461233,23.161055 C23.9598499,23.153405 23.9710027,23.13666 23.9710027,23.12357 C23.9710027,23.110565 23.9849866,23.08991 24.0021448,23.07767 C24.0193029,23.065515 24.0386059,23.041375 24.045126,23.02412 C24.0535598,23.0051051 24.0697934,22.9905677 24.0897373,22.98417 C24.1077534,22.97958 24.1271421,22.957735 24.1327185,22.935635 C24.1382949,22.913535 24.1621448,22.87486 24.1856515,22.8497 C24.2091582,22.824625 24.2283753,22.797765 24.2283753,22.7902 C24.2283753,22.78255 24.2448472,22.76113 24.2649223,22.742515 C24.2850831,22.723985 24.310134,22.694405 24.3206863,22.67681 C24.3719035,22.591385 24.4172869,22.52585 24.4430241,22.50018 C24.4587239,22.484625 24.4843753,22.44901 24.5000751,22.420875 L24.5664772,22.302555 C24.5873244,22.265495 24.6163217,22.230645 24.6308204,22.22512 C24.6454048,22.219595 24.6574155,22.203445 24.6574155,22.189335 C24.6574155,22.156525 24.773319,21.975985 24.7943378,21.975985 C24.8030885,21.975985 24.815185,21.949465 24.8213619,21.91708 C24.8274531,21.884695 24.8433244,21.84925 24.856622,21.83837 C24.8699196,21.82732 24.8962574,21.78703 24.9151314,21.748525 C24.9470456,21.683415 24.9688365,21.642785 25.0299196,21.533985 C25.0431314,21.51061 25.0657802,21.464965 25.0805362,21.43258 C25.0951206,21.400195 25.1172547,21.36577 25.1296944,21.35608 C25.1422198,21.34639 25.1607507,21.30678 25.1709598,21.26819 C25.1812547,21.2296 25.2004718,21.188885 25.2140268,21.17775 C25.227496,21.1667 25.2437105,21.133295 25.250059,21.103545 C25.2564075,21.073795 25.2756247,21.034185 25.2927828,21.015485 C25.3100268,20.996785 25.3334477,20.94451 25.3448579,20.89929 C25.3562681,20.85407 25.3760858,20.8131 25.3889544,20.808255 C25.4039678,20.80256 25.4116032,20.774085 25.4104021,20.72895 C25.4092011,20.69019 25.4048257,20.67149 25.400622,20.68747 C25.3964182,20.703365 25.3760858,20.72164 25.3554102,20.728015 C25.3348204,20.73439 25.293126,20.759465 25.262756,20.78403 C25.1550885,20.8709 25.1115067,20.900395 25.0734155,20.91221 C25.0522252,20.91884 25.0348097,20.93091 25.0348097,20.93924 C25.0348097,20.957855 24.8683753,21.06708 24.8160429,21.08272 C24.7948525,21.089095 24.777437,21.101165 24.777437,21.10958 C24.777437,21.127685 24.6111743,21.235635 24.5572976,21.25255 C24.5367936,21.25901 24.5200643,21.271845 24.5200643,21.28111 C24.5200643,21.29029 24.485319,21.313155 24.4428525,21.33177 C24.4003861,21.350385 24.3656408,21.372315 24.3656408,21.380475 C24.3656408,21.388635 24.3395603,21.40385 24.3076461,21.414305 C24.2757319,21.42476 24.2364397,21.44788 24.2201394,21.465645 C24.2038391,21.483495 24.1687507,21.50279 24.1422413,21.50857 C24.1157319,21.51435 24.0899088,21.52965 24.0848472,21.54257 C24.0797855,21.555575 24.0428097,21.57504 24.0023164,21.58575 C23.9619946,21.596545 23.9190992,21.619325 23.9070885,21.636325 C23.8950777,21.653325 23.8628204,21.672195 23.8354531,21.677975 C23.8081716,21.683925 23.7729115,21.70305 23.7572118,21.720305 C23.7414263,21.737475 23.7003324,21.756855 23.6659303,21.76323 C23.6314424,21.76969 23.5933512,21.7889 23.5812547,21.80607 C23.5690724,21.82324 23.5340697,21.842535 23.5034424,21.848995 C23.4727292,21.855455 23.4348097,21.872115 23.4188525,21.885885 C23.403067,21.89974 23.3575979,21.918185 23.3178767,21.92711 C23.2781555,21.93595 23.2271957,21.957625 23.2046327,21.97522 C23.1819839,21.992815 23.1329115,22.01228 23.0954209,22.01857 C23.0579303,22.02486 23.0273029,22.036335 23.0273029,22.04407 C23.0273029,22.061495 22.9415979,22.08827 22.8405362,22.10255 C22.799185,22.10833 22.7472815,22.127115 22.725319,22.1442 C22.7023271,22.16222 22.6402145,22.180495 22.5794745,22.187295 C22.5213083,22.19384 22.4573083,22.209735 22.437319,22.22257 C22.3257909,22.29448 22.0904665,22.256995 22.1620161,22.178625 C22.1784021,22.16069 22.2025094,22.145985 22.2154638,22.145985 C22.228504,22.145985 22.2437748,22.134085 22.2493512,22.119635 C22.2613619,22.08861 22.4335442,21.975985 22.4690617,21.975985 C22.482445,21.975985 22.5042359,21.960855 22.5172761,21.942325 C22.5303164,21.923795 22.5693512,21.896935 22.6040107,21.88257 C22.6386702,21.86829 22.6669812,21.84942 22.6669812,21.84092 C22.6669812,21.832335 22.6843968,21.819925 22.7055871,21.813295 C22.7268633,21.80675 22.7690724,21.78142 22.7993566,21.75694 C22.9065952,21.67041 22.9556676,21.635985 22.9717962,21.635985 C22.9806327,21.635985 23.0113458,21.61499 23.04,21.589235 C23.1455228,21.49463 23.1856729,21.465645 23.2255657,21.4557 C23.2479571,21.450175 23.2710349,21.43105 23.2766113,21.4132 C23.2823592,21.39552 23.2941984,21.3809 23.3032064,21.3809 C23.3119571,21.3809 23.3359786,21.36186 23.3564826,21.3384 C23.3770724,21.31511 23.4009223,21.2959 23.4096729,21.2959 C23.418252,21.2959 23.446134,21.27499 23.4715282,21.24915 C23.4969223,21.22348 23.5827131,21.14511 23.6622413,21.0749 C23.8803217,20.88263 24.0258231,20.734475 24.2713566,20.4544 C24.2958928,20.42635 24.3483968,20.3677 24.3880322,20.32418 C24.4275818,20.28066 24.4715925,20.22609 24.4858338,20.203055 C24.5512922,20.09621 24.6076568,20.020985 24.6220697,20.020985 C24.6307346,20.020985 24.6432601,20.00373 24.6499517,19.982735 C24.6565576,19.96174 24.6802359,19.922895 24.7025416,19.89646 C24.7248472,19.870025 24.7431206,19.83883 24.7431206,19.82727 C24.7431206,19.815625 24.7624236,19.789445 24.7860161,19.76913 C24.8096086,19.74873 24.8289115,19.71983 24.8289115,19.704785 C24.8289115,19.68974 24.8482145,19.654635 24.871807,19.626925 C24.8953995,19.59913 24.9147024,19.565895 24.9147024,19.553145 C24.9147024,19.540395 24.9291153,19.51991 24.9467024,19.50767 C24.9642895,19.495515 24.984193,19.46092 24.9907989,19.431 C24.9974048,19.40108 25.016622,19.359005 25.0335228,19.3375 C25.0503378,19.31608 25.0735871,19.26984 25.0850831,19.234905 C25.0965791,19.199885 25.1157962,19.16546 25.1277212,19.158405 C25.1397319,19.151265 25.1589491,19.107235 25.1706166,19.060485 C25.1822842,19.013735 25.2020161,18.96401 25.2145416,18.949985 C25.227067,18.93596 25.2454263,18.894905 25.255378,18.858695 C25.265244,18.82257 25.2855764,18.779645 25.3004182,18.763325 C25.3153458,18.747005 25.3348204,18.689375 25.3436568,18.635485 C25.3524933,18.58151 25.3709383,18.524985 25.3844933,18.509855 C25.3982198,18.49481 25.4145201,18.444235 25.4208686,18.397485 C25.4273029,18.350735 25.4471206,18.291915 25.4650509,18.26684 C25.4864987,18.23675 25.5036568,18.16756 25.5154102,18.06471 C25.5251903,17.97869 25.5443217,17.88825 25.5578767,17.863855 C25.5714316,17.83946 25.5906488,17.7395 25.6007721,17.64175 C25.6124397,17.52615 25.6291689,17.44897 25.6485576,17.42075 C25.6809008,17.373575 25.7051796,15.945575 25.677126,15.73758 L25.664429,15.643485 L25.6456408,15.71429 C25.6353458,15.753135 25.6138981,15.799035 25.5981126,15.81629 C25.5823271,15.83346 25.5640536,15.868735 25.5575335,15.89466 C25.5510134,15.920585 25.5321394,15.951185 25.5155818,15.96266 C25.4990241,15.974135 25.4800643,16.007965 25.4735442,16.03797 C25.4668525,16.06789 25.4475496,16.109965 25.4306488,16.13147 C25.4124615,16.1551237 25.3979454,16.1813385 25.3875818,16.209245 C25.3808043,16.230495 25.3566971,16.268065 25.3337051,16.292545 C25.3108847,16.31694 25.2921823,16.349665 25.2921823,16.365135 C25.2921823,16.38069 25.2728794,16.41928 25.2492869,16.450985 C25.2256944,16.48269 25.2063914,16.518135 25.2063914,16.529865 C25.2063914,16.54151 25.1919786,16.56106 25.1743914,16.573215 C25.1568043,16.585455 25.1370724,16.61954 25.1306381,16.648865 C25.1240322,16.67836 25.1036139,16.71593 25.0853405,16.732335 C25.0669812,16.748825 25.0519678,16.771435 25.0519678,16.78274 C25.0519678,16.794045 25.0288043,16.83221 25.0004933,16.867485 C24.9721823,16.90276 24.9490188,16.940925 24.9490188,16.95223 C24.9490188,16.96345 24.9335764,16.98657 24.9147024,17.003485 C24.8958284,17.0204 24.8803861,17.044285 24.8803861,17.056525 C24.8803861,17.068765 24.858252,17.103955 24.8312279,17.13464 C24.8042038,17.16524 24.7766649,17.207655 24.770059,17.228735 C24.7633673,17.24973 24.7508418,17.266985 24.7421769,17.266985 C24.7335979,17.266985 24.7158391,17.29189 24.7027989,17.322235 C24.6899303,17.352665 24.6627346,17.391935 24.6425737,17.409785 C24.6223271,17.427635 24.6058552,17.452455 24.6058552,17.46495 C24.6058552,17.477445 24.5904129,17.49725 24.5715389,17.508895 C24.5526649,17.520625 24.5372225,17.53941 24.5372225,17.5508 C24.5372225,17.56219 24.5186917,17.589815 24.4960429,17.61217 C24.4690622,17.6405788 24.4458539,17.6722853 24.4269812,17.70652 C24.4116247,17.73593 24.3927507,17.759985 24.3851153,17.759985 C24.3773941,17.759985 24.3623807,17.77911 24.3516568,17.802485 C24.3408472,17.82586 24.3208579,17.844985 24.3071314,17.844985 C24.2934048,17.844985 24.2768472,17.861645 24.2703271,17.88196 C24.2560858,17.92633 24.1557962,18.031985 24.128,18.031985 C24.1171046,18.031985 24.1082681,18.043205 24.1082681,18.05689 C24.1082681,18.07066 24.0793566,18.10874 24.0439249,18.14155 C24.0019668,18.1806794 23.9604981,18.2203208 23.9195282,18.260465 C23.8073995,18.370965 23.6755389,18.370455 23.7634745,18.259615 C23.7832064,18.234795 23.7995067,18.201645 23.7995067,18.186005 C23.7995067,18.170365 23.8187239,18.131605 23.8424021,18.099985 C23.8659088,18.06828 23.8852976,18.032835 23.8852976,18.021105 C23.8852976,18.00946 23.899882,17.989655 23.9178981,17.977245 C23.9357426,17.964835 23.9593351,17.92191 23.9702306,17.88196 C23.9810402,17.841925 24.0002574,17.80529 24.0128686,17.80053 C24.0254799,17.79577 24.0403217,17.76959 24.0457265,17.74239 C24.0512172,17.71519 24.0708633,17.678045 24.0894799,17.6596 C24.1080107,17.64124 24.1310885,17.597975 24.1406113,17.56355 C24.1502198,17.529125 24.1687507,17.488495 24.1817909,17.473195 C24.1946595,17.457895 24.2143914,17.413695 24.2255442,17.37502 C24.2366971,17.33626 24.2568579,17.30022 24.2702413,17.29512 C24.2836247,17.29002 24.2999249,17.25092 24.3063592,17.20825 C24.3127936,17.16558 24.3320965,17.11305 24.3490831,17.09163 C24.3660697,17.07021 24.3855442,17.023375 24.3923217,16.987505 C24.399185,16.951635 24.418059,16.90905 24.4343592,16.8929 C24.4507453,16.876665 24.472622,16.815465 24.4830885,16.7569 C24.4934692,16.69825 24.5132011,16.63348 24.5268418,16.612825 C24.5405684,16.59217 24.5599571,16.530715 24.5700804,16.476315 C24.5803753,16.42183 24.6001072,16.364625 24.6141769,16.34924 C24.6298767,16.33207 24.6464343,16.25727 24.6570724,16.155865 C24.6665952,16.064915 24.685555,15.96912 24.6991957,15.94294 C24.7136086,15.9154 24.7314531,15.799545 24.7416622,15.667455 C24.7513566,15.54208 24.7710885,15.395115 24.7855013,15.340885 C24.8193029,15.213895 24.8199893,14.90543 24.7867882,14.773595 C24.7730617,14.71911 24.7529008,14.56356 24.7420054,14.427985 C24.7303378,14.28255 24.7119786,14.161765 24.6971367,14.13329 C24.6834102,14.10677 24.6649651,14.01701 24.6563003,13.93371 C24.6448901,13.82423 24.6316783,13.77357 24.6086863,13.75079 C24.5912708,13.733535 24.5717962,13.682365 24.5655335,13.637145 C24.5593566,13.591925 24.5427131,13.54237 24.5286434,13.5269 C24.5144879,13.511515 24.4962145,13.462895 24.4878928,13.418865 C24.479571,13.374665 24.4604397,13.32511 24.4451689,13.308535 C24.4299839,13.291875 24.4085362,13.25201 24.397555,13.21988 C24.3849745,13.1844802 24.3683367,13.1506272 24.3479678,13.118985 C24.3288341,13.0888558 24.3147806,13.0558403 24.3063592,13.021235 C24.2997534,12.99089 24.2878284,12.965985 24.2800214,12.965985 C24.2723003,12.965985 24.2489651,12.93156 24.2283753,12.889485 C24.2077855,12.84741 24.184622,12.812985 24.1767292,12.812985 C24.1688365,12.812985 24.1533941,12.785785 24.1424129,12.752635 C24.1312601,12.719485 24.1044933,12.672735 24.082874,12.648765 C23.9973405,12.553905 23.9843003,12.53597 23.9615657,12.48208 C23.9486971,12.45131 23.9258767,12.42156 23.9112064,12.41595 C23.8964504,12.41034 23.877319,12.388325 23.8687399,12.367075 C23.8561287,12.33605 23.8528686,12.3454 23.8520107,12.4151 C23.8514102,12.4627 23.8632493,12.52628 23.8782627,12.5562 C23.8937909,12.58697 23.9127507,12.69203 23.9220161,12.79862 C23.932311,12.916685 23.9483539,13.00177 23.9652547,13.02744 C23.9834424,13.054895 23.9996568,13.15256 24.0150134,13.32732 C24.0275389,13.469865 24.046756,13.624735 24.0577373,13.671485 C24.0855335,13.79006 24.0858767,14.682475 24.0580804,14.784985 C24.046756,14.82706 24.0271957,14.970625 24.0145845,15.104075 C24,15.259795 23.9822413,15.360775 23.9653405,15.386445 C23.9496408,15.41016 23.9322252,15.49907 23.9221877,15.606255 C23.9129223,15.70528 23.8937051,15.807705 23.8794638,15.833885 C23.8652225,15.860065 23.8452332,15.92679 23.8350241,15.98221 C23.8249008,16.03746 23.8047399,16.09577 23.7904129,16.11158 C23.7758284,16.12739 23.7595282,16.181535 23.7539517,16.23194 C23.7484611,16.28226 23.7297587,16.348135 23.7125147,16.37814 C23.6929615,16.4143361 23.6785551,16.4530378 23.6697051,16.493145 C23.6634424,16.52621 23.6435389,16.57177 23.6256086,16.594465 C23.6076783,16.617075 23.5863164,16.670795 23.5781662,16.71389 C23.5700161,16.756985 23.5521716,16.80535 23.5385308,16.82133 C23.5248043,16.837395 23.5045576,16.88219 23.4934048,16.92095 C23.482252,16.95971 23.4623485,16.99558 23.4492225,17.00051 C23.4360965,17.005525 23.4200536,17.04046 23.4136193,17.078285 C23.407185,17.11611 23.3876247,17.164985 23.3701233,17.187085 C23.350671,17.2129502 23.3359759,17.242012 23.3267131,17.272935 C23.3202788,17.29818 23.3015764,17.328185 23.2850188,17.33966 C23.2684611,17.351135 23.249244,17.386155 23.2423807,17.417435 C23.2355174,17.4488 23.2161287,17.4879 23.1996568,17.504135 C23.1830992,17.520625 23.164311,17.55454 23.1580483,17.57953 C23.1516997,17.60452 23.1274209,17.64141 23.1040858,17.661555 C23.0807507,17.6817 23.0614477,17.710005 23.0612761,17.724795 C23.0610188,17.75225 22.985008,17.87397 22.9243539,17.944095 C22.9054799,17.966025 22.8900375,17.9928 22.8897802,18.003595 C22.8895228,18.024675 22.8431957,18.087745 22.7656408,18.17249 C22.7396461,18.200795 22.7184558,18.232415 22.7184558,18.242785 C22.7184558,18.252985 22.6991528,18.283585 22.6755603,18.310785 C22.6519678,18.337985 22.6326649,18.36561 22.6326649,18.371985 C22.6326649,18.378615 22.6114745,18.40709 22.5854799,18.43531 C22.559571,18.46353 22.5228525,18.507135 22.5039786,18.532125 C22.4851046,18.557115 22.4503592,18.59953 22.4267668,18.626475 C22.3910514,18.6686325 22.3567172,18.71192 22.3238177,18.75627 C22.2823452,18.8107203 22.2379562,18.8629286 22.1908418,18.91267 C22.1506917,18.954235 22.1179196,18.99512 22.1179196,19.003535 C22.1179196,19.01195 22.0986166,19.02606 22.0750241,19.034985 C22.0514316,19.04391 22.0321287,19.061335 22.0321287,19.074 C22.0321287,19.08658 22.0147989,19.113015 21.9935228,19.13265 C21.9722466,19.152455 21.9454799,19.17872 21.9339839,19.191045 C21.9073887,19.219435 21.8903164,19.23669 21.8056408,19.320585 L21.7198499,19.405585 L21.634059,19.490585 L21.5482681,19.575585 C21.5388311,19.584935 21.4991099,19.62395 21.4599035,19.662285 C21.4207828,19.700535 21.3536086,19.766325 21.3107989,19.808485 C21.2679893,19.85056 21.223378,19.884985 21.2117962,19.884985 C21.2001287,19.884985 21.1818552,19.90411 21.1711314,19.927485 C21.1603217,19.95086 21.1442788,19.969985 21.1354424,19.969985 C21.1266059,19.969985 21.097866,19.99098 21.0716997,20.016735 C21.0454477,20.04249 21.0099303,20.074705 20.9928579,20.088475 C20.9756997,20.102075 20.9265416,20.14228 20.8835603,20.177555 C20.8404933,20.212745 20.7840429,20.2589 20.7579625,20.280065 C20.731882,20.30123 20.6843539,20.34288 20.6522681,20.372715 L20.5940161,20.426945 L20.6858123,20.43825 C20.8920536,20.46375 21.6938552,20.4391 21.7441287,20.40578 C21.7702949,20.38844 21.848193,20.367785 21.9217158,20.35869 C21.9937802,20.34985 22.0694477,20.33166 22.0901233,20.31823 C22.1107989,20.304885 22.1804611,20.28644 22.2450617,20.27743 C22.3214155,20.26672 22.3752064,20.24904 22.3990563,20.226855 C22.4192172,20.20807 22.4679464,20.187585 22.5074102,20.181295 C22.546874,20.17509 22.5830777,20.159535 22.5880536,20.146785 C22.5930295,20.134035 22.6294048,20.11848 22.6689544,20.11219 C22.708504,20.1059 22.755689,20.086095 22.7738767,20.06799 C22.7920643,20.050055 22.8314424,20.02702 22.8613834,20.016905 C22.894722,20.0050637 22.9262705,19.9887628 22.9551528,19.968455 C22.9824114,19.949332 23.0130127,19.9353828 23.0454048,19.927315 C23.0733727,19.921195 23.1037426,19.90241 23.1127507,19.88558 C23.1219303,19.86858 23.1488686,19.85005 23.1728043,19.8441 C23.1965684,19.83815 23.2160429,19.82557 23.2160429,19.81605 C23.2160429,19.80653 23.2496729,19.784515 23.2907668,19.767005 C23.3319464,19.74958 23.3702091,19.72306 23.3760429,19.7081 C23.3817909,19.693225 23.4017802,19.6809 23.4201394,19.6809 C23.4386702,19.6809 23.4653512,19.66951 23.4795067,19.6554 C23.5079893,19.62735 23.5520858,19.621825 23.5663271,19.64469 C23.5714745,19.65285 23.561008,19.672485 23.5431635,19.688465 C23.5254048,19.704445 23.5061019,19.736065 23.5003539,19.75876 C23.4946059,19.781455 23.4832815,19.799985 23.4751314,19.799985 C23.4669812,19.799985 23.4294906,19.831605 23.3919142,19.870195 C23.354252,19.908785 23.3141877,19.94899 23.3028633,19.959445 C23.2915389,19.9699 23.2445255,20.014865 23.19837,20.059235 C23.1522145,20.10369 23.1068311,20.139985 23.0974799,20.139985 C23.0881287,20.139985 23.0739732,20.151545 23.0659946,20.165655 C23.0445469,20.20365 22.7871743,20.411985 22.7616086,20.411985 C22.7495979,20.411985 22.7356139,20.427285 22.7307239,20.4459 C22.725748,20.464515 22.7075603,20.485 22.690059,20.491545 C22.6726434,20.498005 22.6482788,20.517045 22.6360107,20.534045 C22.6236568,20.551045 22.605555,20.564985 22.595689,20.564985 C22.5858231,20.564985 22.5567399,20.58598 22.5309169,20.611735 C22.4705201,20.672085 22.4116676,20.7162 22.358992,20.74085 C22.3358284,20.751645 22.2972225,20.77825 22.2732011,20.799925 L22.2028525,20.86308 C22.1882681,20.876085 22.1532654,20.89657 22.1252118,20.90864 C22.0971582,20.92054 22.0588954,20.94417 22.0402788,20.96083 C21.9616944,21.031295 21.8982949,21.073455 21.8546273,21.084335 C21.8290617,21.09071 21.8006649,21.109835 21.7914853,21.12675 C21.7823056,21.14375 21.7585416,21.16279 21.7387239,21.168995 C21.718992,21.175285 21.6881072,21.19492 21.6700912,21.212685 C21.6521609,21.23045 21.6220483,21.244985 21.6031743,21.244985 C21.5843003,21.244985 21.5551314,21.25833 21.5383164,21.274735 C21.4880429,21.32361 21.3356783,21.410735 21.2787989,21.423145 C21.24963,21.42952 21.2256944,21.440485 21.2256944,21.447625 C21.2256944,21.454765 21.1967828,21.47525 21.1613512,21.4931 C21.1259196,21.510865 21.078563,21.53883 21.0560858,21.55515 C21.0336086,21.57164 20.9986917,21.5849 20.9785308,21.5849 C20.9584558,21.5849 20.9135871,21.60411 20.8788418,21.6274 C20.8440965,21.65086 20.809437,21.6699 20.8018016,21.6699 C20.7941662,21.6699 20.753244,21.68809 20.7108633,21.71019 C20.6683968,21.73229 20.604311,21.755665 20.5684504,21.76204 C20.532504,21.768585 20.4891796,21.78771 20.4721072,21.80454 C20.4550349,21.82154 20.4111957,21.840835 20.3743914,21.847635 C20.3377587,21.85435 20.2950349,21.87118 20.2795067,21.88495 C20.2640643,21.898805 20.2046971,21.91657 20.1478177,21.92456 C20.0909383,21.93255 20.022563,21.95431 19.9959678,21.97301 C19.9692011,21.991625 19.9094048,22.01211 19.8630777,22.0184 C19.8167507,22.024775 19.7605576,22.04169 19.7383378,22.056055 C19.7162038,22.070505 19.631185,22.08895 19.5495979,22.097195 C19.4544558,22.106715 19.3898552,22.122015 19.3702949,22.13961 C19.3502198,22.15746 19.2842466,22.17259 19.1802681,22.18296 C19.0925898,22.191715 18.9899839,22.21101 18.9522359,22.2258 C18.9023056,22.24535 18.7915496,22.255805 18.5453298,22.263965 C18.3592493,22.27017 18.2025952,22.27952 18.1973619,22.28479 C18.1846649,22.29737 18.2746595,22.391465 18.3131796,22.405745 C18.3296515,22.411865 18.3432922,22.42674 18.3434638,22.438725 C18.3437212,22.450625 18.3717748,22.483435 18.4058338,22.511485 C18.544815,22.625725 18.5720107,22.6491 18.608815,22.685735 C18.6300054,22.70673 18.6548847,22.723985 18.6641501,22.723985 C18.6734155,22.723985 18.6956354,22.740135 18.7136515,22.759685 C18.7316676,22.77949 18.7754209,22.81026 18.810681,22.82811 C18.8461126,22.84596 18.8750241,22.86738 18.8750241,22.875455 C18.8750241,22.883615 18.8924397,22.89475 18.91363,22.900105 C18.9348204,22.90563 18.9746273,22.92943 19.0020804,22.95306 C19.0295335,22.97669 19.0647078,22.995985 19.0802359,22.995985 C19.0958499,22.995985 19.1347131,23.01511 19.1667131,23.038485 C19.1987131,23.06186 19.2346595,23.080985 19.2465845,23.080985 C19.2585952,23.080985 19.2821019,23.095435 19.2990027,23.113115 C19.3159035,23.130795 19.3736408,23.15417 19.4270885,23.164965 C19.480622,23.17593 19.5334692,23.195565 19.5442788,23.20857 C19.5551743,23.22166 19.5983271,23.237385 19.640193,23.24359 C19.6819732,23.249795 19.734563,23.26909 19.7568686,23.286515 C19.7841501,23.307935 19.8486649,23.323915 19.9553887,23.335815 C20.0422949,23.345675 20.1340054,23.364205 20.1591421,23.37704 C20.2063271,23.40118 20.2712708,23.408065 20.7366863,23.43824 C20.8876783,23.4481 21.0382413,23.46034 21.0712708,23.465695 L21.1313244,23.475215 L21.0669812,23.508025 C21.0316354,23.526045 21.0026381,23.54704 21.0026381,23.55469 C21.0026381,23.5875 20.8930831,23.612235 20.6781769,23.62796 C20.5291582,23.63884 20.4345308,23.65363 20.4092225,23.66995 C20.2929759,23.745515 18.6403861,23.74509 18.5239678,23.669525 C18.49437,23.650315 18.4153566,23.637225 18.2665952,23.62694 C18.1250402,23.61725 18.0382198,23.60331 18.0119678,23.58631 C17.9900054,23.57203 17.9203432,23.55486 17.8570295,23.54806 C17.7854799,23.54058 17.72637,23.52375 17.7006327,23.50369 C17.6752386,23.483885 17.611496,23.46544 17.5365147,23.45609 C17.4690831,23.44759 17.4009651,23.42957 17.3851796,23.4158 C17.3693941,23.401945 17.3217802,23.3852 17.2793137,23.37857 C17.2368472,23.37177 17.1858874,23.351625 17.1660697,23.33352 C17.1461662,23.3155 17.0901448,23.29442 17.0415013,23.28677 C16.9928579,23.27929 16.9395818,23.26127 16.9231099,23.24682 C16.9068097,23.23254 16.8662306,23.215285 16.8332011,23.20857 C16.8001716,23.20177 16.7577051,23.18222 16.7388311,23.16522 C16.7199571,23.14805 16.6711421,23.12663 16.6303914,23.117535 C16.589555,23.10844 16.5432279,23.089825 16.5274424,23.07614 C16.511571,23.062455 16.4713351,23.04265 16.4379625,23.03194 C16.4046756,23.021485 16.3641823,22.997515 16.3480536,22.9789 C16.3320107,22.9602 16.2994102,22.9449 16.2757319,22.9449 C16.2520536,22.9449 16.2173941,22.929855 16.1987775,22.91141 C16.1766328,22.8909524 16.1500834,22.8757509 16.1211367,22.866955 C16.0971153,22.861005 16.0702627,22.842985 16.0616836,22.827005 C16.0531046,22.811025 16.0142413,22.788585 15.975378,22.777025 C15.9366005,22.765465 15.9005684,22.745065 15.8953351,22.73155 C15.8901877,22.71795 15.8714853,22.7069 15.8539839,22.7069 C15.8363968,22.7069 15.7956461,22.68395 15.7634745,22.6559 C15.7312172,22.62785 15.6932976,22.6049 15.6791421,22.6049 C15.6650724,22.6049 15.6434531,22.593 15.631185,22.57838 C15.6189169,22.56376 15.5852011,22.53962 15.5562038,22.52483 C15.5272064,22.51004 15.493319,22.483775 15.4810509,22.466435 C15.4686971,22.44918 15.4474209,22.434985 15.4336944,22.434985 C15.4199678,22.434985 15.3955174,22.419685 15.3793887,22.400985 C15.3631743,22.382285 15.3414692,22.366985 15.3311743,22.366985 C15.3208794,22.366985 15.2863914,22.344035 15.2546488,22.315985 C15.2229062,22.287935 15.1917641,22.264985 15.1854155,22.264985 C15.179067,22.264985 15.1530724,22.24586 15.1275925,22.222485 C15.1021126,22.19911 15.0744879,22.179985 15.0661662,22.179985 C15.0578445,22.179985 15.0461769,22.164685 15.0401716,22.145985 C15.0341662,22.127285 15.0189812,22.111985 15.0062842,22.111985 C14.9791743,22.111985 14.795067,21.966125 14.6258874,21.81066 C14.6032386,21.789835 14.569437,21.764675 14.5508204,21.754815 C14.532118,21.74487 14.5168472,21.725575 14.5168472,21.71189 C14.5168472,21.698205 14.507496,21.686985 14.4960858,21.686985 C14.4712922,21.686985 14.4746381,21.690045 14.0660161,21.28434 C13.6398928,20.86104 13.6589383,20.8811 13.6589383,20.857555 C13.6589383,20.84625 13.6476139,20.836985 13.6338016,20.836985 C13.6200751,20.836985 13.6003432,20.82143 13.5900483,20.802475 C13.5797534,20.78352 13.5293083,20.726315 13.4779196,20.6754 L13.3844075,20.58275 L13.3844075,20.792275 C13.3844075,20.94349 13.3915282,21.015825 13.4098874,21.052375 C13.4239571,21.080255 13.4438606,21.16364 13.4542413,21.237675 C13.466681,21.3265 13.4835818,21.382175 13.5038284,21.400875 C13.5207292,21.416515 13.5398606,21.457825 13.5464665,21.49259 C13.5530724,21.527355 13.5692869,21.56654 13.5824987,21.579715 C13.5957105,21.592805 13.6150992,21.634625 13.6253941,21.672705 C13.635689,21.710785 13.6593673,21.75813 13.6779839,21.77785 C13.6965147,21.797655 13.7159893,21.83055 13.7212225,21.851205 C13.72637,21.871605 13.7407828,21.892345 13.7531367,21.897105 C13.7654906,21.90178 13.7848794,21.9334 13.796118,21.967315 C13.8074424,22.001315 13.8321501,22.04577 13.8510241,22.066255 C13.9226595,22.14437 13.9849437,22.23685 13.9849437,22.265325 C13.9849437,22.281645 14.0003861,22.298985 14.0192601,22.303915 C14.0379625,22.30876 14.0587239,22.326865 14.065244,22.34412 C14.0717641,22.361375 14.091067,22.385515 14.1082252,22.39767 C14.1253834,22.40991 14.1393673,22.42929 14.1393673,22.44068 C14.1393673,22.45207 14.1605576,22.4808 14.1865523,22.50443 C14.2125469,22.52823 14.2530402,22.57311 14.2766327,22.604135 C14.3002252,22.63516 14.3408043,22.6814 14.3667131,22.7069 C14.3927078,22.732315 14.4138981,22.761045 14.4138981,22.77065 C14.4138981,22.780255 14.4332011,22.80057 14.4567936,22.815955 C14.4803861,22.831255 14.499689,22.854205 14.499689,22.86687 C14.499689,22.87962 14.5157319,22.89407 14.5352922,22.89917 C14.5565144,22.9057998 14.5731753,22.9222121 14.5799893,22.9432 C14.5851367,22.96224 14.6037534,22.98247 14.6216836,22.98808 C14.6395282,22.99369 14.6541126,23.00508 14.6541126,23.01358 C14.6541126,23.02191 14.6777909,23.05268 14.7067024,23.08209 C14.7568901,23.13292 14.7579196,23.136915 14.729866,23.167685 C14.692118,23.20891 14.6621769,23.208655 14.6325791,23.166835 C14.6197105,23.14856 14.5750992,23.126035 14.5334048,23.116685 C14.4917962,23.107505 14.4496729,23.088975 14.4398928,23.075715 C14.4300268,23.06237 14.3969973,23.045965 14.3664558,23.039335 C14.336,23.032705 14.3013405,23.013835 14.2895013,22.997515 C14.277748,22.981195 14.2425737,22.959095 14.2115174,22.94847 C14.1754878,22.9352584 14.1415,22.9171194 14.1105416,22.89458 C14.0860912,22.87554 14.055807,22.859985 14.0432815,22.859985 C14.030756,22.859985 14.0125684,22.84528 14.0029598,22.827345 C13.9931796,22.80941 13.9616086,22.789605 13.9327828,22.783315 C13.9039571,22.777025 13.871185,22.757305 13.8598606,22.739455 C13.8487078,22.721605 13.8302627,22.706985 13.8191099,22.706985 C13.8079571,22.706985 13.7770724,22.68905 13.7503056,22.667035 C13.7212508,22.6434845 13.690419,22.6221723 13.6580804,22.603285 C13.5542735,22.54676 13.5038284,22.509615 13.4952493,22.483435 C13.4902735,22.467965 13.4677962,22.450795 13.4454906,22.445185 C13.4027668,22.434645 13.3430563,22.390785 13.2633566,22.311735 C13.2374477,22.28598 13.2105094,22.264985 13.2036461,22.264985 C13.1967828,22.264985 13.1736193,22.247815 13.1521716,22.226735 C13.1307239,22.205655 13.102756,22.179305 13.090059,22.168085 C13.0749708,22.1544365 13.0603771,22.1402609 13.0463056,22.125585 C13.0349812,22.11343 12.9944021,22.076795 12.9562252,22.044155 C12.9180483,22.011515 12.8868204,21.97607 12.8868204,21.96536 C12.8868204,21.95465 12.8707775,21.941815 12.8512172,21.936715 C12.8316568,21.931615 12.8117534,21.91232 12.8067775,21.89379 C12.8002152,21.8736094 12.7842504,21.8577918 12.763882,21.85129 C12.7451796,21.846445 12.7256193,21.82664 12.7205576,21.80726 C12.7154102,21.78788 12.7008257,21.771985 12.6881287,21.771985 C12.6753458,21.771985 12.656815,21.756855 12.6467775,21.738325 C12.6368257,21.71988 12.6114316,21.686645 12.5904129,21.664545 C12.4686756,21.53645 12.3332976,21.364495 12.3050724,21.30219 C12.2959786,21.282215 12.270756,21.24643 12.2488794,21.222715 C12.1783592,21.146215 12.137437,21.08459 12.1255979,21.036735 C12.1192493,21.01098 12.1060375,20.989985 12.0962574,20.989985 C12.0864772,20.989985 12.0636568,20.95658 12.0452976,20.915695 C12.0271099,20.874895 12.0012869,20.832565 11.9879893,20.8216 C11.9746917,20.81072 11.958563,20.77366 11.9520429,20.73915 C11.9455228,20.70481 11.9263056,20.6669 11.909319,20.65517 C11.8923324,20.64344 11.8730295,20.612585 11.8665094,20.58666 C11.8599893,20.560735 11.8442038,20.527925 11.8313351,20.51373 C11.8184665,20.499535 11.7993351,20.45066 11.7890402,20.4051 C11.7787453,20.359625 11.7560107,20.30429 11.7385952,20.282275 C11.7210938,20.260175 11.7013619,20.213425 11.6948418,20.178405 C11.6882359,20.143215 11.6714209,20.10182 11.6573512,20.08635 C11.6433673,20.07088 11.6241501,20.002455 11.6145416,19.9342 C11.6045898,19.863055 11.5866595,19.80262 11.5723324,19.79225 C11.5584343,19.78205 11.5399035,19.721955 11.5302949,19.6554 C11.5206863,19.58995 11.5006113,19.51447 11.4855121,19.487525 C11.4673244,19.455055 11.4529973,19.363425 11.4429598,19.215525 C11.4336086,19.07893 11.4167078,18.966135 11.399378,18.924485 C11.3401823,18.782705 11.3399249,17.388535 11.3991206,17.266985 C11.4180804,17.22814 11.433437,17.132005 11.4433887,16.990055 C11.453941,16.838755 11.4663807,16.763785 11.484311,16.743555 C11.4984665,16.727575 11.5155389,16.66935 11.5222306,16.6141 C11.5348418,16.510655 11.5612654,16.4339 11.5843432,16.4339 C11.5915496,16.4339 11.6027882,16.39004 11.6093083,16.33615 C11.6157426,16.28243 11.6353029,16.21171 11.6527185,16.1789 C11.6738591,16.1364362 11.6907546,16.0920246 11.7031635,16.0463 C11.7134584,16.00618 11.7328472,15.96895 11.7462306,15.96385 C11.7596139,15.95875 11.7753995,15.92679 11.7812332,15.89262 C11.7872386,15.85845 11.8054263,15.81136 11.8218981,15.787985 C11.83837,15.76461 11.8616193,15.716245 11.8735442,15.680545 C11.8853834,15.644845 11.9058016,15.611525 11.9190134,15.60651 C11.9320536,15.60158 11.9509276,15.56724 11.9610509,15.53035 C11.9710027,15.49346 11.9903914,15.45895 12.0040322,15.453765 C12.0177587,15.44858 12.0289115,15.433365 12.0289115,15.419935 C12.0289115,15.406335 12.0463271,15.378115 12.0675174,15.356865 C12.0887936,15.335615 12.1195067,15.29014 12.1358928,15.25563 C12.152193,15.221205 12.1729544,15.192985 12.1818767,15.192985 C12.1908847,15.192985 12.2036676,15.175815 12.2102735,15.154735 C12.2169651,15.13374 12.2407292,15.09736 12.2631206,15.073985 L12.3379303,14.9957 C12.3568043,14.97598 12.3720751,14.954305 12.3720751,14.947505 C12.3720751,14.916905 12.7746917,14.514855 12.9228525,14.397385 C12.9832493,14.34953 13.0489651,14.294705 13.0687828,14.275665 C13.0886863,14.256625 13.1123646,14.240985 13.1214584,14.240985 C13.1305523,14.240985 13.1550027,14.221605 13.1757641,14.197975 C13.1964397,14.174345 13.236504,14.150375 13.2646434,14.14485 C13.2933834,14.139155 13.3157748,14.123855 13.3157748,14.109915 C13.3157748,14.09623 13.3389383,14.07634 13.3672493,14.065715 C13.3955603,14.055175 13.4187239,14.04013 13.4187239,14.03231 C13.4187239,14.02449 13.4526113,14.00324 13.4942198,13.98505 C13.535571,13.96686 13.5734906,13.94153 13.5784665,13.928695 C13.5834424,13.91586 13.6081501,13.90022 13.6333727,13.894015 C13.6584236,13.887725 13.6952279,13.86758 13.7151314,13.849305 C13.7349491,13.830945 13.7678928,13.815985 13.7883968,13.815985 C13.808815,13.815985 13.8463056,13.796945 13.8716139,13.773655 C13.897008,13.750365 13.9378445,13.72631 13.9623807,13.720105 C13.9870027,13.71407 14.0214048,13.69486 14.0389062,13.67752 C14.0564075,13.66018 14.0932976,13.645985 14.1209223,13.645985 C14.1485469,13.645985 14.192815,13.627965 14.2195818,13.605695 C14.2462627,13.58351 14.2925898,13.56005 14.3226166,13.55359 C14.3526434,13.54713 14.3861019,13.531235 14.3969115,13.518315 C14.4077212,13.505395 14.4603968,13.485845 14.5138445,13.47488 C14.567378,13.46383 14.6284611,13.441305 14.6496515,13.42473 C14.6708418,13.408325 14.7171689,13.389455 14.7526005,13.382995 C14.788118,13.37645 14.8298123,13.359875 14.8450831,13.346275 C14.8605255,13.33259 14.9257265,13.313295 14.9898123,13.30335 C15.0563003,13.293065 15.1272493,13.2702 15.1546166,13.25014 C15.2282252,13.19625 15.4705845,13.19693 15.5449651,13.251245 C15.5739625,13.272495 15.632815,13.296465 15.6756247,13.304455 C15.7185201,13.31236 15.7667346,13.33055 15.7828633,13.345 C15.7991635,13.359365 15.8406005,13.37628 15.8751743,13.382655 C15.909748,13.38903 15.9543592,13.40926 15.9742627,13.427705 C15.994252,13.44615 16.0489866,13.46723 16.0960858,13.474455 C16.1430134,13.481935 16.1950885,13.50021 16.2119035,13.51517 C16.2284611,13.53013 16.2742735,13.54747 16.3135657,13.553675 C16.3528579,13.55988 16.4003861,13.579175 16.4191743,13.5966 C16.4380483,13.614025 16.4867775,13.63315 16.5275282,13.6391 C16.5682788,13.64505 16.626445,13.664005 16.656815,13.68109 C16.6872708,13.69826 16.7394316,13.7173 16.7728043,13.723505 C16.8062627,13.72971 16.8511314,13.74858 16.8727507,13.76541 C16.8942842,13.78224 16.9573405,13.804255 17.0127614,13.814455 C17.0681823,13.82457 17.1263485,13.844375 17.1419625,13.8584 C17.1576622,13.87251 17.1814263,13.88407 17.1948954,13.88407 C17.242252,13.88424 17.3470885,13.9196 17.3711957,13.943485 C17.3846649,13.956745 17.4438606,13.97536 17.5027131,13.98471 C17.5616515,13.99406 17.6223914,14.01276 17.6376622,14.02636 C17.652933,14.039875 17.7021769,14.056365 17.7470456,14.06291 C17.792,14.06954 17.8471635,14.08926 17.8697265,14.10677 C17.8926327,14.12462 17.9608365,14.1457 18.0256944,14.154795 C18.089008,14.163635 18.1535228,14.182165 18.1690509,14.195935 C18.1845791,14.209705 18.2359678,14.226195 18.2831528,14.232485 C18.3303378,14.23886 18.3890188,14.257985 18.4136408,14.27524 C18.4388633,14.292835 18.5174477,14.31468 18.5930295,14.32505 C18.667067,14.33525 18.7444504,14.354545 18.765126,14.367975 C18.7857158,14.38132 18.8440536,14.397215 18.8946702,14.40325 C18.9452869,14.4092 19.0083432,14.429515 19.0350241,14.448045 C19.0690831,14.471845 19.1292225,14.486125 19.237748,14.49624 C19.322681,14.50406 19.4094155,14.52174 19.4307775,14.53568 C19.4520536,14.549535 19.533126,14.568405 19.6109383,14.577755 C19.6958713,14.58787 19.764504,14.605635 19.7827775,14.621955 C19.8048257,14.641845 19.8729437,14.65383 20.0300268,14.66573 C20.1492761,14.67474 20.2741019,14.69344 20.3074745,14.707295 C20.3432493,14.722085 20.4791421,14.73985 20.6382842,14.75039 C20.7867882,14.76025 20.9507346,14.77963 21.0026381,14.793485 C21.1330402,14.828165 21.5804397,14.827995 21.696,14.793315 C21.7424129,14.779375 21.8689544,14.75974 21.9773941,14.749795 C22.0943271,14.739 22.1901555,14.72132 22.2134048,14.70619 C22.2349383,14.69225 22.3033137,14.673635 22.3653405,14.664965 C22.437748,14.654765 22.4900804,14.637255 22.5115282,14.616005 C22.5298874,14.597815 22.5724397,14.577755 22.6059839,14.57155 C22.6395282,14.565345 22.6669812,14.553105 22.6669812,14.54452 C22.6669812,14.53585 22.6998391,14.513665 22.7399035,14.495135 C22.8529759,14.442945 23.0654799,14.26419 23.1209866,14.1746 C23.1308525,14.15879 23.1542735,14.12037 23.1731475,14.089175 C23.1948184,14.0542037 23.2191992,14.0209537 23.2460697,13.989725 C23.2673458,13.966265 23.2846756,13.928015 23.2846756,13.904725 C23.2846756,13.88152 23.299689,13.838425 23.3179625,13.8091 C23.3363217,13.77969 23.3592279,13.7071 23.3688365,13.64777 C23.3785308,13.58844 23.3982627,13.52197 23.4127614,13.50004 C23.4464772,13.448955 23.4467346,13.324345 23.4131046,13.27683 C23.3988633,13.2566 23.3785308,13.17653 23.3680643,13.099095 C23.3575121,13.021575 23.3388954,12.94261 23.3264558,12.92374 C23.3141019,12.904955 23.2947131,12.835935 23.2832172,12.77057 C23.2718928,12.70512 23.2516461,12.64375 23.2383485,12.63406 C23.2249651,12.624455 23.2066917,12.58374 23.1975979,12.54362 C23.188504,12.5035 23.1664558,12.45012 23.1486971,12.425045 C23.1308525,12.39997 23.1110349,12.34914 23.1046863,12.311995 C23.098252,12.27502 23.0791206,12.234985 23.062134,12.22317 C23.0451475,12.21144 23.0261019,12.18118 23.0195818,12.155935 C23.0102475,12.1248872 22.9954658,12.0957113 22.9759142,12.069745 C22.9558797,12.0424837 22.9412375,12.0117098 22.9327614,11.97905 C22.9265845,11.95134 22.9072815,11.921165 22.889866,11.9119 C22.8699178,11.89961 22.8546962,11.8810576 22.8466273,11.8592 C22.8402788,11.83965 22.8202895,11.80888 22.8020161,11.790775 C22.7837426,11.77267 22.7642681,11.735185 22.7586917,11.707475 C22.7530295,11.67968 22.7375013,11.656985 22.7240322,11.656985 C22.710563,11.656985 22.6914316,11.634035 22.6815657,11.605985 C22.6716997,11.577935 22.6568579,11.554985 22.648622,11.554985 C22.6403003,11.554985 22.6211689,11.531015 22.6058123,11.501775 C22.5792172,11.450775 22.5463592,11.409635 22.4677748,11.3288 C22.4478713,11.30823 22.4260804,11.27423 22.4193887,11.25315 C22.4127828,11.23224 22.3970831,11.2149 22.3847292,11.2149 C22.3722895,11.2149 22.3483539,11.19399 22.3316247,11.16815 C22.290874,11.10576 21.6554209,10.477695 21.6069491,10.452025 C21.5860161,10.44089 21.5688579,10.421085 21.5688579,10.407995 C21.5688579,10.39499 21.5515282,10.378925 21.530252,10.372295 C21.5090617,10.365835 21.4595603,10.327075 21.4204397,10.28619 C21.3812332,10.24539 21.3421126,10.211985 21.3334477,10.211985 C21.3248686,10.211985 21.2918391,10.189035 21.2603539,10.16124 C21.2287828,10.13336 21.1888043,10.10599 21.1714745,10.100635 C21.154059,10.095195 21.1399035,10.079895 21.1399035,10.066635 C21.1399035,10.05346 21.120429,10.037735 21.0965791,10.031785 C21.0727292,10.025835 21.0454477,10.006625 21.0359249,9.98903 C21.0264879,9.971435 21.0084718,9.956985 20.996118,9.956985 C20.9837641,9.956985 20.9589705,9.940835 20.9409544,9.921285 C20.9172733,9.89725947 20.89009,9.87688798 20.860311,9.86085 C20.8144129,9.83739 20.7959678,9.823365 20.7068311,9.7444 C20.6857265,9.7257 20.6393995,9.69748 20.603882,9.6815 C20.5684504,9.66569 20.5393673,9.64461 20.5393673,9.63475 C20.5393673,9.624975 20.5283861,9.6169 20.5149169,9.6169 C20.5015335,9.6169 20.4678177,9.598115 20.4401072,9.574995 C20.4123968,9.551875 20.3713029,9.525015 20.3487399,9.51541 C20.3261769,9.50572 20.2729866,9.47104 20.2305201,9.438315 C20.1880536,9.40559 20.1205362,9.36377 20.0803861,9.345495 C20.0402359,9.327135 20.0074638,9.30512 20.0074638,9.29645 C20.0074638,9.28778 19.9885898,9.275965 19.9652547,9.2701 C19.9420912,9.264405 19.90237,9.240605 19.8769759,9.217315 C19.8516676,9.194025 19.8180375,9.174985 19.8024236,9.174985 C19.7867239,9.174985 19.7477748,9.15586 19.7157748,9.132485 C19.6837748,9.10911 19.6478284,9.089985 19.6359893,9.089985 C19.6239786,9.089985 19.6003861,9.07545 19.5834853,9.0576 C19.5665845,9.03975 19.5208579,9.0168 19.4818231,9.006515 C19.442874,8.99623 19.4017802,8.976765 19.3905416,8.96342 C19.3793887,8.950075 19.3476461,8.934265 19.3199357,8.92823 C19.292311,8.922195 19.2600536,8.903835 19.2482145,8.887345 C19.2364611,8.87094 19.2036032,8.852155 19.1752922,8.84561 C19.0969651,8.827675 19.0294477,8.79852 19.0294477,8.78271 C19.0294477,8.77489 19.0031099,8.763585 18.9708525,8.757635 C18.938681,8.751685 18.8963003,8.731965 18.8767399,8.71386 C18.8570938,8.69584 18.8059625,8.674505 18.763067,8.6666 C18.7201716,8.65861 18.6717855,8.64042 18.6556568,8.62597 C18.6394424,8.61152 18.5966327,8.594435 18.5605147,8.58772 C18.5244826,8.581175 18.4819303,8.56205 18.4661448,8.54539 C18.4503592,8.52873 18.3917641,8.5068 18.3359142,8.4966 C18.2801501,8.4864 18.2216408,8.466595 18.2060268,8.452655 C18.1904129,8.43863 18.140311,8.422055 18.0946702,8.415935 C18.0490295,8.40973 17.997555,8.390605 17.9802252,8.373435 C17.9606649,8.354055 17.9115925,8.338415 17.8499946,8.331785 C17.7956032,8.32609 17.7202788,8.307645 17.6825308,8.290815 C17.6447828,8.273985 17.5645684,8.252055 17.5041716,8.242025 C17.4438606,8.231995 17.3812332,8.211935 17.3650188,8.1974 C17.3454584,8.17989 17.2775121,8.16595 17.1634102,8.156175 C17.0687828,8.148015 16.9654048,8.12957 16.933748,8.115205 C16.9020054,8.100755 16.7810402,8.080865 16.664622,8.070835 C16.5320751,8.05936 16.4327292,8.04185 16.3986702,8.024085 C16.3517426,7.999605 16.2639786,7.99459 15.768193,7.988215 L15.192193,7.980905 L15.0561287,7.856295 C14.8691046,7.68502 14.8476568,7.667595 14.7399035,7.601635 C14.688,7.569845 14.6275174,7.52828 14.6054692,7.50941 C14.5834209,7.490455 14.5555389,7.474985 14.5434424,7.474985 C14.5314316,7.474985 14.5031206,7.46079 14.4805576,7.44345 C14.4580804,7.42611 14.4107239,7.402565 14.3754638,7.391175 C14.340118,7.379785 14.3049437,7.3593 14.2972225,7.3457 C14.2895871,7.3321 14.243689,7.31476 14.1953887,7.307195 C14.1470027,7.299545 14.0884075,7.2811 14.065244,7.266055 C14.0420804,7.25101 13.9816836,7.233415 13.931067,7.226955 C13.8355818,7.21497 13.7789598,7.193805 13.7586273,7.162695 C13.7449008,7.141785 12.9041501,7.130735 12.7924504,7.149945" id="Shape" fill="#BA2BD2"></path></g></g></g></svg>