<svg height="34" viewBox="0 0 34 34" width="34" xmlns="http://www.w3.org/2000/svg"><g fill="none"><path d="m0 17v-14c0-1.65685425 1.34314575-3 3-3h28c1.6568542 0 3 1.34314575 3 3v28c0 1.6568542-1.3431458 3-3 3h-28c-1.65685425 0-3-1.3431458-3-3" fill="#007acc"/><path d="m7.455 17.06v1.385h4.42v12.58h3.136v-12.58h4.42v-1.36c0-.765 0-1.386-.034-1.403 0-.025-2.694-.034-5.967-.034l-5.95.026v1.394l-.026-.009zm19.864-1.42c.867.204 1.53.595 2.125 1.215.315.34.782.936.816 1.088 0 .051-1.47 1.046-2.363 1.598-.034.026-.17-.119-.306-.34-.442-.628-.893-.9-1.598-.951-1.02-.069-1.7.467-1.7 1.36 0 .271.051.425.153.646.23.467.654.747 1.972 1.325 2.431 1.046 3.485 1.735 4.123 2.72.722 1.106.883 2.84.399 4.14-.544 1.42-1.87 2.38-3.766 2.695-.595.102-1.954.085-2.592-.026-1.36-.255-2.66-.935-3.46-1.81-.314-.34-.918-1.25-.884-1.31l.323-.203 1.276-.74.96-.561.221.297c.28.442.91 1.037 1.275 1.241 1.105.57 2.584.493 3.315-.17.314-.288.45-.595.45-1.02 0-.39-.059-.569-.255-.866-.271-.375-.816-.68-2.346-1.36-1.759-.748-2.507-1.224-3.204-1.956-.4-.442-.765-1.13-.935-1.7-.128-.493-.17-1.7-.051-2.184.366-1.7 1.649-2.89 3.485-3.23.595-.119 1.998-.068 2.584.085z" fill="#fff"/></g></svg>