<svg xmlns="http://www.w3.org/2000/svg" height="47.016" viewBox="0 0 188.414 47.016" width="188.41"><path d="M.942 10.272s4.639 19.006 5.379 22.09c.864 3.602 2.42 4.927 6.91 4.033l2.895-11.784c.735-2.927 1.227-5.013 1.699-7.99h.083c.331 3.006.803 5.072 1.407 8 0 0 1.18 5.35 1.783 8.16.606 2.809 2.29 4.579 6.687 3.615l6.9-26.122h-5.571l-2.356 11.294c-.633 3.287-1.208 5.856-1.651 8.863h-.079c-.403-2.977-.915-5.444-1.559-8.647l-2.453-11.51H15.21l-2.624 11.22c-.744 3.41-1.44 6.163-1.881 9.068h-.08a318.737 318.737 0 0 0-1.71-9.497S7.359 13.04 6.812 10.274H.943zm53.115 0v26.122h5.305V10.27h-5.305zm74.713 0v19.27c0 2.658.5 4.52 1.57 5.656.934.995 2.474 1.64 4.319 1.64 1.568 0 3.111-.298 3.838-.57l-.068-4.145a8.065 8.065 0 0 1-2.015.24c-1.807 0-2.413-1.157-2.413-3.543v-7.373h4.62v-4.998H134v-6.177h-5.231zm-86.567 6.055c-3.297 0-5.914.926-7.34 1.75l1.043 3.575c1.306-.823 3.384-1.504 5.353-1.504 3.258-.009 3.791 1.842 3.791 3.03v.28c-7.1-.01-11.586 2.447-11.586 7.455 0 3.058 2.283 5.924 6.254 5.924 2.444 0 4.488-.975 5.713-2.537h.12s.811 3.392 5.28 2.095c-.235-1.411-.311-2.917-.311-4.73v-6.978c0-4.448-1.899-8.36-8.317-8.36zm31.732 0c-3.32 0-4.811 1.683-5.716 3.11h-.078V16.77h-5.063v19.625h5.333V24.886c0-.54.062-1.11.25-1.606.442-1.16 1.52-2.515 3.241-2.515 2.152 0 3.16 1.82 3.16 4.445v11.185h5.326V24.747c0-.515.071-1.136.223-1.591.438-1.318 1.6-2.39 3.2-2.39 2.181 0 3.228 1.787 3.228 4.876v10.753h5.331V24.837c0-6.096-3.095-8.51-6.589-8.51-1.547 0-2.769.388-3.873 1.066-.928.57-1.759 1.38-2.485 2.445h-.079c-.845-2.115-2.827-3.51-5.41-3.51zm29.285 0c-3.296 0-5.912.926-7.34 1.75l1.045 3.575c1.304-.823 3.384-1.504 5.352-1.504 3.256-.009 3.79 1.842 3.79 3.03v.28c-7.1-.01-11.585 2.447-11.585 7.455 0 3.058 2.284 5.924 6.256 5.924 2.442 0 4.487-.975 5.71-2.537h.12s.812 3.392 5.281 2.095c-.235-1.411-.31-2.917-.31-4.73v-6.978c0-4.448-1.9-8.36-8.319-8.36zm22.147 0c-2.043 0-4.366 1.319-5.341 4.144h-.15v-3.7h-4.8v19.624h5.473v-10.05c0-.541.033-1.014.118-1.447.405-2.105 2.015-3.451 4.326-3.451.635 0 1.089.069 1.58.14v-5.138a5.273 5.273 0 0 0-1.206-.122zM45.222 26.936v2.448c0 .362-.032.736-.132 1.063-.41 1.36-1.82 2.508-3.58 2.508-1.468 0-2.635-.833-2.635-2.595 0-2.696 2.968-3.442 6.347-3.424zm61.017 0v2.448c0 .362-.032.736-.132 1.063-.41 1.36-1.818 2.508-3.58 2.508-1.468 0-2.634-.833-2.634-2.595 0-2.696 2.968-3.442 6.346-3.424z" fill="#fff"/><path d="M167.303.824c-1.713 0-3.074.957-3.074 2.121l1.04 11.777c.115.71.984 1.257 2.034 1.257 1.053-.002 1.92-.549 2.037-1.257l1.045-11.777c0-1.164-1.365-2.12-3.08-2.12zm-16.95 9.447c-.888.021-1.898.694-2.54 1.808-.86 1.483-.708 3.141.298 3.722l10.717 4.992c.67.249 1.58-.227 2.106-1.135.529-.912.488-1.938-.069-2.393l-9.68-6.79a1.564 1.564 0 0 0-.83-.204zm33.898 0a1.56 1.56 0 0 0-.83.204l-9.68 6.79c-.554.455-.595 1.48-.069 2.393.53.908 1.435 1.384 2.105 1.135l10.723-4.991c1.009-.582 1.154-2.24.3-3.723-.645-1.114-1.657-1.787-2.546-1.808zM159.23 25.81a1.086 1.086 0 0 0-.4.067l-10.717 4.985c-1.005.584-1.157 2.242-.298 3.727.856 1.48 2.366 2.184 3.372 1.604l9.68-6.785c.557-.46.599-1.486.07-2.397l.004.002c-.428-.743-1.11-1.195-1.711-1.203zm16.152 0c-.6.008-1.281.46-1.71 1.203l.004-.002c-.527.911-.486 1.937.068 2.397l9.681 6.785c1.004.58 2.515-.124 3.376-1.604.853-1.485.708-3.143-.301-3.727l-10.72-4.985a1.084 1.084 0 0 0-.398-.067zm-8.08 4.88c-1.049.002-1.916.547-2.03 1.255l-1.04 11.776c0 1.166 1.36 2.12 3.073 2.12 1.716 0 3.08-.954 3.08-2.12l-1.043-11.776c-.117-.708-.983-1.253-2.036-1.254h-.004z" fill="#fff"/></svg>