<svg height="34" width="34" xmlns="http://www.w3.org/2000/svg"><path d="m29.995 10.148c-1.341-2.2-3.162-3.94-5.46-5.223-2.301-1.283-4.805-1.925-7.529-1.925s-5.235.642-7.534 1.925c-2.3 1.283-4.12 3.024-5.461 5.223-1.341 2.2-2.011 4.602-2.011 7.2 0 3.13.951 5.938 2.86 8.439 1.91 2.5 4.373 4.228 7.398 5.184.349.065.609.02.78-.131a.71.71 0 0 0 .253-.563c0-.04 0-.373-.007-1.008s-.007-1.191-.007-1.663l-.451.072c-.288.053-.65.072-1.081.066a8.956 8.956 0 0 1 -1.355-.131 3.036 3.036 0 0 1 -1.307-.563 2.387 2.387 0 0 1 -.863-1.152l-.198-.432c-.13-.288-.335-.602-.616-.956-.28-.347-.561-.583-.849-.707l-.136-.092a1.597 1.597 0 0 1 -.254-.222 1.183 1.183 0 0 1 -.177-.262c-.042-.085-.007-.157.095-.216.103-.059.295-.085.568-.085l.39.059c.26.052.582.196.965.452.383.248.698.576.945.968.3.51.663.904 1.08 1.166.425.268.85.399 1.28.399.432 0 .801-.033 1.116-.092.315-.065.602-.157.876-.281.116-.838.438-1.48.958-1.925-.74-.072-1.41-.19-2.005-.334a8.238 8.238 0 0 1 -1.834-.726 5.224 5.224 0 0 1 -1.574-1.25c-.418-.498-.76-1.153-1.027-1.964-.266-.812-.403-1.742-.403-2.802 0-1.506.513-2.789 1.546-3.849-.479-1.132-.438-2.402.137-3.81.376-.111.938-.026 1.683.255.746.282 1.287.524 1.63.72.341.197.622.367.827.505a14.601 14.601 0 0 1 3.75-.485c1.287 0 2.539.164 3.75.485l.74-.446a10.478 10.478 0 0 1 1.799-.824c.691-.25 1.218-.321 1.58-.203.59 1.407.637 2.677.158 3.81 1.026 1.06 1.547 2.343 1.547 3.849 0 1.06-.137 1.996-.404 2.814-.267.819-.61 1.473-1.033 1.964a5.43 5.43 0 0 1 -1.581 1.244 8.055 8.055 0 0 1 -1.834.726c-.596.151-1.26.262-2.005.334.677.563 1.013 1.447 1.013 2.651v3.941c0 .223.082.412.246.563.164.15.417.196.773.131 3.025-.962 5.488-2.69 7.398-5.184 1.909-2.501 2.86-5.31 2.86-8.438.007-2.599-.664-5.001-2.005-7.2z" fill="#24292e"/></svg>