<svg height="34" width="34" xmlns="http://www.w3.org/2000/svg" xmlns:xlink="http://www.w3.org/1999/xlink"><linearGradient id="a"><stop offset="0" stop-color="#fed576"/><stop offset=".26335" stop-color="#f47133"/><stop offset=".60907" stop-color="#bc3081"/><stop offset="1" stop-color="#4c63d2"/></linearGradient><radialGradient id="b" cx="-16.693%" cy="161.773%" gradientTransform="matrix(.98615856 -.16574196 .16580497 .98578382 -.270529 -.004629)" r="413.227%" xlink:href="#a"/><radialGradient id="c" cx="-448.56%" cy="733.516%" gradientTransform="matrix(.98615856 -.16449345 .16580497 .97835805 -1.278222 -.579058)" r="1735.329%" xlink:href="#a"/><radialGradient id="d" cx="15.933%" cy="107.287%" gradientTransform="matrix(.98572 -.1658 .16572 .98616 -.176 .041)" r="211.449%" xlink:href="#a"/><g fill="none"><path d="m15.01 7.338a7.678 7.678 0 0 0 -2.275.347 7.607 7.607 0 0 0 -2.007.968 7.745 7.745 0 0 0 -3.042 4.083 7.592 7.592 0 0 0 -.346 2.275 7.686 7.686 0 0 0 .346 2.276 7.615 7.615 0 0 0 .968 2.008 7.746 7.746 0 0 0 4.08 3.043 7.584 7.584 0 0 0 3.058.307 7.601 7.601 0 0 0 3.5-1.275 7.742 7.742 0 0 0 3.042-4.083 7.592 7.592 0 0 0 .346-2.276 7.686 7.686 0 0 0 -.346-2.275 7.615 7.615 0 0 0 -.968-2.008 7.745 7.745 0 0 0 -4.08-3.043 7.586 7.586 0 0 0 -2.276-.347zm0 2.649a5.16 5.16 0 0 1 1.5.224 4.99 4.99 0 0 1 3.298 3.3 5.02 5.02 0 0 1 .225 1.5 5.167 5.167 0 0 1 -.225 1.5 4.993 4.993 0 0 1 -4.282 3.5 5.16 5.16 0 0 1 -2.016-.2 4.99 4.99 0 0 1 -3.298-3.3 5.02 5.02 0 0 1 -.225-1.5 5.165 5.165 0 0 1 .225-1.5 4.994 4.994 0 0 1 4.282-3.499c.17-.017.342-.025.516-.025z" fill="url(#b)" transform="translate(2 2)"/><path d="m22.991 5.155a1.812 1.812 0 0 0 -1.43.697 1.84 1.84 0 0 0 -.387 1.328 1.855 1.855 0 0 0 .682 1.259 1.827 1.827 0 0 0 1.318.39 1.813 1.813 0 0 0 1.248-.688 1.84 1.84 0 0 0 .387-1.328 1.855 1.855 0 0 0 -.682-1.259 1.827 1.827 0 0 0 -1.136-.399z" fill="url(#c)" transform="translate(2 2)"/><path d="m13.555 0c-.834-.001-1.578.002-2.247.012a62.42 62.42 0 0 0 -1.793.048c-.531.023-1 .053-1.422.092-.21.02-.41.041-.598.065s-.366.05-.536.08a10.228 10.228 0 0 0 -.928.203 7.826 7.826 0 0 0 -.808.27c-.258.103-.51.218-.769.347-.2.099-.384.2-.559.306a6.032 6.032 0 0 0 -.986.743 9.89 9.89 0 0 0 -.498.49c-.216.227-.403.438-.57.645a6.83 6.83 0 0 0 -.441.62 5.862 5.862 0 0 0 -.357.662c-.11.235-.212.488-.313.77a8.846 8.846 0 0 0 -.366 1.33c-.049.248-.09.515-.128.808-.037.294-.068.614-.095.97-.027.357-.05.75-.068 1.187-.018.436-.032.917-.043 1.452-.01.534-.018 1.121-.023 1.77a292.605 292.605 0 0 0 .013 5.25c.013.907.033 1.688.061 2.357.014.334.03.64.048.92.017.28.037.535.059.764.021.229.045.433.07.615.027.182.055.34.085.478.062.286.134.563.215.831.082.268.172.526.272.776.1.249.21.49.33.72a7.755 7.755 0 0 0 .83 1.282 7.278 7.278 0 0 0 1.064 1.073c.198.162.405.316.622.461.2.133.396.256.595.368a7.448 7.448 0 0 0 1.242.556c.22.075.45.142.693.2.243.06.498.112.771.157s.563.084.873.117c.31.034.642.061.998.084s.737.042 1.146.057c.631.023 1.587.036 2.69.041a290.77 290.77 0 0 0 6.949-.054c.488-.011.924-.023 1.285-.037a14.19 14.19 0 0 0 1.862-.165 10.638 10.638 0 0 0 .94-.196 9.283 9.283 0 0 0 1.757-.65c.222-.107.4-.196.558-.284.157-.087.292-.173.426-.272s.267-.211.421-.353.328-.313.544-.529c.19-.19.35-.354.487-.504.138-.15.254-.285.356-.415s.19-.255.271-.385.156-.265.233-.415c.115-.225.217-.433.308-.635.092-.2.173-.395.244-.591.071-.197.133-.395.187-.606.055-.21.101-.433.141-.677s.075-.51.105-.806c.03-.297.054-.624.076-.993.022-.368.041-.777.059-1.236s.034-.968.05-1.537c.016-.549.028-1.124.036-1.712a157.907 157.907 0 0 0 -.018-5.308c-.012-.554-.026-1.083-.043-1.575a69.588 69.588 0 0 0 -.059-1.353 30.343 30.343 0 0 0 -.073-1.054 7.302 7.302 0 0 0 -.085-.681 11.516 11.516 0 0 0 -.246-1.011 9.818 9.818 0 0 0 -.327-.933 8.562 8.562 0 0 0 -.41-.853 7.711 7.711 0 0 0 -.49-.774 7.223 7.223 0 0 0 -1.225-1.31 7.273 7.273 0 0 0 -1.132-.775 8.222 8.222 0 0 0 -.418-.218 13.744 13.744 0 0 0 -.664-.306 6.771 6.771 0 0 0 -1.335-.416 9.913 9.913 0 0 0 -.83-.129 19.3 19.3 0 0 0 -1.047-.09 44.277 44.277 0 0 0 -1.342-.058 114.72 114.72 0 0 0 -1.72-.038 362.5 362.5 0 0 0 -4.959-.043zm1.447 2.646c1.426 0 2.853.008 4.017.023.582.008 1.098.018 1.515.03.417.011.736.025.922.04.243.021.475.047.697.078.22.03.432.067.634.11.201.042.394.09.578.144s.36.115.53.182a5.258 5.258 0 0 1 .933.488 5.05 5.05 0 0 1 .812.668 5.3 5.3 0 0 1 .374.412 4.512 4.512 0 0 1 .795 1.462c.064.19.121.392.172.608.05.216.095.446.133.693.039.246.071.508.1.79.027.281.05.58.07.902.014.257.028.597.039.998s.02.864.028 1.368c.015 1.007.022 2.179.022 3.35-.001 1.171-.01 2.342-.025 3.347-.008.503-.018.964-.03 1.364a27.864 27.864 0 0 1 -.134 2.187c-.017.17-.036.327-.057.475a7.935 7.935 0 0 1 -.071.416 6.031 6.031 0 0 1 -.194.727c-.039.116-.082.23-.13.346-.047.116-.099.235-.156.358a5.324 5.324 0 0 1 -.324.598 4.707 4.707 0 0 1 -.614.771 4.493 4.493 0 0 1 -.771.625 5.108 5.108 0 0 1 -.606.338 6.043 6.043 0 0 1 -.682.276 7.94 7.94 0 0 1 -.76.216c-.267.062-.548.114-.842.157-.108.016-.358.031-.715.045-.358.014-.823.026-1.362.038a335.312 335.312 0 0 1 -7.904.057c-.6-.004-1.14-.01-1.587-.018a28.42 28.42 0 0 1 -1.031-.032 30.066 30.066 0 0 1 -.76-.053c-.236-.02-.456-.042-.661-.067a11.287 11.287 0 0 1 -.577-.085 7.725 7.725 0 0 1 -.51-.106 5.86 5.86 0 0 1 -.455-.13 5.075 5.075 0 0 1 -.812-.351 6.165 6.165 0 0 1 -.933-.623 4.747 4.747 0 0 1 -.47-.444 4.339 4.339 0 0 1 -.568-.78 4.84 4.84 0 0 1 -.298-.611 6.01 6.01 0 0 1 -.125-.336 7.49 7.49 0 0 1 -.208-.74 10.57 10.57 0 0 1 -.155-.84 15.54 15.54 0 0 1 -.106-.947c-.02-.247-.037-.632-.05-1.117a99.788 99.788 0 0 1 -.026-1.725c-.01-1.304-.006-2.866.009-4.397.015-1.53.041-3.028.076-4.2.017-.587.036-1.093.057-1.481.01-.194.022-.359.033-.49.011-.13.023-.227.035-.285.04-.191.08-.369.12-.536.042-.166.084-.321.13-.467.044-.146.091-.283.142-.413a4.53 4.53 0 0 1 .35-.709 5.252 5.252 0 0 1 .48-.636 7.609 7.609 0 0 1 .705-.692c.134-.114.269-.218.408-.313a4.429 4.429 0 0 1 .893-.474c.162-.064.332-.121.512-.172s.37-.096.573-.136.419-.075.649-.105.475-.057.737-.08c.182-.015.497-.03.911-.041.414-.012.928-.022 1.507-.03 1.16-.016 2.585-.024 4.011-.025z" fill="url(#d)" transform="translate(2 2)"/></g></svg>