<svg height="34" width="34" xmlns="http://www.w3.org/2000/svg"><path d="m30.087 15.79c1.91-.148 3.195-.96 3.7-2.06-.686.398-2.824.826-4 .413a8.378 8.378 0 0 0 -.189-.73c-.9-3.087-3.976-5.575-7.194-5.272.26-.096.528-.192.789-.273.355-.118 2.437-.436 2.106-1.122-.276-.606-2.816.457-3.298.598.631-.222 1.68-.606 1.791-1.285a5.213 5.213 0 0 0 -2.65 1.174c.268-.266.465-.59.512-.945-2.587 1.558-4.094 4.666-5.317 7.685-.954-.871-1.806-1.55-2.571-1.934-2.138-1.07-4.694-2.193-8.71-3.588-.126 1.24.655 2.894 2.904 3.994-.49-.06-1.38.074-2.09.236.291 1.425 1.238 2.599 3.801 3.16-1.167.074-1.774.325-2.327.856.537.99 1.838 2.156 4.181 1.912-2.603 1.049-1.065 2.998 1.057 2.702-3.612 3.492-9.308 3.234-12.582.319 8.543 10.897 27.113 6.445 29.882-4.053 2.075.015 3.29-.672 4.047-1.432-1.191.199-2.927.007-3.842-.355z" fill="#1da1f2"/></svg>