<svg height="34" width="34" xmlns="http://www.w3.org/2000/svg"><path d="m26.02 23.933h-1.612v-.966a.75.75 0 0 1 .756-.767h.1a.75.75 0 0 1 .756.767zm-6.086-2.033c-.427 0-.756.267-.756.633v4.667c0 .333.329.633.756.633.428 0 .757-.266.757-.633v-4.667c0-.366-.33-.633-.757-.633zm9.902-2.6v8.833c0 2.134-1.81 3.867-4.047 3.867h-16.578c-2.237 0-4.047-1.733-4.047-3.867v-8.833c0-2.133 1.81-3.867 4.047-3.867h16.611c2.204 0 4.014 1.734 4.014 3.867zm-19.54 9.8v-9.333h2.072v-1.367h-5.493v1.367h1.71v9.333zm6.184-7.933h-1.71v4.966c0 .734.033 1.067 0 1.2-.132.4-.757.8-1.02.034-.033-.134 0-.534 0-1.2v-5h-1.71v4.933c0 .767-.033 1.333 0 1.567.032.466.032.966.427 1.266.757.567 2.237-.1 2.632-.9v1.034h1.381zm5.494 5.7v-4.134c0-1.566-1.152-2.533-2.763-1.233v-3.067h-1.711v10.634l1.414-.034.132-.666c1.776 1.666 2.928.5 2.928-1.5zm5.362-.534h-1.283v.9a.7.7 0 0 1 -.691.7h-.263a.7.7 0 0 1 -.691-.7v-1.9h2.96v-1.133c0-.833-.032-1.633-.098-2.1-.198-1.5-2.27-1.733-3.323-.967-.329.234-.559.567-.723.967-.132.433-.23 1-.23 1.767v2.466c0 4.1 4.934 3.534 4.342 0zm-6.612-13.433c.098.233.23.4.427.533.198.134.428.2.691.2s.46-.066.658-.2c.197-.133.362-.333.493-.633l-.032.667h1.907v-8.234h-1.513v6.434a.651.651 0 0 1 -.625.633.651.651 0 0 1 -.625-.633v-6.434h-1.579v5.567c0 .7 0 1.167.033 1.433.033.234.099.467.165.667zm-5.79-4.633c0-.8.066-1.4.198-1.867.131-.433.361-.8.69-1.067.33-.266.757-.4 1.283-.4.428 0 .823.1 1.152.267s.559.4.723.667c.165.266.296.566.362.866s.099.734.099 1.334v2.1c0 .766-.033 1.333-.099 1.7-.066.366-.197.7-.362 1-.197.3-.427.533-.723.7a2.58 2.58 0 0 1 -1.053.233c-.428 0-.79-.067-1.118-.2a1.684 1.684 0 0 1 -.691-.567 2.626 2.626 0 0 1 -.362-.933c-.066-.367-.099-.9-.099-1.633zm1.513 3.266c0 .467.33.834.757.834.428 0 .757-.367.757-.834v-4.4c0-.466-.33-.833-.757-.833-.428 0-.757.367-.757.833zm-5.296 2.2h1.81v-6.333l2.138-5.4h-1.974l-1.118 4.033-1.185-4.033h-1.94l2.27 5.433v6.3z" fill="#ce1213"/></svg>