<?xml version="1.0" encoding="UTF-8"?><svg width="1055px" height="332px" viewBox="0 0 1055 332" version="1.1" xmlns="http://www.w3.org/2000/svg" xmlns:xlink="http://www.w3.org/1999/xlink"><g id="assets" stroke="none" stroke-width="1" fill="none" fill-rule="evenodd"><g id="ultimate" fill="#FFF"><path d="M243.391084,248.967945 C242.500124,263.823701 244.170675,275.636299 248.402737,284.405739 C252.634799,293.175178 258.760153,299.750115 266.778797,304.130549 C274.797442,308.510982 284.341,311.039804 295.400904,311.708442 C306.460808,312.377079 318.531609,311.897032 331.596174,310.259727 C345.25764,308.519774 358.824361,306.102274 372.246247,303.016152 L414.344131,293.432347 C428.045656,290.304669 441.822664,287.517821 455.662425,285.074376 C468.100527,282.816388 480.676842,281.4016 493.305506,280.839671 C515.879361,280.239612 538.598854,283.479933 561.463985,290.534917 C584.337683,297.589901 607.048609,308.845301 629.622464,324.301117 C631.550022,325.638392 632.706558,326.898517 633.074936,328.090063 C633.443314,329.28161 633.297676,330.207416 632.629455,330.876053 C631.961235,331.544691 630.91607,331.801859 629.511094,331.656131 C628.09755,331.510402 626.427,330.764614 624.499441,329.427339 C607.425553,317.091832 589.606343,308.442404 571.04181,303.461911 C552.870097,298.541103 534.175973,295.810057 515.356779,295.32682 C497.078629,294.860105 478.799168,296.203925 460.785448,299.338646 C442.966238,302.458954 426.22646,305.947871 410.557549,309.813968 C394.888638,313.671493 380.676104,317.357572 367.902815,320.846489 C355.138092,324.335406 344.515102,326.161301 336.050977,326.30703 C320.780537,326.944323 305.516204,324.907808 290.946101,320.289291 C276.467993,315.685978 263.471963,309.402499 251.966579,301.455998 C240.461195,293.509497 231.029007,284.405739 223.678583,274.153295 C216.328159,263.900851 211.984726,253.2798 210.648285,242.281568 C209.8962,235.434235 209.487331,228.553506 209.423215,221.665242 C209.349902,214.421522 209.38703,207.177105 209.534585,199.934519 C205.679467,208.103899 201.51594,215.904671 197.061138,223.336836 C192.883303,230.392651 187.994667,237.002032 182.471659,243.061646 C177.482047,248.568577 171.515846,253.102698 164.875189,256.434398 C158.349137,259.641533 151.067265,260.99087 143.826248,260.334784 C136.107445,259.734725 129.125399,257.694523 122.888676,254.205606 C116.707753,250.757783 111.107821,246.357776 106.294536,241.167172 C101.589308,236.158274 97.8846942,230.295277 95.38027,223.894034 C93.0122304,217.953658 91.6206734,211.668925 91.2595776,205.28362 C90.9597352,193.693901 92.4846483,181.658424 95.8257502,169.177188 C99.1668521,156.695952 103.253277,143.803248 108.076457,130.507646 C113.080586,116.701933 117.943998,102.845556 122.665935,88.9406733 C127.61698,74.3278466 131.415205,59.3490252 134.025682,44.1419525 C134.771005,40.5758851 135.216485,37.0869683 135.362123,33.6666297 C135.528295,30.5352975 135.341501,27.3951995 134.805272,24.305703 C134.383021,21.7429997 133.47583,19.2844886 132.132391,17.0621287 C130.873052,15.0562158 129.348139,13.7532297 127.566218,13.1617426 C126.08414,12.5616832 123.891006,12.2359366 120.995385,12.1587861 C113.558127,12.0705723 106.165209,13.3160755 99.1668521,15.8362931 C94.8919825,17.3433477 90.8157279,19.3640375 87.0275152,21.8540317 C79.7993595,26.6103591 72.8804814,31.8213685 66.3126834,37.4555762 C59.3306372,43.3961644 53.0939136,50.3139921 47.6025128,58.1833426 C41.9591962,66.3496884 37.4274649,75.2314319 34.1267352,84.5945287 C30.6399955,94.3240634 28.8152398,105.133705 28.6696021,117.023453 C28.6696021,119.252246 28.7809721,121.146719 29.0037122,122.706873 C29.2264524,124.267028 29.3378224,125.269984 29.3378224,125.715743 C29.7851229,126.164519 30.0609916,126.756036 30.1174129,127.387337 C30.2041008,127.908884 30.1659329,128.443568 30.0060428,128.947491 C29.860405,129.316099 29.5605626,129.461828 29.1150823,129.39325 C28.6696021,129.316099 27.8557439,128.690323 26.6649409,127.498776 C24.2919019,124.969954 21.1735401,121.412459 17.3098556,116.800574 C13.2983077,111.970426 9.79049511,106.742762 6.84106964,101.19903 C3.70512291,95.3525348 1.55998356,89.026071 0.492976033,82.4771762 C-0.620724601,75.7908 0.304503618,69.1815743 3.27722762,62.6409267 C7.62882032,53.7421328 13.2983591,45.5518599 20.0941072,38.3470931 C27.1810045,30.7418057 35.2747455,24.1427876 44.1500409,18.7337228 C53.3288179,13.1483459 63.1682822,8.73092472 73.4403675,5.5838495 C83.9768697,2.31592409 94.930169,0.5893269 105.960426,0.457627723 C116.951795,0.15759802 126.007037,0.680506931 133.134721,2.01778218 C140.262405,3.35505743 146.165019,5.24953069 150.842562,7.70120198 C155.520104,10.1528733 159.340954,12.8617129 162.313678,15.8362931 C165.286402,18.8108733 167.659441,21.7768812 169.441362,24.7514614 C173.450684,30.2462911 175.343975,37.0098178 175.121235,45.0334693 C174.898495,53.0571208 173.339314,61.9722891 170.443693,71.7789743 C167.27005,82.3965299 163.666105,92.8805187 159.640797,103.204943 C155.219224,114.653464 150.87569,126.13201 146.610499,137.63978 C142.223719,149.47095 138.212387,161.438129 134.582532,173.523333 C131.033404,185.177416 128.682448,197.16358 127.566218,209.295446 C126.52962,221.185194 127.30921,230.134651 129.90499,236.15239 C132.500769,242.170129 137.512422,245.178998 144.939948,245.178998 C151.322309,245.178998 157.302025,243.250236 162.870528,239.384139 C168.439032,235.526614 173.596322,230.46897 178.350967,224.228352 C183.105612,217.987735 187.51758,210.8556 191.604005,202.831949 C195.690429,194.808297 199.511279,186.596055 203.075121,178.203796 C206.638963,169.802964 209.902963,161.522145 212.875687,153.352764 C215.848411,145.183384 218.521292,137.896949 220.894331,131.510602 C223.421575,121.403887 226.017354,111.597202 228.690236,102.090547 C231.363117,92.5753188 233.924629,83.6258614 236.37477,75.233602 C238.824912,66.8327703 240.940943,59.1520099 242.722864,52.165604 C244.504785,45.179198 245.841226,39.0928812 246.732186,33.8895089 C247.477509,27.5031624 247.477509,22.9684277 246.732186,20.2938772 C245.841226,18.2108139 246.286706,17.1735683 248.068627,17.1735683 C249.850548,17.1735683 252.412059,17.9536455 255.753161,19.5138 C259.094263,21.0739545 262.735207,23.1141564 266.667427,25.6429782 C270.608214,28.1718 274.240592,30.9577901 277.581694,34.0009485 C280.922795,37.0441069 283.595677,40.1301267 285.600338,43.2504356 C287.604999,46.3707446 288.084747,49.1910238 287.048149,51.7198455 C280.365945,71.7789743 274.429064,89.8664792 269.228939,105.990933 C264.249321,121.332925 259.902217,136.873302 256.198641,152.572687 C252.692796,167.592854 249.868528,182.764181 247.734517,198.040046 C245.584218,213.418711 244.136407,230.39182 243.391084,248.967945 Z" id="Shape"></path><path d="M316.569783,197.037089 C316.569783,201.494673 316.60405,206.063697 316.681153,210.74416 C316.758255,215.424624 317.383641,219.736479 318.574444,223.671154 C319.765247,227.614402 321.40153,230.914729 323.474727,233.589279 C325.55649,236.26383 328.597749,237.746834 332.607072,238.046863 C337.361717,238.192592 342.030692,236.563859 346.6397,233.143521 C351.557961,229.407399 355.909449,224.978121 359.558627,219.993648 C363.567949,214.644547 367.277429,208.661097 370.695633,202.051871 C374.113838,195.442646 377.300735,189.090588 380.273459,182.995699 C381.018782,181.512695 381.986844,180.578317 383.16908,180.209709 C384.353735,179.838131 385.637932,179.9586 386.732923,180.544028 C387.923726,181.144087 388.883221,182.069893 389.628544,183.330018 C390.373867,184.590143 390.519505,186.116008 390.074024,187.899042 C387.846623,194.285388 384.839631,201.348945 381.053049,209.072566 C377.308752,216.730297 372.833117,224.007745 367.688642,230.803289 C362.873743,237.258699 357.131838,242.966638 350.649022,247.742109 C344.412298,252.276844 337.884299,254.539925 331.047891,254.539925 C324.811167,254.539925 319.354034,253.236939 314.676492,250.639539 C310.023977,248.059852 305.8741,244.662378 302.425785,240.609974 C298.983435,236.599436 296.167313,232.090828 294.07303,227.237222 C290.327717,218.613555 287.851818,209.492054 286.722606,200.157398 C286.34472,197.124734 286.12169,194.074754 286.054385,191.01935 L286.722606,176.532202 C287.022448,160.039141 288.804369,143.846109 292.068369,127.944535 C295.332368,112.04296 299.830005,97.5558119 305.544146,84.4830891 C311.258287,71.4103663 318.017593,60.4121347 325.813498,51.4969663 C333.609402,42.581798 342.330535,36.6412099 351.985463,33.6666297 C354.512707,32.9208416 357.699604,33.1865822 361.563288,34.4467069 C365.418406,35.7068317 368.990815,37.6441663 372.254814,40.2415663 C375.518814,42.8389663 378.303065,45.890697 380.607569,49.3796139 C382.912073,52.8685307 383.760199,56.3231584 383.16908,59.743497 C382.423758,68.6586653 380.239191,78.1310317 376.598247,88.160596 C372.883939,98.3593999 368.416819,108.267699 363.233839,117.803531 C357.993304,127.488964 351.91922,136.698998 345.080519,145.329113 C338.686011,153.516523 331.276043,160.856223 323.029246,167.171275 L316.792523,197.037089 L316.569783,197.037089 Z M370.027413,50.8283287 C366.463571,51.7198455 362.711257,55.0287446 358.779037,60.7464535 C354.83825,66.4641624 350.871762,73.8963267 346.86244,83.0343743 C342.442171,93.3073822 338.648624,103.839185 335.502693,114.571782 C331.809746,126.977397 328.688096,139.546165 326.147608,152.238368 C330.902253,147.180725 335.536961,141.094408 340.068866,133.962273 C344.634445,126.76636 348.870877,119.366568 352.765053,111.785792 C356.70584,104.130749 360.115477,96.5957168 363.011099,89.1635525 C365.906721,81.7313881 368.211224,75.0878733 369.916043,69.2158634 C371.629429,63.3438535 372.554657,58.7062515 372.700295,55.2859129 C372.845932,51.8655743 371.954972,50.3825703 370.027413,50.8283287 Z" id="Shape"></path><path d="M376.829554,211.969996 C376.683916,207.658141 377.463506,200.860325 379.168325,191.576549 C380.881711,182.292772 382.92064,171.81745 385.293679,160.15058 C387.666718,148.492283 390.193961,136.268216 392.866843,123.48695 C395.539724,110.714257 397.92133,98.8245089 399.994527,87.8262772 C394.794402,88.8635228 389.637111,89.7550396 384.514088,90.5008277 C379.391065,91.2466158 374.379412,92.2152832 369.47913,93.3982574 C367.551571,93.9983168 366.026658,94.1440455 364.912957,93.8440158 C363.799256,93.5439861 363.388044,92.8753485 363.687886,91.838103 C363.987729,90.8008574 365.281335,89.4207208 367.585839,87.7148376 C369.890342,86.0003822 373.342814,84.0373307 377.943254,81.8085386 C381.952577,79.8797762 385.961899,78.1310317 389.971221,76.5708772 C393.980544,75.0107228 398.281141,73.4848574 402.890149,72.0018535 C403.781109,65.1697485 404.415062,59.5206178 404.78344,55.0630337 C405.151818,50.6054495 404.89481,47.7080198 404.003849,46.3707446 C402.521771,44.2876812 403.258527,43.2847248 406.231251,43.3618752 C409.203975,43.4390257 412.836352,44.3648317 417.145517,46.1478653 C421.454681,47.930899 425.755279,50.3482812 430.064444,53.3914396 C434.373609,56.434598 437.346333,60.0435267 438.974049,64.2010812 C445.422358,63.1050981 451.930687,62.3980383 458.46381,62.0837287 L481.740153,60.8578931 C484.858515,60.8578931 488.790735,60.9693327 493.54538,61.1922119 C498.300025,61.4150911 503.234576,62.0065782 508.357599,62.9752455 C513.480621,63.9439129 518.569377,65.2383267 523.615297,66.8756317 C528.669785,68.5043644 533.124587,70.7331564 536.979705,73.5620079 C540.689185,76.3908594 543.661909,79.1339881 545.88931,81.8085386 C548.116711,84.4830891 549.641624,86.8233208 550.455483,88.8292337 C551.269341,90.8351465 551.534915,92.395301 551.235073,93.509697 C550.93523,94.6240931 550.04427,94.7355327 548.562191,93.8440158 C542.479673,90.8694356 535.309154,88.3491861 527.067769,86.2661228 C518.892882,84.1984374 510.598745,82.6353376 502.232245,81.5856594 C494.507047,80.59309 486.739859,79.9609146 478.955902,79.6911861 C471.759682,79.4683069 466.071242,79.656897 461.916282,80.2483842 C460.288566,80.6941426 457.273007,81.1056119 452.895307,81.4742198 C448.517607,81.8428277 443.351749,82.3314475 437.414868,82.9229347 C436.438136,90.0955574 435.212324,97.2320081 433.739656,104.319339 L428.282523,131.287723 C426.354964,140.80295 424.341736,150.455335 422.26854,160.26202 C420.322151,169.426163 418.428829,178.601511 416.588666,187.787602 C414.875281,196.334162 413.358935,203.723465 412.022494,209.964083 C410.686053,216.204701 409.649455,220.507984 408.904132,222.891077 C408.158809,226.602873 408.124542,229.577453 408.792762,231.806246 C409.460982,234.035038 410.540415,235.706632 412.022494,236.821028 C413.504572,237.935424 415.440698,238.604061 417.813737,238.826941 C420.186776,239.04982 422.345642,238.93838 424.273201,238.492622 C426.946082,237.892562 430.098712,235.818071 433.739656,232.252004 C437.380601,228.685937 441.09008,224.194063 444.876662,218.767812 C448.663245,213.34156 452.415559,207.512412 456.125039,201.271794 C459.834519,195.031176 463.029983,188.936287 465.702864,182.995699 C466.448187,181.512695 467.373415,180.578317 468.487116,180.209709 C469.672375,179.843932 470.954295,179.964187 472.050958,180.544028 C473.310296,181.144087 474.355462,182.069893 475.16932,183.330018 C475.983178,184.590143 476.17165,186.116008 475.72617,187.899042 C473.222576,194.970475 470.398272,201.924088 467.262045,208.738248 C463.926453,216.100969 459.938311,223.149844 455.345448,229.800333 C451.122056,236.001698 446.062556,241.589373 440.31049,246.404834 C434.819089,250.939568 429.096381,253.425529 423.1595,253.871287 C414.695375,254.471347 407.456321,253.16836 401.442338,249.970901 C395.428354,246.773442 390.562339,242.804477 386.85286,238.046863 C383.14338,233.28925 380.581868,228.463057 379.168325,223.559715 C377.754782,218.656372 376.975192,214.790275 376.829554,211.969996 Z" id="Shape"></path><path d="M458.917857,226.680024 C458.618015,220.293677 459.286235,212.707212 460.922519,203.946345 C462.550235,195.176905 464.340723,186.484616 466.268282,177.869477 C468.19584,169.254339 469.532281,161.410705 470.277604,154.355721 C471.022927,147.300737 470.500344,142.431683 468.718423,139.757133 C467.236344,137.382612 468.204407,136.336794 471.614045,136.636824 C475.032249,136.936853 479.041571,138.085539 483.642011,140.091451 C488.503211,142.262043 493.008843,145.154962 497.006419,148.672301 C501.315584,152.384097 503.688623,156.473073 504.134103,160.930657 C504.279741,162.55939 503.799993,165.53397 502.686292,169.845826 L498.89971,184.555853 C497.408849,190.358872 495.886769,196.153816 494.333538,201.940432 C492.705821,208.026749 491.437916,213.64159 490.546955,218.767812 C489.655995,223.894034 489.244782,228.163028 489.321885,231.583366 C489.398987,235.003705 490.401318,236.932467 492.328876,237.378226 C495.001758,237.978285 498.043017,236.520998 501.461222,233.032081 C504.879426,229.543164 508.254795,225.08558 511.595897,219.659329 C514.936999,214.233077 518.278101,208.215339 521.619203,201.606113 C524.960305,194.996887 528.112934,188.790558 531.085658,182.995699 C531.685343,181.512695 532.567737,180.578317 533.75854,180.209709 C534.905593,179.834443 536.157157,179.955638 537.211012,180.544028 C538.324713,181.144087 539.327043,182.069893 540.218004,183.330018 C541.108964,184.590143 541.331704,186.116008 540.886224,187.899042 C539.549783,192.056596 537.956335,196.557042 536.097311,201.383234 C532.19859,211.458256 527.389763,221.156517 521.730573,230.357531 C518.903487,234.892265 515.793692,238.86123 512.375488,242.281568 C509.171631,245.53207 505.580906,248.376503 501.683962,250.750978 C498.176904,252.912712 494.207424,254.211236 490.101475,254.539925 C484.755712,254.839954 480.223807,253.939865 476.514327,251.865374 C472.905654,249.870669 469.696312,247.226032 467.047872,244.064602 C464.619422,241.219237 462.629881,238.026472 461.145259,234.592236 C459.808818,231.394776 459.063495,228.763087 458.917857,226.680024 Z M485.201192,131.287723 C482.374106,129.804719 480.600752,128.458871 479.855429,127.275897 C479.110107,126.08435 478.887366,124.232739 479.187209,121.703917 C479.187209,119.029366 479.375681,115.763329 479.744059,111.897232 C480.112437,108.039707 480.712122,104.207899 481.52598,100.418952 C482.339838,96.6300059 483.419271,93.1325168 484.755712,89.9436297 C486.092153,86.7461703 487.874074,84.6288178 490.101475,83.5915723 C491.437916,82.5543267 494.042262,82.4771762 497.89738,83.3686931 C501.752497,84.2602099 505.693284,85.563196 509.702606,87.2690792 C513.711929,88.9835347 517.241503,90.9465861 520.282762,93.1753782 C523.324022,95.4041703 524.926037,97.4100832 525.071675,99.1931168 C517.789786,104.842248 512.521126,112.197261 509.257126,121.258158 C507.329567,126.607259 504.613851,130.361917 501.127111,132.513558 C497.640372,134.6652 492.328876,134.262303 485.201192,131.287723 Z" id="Shape"></path><path d="M551.029467,241.167172 C550.284144,243.996024 549.693026,246.293394 549.247546,248.076428 C548.955806,249.424316 548.507269,250.733366 547.911105,251.976814 C547.608777,252.604548 547.193493,253.171197 546.686034,253.648408 C546.269633,253.96038 545.757868,254.117945 545.238223,254.094166 C541.528744,254.094166 538.187642,252.97977 535.214918,250.750978 C532.258288,248.535475 529.633134,245.908681 527.419013,242.950206 C525.353587,240.306237 523.83881,237.274791 522.964211,234.035038 C522.218888,231.060457 521.927612,228.763087 522.07325,227.125782 C523.109849,221.330923 524.669029,214.087349 526.750793,205.395059 C528.832556,196.70277 530.725847,187.899042 532.430666,178.983873 C534.144052,170.068705 535.51476,161.787885 536.551358,154.132842 C537.587957,146.477798 537.587957,140.7258 536.551358,136.859703 C536.251516,135.23097 536.919736,134.373743 538.55602,134.296592 C540.183736,134.219442 542.265499,134.596622 544.792743,135.410988 C547.319987,136.225354 550.249876,137.494051 553.590978,139.199935 C556.93208,140.91439 560.050442,142.843152 562.946063,144.994794 C565.841685,147.146436 568.146189,149.418089 569.851007,151.79261 C571.564393,154.167131 572.412519,156.550224 572.412519,158.924745 C571.992452,160.421117 571.694486,161.949144 571.521558,163.493768 C571.149491,165.957596 570.553034,168.382217 569.739637,170.737343 C574.794125,161.076386 580.653904,153.052735 587.336107,146.666388 C594.018311,140.280042 602.182593,137.45119 611.837521,138.196978 C623.120165,139.234224 630.993172,144.960505 635.447975,155.358677 C636.638778,157.887499 637.306998,160.930657 637.452636,164.496725 C637.598274,168.062792 637.452636,172.074618 637.007156,176.532202 C639.834242,170.883071 642.721297,165.64541 645.694021,160.819218 C648.453783,156.25373 651.784681,152.05942 655.605956,148.337982 C659.079259,144.958534 663.110977,142.206205 667.522553,140.202891 C671.831718,138.274129 676.654898,137.528341 682.000661,137.974099 C693.137667,139.011345 701.07921,144.737626 705.833855,155.135798 C707.615776,159.593382 708.249728,165.131073 707.727146,171.740299 C707.161622,178.624443 706.006558,185.447306 704.274674,192.133747 C702.559178,198.891812 700.590249,205.582918 698.37206,212.192875 C696.221762,218.579222 694.842486,223.782594 694.251368,227.79442 C693.651683,231.506216 693.805888,234.257917 694.696848,236.04095 C695.587809,237.823984 696.778612,238.93838 698.26069,239.384139 C699.742769,239.829897 701.456155,239.495578 703.383713,238.381182 C705.311272,237.266786 707.093193,235.672343 708.729476,233.589279 C710.511397,231.060457 712.773066,227.717269 715.52305,223.559715 C718.264467,219.40216 721.237191,215.013154 724.432655,210.409842 C727.628119,205.806529 730.515174,201.083204 733.11952,196.257012 C735.715299,191.43082 737.831331,187.007525 739.467614,182.995699 C740.212937,181.512695 741.09533,180.578317 742.140495,180.209709 C743.288884,179.846854 744.535424,179.967562 745.592967,180.544028 C746.895606,181.172413 748.00963,182.133378 748.822699,183.330018 C749.71366,184.590143 749.859297,186.116008 749.268179,187.899042 C747.186416,194.285388 744.479267,201.271794 741.138165,208.849687 C737.797063,216.42758 733.976213,223.559715 729.667048,230.246091 C725.711342,236.517806 720.91488,242.217161 715.41168,247.184911 C710.211555,251.788224 704.574516,254.239895 698.483431,254.539925 C690.17351,254.839954 682.857354,252.534012 676.543528,247.630669 C670.406454,243.009116 666.23192,236.246127 664.849671,228.685937 C663.813073,225.711356 663.701703,221.888121 664.515561,217.207657 C665.329419,212.527194 666.297482,207.478123 667.411183,202.051871 C668.524883,196.62562 669.715686,191.13079 670.975025,185.55881 C672.138639,180.509425 673.104583,175.416463 673.870647,170.291584 C674.538867,165.688271 674.650237,162.010764 674.204757,159.259063 C673.759276,156.515935 672.422836,155.135798 670.195434,155.135798 C667.522553,155.135798 664.404191,156.918832 660.840349,160.484899 C657.276507,164.050966 653.524193,168.54284 649.591973,173.969091 C645.651186,179.395343 642.053076,185.25878 638.789077,191.576549 C635.525077,197.894317 632.706558,203.800616 630.324952,209.295446 C628.543031,215.381762 626.87248,221.219483 625.313299,226.791463 C623.754118,232.363444 622.38341,237.078196 621.192607,240.944293 C619.710528,246.739152 618.742465,250.373798 618.296985,251.865374 C617.851505,253.348378 617.106182,254.094166 616.069584,254.094166 C612.060261,254.094166 608.530687,252.97977 605.489428,250.750978 C602.498472,248.575393 599.867751,245.943029 597.693523,242.950206 C595.685077,240.270605 594.175996,237.250559 593.238721,234.035038 C592.424863,231.060457 592.159288,228.763087 592.45913,227.125782 C594.086847,217.910584 596.100075,208.626808 598.473114,199.265881 C600.846153,189.904954 602.628074,180.321149 603.818877,170.514463 C604.264357,166.056879 604.298625,162.413661 603.930247,159.593382 C603.561869,156.764531 602.182593,155.358677 599.809554,155.358677 C597.136673,155.358677 594.052579,157.176 590.565839,160.819218 C587.079099,164.462436 583.403887,169.065749 579.540203,174.637729 C575.685085,180.209709 571.932771,186.150297 568.291826,192.468065 C564.950578,198.197925 561.938694,204.113833 559.270851,210.186962 L551.029467,241.167172 Z" id="Shape"></path><path d="M787.922158,138.865616 C794.004677,139.311374 798.913527,141.908774 802.623007,146.666388 C802.323164,143.40035 801.877684,141.094408 801.286566,139.757133 C800.095763,138.1284 800.172865,137.194022 801.509306,136.971143 C802.845747,136.748263 804.92751,136.893992 807.74603,137.416901 C810.573116,137.931238 813.725745,138.977055 817.212485,140.53721 C820.699225,142.097364 823.928956,143.880398 826.90168,145.886311 C829.874404,147.892224 832.324546,150.232455 834.252105,152.907006 C836.179663,155.581556 837.147726,158.256107 837.147726,160.930657 C837.002088,162.413661 836.222498,165.353952 834.808955,169.734386 L829.908672,185.001612 C827.984038,191.024231 826.164716,197.080041 824.451539,203.166267 C822.790027,208.964195 821.414799,214.840461 820.330847,220.773725 C819.362784,226.199976 818.960138,230.769 819.105776,234.480796 C819.251414,238.192592 820.587855,240.198505 823.115098,240.498535 C825.642342,241.098594 828.606499,239.495578 832.024703,235.706632 C835.442908,231.917685 838.963915,227.091493 842.604859,221.219483 C846.245804,215.347473 849.921016,208.961127 853.630496,202.051871 C857.339975,195.142616 860.612542,188.790558 863.431061,182.995699 C864.176384,181.366966 865.058778,180.398299 866.103943,180.098269 C867.270282,179.814955 868.500148,179.973747 869.556415,180.544028 C870.815753,181.144087 871.860918,182.069893 872.674776,183.330018 C873.510371,184.696716 873.789451,186.332347 873.454367,187.899042 C871.226966,194.285388 868.554084,201.271794 865.435722,208.849687 C862.364136,216.339488 858.558993,223.506581 854.075976,230.246091 C849.983521,236.51363 845.077488,242.20968 839.486498,247.184911 C834.217837,251.788224 828.537964,254.239895 822.446878,254.539925 C818.760373,254.717475 815.078209,254.109729 811.643982,252.756891 C808.437634,251.497337 805.435237,249.769881 802.734377,247.630669 C800.224068,245.646604 798.04387,243.27698 796.274913,240.609974 C794.744612,238.363064 793.509412,235.928576 792.599701,233.3664 C790.173674,238.499902 786.981712,243.23447 783.133246,247.40779 C779.492301,251.265315 775.003231,253.348378 769.657468,253.648408 C763.69835,253.792132 757.847937,252.035912 752.951958,248.633626 C747.751833,245.144709 743.485503,240.164216 740.144401,233.700719 C736.803299,227.237222 734.87574,219.5136 734.353158,210.521281 C733.839142,201.528962 735.355488,191.542259 738.91933,180.544028 C740.547047,174.749168 742.74018,169.254339 745.490164,164.050966 C748.134923,158.986018 751.596769,154.392442 755.73621,150.455335 C759.810788,146.597823 764.570055,143.536384 769.768838,141.428727 C775.037499,139.277085 781.094317,138.419857 787.922158,138.865616 Z M766.984586,241.390051 C770.102948,241.244323 772.810097,239.864186 775.114601,237.266786 C777.419105,234.669386 779.646506,231.283337 781.796805,227.125782 C784.121315,222.573965 786.166879,217.884838 787.922158,213.084392 C789.849717,207.88102 791.931481,202.38619 794.158882,196.591331 C795.19548,191.533687 796.274913,186.450327 797.388614,181.324105 C798.502314,176.197883 799.504645,171.32883 800.395605,166.725517 C800.395605,164.942483 800.429873,162.970859 800.506975,160.819218 C800.594821,158.839713 800.445261,156.856808 800.061495,154.912919 C799.76189,153.287165 799.074157,151.757914 798.056834,150.455335 C797.088771,149.263788 795.572425,148.672301 793.490661,148.672301 C791.117622,148.672301 788.624646,149.820986 786.028867,152.126929 C783.433088,154.432871 780.717372,157.47603 777.898853,161.264976 C775.071766,165.053923 772.364617,169.365778 769.768838,174.19197 C767.227995,178.89245 765.031932,183.771499 763.198004,188.790558 C760.970603,194.876875 759.44569,201.083204 758.631832,207.400972 C757.825356,213.086814 757.713161,218.849714 758.297721,224.562671 C758.897406,229.688893 759.925438,233.812158 761.416083,236.932467 C762.898162,240.052776 764.757185,241.53578 766.984586,241.390051 Z" id="Shape"></path><path d="M860.878117,211.969996 C860.732479,207.658141 861.512069,200.860325 863.216888,191.576549 C864.930274,182.292772 866.969202,171.81745 869.342241,160.15058 C871.715281,148.492283 874.242524,136.268216 876.915406,123.48695 C879.588287,110.714257 881.969893,98.8245089 884.04309,87.8262772 C878.842965,88.8635228 873.685674,89.7550396 868.562651,90.5008277 C863.439628,91.2466158 858.427975,92.2152832 853.527692,93.3982574 C851.600134,93.9983168 850.075221,94.1440455 848.96152,93.8440158 C847.847819,93.5439861 847.436607,92.8753485 847.736449,91.838103 C848.036292,90.8008574 849.329898,89.4207208 851.634401,87.7148376 C853.938905,86.0003822 857.391377,84.0373307 861.991817,81.8085386 C866.00114,79.8797762 870.010462,78.1310317 874.019784,76.5708772 C878.029106,75.0107228 882.329704,73.4848574 886.938711,72.0018535 C887.696606,66.3704929 888.327862,60.7227923 888.832003,55.0630337 C889.20038,50.6054495 888.943373,47.7080198 888.052412,46.3707446 C886.570334,44.2876812 887.307089,43.2847248 890.279813,43.3618752 C893.252537,43.4390257 896.884915,44.3648317 901.19408,46.1478653 C905.503244,47.930899 909.803842,50.3482812 914.113007,53.3914396 C918.422172,56.434598 921.394896,60.0435267 923.022612,64.2010812 C929.470921,63.1050981 935.97925,62.3980383 942.512373,62.0837287 L965.788716,60.8578931 C968.907078,60.8578931 972.839298,60.9693327 977.593943,61.1922119 C982.348588,61.4150911 987.283139,62.0065782 992.406161,62.9752455 C997.529184,63.9439129 1002.61794,65.2383267 1007.66386,66.8756317 C1012.71835,68.5043644 1017.17315,70.7331564 1021.02827,73.5620079 C1024.73775,76.3908594 1027.71047,79.1339881 1029.93787,81.8085386 C1032.16527,84.4830891 1033.69019,86.8233208 1034.50405,88.8292337 C1035.3179,90.8351465 1035.58348,92.395301 1035.28364,93.509697 C1034.98379,94.6240931 1034.09283,94.7355327 1032.61075,93.8440158 C1026.52824,90.8694356 1019.35772,88.3491861 1011.11633,86.2661228 C1002.94144,84.1984374 994.647308,82.6353376 986.280808,81.5856594 C978.55561,80.59309 970.788422,79.9609146 963.004465,79.6911861 C955.808245,79.4683069 950.119805,79.656897 945.964845,80.2483842 C944.337129,80.6941426 941.32157,81.1056119 936.94387,81.4742198 C932.56617,81.8428277 927.400312,82.3314475 921.463431,82.9229347 C920.486699,90.0955574 919.260887,97.2320081 917.788219,104.319339 L912.331086,131.287723 C910.36805,140.954426 908.36337,150.612614 906.317103,160.26202 C904.370712,169.426163 902.477389,178.601511 900.637229,187.787602 C898.923844,196.334162 897.407497,203.723465 896.071057,209.964083 C894.734616,216.204701 893.698018,220.507984 892.952695,222.891077 C892.207372,226.602873 892.173104,229.577453 892.841325,231.806246 C893.509545,234.035038 894.588978,235.706632 896.071057,236.821028 C897.553135,237.935424 899.489261,238.604061 901.8623,238.826941 C904.235339,239.04982 906.394205,238.93838 908.321764,238.492622 C910.994645,237.892562 914.147275,235.818071 917.788219,232.252004 C921.429163,228.685937 925.138643,224.194063 928.925225,218.767812 C932.711808,213.34156 936.464122,207.512412 940.173602,201.271794 C943.883082,195.031176 947.078546,188.936287 949.751427,182.995699 C950.49675,181.512695 951.421978,180.578317 952.535679,180.209709 C953.720938,179.843932 955.002858,179.964187 956.099521,180.544028 C957.358859,181.144087 958.404024,182.069893 959.217883,183.330018 C960.031741,184.590143 960.220213,186.116008 959.774733,187.899042 C957.271139,194.970475 954.446835,201.924088 951.310608,208.738248 C947.975016,216.100969 943.986874,223.149844 939.394011,229.800333 C935.170619,236.001698 930.111119,241.589373 924.359053,246.404834 C918.867652,250.939568 913.144944,253.425529 907.208063,253.871287 C898.743938,254.471347 891.504884,253.16836 885.490901,249.970901 C879.476917,246.773442 874.610902,242.804477 870.901422,238.046863 C867.191943,233.28925 864.630431,228.463057 863.216888,223.559715 C861.803345,218.656372 861.023754,214.790275 860.878117,211.969996 Z" id="Shape"></path><path d="M995.08761,240.498535 C1001.25205,240.282941 1007.18508,238.095721 1012.01586,234.257917 C1017.07991,230.216249 1021.47708,225.402664 1025.04616,219.993648 C1028.83274,214.344517 1032.20811,208.33535 1035.18083,201.940432 C1038.15356,195.554085 1040.89497,189.682075 1043.42222,184.332974 C1044.0219,183.141428 1045.01567,182.618519 1046.42921,182.77282 C1047.84275,182.918549 1049.2563,183.372879 1050.66127,184.110095 C1052.07481,184.855883 1053.14568,185.82455 1053.891,187.007525 C1054.63633,188.199071 1054.78196,189.313467 1054.33648,190.350713 C1053.44552,192.725234 1052.14335,195.888404 1050.43853,199.823079 C1048.72515,203.766327 1046.68622,208.103899 1044.31318,212.861513 C1041.78288,217.877684 1038.9179,222.717681 1035.73768,227.348661 C1032.39658,232.252004 1028.6871,236.743877 1024.60068,240.832853 C1020.60989,244.85051 1016.02772,248.232907 1011.01353,250.862418 C1006.04471,253.459818 1000.73322,254.762804 995.08761,254.762804 C986.477847,254.908533 979.127423,253.502679 973.036337,250.528099 C966.953819,247.553519 962.087803,243.541693 958.446859,238.492622 C954.730531,233.2674 952.081283,227.359675 950.650955,221.108044 C949.081463,214.467138 948.407257,207.645919 948.646293,200.826036 C948.869034,193.83963 949.905632,186.938947 951.764655,180.098269 C953.529355,173.488329 956.110776,167.124335 959.44919,161.153537 L959.67193,160.930657 C964.27237,152.907006 969.506763,147.077857 975.375109,143.43464 C981.243454,139.791422 987.146068,137.82837 993.082949,137.528341 C998.840129,137.188102 1004.57069,138.544148 1009.56572,141.428727 C1014.62021,144.326156 1018.77517,148.372271 1022.03917,153.575644 C1025.01189,157.733198 1026.52824,162.156493 1026.60534,166.836956 C1026.67054,171.585284 1026.03252,176.317091 1024.71205,180.878347 C1023.28125,185.747245 1020.97944,190.315973 1017.91847,194.362539 C1014.72301,198.674394 1010.97926,202.420479 1006.6701,205.617939 C1002.33626,208.827567 997.575591,211.415687 992.526098,213.307271 C987.369187,215.244622 981.883167,216.15322 976.377439,215.981822 C976.231801,219.547889 976.411707,222.891077 976.93429,226.011386 C977.448305,229.131695 978.459203,231.806246 979.941281,234.035038 C981.42336,236.26383 983.393753,237.978285 985.843895,239.161259 C988.294036,240.352806 991.37813,240.789992 995.08761,240.498535 Z M979.273061,203.723465 C986.700587,203.869194 992.971579,202.240461 998.094602,198.820123 C1002.9788,195.661358 1006.99815,191.333074 1009.78846,186.227448 C1012.46134,181.255527 1014.09762,176.086444 1014.68874,170.737343 C1015.28843,165.388242 1014.91148,160.896368 1013.57504,157.25315 C1012.2386,153.609933 1010.15684,151.424002 1007.33832,150.678214 C1004.51123,149.932426 1000.80175,151.715459 996.201311,156.027315 C993.674067,158.256107 991.523768,161.376416 989.741847,165.388242 C987.959926,169.400067 986.400745,173.600483 985.064304,177.980917 C983.727863,182.36135 982.579895,186.818935 981.611832,191.353669 C980.72747,195.456409 979.947627,199.58101 979.273061,203.723465 Z" id="Shape"></path></g></g></svg>