<svg height="332" viewBox="0 0 1055 332" width="1055" xmlns="http://www.w3.org/2000/svg"><g fill="#545e6f" fill-rule="evenodd"><path d="m243.391084 248.967945c-.89096 14.855756.779591 26.668354 5.011653 35.437794 4.232062 8.769439 10.357416 15.344376 18.37606 19.72481 8.018645 4.380433 17.562203 6.909255 28.622107 7.577893 11.059904.668637 23.130705.18859 36.19527-1.448715 13.661466-1.739953 27.228187-4.157453 40.650073-7.243575l42.097884-9.583805c13.701525-3.127678 27.478533-5.914526 41.318294-8.357971 12.438102-2.257988 25.014417-3.672776 37.643081-4.234705 22.573855-.600059 45.293348 2.640262 68.158479 9.695246 22.873698 7.054984 45.584624 18.310384 68.158479 33.7662 1.927558 1.337275 3.084094 2.5974 3.452472 3.788946.368378 1.191547.22274 2.117353-.445481 2.78599-.66822.668638-1.713385.925806-3.118361.780078-1.413544-.145729-3.084094-.891517-5.011653-2.228792-17.073888-12.335507-34.893098-20.984935-53.457631-25.965428-18.171713-4.920808-36.865837-7.651854-55.685031-8.135091-18.27815-.466715-36.557611.877105-54.571331 4.011826-17.81921 3.120308-34.558988 6.609225-50.227899 10.475322-15.668911 3.857525-29.881445 7.543604-42.654734 11.032521-12.764723 3.488917-23.387713 5.314812-31.851838 5.460541-15.27044.637293-30.534773-1.399222-45.104876-6.017739-14.478108-4.603313-27.474138-10.886792-38.979522-18.833293s-20.937572-17.050259-28.287996-27.302703-11.693857-20.873495-13.030298-31.871727c-.752085-6.847333-1.160954-13.728062-1.22507-20.616326-.073313-7.24372-.036185-14.488137.11137-21.730723-3.855118 8.16938-8.018645 15.970152-12.473447 23.402317-4.177835 7.055815-9.066471 13.665196-14.589479 19.72481-4.989612 5.506931-10.955813 10.041052-17.59647 13.372752-6.526052 3.207135-13.807924 4.556472-21.048941 3.900386-7.718803-.600059-14.700849-2.640261-20.937572-6.129178-6.180923-3.447823-11.780855-7.84783-16.59414-13.038434-4.705228-5.008898-8.4098418-10.871895-10.914266-17.273138-2.3680396-5.940376-3.7595966-12.225109-4.1206924-18.610414-.2998424-11.589719 1.2250707-23.625196 4.5661726-36.106432s7.4275268-25.37394 12.2507068-38.669542c5.004129-13.805713 9.867541-27.66209 14.589478-41.5669727 4.951045-14.6128267 8.74927-29.5916481 11.359747-44.7987208.745323-3.5660674 1.190803-7.0549842 1.336441-10.4753228.166172-3.1313322-.020622-6.2714302-.556851-9.3609267-.422251-2.5627033-1.329442-5.0212144-2.672881-7.2435743-1.259339-2.0059129-2.784252-3.308899-4.566173-3.9003861-1.482078-.6000594-3.675212-.925806-6.570833-1.0029565-7.437258-.0882138-14.830176 1.1572894-21.8285329 3.677507-4.2748696 1.5070546-8.3511242 3.5277444-12.1393369 6.0177386-7.2281557 4.7563274-14.1470338 9.9673368-20.7148318 15.6015445-6.9820462 5.9405882-13.2187698 12.8584159-18.7101706 20.7277664-5.6433166 8.1663458-10.1750479 17.0480893-13.4757776 26.4111861-3.4867397 9.7295347-5.3114954 20.5391763-5.4571331 32.4289243 0 2.228793.11137 4.123266.3341101 5.68342.2227402 1.560155.3341102 2.563111.3341102 3.00887.4473005.448776.7231692 1.040293.7795905 1.671594.0866879.521547.04852 1.056231-.1113701 1.560154-.1456378.368608-.4454802.514337-.8909605.445759-.4454802-.077151-1.2593384-.702927-2.4501414-1.894474-2.373039-2.528822-5.4914008-6.086317-9.3550853-10.698202-4.0115479-4.830148-7.51936049-10.057812-10.46878596-15.601544-3.13594673-5.8464952-5.28108608-12.172959-6.34809361-18.7218538-1.11370063-6.6863762-.18847241-13.2956019 2.78425159-19.8362495 4.3515927-8.8987939 10.02113148-17.0890668 16.81687958-24.2938336 7.0868973-7.6052874 15.1806383-14.2043055 24.0559337-19.6133703 9.178777-5.5853769 19.0182413-10.00279808 29.2903266-13.1498733 10.5365022-3.26792541 21.4898015-4.9945226 32.5200585-5.12622178 10.991369-.3000297 20.046611.22287921 27.174295 1.56015446s13.030298 3.23174851 17.707841 5.6834198c4.677542 2.45167132 8.498392 5.16051092 11.471116 8.13509112s5.345763 5.9405881 7.127684 8.9151683c4.009322 5.4948297 5.902613 12.2583564 5.679873 20.2820079s-1.781921 16.9388198-4.677542 26.745505c-3.173643 10.6175556-6.777588 21.1015444-10.802896 31.4259687-4.421573 11.448521-8.765107 22.927067-13.030298 34.434837-4.38678 11.83117-8.398112 23.798349-12.027967 35.883553-3.549128 11.654083-5.900084 23.640247-7.016314 35.772113-1.036598 11.889748-.257008 20.839205 2.338772 26.856944 2.595779 6.017739 7.607432 9.026608 15.034958 9.026608 6.382361 0 12.362077-1.928762 17.93058-5.794859 5.568504-3.857525 10.725794-8.915169 15.480439-15.155787 4.754645-6.240617 9.166613-13.372752 13.253038-21.396403 4.086424-8.023652 7.907274-16.235894 11.471116-24.628153 3.563842-8.400832 6.827842-16.681651 9.800566-24.851032 2.972724-8.16938 5.645605-15.455815 8.018644-21.842162 2.527244-10.106715 5.123023-19.9134 7.795905-29.420055 2.672881-9.5152282 5.234393-18.4646856 7.684534-26.856945 2.450142-8.4008317 4.566173-16.0815921 6.348094-23.067998 1.781921-6.986406 3.118362-13.0727228 4.009322-18.2760951.745323-6.3863465.745323-10.9210812 0-13.5956317-.89096-2.0830633-.44548-3.1203089 1.336441-3.1203089s4.343432.7800772 7.684534 2.3402317 6.982046 3.6003564 10.914266 6.1291782c3.940787 2.5288218 7.573165 5.3148119 10.914267 8.3579703 3.341101 3.0431584 6.013983 6.1291782 8.018644 9.2494871 2.004661 3.120309 2.484409 5.9405882 1.447811 8.4694099-6.682204 20.0591288-12.619085 38.1466337-17.81921 54.2710875-4.979618 15.341992-9.326722 30.882369-13.030298 46.581754-3.505845 15.020167-6.330113 30.191494-8.464124 45.467359-2.150299 15.378665-3.59811 32.351774-4.343433 50.927899z"/><path d="m316.569783 197.037089c0 4.457584.034267 9.026608.11137 13.707071.077102 4.680464.702488 8.992319 1.893291 12.926994 1.190803 3.943248 2.827086 7.243575 4.900283 9.918125 2.081763 2.674551 5.123022 4.157555 9.132345 4.457584 4.754645.145729 9.42362-1.483004 14.032628-4.903342 4.918261-3.736122 9.269749-8.1654 12.918927-13.149873 4.009322-5.349101 7.718802-11.332551 11.137006-17.941777 3.418205-6.609225 6.605102-12.961283 9.577826-19.056172.745323-1.483004 1.713385-2.417382 2.895621-2.78599 1.184655-.371578 2.468852-.251109 3.563843.334319 1.190803.600059 2.150298 1.525865 2.895621 2.78599s.890961 2.78599.44548 4.569024c-2.227401 6.386346-5.234393 13.449903-9.020975 21.173524-3.744297 7.657731-8.219932 14.935179-13.364407 21.730723-4.814899 6.45541-10.556804 12.163349-17.03962 16.93882-6.236724 4.534735-12.764723 6.797816-19.601131 6.797816-6.236724 0-11.693857-1.302986-16.371399-3.900386-4.652515-2.579687-8.802392-5.977161-12.250707-10.029565-3.44235-4.010538-6.258472-8.519146-8.352755-13.372752-3.745313-8.623667-6.221212-17.745168-7.350424-27.079824-.377886-3.032664-.600916-6.082644-.668221-9.138048l.668221-14.487148c.299842-16.493061 2.081763-32.686093 5.345763-48.587667 3.263999-15.901575 7.761636-30.3887231 13.475777-43.4614459s12.473447-24.0709544 20.269352-32.9861228c7.795904-8.9151683 16.517037-14.8557564 26.171965-17.8303366 2.527244-.7457881 5.714141-.4800475 9.577825.7800772 3.855118 1.2601248 7.427527 3.1974594 10.691526 5.7948594 3.264 2.5974 6.048251 5.6491307 8.352755 9.1380476 2.304504 3.4889168 3.15263 6.9435445 2.561511 10.3638831-.745322 8.9151683-2.929889 18.3875347-6.570833 28.417099-3.714308 10.1988039-8.181428 20.107103-13.364408 29.642935-5.240535 9.685433-11.314619 18.895467-18.15332 27.525582-6.394508 8.18741-13.804476 15.52711-22.051273 21.842162l-6.236723 29.865814zm53.45763-146.2087603c-3.563842.8915168-7.316156 4.2004159-11.248376 9.9181248-3.940787 5.7177089-7.907275 13.1498732-11.916597 22.2879208-4.420269 10.2730079-8.213816 20.8048107-11.359747 31.5374077-3.692947 12.405615-6.814597 24.974383-9.355085 37.666586 4.754645-5.057643 9.389353-11.14396 13.921258-18.276095 4.565579-7.195913 8.802011-14.595705 12.696187-22.176481 3.940787-7.655043 7.350424-15.1900752 10.246046-22.6222395 2.895622-7.4321644 5.200125-14.0756792 6.904944-19.9476891 1.713386-5.8720099 2.638614-10.5096119 2.784252-13.9299505.145637-3.4203386-.745323-4.9033426-2.672882-4.4575842z"/><path d="m376.829554 211.969996c-.145638-4.311855.633952-11.109671 2.338771-20.393447 1.713386-9.283777 3.752315-19.759099 6.125354-31.425969 2.373039-11.658297 4.900282-23.882364 7.573164-36.66363 2.672881-12.772693 5.054487-24.6624411 7.127684-35.6606728-5.200125 1.0372456-10.357416 1.9287624-15.480439 2.6745505s-10.134676 1.7144555-15.034958 2.8974297c-1.927559.6000594-3.452472.7457881-4.566173.4457584s-1.524913-.9686673-1.225071-2.0059128c.299843-1.0372456 1.593449-2.4173822 3.897953-4.1232654 2.304503-1.7144554 5.756975-3.6775069 10.357415-5.906299 4.009323-1.9287624 8.018645-3.6775069 12.027967-5.2376614 4.009323-1.5601544 8.30992-3.0860198 12.918928-4.5690237.89096-6.832105 1.524913-12.4812357 1.893291-16.9388198.368378-4.4575842.11137-7.3550139-.779591-8.6922891-1.482078-2.0830634-.745322-3.0860198 2.227402-3.0088694 2.972724.0771505 6.605101 1.0029565 10.914266 2.7859901 4.309164 1.7830337 8.609762 4.2004159 12.918927 7.2435743s7.281889 6.6520871 8.909605 10.8096416c6.448309-1.0959831 12.956638-1.8030429 19.489761-2.1173525l23.276343-1.2258356c3.118362 0 7.050582.1114396 11.805227.3343188s9.689196.8143663 14.812219 1.7830336c5.123022.9686674 10.211778 2.2630812 15.257698 3.9003862 5.054488 1.6287327 9.50929 3.8575247 13.364408 6.6863762 3.70948 2.8288515 6.682204 5.5719802 8.909605 8.2465307s3.752314 5.0147822 4.566173 7.0206951c.813858 2.0059128 1.079432 3.5660673.77959 4.6804633-.299843 1.1143961-1.190803 1.2258357-2.672882.3343188-6.082518-2.9745802-13.253037-5.4948297-21.494422-7.577893-8.174887-2.0676854-16.469024-3.6307852-24.835524-4.6804634-7.725198-.9925694-15.492386-1.6247448-23.276343-1.8944733-7.19622-.2228792-12.88466-.0342891-17.03962.5571981-1.627716.4457584-4.643275.8572277-9.020975 1.2258356s-9.543558.8572277-15.480439 1.4487149c-.976732 7.1726227-2.202544 14.3090734-3.675212 21.3964043l-5.457133 26.968384c-1.927559 9.515227-3.940787 19.167612-6.013983 28.974297-1.946389 9.164143-3.839711 18.339491-5.679874 27.525582-1.713385 8.54656-3.229731 15.935863-4.566172 22.176481s-2.373039 10.543901-3.118362 12.926994c-.745323 3.711796-.77959 6.686376-.11137 8.915169.66822 2.228792 1.747653 3.900386 3.229732 5.014782 1.482078 1.114396 3.418204 1.783033 5.791243 2.005913 2.373039.222879 4.531905.111439 6.459464-.334319 2.672881-.60006 5.825511-2.674551 9.466455-6.240618 3.640945-3.566067 7.350424-8.057941 11.137006-13.484192 3.786583-5.426252 7.538897-11.2554 11.248377-17.496018s6.904944-12.335507 9.577825-18.276095c.745323-1.483004 1.670551-2.417382 2.784252-2.78599 1.185259-.365777 2.467179-.245522 3.563842.334319 1.259338.600059 2.304504 1.525865 3.118362 2.78599s1.00233 2.78599.55685 4.569024c-2.503594 7.071433-5.327898 14.025046-8.464125 20.839206-3.335592 7.362721-7.323734 14.411596-11.916597 21.062085-4.223392 6.201365-9.282892 11.78904-15.034958 16.604501-5.491401 4.534734-11.214109 7.020695-17.15099 7.466453-8.464125.60006-15.703179-.702927-21.717162-3.900386-6.013984-3.197459-10.879999-7.166424-14.589478-11.924038-3.70948-4.757613-6.270992-9.583806-7.684535-14.487148-1.413543-4.903343-2.193133-8.76944-2.338771-11.589719z"/><path d="m458.917857 226.680024c-.299842-6.386347.368378-13.972812 2.004662-22.733679 1.627716-8.76944 3.418204-17.461729 5.345763-26.076868 1.927558-8.615138 3.263999-16.458772 4.009322-23.513756s.22274-11.924038-1.559181-14.598588c-1.482079-2.374521-.514016-3.420339 2.895622-3.120309 3.418204.300029 7.427526 1.448715 12.027966 3.454627 4.8612 2.170592 9.366832 5.063511 13.364408 8.58085 4.309165 3.711796 6.682204 7.800772 7.127684 12.258356.145638 1.628733-.33411 4.603313-1.447811 8.915169l-3.786582 14.710027c-1.490861 5.803019-3.012941 11.597963-4.566172 17.384579-1.627717 6.086317-2.895622 11.701158-3.786583 16.82738-.89096 5.126222-1.302173 9.395216-1.22507 12.815554.077102 3.420339 1.079433 5.349101 3.006991 5.79486 2.672882.600059 5.714141-.857228 9.132346-4.346145 3.418204-3.488917 6.793573-7.946501 10.134675-13.372752 3.341102-5.426252 6.682204-11.44399 10.023306-18.053216s6.493731-12.815555 9.466455-18.610414c.599685-1.483004 1.482079-2.417382 2.672882-2.78599 1.147053-.375266 2.398617-.254071 3.452472.334319 1.113701.600059 2.116031 1.525865 3.006992 2.78599.89096 1.260125 1.1137 2.78599.66822 4.569024-1.336441 4.157554-2.929889 8.658-4.788913 13.484192-3.898721 10.075022-8.707548 19.773283-14.366738 28.974297-2.827086 4.534734-5.936881 8.503699-9.355085 11.924037-3.203857 3.250502-6.794582 6.094935-10.691526 8.46941-3.507058 2.161734-7.476538 3.460258-11.582487 3.788947-5.345763.300029-9.877668-.60006-13.587148-2.674551-3.608673-1.994705-6.818015-4.639342-9.466455-7.800772-2.42845-2.845365-4.417991-6.03813-5.902613-9.472366-1.336441-3.19746-2.081764-5.829149-2.227402-7.912212zm26.283335-95.392301c-2.827086-1.483004-4.60044-2.828852-5.345763-4.011826-.745322-1.191547-.968063-3.043158-.66822-5.57198 0-2.674551.188472-5.940588.55685-9.806685.368378-3.857525.968063-7.689333 1.781921-11.47828.813858-3.7889461 1.893291-7.2864352 3.229732-10.4753223 1.336441-3.1974594 3.118362-5.3148119 5.345763-6.3520574 1.336441-1.0372456 3.940787-1.1143961 7.795905-.2228792 3.855117.8915168 7.795904 2.1945029 11.805226 3.9003861 4.009323 1.7144555 7.538897 3.6775069 10.580156 5.906299 3.04126 2.2287921 4.643275 4.234705 4.788913 6.0177386-7.281889 5.6491312-12.550549 13.0041442-15.814549 22.0650412-1.927559 5.349101-4.643275 9.103759-8.130015 11.2554-3.486739 2.151642-8.798235 1.748745-15.925919-1.225835z"/><path d="m551.029467 241.167172c-.745323 2.828852-1.336441 5.126222-1.781921 6.909256-.29174 1.347888-.740277 2.656938-1.336441 3.900386-.302328.627734-.717612 1.194383-1.225071 1.671594-.416401.311972-.928166.469537-1.447811.445758-3.709479 0-7.050581-1.114396-10.023305-3.343188-2.95663-2.215503-5.581784-4.842297-7.795905-7.800772-2.065426-2.643969-3.580203-5.675415-4.454802-8.915168-.745323-2.974581-1.036599-5.271951-.890961-6.909256 1.036599-5.794859 2.595779-13.038433 4.677543-21.730723 2.081763-8.692289 3.975054-17.496017 5.679873-26.411186 1.713386-8.915168 3.084094-17.195988 4.120692-24.851031 1.036599-7.655044 1.036599-13.407042 0-17.273139-.299842-1.628733.368378-2.48596 2.004662-2.563111 1.627716-.07715 3.709479.30003 6.236723 1.114396s5.457133 2.083063 8.798235 3.788947c3.341102 1.714455 6.459464 3.643217 9.355085 5.794859 2.895622 2.151642 5.200126 4.423295 6.904944 6.797816 1.713386 2.374521 2.561512 4.757614 2.561512 7.132135-.420067 1.496372-.718033 3.024399-.890961 4.569023-.372067 2.463828-.968524 4.888449-1.781921 7.243575 5.054488-9.660957 10.914267-17.684608 17.59647-24.070955 6.682204-6.386346 14.846486-9.215198 24.501414-8.46941 11.282644 1.037246 19.155651 6.763527 23.610454 17.161699 1.190803 2.528822 1.859023 5.57198 2.004661 9.138048.145638 3.566067 0 7.577893-.44548 12.035477 2.827086-5.649131 5.714141-10.886792 8.686865-15.712984 2.759762-4.565488 6.09066-8.759798 9.911935-12.481236 3.473303-3.379448 7.505021-6.131777 11.916597-8.135091 4.309165-1.928762 9.132345-2.67455 14.478108-2.228792 11.137006 1.037246 19.078549 6.763527 23.833194 17.161699 1.781921 4.457584 2.415873 9.995275 1.893291 16.604501-.565524 6.884144-1.720588 13.707007-3.452472 20.393448-1.715496 6.758065-3.684425 13.449171-5.902614 20.059128-2.150298 6.386347-3.529574 11.589719-4.120692 15.601545-.599685 3.711796-.44548 6.463497.44548 8.24653.890961 1.783034 2.081764 2.89743 3.563842 3.343189 1.482079.445758 3.195465.111439 5.123023-1.002957 1.927559-1.114396 3.70948-2.708839 5.345763-4.791903 1.781921-2.528822 4.04359-5.87201 6.793574-10.029564 2.741417-4.157555 5.714141-8.546561 8.909605-13.149873 3.195464-4.603313 6.082519-9.326638 8.686865-14.15283 2.595779-4.826192 4.711811-9.249487 6.348094-13.261313.745323-1.483004 1.627716-2.417382 2.672881-2.78599 1.148389-.362855 2.394929-.242147 3.452472.334319 1.302639.628385 2.416663 1.58935 3.229732 2.78599.890961 1.260125 1.036598 2.78599.44548 4.569024-2.081763 6.386346-4.788912 13.372752-8.130014 20.950645s-7.161952 14.710028-11.471117 21.396404c-3.955706 6.271715-8.752168 11.97107-14.255368 16.93882-5.200125 4.603313-10.837164 7.054984-16.928249 7.355014-8.309921.300029-15.626077-2.005913-21.939903-6.909256-6.137074-4.621553-10.311608-11.384542-11.693857-18.944732-1.036598-2.974581-1.147968-6.797816-.33411-11.47828.813858-4.680463 1.781921-9.729534 2.895622-15.155786 1.1137-5.426251 2.304503-10.921081 3.563842-16.493061 1.163614-5.049385 2.129558-10.142347 2.895622-15.267226.66822-4.603313.77959-8.28082.33411-11.032521-.445481-2.743128-1.781921-4.123265-4.009323-4.123265-2.672881 0-5.791243 1.783034-9.355085 5.349101s-7.316156 8.057941-11.248376 13.484192c-3.940787 5.426252-7.538897 11.289689-10.802896 17.607458-3.264 6.317768-6.082519 12.224067-8.464125 17.718897-1.781921 6.086316-3.452472 11.924037-5.011653 17.496017-1.559181 5.571981-2.929889 10.286733-4.120692 14.15283-1.482079 5.794859-2.450142 9.429505-2.895622 10.921081-.44548 1.483004-1.190803 2.228792-2.227401 2.228792-4.009323 0-7.538897-1.114396-10.580156-3.343188-2.990956-2.175585-5.621677-4.807949-7.795905-7.800772-2.008446-2.679601-3.517527-5.699647-4.454802-8.915168-.813858-2.974581-1.079433-5.271951-.779591-6.909256 1.627717-9.215198 3.640945-18.498974 6.013984-27.859901s4.15496-18.944732 5.345763-28.751418c.44548-4.457584.479748-8.100802.11137-10.921081-.368378-2.828851-1.747654-4.234705-4.120693-4.234705-2.672881 0-5.756975 1.817323-9.243715 5.460541s-7.161952 8.246531-11.025636 13.818511c-3.855118 5.57198-7.607432 11.512568-11.248377 17.830336-3.341248 5.72986-6.353132 11.645768-9.020975 17.718897z"/><path d="m787.922158 138.865616c6.082519.445758 10.991369 3.043158 14.700849 7.800772-.299843-3.266038-.745323-5.57198-1.336441-6.909255-1.190803-1.628733-1.113701-2.563111.22274-2.78599 1.336441-.22288 3.418204-.077151 6.236724.445758 2.827086.514337 5.979715 1.560154 9.466455 3.120309 3.48674 1.560154 6.716471 3.343188 9.689195 5.349101s5.422866 4.346144 7.350425 7.020695c1.927558 2.67455 2.895621 5.349101 2.895621 8.023651-.145638 1.483004-.925228 4.423295-2.338771 8.803729l-4.900283 15.267226c-1.924634 6.022619-3.743956 12.078429-5.457133 18.164655-1.661512 5.797928-3.03674 11.674194-4.120692 17.607458-.968063 5.426251-1.370709 9.995275-1.225071 13.707071s1.482079 5.717709 4.009322 6.017739c2.527244.600059 5.491401-1.002957 8.909605-4.791903 3.418205-3.788947 6.939212-8.615139 10.580156-14.487149 3.640945-5.87201 7.316157-12.258356 11.025637-19.167612 3.709479-6.909255 6.982046-13.261313 9.800565-19.056172.745323-1.628733 1.627717-2.5974 2.672882-2.89743 1.166339-.283314 2.396205-.124522 3.452472.445759 1.259338.600059 2.304503 1.525865 3.118361 2.78599.835595 1.366698 1.114675 3.002329.779591 4.569024-2.227401 6.386346-4.900283 13.372752-8.018645 20.950645-3.071586 7.489801-6.876729 14.656894-11.359746 21.396404-4.092455 6.267539-8.998488 11.963589-14.589478 16.93882-5.268661 4.603313-10.948534 7.054984-17.03962 7.355014-3.686505.17755-7.368669-.430196-10.802896-1.783034-3.206348-1.259554-6.208745-2.98701-8.909605-5.126222-2.510309-1.984065-4.690507-4.353689-6.459464-7.020695-1.530301-2.24691-2.765501-4.681398-3.675212-7.243574-2.426027 5.133502-5.617989 9.86807-9.466455 14.04139-3.640945 3.857525-8.130015 5.940588-13.475778 6.240618-5.959118.143724-11.809531-1.612496-16.70551-5.014782-5.200125-3.488917-9.466455-8.46941-12.807557-14.932907s-5.268661-14.187119-5.791243-23.179438c-.514016-8.992319 1.00233-18.979022 4.566172-29.977253 1.627717-5.79486 3.82085-11.289689 6.570834-16.493062 2.644759-5.064948 6.106605-9.658524 10.246046-13.595631 4.074578-3.857512 8.833845-6.918951 14.032628-9.026608 5.268661-2.151642 11.325479-3.00887 18.15332-2.563111zm-20.937572 102.524435c3.118362-.145728 5.825511-1.525865 8.130015-4.123265s4.531905-5.983449 6.682204-10.141004c2.32451-4.551817 4.370074-9.240944 6.125353-14.04139 1.927559-5.203372 4.009323-10.698202 6.236724-16.493061 1.036598-5.057644 2.116031-10.141004 3.229732-15.267226 1.1137-5.126222 2.116031-9.995275 3.006991-14.598588 0-1.783034.034268-3.754658.11137-5.906299.087846-1.979505-.061714-3.96241-.44548-5.906299-.299605-1.625754-.987338-3.155005-2.004661-4.457584-.968063-1.191547-2.484409-1.783034-4.566173-1.783034-2.373039 0-4.866015 1.148685-7.461794 3.454628-2.595779 2.305942-5.311495 5.349101-8.130014 9.138047-2.827087 3.788947-5.534236 8.100802-8.130015 12.926994-2.540843 4.70048-4.736906 9.579529-6.570834 14.598588-2.227401 6.086317-3.752314 12.292646-4.566172 18.610414-.806476 5.685842-.918671 11.448742-.334111 17.161699.599685 5.126222 1.627717 9.249487 3.118362 12.369796 1.482079 3.120309 3.341102 4.603313 5.568503 4.457584z"/><path d="m860.878117 211.969996c-.145638-4.311855.633952-11.109671 2.338771-20.393447 1.713386-9.283777 3.752314-19.759099 6.125353-31.425969 2.37304-11.658297 4.900283-23.882364 7.573165-36.66363 2.672881-12.772693 5.054487-24.6624411 7.127684-35.6606728-5.200125 1.0372456-10.357416 1.9287624-15.480439 2.6745505s-10.134676 1.7144555-15.034959 2.8974297c-1.927558.6000594-3.452471.7457881-4.566172.4457584s-1.524913-.9686673-1.225071-2.0059128c.299843-1.0372456 1.593449-2.4173822 3.897952-4.1232654 2.304504-1.7144554 5.756976-3.6775069 10.357416-5.906299 4.009323-1.9287624 8.018645-3.6775069 12.027967-5.2376614 4.009322-1.5601544 8.30992-3.0860198 12.918927-4.5690237.757895-5.6313606 1.389151-11.2790612 1.893292-16.9388198.368377-4.4575842.11137-7.3550139-.779591-8.6922891-1.482078-2.0830634-.745323-3.0860198 2.227401-3.0088694 2.972724.0771505 6.605102 1.0029565 10.914267 2.7859901 4.309164 1.7830337 8.609762 4.2004159 12.918927 7.2435743s7.281889 6.6520871 8.909605 10.8096416c6.448309-1.0959831 12.956638-1.8030429 19.489761-2.1173525l23.276343-1.2258356c3.118362 0 7.050582.1114396 11.805227.3343188s9.689196.8143663 14.812218 1.7830336c5.123023.9686674 10.211779 2.2630812 15.257699 3.9003862 5.05449 1.6287327 9.50929 3.8575247 13.36441 6.6863762 3.70948 2.8288515 6.6822 5.5719802 8.9096 8.2465307s3.75232 5.0147822 4.56618 7.0206951c.81385 2.0059128 1.07943 3.5660673.77959 4.6804633-.29985 1.1143961-1.19081 1.2258357-2.67289.3343188-6.08251-2.9745802-13.25303-5.4948297-21.49442-7.577893-8.17489-2.0676854-16.469022-3.6307852-24.835522-4.6804634-7.725198-.9925694-15.492386-1.6247448-23.276343-1.8944733-7.19622-.2228792-12.88466-.0342891-17.03962.5571981-1.627716.4457584-4.643275.8572277-9.020975 1.2258356s-9.543558.8572277-15.480439 1.4487149c-.976732 7.1726227-2.202544 14.3090734-3.675212 21.3964043l-5.457133 26.968384c-1.963036 9.666703-3.967716 19.324891-6.013983 28.974297-1.946391 9.164143-3.839714 18.339491-5.679874 27.525582-1.713385 8.54656-3.229732 15.935863-4.566172 22.176481-1.336441 6.240618-2.373039 10.543901-3.118362 12.926994-.745323 3.711796-.779591 6.686376-.11137 8.915169.66822 2.228792 1.747653 3.900386 3.229732 5.014782 1.482078 1.114396 3.418204 1.783033 5.791243 2.005913 2.373039.222879 4.531905.111439 6.459464-.334319 2.672881-.60006 5.825511-2.674551 9.466455-6.240618s7.350424-8.057941 11.137006-13.484192c3.786583-5.426252 7.538897-11.2554 11.248377-17.496018s6.904944-12.335507 9.577825-18.276095c.745323-1.483004 1.670551-2.417382 2.784252-2.78599 1.185259-.365777 2.467179-.245522 3.563842.334319 1.259338.600059 2.304503 1.525865 3.118362 2.78599.813858 1.260125 1.00233 2.78599.55685 4.569024-2.503594 7.071433-5.327898 14.025046-8.464125 20.839206-3.335592 7.362721-7.323734 14.411596-11.916597 21.062085-4.223392 6.201365-9.282892 11.78904-15.034958 16.604501-5.491401 4.534734-11.214109 7.020695-17.15099 7.466453-8.464125.60006-15.703179-.702927-21.717162-3.900386-6.013984-3.197459-10.879999-7.166424-14.589479-11.924038-3.709479-4.757613-6.270991-9.583806-7.684534-14.487148-1.413543-4.903343-2.193134-8.76944-2.338771-11.589719z"/><path d="m995.08761 240.498535c6.16444-.215594 12.09747-2.402814 16.92825-6.240618 5.06405-4.041668 9.46122-8.855253 13.0303-14.264269 3.78658-5.649131 7.16195-11.658298 10.13467-18.053216 2.97273-6.386347 5.71414-12.258357 8.24139-17.607458.59968-1.191546 1.59345-1.714455 3.00699-1.560154 1.41354.145729 2.82709.600059 4.23206 1.337275 1.41354.745788 2.48441 1.714455 3.22973 2.89743.74533 1.191546.89096 2.305942.44548 3.343188-.89096 2.374521-2.19313 5.537691-3.89795 9.472366-1.71338 3.943248-3.75231 8.28082-6.12535 13.038434-2.5303 5.016171-5.39528 9.856168-8.5755 14.487148-3.3411 4.903343-7.05058 9.395216-11.137 13.484192-3.99079 4.017657-8.57296 7.400054-13.58715 10.029565-4.96882 2.5974-10.28031 3.900386-15.92592 3.900386-8.609763.145729-15.960187-1.260125-22.051273-4.234705-6.082518-2.97458-10.948534-6.986406-14.589478-12.035477-3.716328-5.225222-6.365576-11.132947-7.795904-17.384578-1.569492-6.640906-2.243698-13.462125-2.004662-20.282008.222741-6.986406 1.259339-13.887089 3.118362-20.727767 1.7647-6.60994 4.346121-12.973934 7.684535-18.944732l.22274-.22288c4.60044-8.023651 9.834833-13.8528 15.703179-17.496017 5.868345-3.643218 11.770959-5.60627 17.70784-5.906299 5.75718-.340239 11.487741 1.015807 16.482771 3.900386 5.05449 2.897429 9.20945 6.943544 12.47345 12.146917 2.97272 4.157554 4.48907 8.580849 4.56617 13.261312.0652 4.748328-.57282 9.480135-1.89329 14.041391-1.4308 4.868898-3.73261 9.437626-6.79358 13.484192-3.19546 4.311855-6.93921 8.05794-11.24837 11.2554-4.33384 3.209628-9.094509 5.797748-14.144002 7.689332-5.156911 1.937351-10.642931 2.845949-16.148659 2.674551-.145638 3.566067.034268 6.909255.556851 10.029564.514015 3.120309 1.524913 5.79486 3.006991 8.023652 1.482079 2.228792 3.452472 3.943247 5.902614 5.126221 2.450141 1.191547 5.534235 1.628733 9.243715 1.337276zm-15.814549-36.77507c7.427526.145729 13.698518-1.483004 18.821541-4.903342 4.884198-3.158765 8.903548-7.487049 11.693858-12.592675 2.67288-4.971921 4.30916-10.141004 4.90028-15.490105.59969-5.349101.22274-9.840975-1.1137-13.484193-1.33644-3.643217-3.4182-5.829148-6.23672-6.574936-2.82709-.745788-6.53657 1.037245-11.137009 5.349101-2.527244 2.228792-4.677543 5.349101-6.459464 9.360927-1.781921 4.011825-3.341102 8.212241-4.677543 12.592675-1.336441 4.380433-2.484409 8.838018-3.452472 13.372752-.884362 4.10274-1.664205 8.227341-2.338771 12.369796z"/></g></svg>