<svg height="72" width="227" xmlns="http://www.w3.org/2000/svg"><g fill="none"><path d="m34.23 0-34.23 12 5.312 44.241 28.918 15.759 29.066-15.759 5.164-44.241zm16.082 48.723-3.098-8.096-4.721.144a26.307 26.307 0 0 1 -3.099 4.193c-1.328 1.446-2.656 2.313-4.426 3.036-1.918.867-3.541 1.301-6.345 1.301-2.803 0-5.164-.867-6.639-1.735-1.475-.867-2.803-1.88-3.836-3.325-.738-1.012-1.328-1.88-1.77-2.892-.148-.578-.59-1.59-.59-1.735-.296-1.156-.591-1.88-.591-4.626v-14.747h3.984v14.747c.147 1.012.442 3.036.59 3.904.147.578.147.722.442 1.445.296.723.59 1.302 1.18 1.88.739.867 1.476 1.59 2.51 2.169 1.032.578 2.655 1.3 4.72 1.3 3.394 0 5.755-1.59 7.82-3.325.886-.867 1.918-2.602 2.804-4.192.147-.434.59-1.302.59-1.302h6.197l-4.574-12-7.377 13.88h-3.984v-18.65h3.984v10.12l5.311-10.12h4.427l10.77 28.626z" fill="#fff" opacity=".8"/><path d="m38.824 39c.135-.45.54-1.35.54-1.35h5.676l-4.19-12.45-6.62 14.1v5.7c.675-.45 1.35-1.05 2.026-1.65.81-.9 1.756-2.7 2.567-4.35z" fill="#f3f2f4" opacity=".4"/><path d="m34.23 0v29.928l5.164-9.832h4.427l10.77 28.627h-4.279l-3.098-8.096-4.721.144a26.307 26.307 0 0 1 -3.099 4.193c-1.328 1.446-2.656 2.313-4.426 3.036-.295.145-.443.29-.738.29v23.71l29.066-15.759 5.164-44.241z" fill="#f3f2f4" opacity=".7"/><path d="m82.873 21.512c0 2.305 1.908 3.688 4.257 3.688 2.642 0 4.698-1.69 5.138-4.456l1.468-7.99h-2.056l-1.468 7.683c-.44 1.69-1.468 2.612-3.083 2.612-1.468 0-2.202-.615-2.202-1.998v-.614l1.468-7.683h-2.055l-1.468 7.99v.768zm11.303 3.534h7.193l.44-1.997h-5.137l1.908-10.295h-2.055zm11.304 0h2.055l1.908-10.295h3.964l.293-1.997h-9.688l-.588 1.844h3.67zm7.486 0h2.055l2.202-12.292h-2.055zm4.698 0h2.055l1.908-6.914c.147-.922.44-1.998.44-1.998s.147 1.23.147 1.998l1.028 4.763h1.908l2.643-4.763c.44-.615 1.027-1.998 1.027-1.998s-.147 1.076-.44 1.998l-.881 6.914h2.055l1.175-12.292h-2.202l-3.524 5.992c-.44.615-.88 1.69-.88 1.69s0-1.075-.147-1.69l-1.174-5.992h-2.202c-.147 0-2.936 12.292-2.936 12.292zm15.56 0 1.615-3.226h4.11l.44 3.226h2.056l-1.909-12.292h-2.348l-6.166 12.292zm2.496-5.07 1.614-3.227c.44-.615.881-1.998.881-1.998s0 1.23.147 1.998l.44 3.227zm9.395 5.07h2.055l1.908-10.295h3.964l.44-1.997h-9.689l-.44 1.997h3.67c0-.153-1.908 10.295-1.908 10.295zm7.486 0h7.193l.44-1.997h-5.137l.587-3.227h3.963l.44-1.998h-3.963l.587-3.226h4.991l.44-1.998h-7.339c0 .154-2.202 12.446-2.202 12.446zm-60.551 28.51h3.937l-7.291-21.005h-3.937l-7.29 21.005h3.936l1.75-5.325h7.29zm-5.395-17.306s.437 2.071.875 3.255l1.895 5.62h-5.395l1.896-5.62c.291-1.184.729-3.255.729-3.255zm11.955 17.306h3.792v-12.13c0-1.183-.146-3.254-.146-3.254s.875 2.071 1.75 3.255l7.874 12.13h3.79v-21.007h-3.936v12.13c0 1.183.146 3.254.146 3.254s-.875-2.07-1.75-3.254l-7.874-12.13h-3.646v21.005zm20.706-10.502c0 6.656 4.666 10.946 10.207 10.946 3.792 0 5.979-2.219 5.979-2.219v1.923h3.208v-11.094h-6.562v3.254h3.208v2.515s-2.041 2.219-5.25 2.219c-3.936 0-6.999-2.959-6.999-7.544 0-3.994 2.48-7.248 7.145-7.248 3.354 0 5.541 2.07 5.541 2.07l1.896-2.81s-2.625-2.663-7.728-2.663c-6.124-.148-10.645 4.586-10.645 10.65zm23.33 2.958c0 4.734 3.354 7.84 8.312 7.84s8.312-3.254 8.312-7.84v-13.46h-3.792v13.46c0 2.81-1.895 4.438-4.666 4.438-2.77 0-4.52-1.627-4.52-4.438v-13.46h-3.791l.146 13.46c-.146 0 0 0 0 0zm21.581 7.544h12.686v-3.254h-8.894v-17.75h-3.792zm27.851 0h3.937l-7.29-21.005h-4.083l-7.291 21.005h3.937l1.75-5.325h7.29zm-5.395-17.307s.437 2.071.875 3.255l1.895 5.62h-5.395l1.896-5.62c.292-1.184.729-3.255.729-3.255zm11.957 17.307h3.791v-7.84h3.645l4.083 7.84h4.229l-4.229-7.84c-.437-.74-.729-1.035-.729-1.035 2.187-.888 3.5-3.254 3.5-5.77 0-2.81-1.313-4.733-3.354-5.768-.875-.444-1.896-.592-4.229-.592h-6.707zm3.645-11.094v-6.508h2.917c2.916 0 3.79 1.183 3.79 3.254 0 2.07-1.312 3.254-3.207 3.254zm13.905-9.136v-.926h4.443v.926h-1.63v4.474h-1.036v-4.474zm6.664-.926 1.333 3.857 1.332-3.857h1.481v5.4h-.888v-4.32l-1.481 4.32h-.74l-1.481-4.32v4.32h-.889v-5.4z" fill="#fff"/></g></svg>