<svg height="480" width="640" xmlns="http://www.w3.org/2000/svg"><path d="m0 0h640v480h-640z" fill="#cd2a3e"/><path d="m0 72h640v336h-640z" fill="#006233"/><g fill="#ffc400"><path d="m470 154.6c-.4 82.48-67.44 149.2-150 149.2s-149.6-66.72-150-149.2a154.864 154.864 0 0 0 -5.04 39.2c0 85.6 69.36 155.04 155.04 155.04s155.04-69.36 155.04-155.04c0-13.52-1.76-26.72-5.04-39.2z"/><path d="m320 93.8-13.472 41.457-43.591.002 35.265 25.624-13.469 41.458 35.267-25.621 35.267 25.62-13.469-41.457 35.265-25.624-43.591-.002z"/></g></svg>